<svg xmlns="http://www.w3.org/2000/svg" viewBox="0 0 561.47 332.47"><defs><style>.cls-1,.cls-2{fill:#1d1d1b;}.cls-2,.cls-3{stroke:#fff;stroke-miterlimit:10;stroke-width:0.1px;}.cls-3{fill:#fff;}</style></defs><title>Asset 21</title><g id="Layer_2" data-name="Layer 2"><g id="Layer_1-2" data-name="Layer 1"><path d="M108.3,213.65c0-.89-.08-1.46,0-2a5.83,5.83,0,0,1,.4-2.33,8,8,0,0,0,1.13-3.78,16.94,16.94,0,0,1,.28-2.81,7.78,7.78,0,0,1,.92-2.51,60.66,60.66,0,0,1,4.25-6.17c2.85-3.44,5.78-6.84,8.86-10.07q29.45-30.92,59-61.77,15.42-16.15,30.8-32.33c.46-.48.89-1,1.35-1.48a7,7,0,0,0,2.07-6.55q-1.11-5.42-2.22-10.83-3.4-16.73-6.8-33.46c-.33-1.62-.63-3.24-1-4.83-.28-1.08-.08-1.72,1.09-2q3.34-.68,6.66-1.44c1.23-.28,1.67.27,1.89,1.42,1.25,6.39,2.55,12.78,3.85,19.16s2.6,12.6,3.9,18.9c.13.61.3,1.22.48,1.82,1.23,4.12,3.67,6,8,5.72,6.42-.39,12.83-1,19.25-1.48,14.24-1.15,28.47-2.37,42.72-3.48,9.54-.74,19.09-1.41,28.64-2,8.81-.5,17.63-.87,26.45-1.16,9.18-.31,18.36-.49,27.54-.65,5.22-.09,10.44,0,15.66,0a8.15,8.15,0,0,0,4.59-1.3,11,11,0,0,1,6.65-1.66c1.41.08,2.84-.67,4.29-.83a4.9,4.9,0,0,1,2.28.53,2.12,2.12,0,0,1,.87,1q2,4.22,3.86,8.47a2.74,2.74,0,0,1,.33,1.47c-.44,2.41.22,4.69.69,7,1.71,8.38,3.45,16.75,5.18,25.13.08.38.13.78.23,1.15.31,1.22.3,2.29-1.34,2.81,1.69-.28,1.81.74,2,1.85.29,1.86.59,3.72,1.06,5.54.37,1.44,1.12,2.79,1.46,4.24a9.09,9.09,0,0,1-.19,2.59,4.06,4.06,0,0,0,0,1.15c1.17,5.29,2.16,10.62,3.57,15.84,5.13,19.11,10.29,38.2,15.64,57.25,2.54,9.06,5.49,18,8.32,27,.59,1.86,1.52,3.61,2.27,5.42a16.88,16.88,0,0,1,1,2.64,3.39,3.39,0,0,1-1,3.24c-1-2.57-2.34-.14-3.47-.53-.09.15-.16.22-.16.28,0,.45,0,.89,0,1.34-.47-.12-1.11-.09-1.38-.39a12.62,12.62,0,0,1-2.6-3.38c-1.09-2.72-1.73-5.62-2.76-8.37-3.45-9.27-7.1-18.46-10.47-27.76q-9.76-26.9-19.29-53.88c-2.54-7.18-4.88-14.42-7.26-21.65-.82-2.5-1.53-5-2.2-7.57a6.43,6.43,0,0,1,.18-2c-1.74-.53-3.42.37-4.88,1.64-3.14,2.73-6.23,5.52-9.29,8.35-22.35,20.66-44.76,41.26-67,62-14.1,13.16-27.95,26.58-41.93,39.86-6.09,5.79-12.19,11.57-18.37,17.27A33.17,33.17,0,0,1,258,248c-3.07,1.71-6.39,1-9.62.13-15-4.13-29.51-9.87-44.25-14.87-24.23-8.23-48.39-16.66-72.59-25-2.86-1-5.74-1.88-8.61-2.83a1.38,1.38,0,0,0-1.48.2,2.18,2.18,0,0,1-1.79.23,2.06,2.06,0,0,0-1.87,0,3.4,3.4,0,0,1-1.25.31c-1.59.15-1.68.27-2,1.92a22.91,22.91,0,0,1-1,3.86C112.68,214.17,109.77,214.88,108.3,213.65Zm152.56,10.16a8.42,8.42,0,0,0,6.29-2.47c4.49-4,9-8,13.29-12.17,14.16-13.83,28.32-27.65,42.32-41.65C337.95,152.34,353,137,368,121.66c7.92-8.07,15.73-16.25,23.59-24.38a20.52,20.52,0,0,0,5.77-11.1c.51-3,0-4-3.15-4.52l-.35,0c-3.8-.3-7.59-.7-11.39-.88-8-.39-16.08-.79-24.12-1-8.74-.18-17.49-.16-26.24-.14q-10.05,0-20.1.31c-7.05.2-14.1.45-21.15.86q-12,.69-23.94,1.72c-7.62.64-15.23,1.42-22.84,2.25A71.68,71.68,0,0,0,234,86.35c-4.24,1.09-5.6,3.33-4.9,7.61s1.66,8.47,2.53,12.69q5.27,25.49,10.56,51c1.46,7,3,14,4.45,21.07,2.17,10.36,4.3,20.74,6.48,31.1a40.12,40.12,0,0,0,3.7,10.89C257.72,222.31,258.94,223.62,260.86,223.81ZM236,229.11l.07-.36c.7.07,1.41.16,2.11.19.86,0,1.73,0,2.59,0,2.07,0,3.27-1,3.51-3a41.47,41.47,0,0,0-.65-12.76c-2.25-11.75-4.59-23.48-6.87-35.22q-6-30.93-12-61.86c-1.27-6.51-2.69-13-4.08-19.47-.64-3-2-3.57-4.45-1.73a51.13,51.13,0,0,0-6.25,5.35q-31.85,33.12-63.6,66.33c-7.79,8.15-15.49,16.37-23.2,24.59-2.21,2.35-1.8,4.81,1,6.39a22.32,22.32,0,0,0,3.53,1.61c9.79,3.4,19.53,7,29.41,10.08,18,5.69,36.08,10.94,54.5,15C219.75,226,227.9,227.5,236,229.11Zm22.15,10.77a5,5,0,0,0-3.32-5.36,3.69,3.69,0,0,0-2.55.08,5,5,0,0,0-2.12,6.79,4.81,4.81,0,0,0,4.52,2.85c1.19,0,2.71-1.49,3.22-3.1A11.29,11.29,0,0,0,258.17,239.88ZM111.06,212.43c.73.05,1.27-.54,1.34-1.46a1.44,1.44,0,0,0-1.29-1.64,1.76,1.76,0,0,0-1.65,1.54C109.4,211.56,110.22,212.37,111.06,212.43Zm-1.47-3c.94-1,2-.78,3.24-.07C111.68,208.1,110.65,208.17,109.59,209.44Z"/><path d="M253.23,4.33a7.93,7.93,0,0,0-.84-.28,16.76,16.76,0,0,0-4.73-.38C224.73,4.09,202,8.51,179,8.24c-4.14,0-8.87-.24-12.51,2.08-2.4,1.52-.41,2.81,1.31,4.2a36.1,36.1,0,0,0,5.9,3.6c4.53,2.39,9.12,4.79,14.07,6.1,3.28.87,6.69,1.24,9.95,2.2s6.47,2.63,8.37,5.45a3.64,3.64,0,0,0,1.14,1.28,3.09,3.09,0,0,0,1.7.2l3.68-.25c1.88-.13,4-.41,5.16-1.85.19-.26-.31-1.16-.29-1.49a3.69,3.69,0,0,1,.93-2.07c4.94-6.43,10.62-14.13,19.62-14.25,3.7-.12,7.34,1.4,11,1s6.9-2.73,9.89-5C257.36,7.42,255.64,5.29,253.23,4.33ZM210.46,19.42l11.86-3.57C220,20.44,217,23.15,210.46,19.42Zm-12.61.18c-4.21.86-9.27-2.39-13.94-3.77,7.31-.5,14.23-.49,21-1.59s13.46-3.32,20.19-5l.37,1.37C216.27,13.71,207.27,17.67,197.85,19.6Z"/><path d="M444.1,332.05c-58.49-6.18-102.84-56-96.81-116.8,6-60.5,58.71-101.46,117.37-95.6,60,6,102.6,58.07,96.16,117.59C554.32,297.3,501.55,337,444.1,332.05Zm8.16-102.69a12.87,12.87,0,0,0-2.54.42c-2.37.89-3.22,2.66-2.33,5,.83,2.19,2.57,3.1,4.75,2.15s2.77-3,1.85-5.28a11.58,11.58,0,0,0-1.76-2.35l6.7-5.59c-4.7-3.64-4.7-3.64-5.83-3.37Zm26.89-5.82c-.06-.45-.09-1.29-.2-1.3-3.34-.34-6.68-.66-10-.8-.47,0-1.34.89-1.37,1.4s.71,1.25,1.28,1.51c3.58,1.59,7,.86,10.36-.85l-2.31,2.35c8.48,3.43,16.13,2.5,22.36-2.85C492.35,223,485.72,220.56,479.16,223.54Zm9.74-40.45a53.93,53.93,0,0,1,3.74-4.13c7-6.38,14.18-12.67,21.24-19.05,3.05-2.76,3-3.55-.22-6.08s-6.6-4.87-10.71-7.89l-18.27,39.37,3-1.16c-5.3,5-7.85,11.5-9.85,18.5l52.52-31.8L518.72,158a43.76,43.76,0,0,0-4.41,3c-4.4,3.9-8.65,8-13.07,11.83C497.21,176.32,493,179.67,488.9,183.09Zm-11.53,59.86,3.56,3.34c3.67,4.26,7.31,8.54,11,12.75a8,8,0,0,0,2.62,2.06q18,7.9,36.17,15.62c.91.38,2.85.24,3.21-.34,2.55-4.06,4.8-8.31,7.38-12.91-2.44-1-4.1-1.82-5.87-2.3-15.56-4.24-31.15-8.4-46.7-12.66a27.56,27.56,0,0,1-4.36-2c10.28,2.63,20.58,5.2,30.84,7.9,7.37,1.94,14.7,4,22,6.09,3.11.87,5.31.43,6.08-3.25a67.42,67.42,0,0,1,2.51-8.62c1.06-3-.28-4-2.94-4.62-14.43-3.52-28.83-7.18-43.26-10.72-4.35-1.07-8.87-3-13.11-2.59-5,.51-9.86,3.16-15.17,5l6,7.32c-2-1.71-3.84-3.5-5.88-5.1a14.69,14.69,0,0,0-3.08-1.44l-.59,1.15c5.61,8.54,8.62,19.71,21.4,20.66a46.06,46.06,0,0,0-15-14.17Zm27.43-34.42-14.46,9.27c-1.37.88-2.76,1.73-4.14,2.59l.43,1c8.31-.53,16.81,2.23,24.91-2.25,2.6-1.44,5.59-2.18,8.39-3.25,7.48-2.86,15-5.63,22.4-8.68,1.28-.52,3.12-2.47,2.91-3.33-1.15-4.8-2.84-9.47-4.51-14.66-2.21,1.06-3.78,1.74-5.28,2.56q-14.31,7.84-28.6,15.73a25.27,25.27,0,0,1,2.9-2.29c8.54-5,17.11-9.89,25.66-14.86,1.47-.85,2.82-1.9,4.46-3-2.21-3.92-4.42-7.41-6.21-11.11-1.66-3.44-3.53-3.66-6.67-1.76-15.09,9.14-30.05,18.52-45.53,27-7.61,4.15-8.69,11.57-12.82,18.12,2.75.26,4.75.28,6.68.65a17.79,17.79,0,0,0,13.8-3C494.11,214,499.56,211.41,504.8,208.53Zm-94.27-66.08-1.09.79c-5.92,1.35-10.11,5.44-14.88,8.82,1.24,2.51,2.18,4.69,3.35,6.73q13.26,23.09,26.6,46.12c.43.75.86,1.71,1.55,2.06,5.3,2.69,10.66,5.26,16.09,7.91,2.76-11.11,1-20.75-6.79-29.16l1.34-.43,6.54,10c.72-6.22,1.08-11.2-.75-16.18-4.67-12.66-9.21-25.37-13.84-38-.67-1.82-1.57-3.56-2.66-6ZM456,212a89.48,89.48,0,0,1,6.79-6.07c3.65-2.63,5.53-6,6.51-10.44,2.28-10.23,5.08-20.34,7.67-30.5,2-7.86,3.92-15.75,6-23.59.84-3.14.19-5-3.28-5.57a47.82,47.82,0,0,1-8.35-2c-4-1.45-5.26.57-6.12,3.94-4.55,17.79-9.22,35.56-13.8,53.34-.46,1.79-1.29,3.85-.83,5.46C452,201.54,454,206.39,456,212Zm-20.56,13.16c-4.19-4.33-7.77-8-11.4-11.71-.3-.31-.93-.31-1.42-.42-19.11-4.38-38.24-8.74-57.33-13.19-2-.46-2.81.05-3.15,1.92-.62,3.44-1.14,6.91-2,10.3-.67,2.67.14,3.72,2.8,4.45,17.46,4.82,34.87,9.84,52.31,14.74a5.78,5.78,0,0,0,3.23.13C423.66,229.57,428.79,227.6,435.41,225.15Zm-57.35,57.39a24.92,24.92,0,0,0,3.12-1.17q22.36-12.32,44.69-24.71a5.27,5.27,0,0,0,2.2-1.94c2.51-5.13,4.87-10.33,7.28-15.51-5.8-2.4-12.87-2.38-16.59-.11q-22.44,13.68-44.87,27.4a50.35,50.35,0,0,0-4.08,3.14Zm67.61-35c-4.23,3.92-9.2,6.36-10.25,12.34-.52,2.95-1.42,5.82-2.09,8.74Q427.9,292,422.48,315.33a2.44,2.44,0,0,1-.89,1.42c-2.6,1.62-1.18,2.61.61,3.95,2.09-4.63,4.87-2.54,7.8-1.23,4.63,2.07,7.44.64,8.73-4.1,3.87-14.35,7.78-28.69,11.57-43.06.72-2.73,1.84-5.82,1.22-8.36C450.17,258.54,447.81,253.39,445.67,247.57Zm-.24-77.69-.88-.08,1-37.91L428,134.93l15.76,43.74.86-4,3.49,18,1.66-.07L465,132.37c-4.83-.12-8.67-.27-12.51-.31-5-.06-5.09,0-5.35,5.15-.45,9-.78,18-1.2,27C445.86,166.08,445.6,168,445.42,169.88Zm15,77.51c.32,6.29-1.1,11.39,2.36,16.46,4.92,7.21,9,15,13.45,22.53s9,15.31,13.66,22.85c.74,1.18,3,2.74,3.72,2.4,4.26-1.91,8.28-4.34,12.51-6.67-.87-1.87-1.35-3.16-2-4.33-7.84-13.23-16.13-26.21-23.42-39.73C476.18,252.62,467.85,252,460.41,247.39Zm9.45-48.64c7.21-4.69,11.72-9.78,14.79-16.49q7.26-15.86,14.49-31.73c.76-1.66,1.39-3.38,2.2-5.36-3.93-2-7.45-3.84-11.07-5.51-4.37-2-5.19-1.57-6.42,3.18-3.19,12.33-6.38,24.67-9.49,37C472.81,186,471.42,192.18,469.86,198.75Zm20.48,30.8,3.63.86c16.51,4,33,8,49.52,12.15,2.64.66,3.8,0,4-2.58.26-3,.43-6,.81-9,.48-3.76-1.28-5.1-4.82-5.28-10.75-.54-21.52-.89-32.21-2C503.44,222.93,497.07,226.46,490.34,229.55Zm.38,83.91-30-51-1,.21c0,5.65-1.47,11.74.15,16.86,3.92,12.36,9.22,24.28,14.12,36.31.36.9,2.11,2,2.9,1.82C481.17,316.61,485.4,315.13,490.72,313.46ZM363,197.63l58.22,13.77.64-1.29c-3.13-2.58-5.93-5.79-9.44-7.61-10.09-5.22-20.45-9.9-30.74-14.73-3.91-1.84-7.89-3.52-12.3-5.48Zm116.31,58.72c1.79,3.05,3.16,5.41,4.55,7.75q10.69,17.89,21.39,35.76c2.3,3.83,2.7,3.88,6.25,1.14q2.83-2.18,5.53-4.5c3.8-3.27,3.73-3.35.47-7-5.95-6.6-12.29-12.92-17.6-20C494.75,262.67,487.87,259.29,479.27,256.35Zm-44.78,2.54-.89-.5c-3.22,3.07-7.55,5.57-9.44,9.3-6.21,12.25-11.58,24.94-17.14,37.51-.37.84,0,2.78.59,3.13,3.87,2.19,7.92,4.07,12.75,6.47ZM381.27,164.8a16,16,0,0,0,1.11,1.64c10.79,11.64,21.51,23.36,32.47,34.83,1.83,1.91,4.73,2.81,7.13,4.17l.84-.95L392.9,153Zm37.48,72.77c-7.13-1.46-13-.23-19,2.07-10.84,4.17-21.88,7.8-32.78,11.8-1.28.47-3.33,2.2-3.15,2.77,1.36,4.45,3.17,8.75,5,13.55Zm34.59,31.06c-.36.14-.56.16-.58.23q-6.46,24-12.89,48.09c-.54,2,.24,3.11,2.38,3.22,3.12.16,6.23.32,9.34.59,2.8.25,3.63-1.09,3.77-3.71.58-10.6,1.21-21.21,2.05-31.8C457.91,279.16,456.06,273.83,453.35,268.63ZM359.21,233a33.09,33.09,0,0,0,3.55.6c14.37.63,28.73,1.34,43.11,1.71,2.52.06,5.08-1.36,7.62-2.09l-.08-1.12-54.09-15Zm67.58,26.14-1.2-.84-46.16,26,10.88,11.87c1.31-1.36,2.21-2.41,3.22-3.32,8.73-7.85,17.64-15.49,26.13-23.59C422.59,266.45,424.45,262.55,426.79,259.16Zm-56.68-78.51,40.05,19.14.57-.82-31-32.55ZM401.3,237.5l-.13-.94c-5.3-.19-10.6-.39-15.9-.56-7.62-.24-15.24-.46-22.86-.69-1.7-.05-3.13.25-2.68,2.45.86,4.24,1.78,8.47,2.83,13.41Zm107.77-16,.14.89,39.4,2.22-2.16-17.3Zm23.58,57.78L497.6,264l-.56.74c8.34,8.88,15.75,18.63,25,27.22Zm-112.28-7.46-.9-.65L391.3,297l13,9.75ZM457,320.81c4.33-.45,7.68-.72,11-1.16,5.09-.67,5.17-.85,3.46-5.51-1.3-3.52-2.54-7.06-3.92-10.55-2.69-6.81-5.46-13.59-8.19-20.39l-.63.14Zm3.16-78.9c.62,1.78.7,4.13,1.78,4.75,3.9,2.22,8.13,3.86,12.75,6C471.5,244.19,468.1,241.65,460.19,241.91ZM452.53,262c4.18-6.59,2.08-11.71-2.92-17.07-.86,1.2-2.52,2.56-2.28,3.33C448.78,252.81,450.67,257.23,452.53,262Zm-21.11-46.75-.73.82c1.6,2.47,3,5.15,4.92,7.31.67.75,3.12.75,4.13.11a6.9,6.9,0,0,0,2.57-4c.15-.62-1.48-2.15-2.54-2.47C437.06,216.17,434.21,215.8,431.42,215.25Zm36.2-7.16c8.06-1.92,9.17-8.73,11.32-14.77C475,198,467.57,200,467.61,208.08Zm-.58,24c1.92.8,3.61,2.21,4.85,1.89,3.93-1,7.69-2.67,12-4.27C477.86,227.3,472.53,226,467,232.12Zm-9.11,42.46c.09-6.64,1.73-12.41-1-18.53C452.71,262.62,454.2,268.18,457.92,274.59Zm-10.06-68.86c-1,3.2-1.93,5.61-2.45,8.1-.19.93.42,2.86.92,3a7.92,7.92,0,0,0,4.65-.39,3.52,3.52,0,0,0,1.14-3.27C451.15,210.75,449.6,208.63,447.87,205.72Zm-12,23-8.61,5.2.39,1.76c3,0,6.41.74,8.94-.39C438.86,234.3,438.27,231.27,435.86,228.74Zm2.33,11.15-1.32-.69L430.1,254C436.41,251.09,439.06,246,438.19,239.89Zm34.9-32.24c-5.84,1.32-7.64,5-8.07,9.6a8,8,0,0,0,.63,2.52c.78-.43,1.94-.67,2.29-1.34C469.69,215.07,471.23,211.59,473.09,207.65Zm-31,32.81-1.7.14-2.09,8.27,1,.75c1.74-1.37,4.1-2.44,5-4.24C444.74,244.34,442.87,242.13,442.07,240.46Zm23-28.69a45.36,45.36,0,0,0-5.32,3.18,13.22,13.22,0,0,0-2.16,3.09c.85.51,1.8,1.55,2.54,1.42a5.36,5.36,0,0,0,3.42-1.92C464.37,216.13,464.44,214.26,465,211.77Zm1-7-9.55,8.76.73.74C465.78,210.66,467.06,209.08,466.07,204.73Zm-19.16-3.49c3.27-5.39-.09-9.38-1.67-13.62C446.18,191.94,443.06,196.72,446.92,201.24Zm-12.33,25.82-14.9,5.44C427.05,235.42,430.14,229.47,434.59,227.05Zm1.28,27.34-.76-.83c-4.91,1.21-7.85,4.28-8.83,10Zm17.81-41.61,1-.37-5-13.91C446.52,205.27,451.94,208.38,453.67,212.78Zm7.63,27.1L469,242l-4.73-7.17c-.36.25-.64.35-.74.54C462.86,236.68,462.22,238,461.3,239.88Zm-17.15,84.76c-5.07-3.58-6.44-3.4-8.26,1.11ZM428.63,210l-.66,1c2.74,4.46,8.12,3.14,12.29,4.49Zm26.6,40.81,1.26-.09c.07-1.6.71-3.53,0-4.7s-2.66-1.44-4.07-2.11l-.68,1Zm75.33,34.84-2.83,6.88C532.43,289.81,532.93,288.64,530.55,285.65Zm-59.24-57.71-.17-2c-1.83.18-3.68.3-5.48.65a14.43,14.43,0,0,0,.08,2.6Zm-51.58-21.2,6.2,6.08C426.24,208.21,423,207.44,419.73,206.74ZM541.4,271.39l2.08.31,1-6.82-1.53-.25ZM413.89,234.05l.05,1,7.8.73.06-1.47Zm127,38.74-1.17-.27c-1.26,1.94-3,3.77-1.74,6.25l1.4.31Zm11.94-37.12-1.47,0-.2,5.94,1.1,0Zm-94.35,20.42.77-8.25C458.18,250.26,456,252.56,458.51,256.09Zm-14.13-45.61c1.11-3,3.34-5.89.34-9.43Z"/><path d="M410.53,142.45l22.89,37.32-1,.65-22.94-37.18Z"/><path d="M476.91,45.47c-6.11-4.29-5-10.54-5.59-16.35-.26-2.76-1.33-5.47-1.38-8.21a51.6,51.6,0,0,1,.95-9.91c.6-3.39,1.63-6.71,2.47-10.06-4-.33-8.06-.76-12.1-.92-1.14,0-2.28.89-3.47,1.06-4.1.59-5.7,3.06-6.59,7a10.09,10.09,0,0,1-4.26,5.84c-5.52,3.24-11.52,2.43-17.5,1-1.9-.47-4.43-1-5.91-.12-5.26,3-10.62,3.29-16.49,2.7-2.67-.27-5.57,1.63-7.73,2.34.71,2.72,1.45,5.13,2.09,7.41,2.57-.93,6.2-.45,9.49.29l.11,0a3.36,3.36,0,0,1,.58,0,.44.44,0,0,1,.4,0h0v0c4.51.19,8.33.49,12.16.46,2.75,0,5.49-.48,8.33-.76C432.21,35.88,427,41,418.65,44a2.53,2.53,0,0,1-1.26.58,5.45,5.45,0,0,0-.84.23,20.72,20.72,0,0,1-4.39,6.11c-.37.88-.72,1.78-1.06,2.69a.53.53,0,0,1,.11.13l.12,0,.13.06a.52.52,0,0,1,.19.81,1.12,1.12,0,0,1-.28.64.42.42,0,0,1-.18.28l0,0a3.41,3.41,0,0,1-.23.27,5,5,0,0,1-.43,1,2.57,2.57,0,0,1-.36.83c.72,2.81,1.79,5.56,2.44,8.39,3.38.75,7-.76,10.1-1.89h0l.12,0a.55.55,0,0,1,.41-.27c3.75-1.4,6.92-2.31,9.83-3.74,13-6.42,24.28-14.18,22.73-31.33-.13-1.45,1.55-3.06,2.39-4.59.77,4.61-.81,9.13.32,12.81a12.23,12.23,0,0,0,10.23,9l-4.46-8.46C469.46,40.42,470.57,46.38,476.91,45.47ZM421,51.64a.49.49,0,0,1-.2.15,11.22,11.22,0,0,1-1.25.3l0,0a.48.48,0,0,1-.32.11l-.14.06a.55.55,0,0,1-.44.08.52.52,0,0,1-.27.08h0a3.83,3.83,0,0,1-.88.34h0a2.94,2.94,0,0,1-1.13.23c-.66.23-1.31.49-1.95.77a.48.48,0,0,1-.22,0,.76.76,0,0,1-.66,0,1.24,1.24,0,0,1-.92-.54.5.5,0,0,1-.26-.49.49.49,0,0,1,0-.29h0a.44.44,0,0,1,0-.23c.53-1.2,1.61-2,2.22-3.12a.53.53,0,0,1,.21-.21,2.5,2.5,0,0,1,1.21-1.26,34.74,34.74,0,0,0,4.44-2.41c2.3-2.28,7.17-2.73,8.29-6.45C430.56,47.88,428.85,50.6,421,51.64Zm9-3.74L435.29,26C444.79,30.3,444.44,39.4,430,47.9Z"/><path d="M396.66,20.53h8.66a0,0,0,0,1,0,0V63.72A4.35,4.35,0,0,1,401,68.07h-5.06a4.82,4.82,0,0,1-4.82-4.82V26.1a5.57,5.57,0,0,1,5.57-5.57Z" transform="translate(-0.41 84.71) rotate(-12.14)"/><path d="M222.9,214.56A111.69,111.69,0,1,1,123.34,93.18,111.71,111.71,0,0,1,222.9,214.56Zm-115.7,28c-.36.33-.53.47-.68.64l-7.8,8.41q-7.66,8.24-15.31,16.49a18.2,18.2,0,0,0-2.28,3c-.72,1.21-1.23,2.54-1.84,3.82l-8.42,17.78c-.69,1.46-1.37,2.92-2.11,4.5a101.53,101.53,0,0,0,23.19,7.43c.81-1.88,1.6-3.69,2.37-5.52q4.49-10.64,9-21.28a11.36,11.36,0,0,0,1-3.81c.1-1.77.32-3.53.48-5.3l2.29-24.6Zm-4.35-75.77c.67-1.55,1.22-2.82,1.76-4.09q6.16-14.62,12.3-29.25a9.73,9.73,0,0,0,.7-2.77c.88-9.09,1.72-18.19,2.56-27.29l.1-1-.9-.08a108.18,108.18,0,0,0-21.46.55c-2.16.24-2.2.35-2.12,2.57,0,.18,0,.36,0,.54-.41,8.25-.78,16.5-1.26,24.75a21,21,0,0,0,.63,6.86c2.3,8.44,4.45,16.93,6.65,25.39C102.13,164.11,102.46,165.31,102.86,166.77Zm105.64,4.36c-2.33.31-4.59.61-6.85.9-6.78.84-13.55,1.66-20.33,2.52a22.86,22.86,0,0,0-4.49.84,55.7,55.7,0,0,0-5.1,2.31l-22.58,10.35c-.61.28-1.2.59-1.89.93a2.09,2.09,0,0,0,.35.19l19.1,4.38c4.34,1,8.68,2,13,3a17.88,17.88,0,0,0,4.78.77c6.87-.43,13.74-1.06,20.6-1.62l8.43-.69A98,98,0,0,0,208.5,171.13Zm-118,.85c.09-1,.19-1.71.22-2.46.24-4.9.47-9.81.71-14.71.32-6.5.65-13,.95-19.51a6.08,6.08,0,0,0-.2-1.78q-3.1-12-6.23-23.91c-.35-1.35-.73-2.7-1.11-4.11a101.78,101.78,0,0,0-22.58,9.17c.79,2.52,1.59,5,2.35,7.49,2,6.35,3.95,12.69,5.82,19.07a21.11,21.11,0,0,0,3.09,6.25c4.89,7,9.71,14,14.56,21Zm-15.67,21.2-3.82-5c-5.15-6.8-10.32-13.58-15.42-20.41a28.64,28.64,0,0,0-7.1-7.2c-4.42-2.91-8.67-6.09-13-9.15l-7.85-5.54a100.41,100.41,0,0,0-11.21,21,1,1,0,0,0,.23.81,3.86,3.86,0,0,0,.88.62Q29,175.62,40.35,182.95a13.65,13.65,0,0,0,2.83,1.55c1.79.61,3.65,1,5.47,1.52l17.76,4.86Zm1.38,26.32c-.42-.13-.61-.21-.82-.26l-19-4.36c-4.37-1-8.74-2-13.12-3a23.25,23.25,0,0,0-4.07-.74,38.76,38.76,0,0,0-4.68.32L17.37,212.9l-7.56.63a97.53,97.53,0,0,0,5.09,23.84l1.64-.23c8.56-1.07,17.12-2.12,25.68-3.22a16.45,16.45,0,0,0,4.55-.93c7.59-3.37,15.12-6.89,22.67-10.35ZM195.7,262.65a99.68,99.68,0,0,0,11.44-21.53L205.32,240q-11.18-7.23-22.37-14.46A13.79,13.79,0,0,0,180,224c-1.79-.61-3.65-1-5.47-1.52l-20.62-5.66c-1.71-.47-3.43-.91-5.36-1.42l4.33,5.74q7.85,10.37,15.71,20.73a19.53,19.53,0,0,0,3.25,3.83c3.55,2.73,7.28,5.24,10.94,7.84ZM150.22,202c.25.21.33.29.43.35l9.31,6q9.54,6.17,19.1,12.33a19.09,19.09,0,0,0,3.11,1.8,37.67,37.67,0,0,0,4.08,1.16l19.84,5.45c1.5.41,3,.79,4.44,1.17.11-.11.14-.13.15-.15a105.3,105.3,0,0,0,3.33-23.3c0-.53-.23-.67-.65-.77L199.79,203c-4.37-1-8.74-2-13.11-3a12.71,12.71,0,0,0-3.53-.63c-7.47.54-14.93,1.2-22.39,1.82Zm41-61.94-7.42,3.78c-5.76,3-11.53,5.89-17.27,8.88a17.9,17.9,0,0,0-3.86,2.44c-2.58,2.35-5,4.89-7.47,7.35l-14.56,14.31c-.27.26-.51.54-.86.92a3.83,3.83,0,0,0,.62.05l6.26-.79,10.82-1.36c4.42-.56,8.83-1.13,13.25-1.67,3.51-.43,7-.9,10.24-2.53,6.17-3.06,12.5-5.8,18.77-8.67,1.49-.69,3-1.4,4.45-2.1C202.78,156.48,194.13,142.72,191.23,140.09ZM132.87,236.5c-.07.37-.11.48-.12.59q-.39,7.58-.78,15.16-.51,10.25-1,20.5a5.69,5.69,0,0,0,.05,1.62c.73,2.92,1.51,5.82,2.26,8.74q2.06,7.95,4.12,15.89c.35,1.33.75,2.64,1.14,4,1.81-.55,3.54-1.05,5.25-1.62a103.41,103.41,0,0,0,15.84-6.77c1.44-.76,1.43-.78,1-2.24q-4-12.94-7.93-25.88a14.81,14.81,0,0,0-2-4.29c-4.31-6.14-8.56-12.32-12.84-18.48C136.23,241.4,134.62,239,132.87,236.5Zm-12.34,5.23c-.19.41-.29.62-.38.84l-5.85,13.88c-2.31,5.48-4.65,11-6.94,16.44A15.47,15.47,0,0,0,105.9,277c-1,9.39-1.8,18.79-2.68,28.19l-.09,1c.57.05,1,.12,1.52.14,2.92.09,5.85.33,8.76.2,4.41-.2,8.81-.69,13.22-1,.65,0,.86-.3.88-.95,0-1.69.17-3.37.25-5.06q.59-11.52,1.18-23a13.59,13.59,0,0,0-.4-4.28c-2.24-8.39-4.42-16.8-6.63-25.21C121.47,245.26,121,243.59,120.53,241.73Zm34.12-130.41c-1.78-.74-3.45-1.46-5.15-2.14a93.38,93.38,0,0,0-16.39-4.95c-1.71-.34-1.7-.34-2.4,1.32q-5.29,12.55-10.59,25.11a9.18,9.18,0,0,0-.84,2.55c-1,10.62-2,21.25-3,31.88,0,.22,0,.44,0,.82.27-.26.42-.4.55-.55l6.64-7.16q7.72-8.31,15.44-16.62a19.84,19.84,0,0,0,3.94-5.21c2.67-5.92,5.53-11.76,8.31-17.63ZM32.07,268.47c2.83-1.47,5.6-2.92,8.38-4.34,5-2.55,10-5.08,15-7.64,2.26-1.17,4.55-2.22,6.38-4.15,3.17-3.34,6.55-6.48,9.84-9.72q4.31-4.25,8.58-8.53l3.32-3.33c-.11,0-.17-.1-.22-.09l-16.1,2c-5.7.71-11.4,1.4-17.1,2.14a16.35,16.35,0,0,0-4.48.85C38,239.06,30.5,242.57,23,246c-1.27.58-2.54,1.19-3.83,1.8A103.06,103.06,0,0,0,32.07,268.47Zm48.79-87.21c-1.26-4.13-2.43-8-3.62-11.83q-2.65-8.58-5.32-17.14c-1.12-3.57-2-7.16-4.35-10.3-4.31-5.87-8.34-11.94-12.49-17.93l-2.37-3.4A102.51,102.51,0,0,0,34.65,137c.65.88,1.27,1.73,1.9,2.56q7.87,10.41,15.76,20.82A7.89,7.89,0,0,0,53.78,162c3.33,2.43,6.71,4.79,10.08,7.17l8.33,5.89Zm89.8,106.58a102.42,102.42,0,0,0,18.08-16.31c-1.36-1.81-2.65-3.55-4-5.27-3.66-4.82-7.28-9.67-11-14.45-1.77-2.29-3.25-4.8-5.74-6.53-8.33-5.78-16.57-11.69-24.85-17.55a4.76,4.76,0,0,0-.6-.29c.11.4.18.65.26.91,1.08,3.47,2.17,6.94,3.24,10.42q3.39,11,6.77,22.08a10.23,10.23,0,0,0,1.05,2.76c4.32,6.34,8.71,12.64,13.08,19Zm-111.87,4c1.64-1.75,3.22-3.41,4.77-5.09,4.73-5.1,9.48-10.19,14.17-15.32a30.08,30.08,0,0,0,2.85-3.69,23.38,23.38,0,0,0,1.47-3l10.36-21.93c.62-1.31,1.23-2.63,1.92-4.12-.36.16-.53.22-.69.3l-9.32,4.79Q74,249.05,63.74,254.31a13.22,13.22,0,0,0-3.23,1.93c-5.59,5.4-11.09,10.89-16.61,16.35l-4.28,4.26A102.12,102.12,0,0,0,58.79,291.83Zm70.24-122c.55-.26.91-.41,1.25-.58l9-4.63q10.29-5.27,20.58-10.53a12.2,12.2,0,0,0,3-1.79c6-5.81,11.9-11.69,17.83-17.55l3.08-3.07a101.44,101.44,0,0,0-19.16-15c-.29.28-.52.47-.72.69q-9.15,9.87-18.29,19.75a19.08,19.08,0,0,0-2.74,3.54c-1.18,2.13-2.11,4.39-3.15,6.59l-8.57,18.09ZM73,206.46l0-.19-10.07-6.53q-9.29-6-18.58-12a13.31,13.31,0,0,0-3.28-1.85c-7-2-14-3.87-21-5.78l-7.32-2a102.6,102.6,0,0,0-3.38,24.12l9.87,2.28q8.63,2,17.26,3.94a14.4,14.4,0,0,0,3.81.67c4.38-.24,8.76-.69,13.13-1l12.78-1C68.49,206.87,70.73,206.66,73,206.46Zm51.75,2.2c-1.67-.63-2.82-1.57-2.71-3.34s1.48-2.68,3.31-3L124,198.15c-1.65.75-3.14.85-4.29-.48s-.8-2.9.24-4.42l-3.86-2c-.66,1.76-1.67,2.92-3.52,2.7s-2.5-1.49-2.81-3.29l-4.21,1.31c.8,1.64.87,3.11-.44,4.27s-2.9.82-4.44-.22l-2,3.88c1.73.65,2.81,1.59,2.69,3.34s-1.44,2.64-3.29,3l1.28,4.16c1.67-.73,3.18-.88,4.34.54s.79,2.85-.28,4.36l3.89,2c.63-1.66,1.52-2.76,3.22-2.7,2,.06,2.78,1.41,3.11,3.32l4.19-1.33c-.78-1.63-.86-3.11.41-4.24s2.93-.89,4.48.19Zm-19.12-31.37a1.28,1.28,0,0,0,.26-.13q3.94-4.23,7.87-8.47a1.75,1.75,0,0,0,.43-.95q1.38-14.49,2.72-29a26.33,26.33,0,0,0-1.51,3c-1.84,4.38-3.64,8.77-5.48,13.14-2,4.85-4.1,9.69-6.14,14.54a1,1,0,0,0,0,.61C104.32,172.47,105,174.85,105.61,177.29ZM46.27,210.52v.12c.37.1.74.22,1.12.3l11.54,2.6c5.75,1.31,11.53,2.52,17.24,4A7.29,7.29,0,0,0,82,216.9c1.33-.76,2.78-1.32,4.3-2-3.47-2.24-6.77-4.39-10.09-6.5a1.92,1.92,0,0,0-1.11-.19Q64,209.08,52.81,210Zm61.94,21.18a1.66,1.66,0,0,0-.38.06q-5.23,2.66-10.46,5.33a1.34,1.34,0,0,0-.48.61c-.89,1.84-1.76,3.69-2.63,5.54l-8.6,18.17c-.39.82-.76,1.66-1.14,2.49,3.21-3.23,6.28-6.52,9.35-9.83q6.46-6.95,12.89-13.91a2.48,2.48,0,0,0,.74-1.18C107.79,236.6,108,234.2,108.21,231.71Zm28.93-38.11c.21.17.32.27.44.35,3.13,2,6.25,4.07,9.4,6.08a2.22,2.22,0,0,0,1.27.3c2.55-.18,5.09-.42,7.64-.62l17.17-1.4,4-.34c-4.73-1.23-9.45-2.28-14.17-3.36q-8.31-1.9-16.62-3.83a4.33,4.33,0,0,0-3.55.19,18.58,18.58,0,0,1-2,1Zm-47.33-6c.21-4.19.42-8.16.59-12.13a1.51,1.51,0,0,0-.33-.79q-2.1-3.11-4.22-6.2-5-7.25-10-14.48c-.73-1-1.47-2.08-2.21-3.12.55,2.27,1.24,4.47,1.92,6.67q3.82,12.41,7.63,24.82a1.52,1.52,0,0,0,.41.77C85.58,184.6,87.61,186,89.81,187.6Zm42.12-2c.38.11.64.2.89.26,3.4.77,6.81,1.52,10.21,2.32a2.72,2.72,0,0,0,1.9-.18q10.32-4.77,20.66-9.51l5.2-2.42a3.24,3.24,0,0,0-1.25,0c-9.72,1.21-19.44,2.45-29.16,3.6a6.51,6.51,0,0,0-4.71,2.15C134.57,183.12,133.24,184.26,131.93,185.57ZM139.16,203c2.52,3.32,4.92,6.48,7.34,9.63a1.45,1.45,0,0,0,.74.43l23.93,6.56,4,1.1c-1.55-1.2-3.14-2.28-4.75-3.32-6.9-4.45-13.85-8.84-20.7-13.38A7.38,7.38,0,0,0,144,202.5C142.49,202.78,140.9,202.8,139.16,203ZM96.75,181c.14-.12.17-.14.18-.16,1.54-3.63,3.08-7.25,4.6-10.88a1.46,1.46,0,0,0,0-.86q-2.93-11.26-5.88-22.52c-.48-1.84-1-3.68-1.49-5.52a2.23,2.23,0,0,0-.21.91q-.4,8-.79,16.08t-.8,16.08a1.2,1.2,0,0,0,.11.69C93.87,176.86,95.3,178.9,96.75,181Zm36.82,39.9c-.21,4.13-.41,8-.58,12a1.75,1.75,0,0,0,.33,1q6.71,9.74,13.44,19.47l2.94,4.25a27.17,27.17,0,0,0-1-3.76q-4.25-13.83-8.52-27.67a1.62,1.62,0,0,0-.5-.81C137.74,223.86,135.74,222.44,133.57,220.9Zm-42.12,2c-.36-.11-.61-.21-.87-.27-3.38-.76-6.75-1.51-10.13-2.29a2.75,2.75,0,0,0-1.91.09q-11.64,5.38-23.3,10.72c-.93.43-1.85.88-2.78,1.33,2.49-.18,4.94-.49,7.38-.79,7.79-1,15.57-2,23.36-2.87a6.33,6.33,0,0,0,4.51-2.17C88.84,225.36,90.17,224.21,91.45,222.94Zm37.75,44.45.17,0c0-.29,0-.58,0-.87q.37-7.23.73-14.45c.25-4.91.36-9.83.79-14.72a7.77,7.77,0,0,0-1.75-6.21c-1-1.11-1.7-2.39-2.6-3.68-.11.21-.17.3-.21.4-1.5,3.54-3,7.08-4.49,10.64a1.77,1.77,0,0,0,0,1q2.92,11.22,5.87,22.43Q128.48,264.67,129.2,267.39Zm9.69-122.83-.11-.07q-4.55,4.87-9.1,9.75c-3.87,4.17-7.67,8.41-11.62,12.5a7.11,7.11,0,0,0-2.45,5.33,42.51,42.51,0,0,1-.41,4.77,2.27,2.27,0,0,0,.38-.09c3.46-1.76,6.92-3.53,10.36-5.31a1.47,1.47,0,0,0,.55-.66c.91-1.86,1.8-3.74,2.69-5.61q3.71-7.82,7.41-15.65C137.37,147.87,138.12,146.21,138.89,144.56Zm-32.35,125h.15c.09-.19.18-.37.26-.56q2.6-6.19,5.21-12.38,3.71-8.81,7.42-17.61a1.45,1.45,0,0,0,0-.85c-.46-1.87-.94-3.73-1.43-5.59-.12-.47-.29-.93-.46-1.48-2.76,3-5.44,5.82-8.08,8.71a2.07,2.07,0,0,0-.4,1.14q-1.32,13.91-2.61,27.82Zm-22.31-64c-2.52-3.32-4.87-6.45-7.26-9.55a1.9,1.9,0,0,0-1-.58q-12-3.3-23.92-6.56l-3.61-1a1.41,1.41,0,0,0,.6.69l10.24,6.6,16.53,10.68a1.38,1.38,0,0,0,.73.29C79.06,206,81.54,205.78,84.23,205.57Zm40.09-25.81.52,0c3.61-.45,7.22-.93,10.84-1.34a2.66,2.66,0,0,0,1.71-.84c1.24-1.27,2.5-2.52,3.77-3.77l14.48-14.27c.66-.65,1.29-1.33,2.09-2.15a4.33,4.33,0,0,0-.42.12l-11.82,6-17.45,8.95a1.17,1.17,0,0,0-.51.47C126.48,175.18,125.43,177.41,124.32,179.76ZM65.82,250.93l.09.16c.4-.19.81-.37,1.2-.57L77.78,245q8.76-4.5,17.51-9a1.61,1.61,0,0,0,.65-.69c.88-1.78,1.72-3.58,2.57-5.37.17-.36.31-.74.53-1.27-3.35.43-6.5,1-9.66,1.2a5.82,5.82,0,0,0-4.51,2.16,2.14,2.14,0,0,1-.19.19l-13.07,13Zm99.78-9.65.12-.13c-.49-.66-1-1.33-1.48-2-5.62-7.42-11.27-14.81-16.82-22.28a6.88,6.88,0,0,0-4.62-3.15,41.6,41.6,0,0,1-4.67-1.27c0,.14-.07.17-.06.2,1.16,3.8,2.31,7.59,3.49,11.38a1.33,1.33,0,0,0,.51.6q4.43,3.19,8.88,6.36,6.08,4.3,12.18,8.58ZM85.31,196.05a3.74,3.74,0,0,0-.06-.58q-1.69-5.48-3.4-10.94a1.32,1.32,0,0,0-.47-.61q-5.64-4.05-11.3-8.08-4.71-3.34-9.45-6.65c-1-.68-1.95-1.34-3.08-2.13a3,3,0,0,0,.16.38C63.81,175.5,70,183.53,76,191.67a7.2,7.2,0,0,0,4.73,3.15C82.25,195.1,83.73,195.62,85.31,196.05Zm18.1,86.63-.15-.06-9.45,22.43,7.42,1ZM94,103.41l-7.38,1.53,6,22.79.19,0Zm42.7,200.14-6-22.8-.19,0-1.2,24.31Zm57.93-39.35-19.2-13.61-.12.12L190,270.12ZM187.51,226l-.08.18,20.43,13.2,2.28-7.17Zm-41.23-92.64.16.1L163,115.64l-6.65-3.51Zm58.81,29-21.31,9.8,0,.19,24.1-3ZM15.53,169.13l-2.31,7.17,22.58,6.19.07-.2Zm175,29.61,0,.24L214,204.35l-.24-7.51ZM15.46,239.16l2.84,7,21.25-9.77-.05-.2Zm61.64,36L77,275,60.41,292.86l6.65,3.51ZM33,209.75l.06-.19L9.34,204.15l.26,7.51Zm135.51-60.33.11.17,21.55-11-5-5.58Zm-46.29-47L120,125.82l.12,0,9.44-22.4ZM67.61,138.89l.15-.09-7.16-23.23-6.37,4Zm88.15,130.72-.16.08,7.17,23.25,6.36-4ZM28.72,144.3l19,13.49.15-.18L33.35,138.39Zm9.53,131.24,16.66-16.47-.13-.15-21.55,11ZM113.8,171.71l-.2-.11c-2.17,2.33-4.29,4.7-6.52,7a2,2,0,0,0-.33,2.71c2.06-1,4.12-2.09,6.17-3.16a.72.72,0,0,0,.31-.49C113.44,175.65,113.62,173.68,113.8,171.71ZM98.47,234.37c.49-.23.79-.36,1.07-.5l7.86-4c1.16-.59,1.31-.88,1-2.31-2.28.28-4.57.56-6.85.86a.61.61,0,0,0-.39.3C100.3,230.51,99.44,232.34,98.47,234.37Zm45.62-33.68,0-.23-.81-.54c-2.42-1.57-4.85-3.13-7.26-4.72-1.11-.73-1.46-.72-2.59.26,1.35,1.77,2.68,3.55,4.05,5.3a1,1,0,0,0,.74.34C140.22,201,142.16,200.82,144.1,200.68Zm-21.4-17.16c1.73.39,3.5.65,5.18,1.19a2.7,2.7,0,0,0,3.28-1c.94-1.11,2-2.08,3.22-3.25-.47,0-.7,0-.94.05-2.86.36-5.72.8-8.59,1.06C123.63,181.71,122.87,182.1,122.7,183.52Zm-29.54,6.3c.68-1.64,1.24-3.29,2.05-4.82a2.65,2.65,0,0,0-.27-3.38c-1-1.15-1.75-2.46-2.74-3.87-.05.57-.09.89-.11,1.21-.14,2.83-.21,5.66-.44,8.47A2,2,0,0,0,93.16,189.81Zm31.74-15.66c-.44.2-.7.31-1,.44l-7.86,4c-1.26.64-1.37.84-1.12,2.37,2.28-.29,4.57-.57,6.85-.87a.59.59,0,0,0,.38-.29C123.09,178,124,176.15,124.9,174.15ZM82.18,218.84c3.35.79,6.44,1.47,9.49,2.27A2,2,0,0,0,94.26,220c-1.93-1.24-3.89-2.51-5.86-3.76a.63.63,0,0,0-.51,0C86.06,217.05,84.24,217.9,82.18,218.84Zm47-30.33c1.94,1.25,3.87,2.5,5.82,3.72a1,1,0,0,0,.74-.06c1-.41,1.92-.86,2.88-1.3l2.58-1.22c-.31-.11-.41-.15-.52-.17-3-.68-5.93-1.3-8.87-2.06A2,2,0,0,0,129.13,188.51Zm6,14.84c.58,1.85,1.23,3.63,1.67,5.45a2.23,2.23,0,0,0,2,1.92c1.56.32,3.08.82,4.87,1.31-.41-.57-.64-.91-.89-1.24-1.67-2.2-3.41-4.35-5-6.62A2,2,0,0,0,135.15,203.36ZM100.71,225c-2.27-.51-4.5-1-6.72-1.5a.72.72,0,0,0-.56.15C92,225,90.57,226.45,89,228c.57,0,.89-.06,1.2-.1,2.83-.36,5.64-.81,8.48-1A2,2,0,0,0,100.71,225ZM88.23,205.14c-.55-1.75-1.18-3.47-1.61-5.24a2.45,2.45,0,0,0-2.17-2.17c-1.52-.27-3-.8-4.71-1.28.37.54.59.89.84,1.22,1.69,2.23,3.45,4.41,5,6.71A2,2,0,0,0,88.23,205.14Zm42,13.53c-.89,2.1-1.78,4.16-2.62,6.25a1.23,1.23,0,0,0,.19,1c.88,1.33,1.81,2.63,2.72,3.94l.68,1c.16-3.43.25-6.62.51-9.8A1.94,1.94,0,0,0,130.24,218.67Zm-9.32,17.05c.16-.28.25-.42.32-.58,1.18-2.76,2.28-5.55,3.55-8.27a2,2,0,0,0-.53-2.68.81.81,0,0,0-.22.12c-1.5,1.6-3,3.2-4.48,4.82a.83.83,0,0,0-.21.63C119.83,231.71,120.36,233.64,120.91,235.72ZM84.47,186.11c-.05.08-.09.11-.08.13.95,3.1,1.88,6.2,2.85,9.3.41,1.33.55,1.41,2.09,1.48.11-2.28.23-4.55.32-6.83a.82.82,0,0,0-.28-.6C87.74,188.41,86.1,187.27,84.47,186.11Zm14.72-1.75c1.36-1.47,2.7-3,4.11-4.4a1.76,1.76,0,0,0,.55-2c-.54-1.64-.9-3.34-1.39-5.21-.25.5-.42.8-.56,1.12-1.1,2.6-2.14,5.23-3.32,7.8A2,2,0,0,0,99.19,184.36Zm10.4,52.6a3.47,3.47,0,0,0,.4-.29c2.09-2.25,4.13-4.54,6.29-6.72a2,2,0,0,0,.34-2.72c-2,1-4.09,2.07-6.11,3.12a.72.72,0,0,0-.34.47C110,232.82,109.79,234.81,109.59,237ZM139,222.46c-.08-.33-.12-.5-.17-.66q-1.36-4.44-2.72-8.87c-.4-1.3-.48-1.35-1.8-1.46-.21,2.3-.44,4.59-.63,6.89a.81.81,0,0,0,.33.58C135.65,220.1,137.27,221.23,139,222.46Zm-60-14.58c.29.23.4.34.52.42l7.93,5.14c.95.61,1.32.55,2.37-.38a46,46,0,0,1-2.77-3.75c-1-1.63-2.22-2.31-4.07-1.77a1.47,1.47,0,0,1-.27,0Zm46.38,14.71.72,1,.91-2.32Zm-34-29.44.19.06.85-1.44-1-.62Zm20.84,34.23,0-.24h-1.73l0,1.11Zm22.18-25.92,1.18-.13-1.47-1.88Zm-.41,7.91,1.14.35-.66-2.15-.16,0ZM89.37,199.1l-1.13-.29.62,2,.2,0ZM97.19,185,96.39,187,97.93,186Zm-5.92,29.67-1,.54L92,216.33l.11-.1Zm41.86-21.32-1.76-1.13-.11.12.82,1.52Zm-28.46-12.11-1.46,1.59.1.11,1.63-.59Zm16,1.92.45-1-2.39.3Zm-9.47-2c1.77.42,1.84.38,1.67-.82Zm7.21,45.07.35,1.06,1.62-1.74Zm-13.74-.11-1.91-.71-.43,1ZM89,207l-1.18.16,1.26,1.6.15-.06Zm7.12,14-.75.8,2,.43.07-.15Zm35.81-3.7L132,215l-1,1.72Zm-5.64-31.1-.12.21,1.21,1,.75-.79Z"/><path d="M119,204.9a7.31,7.31,0,1,1-6.74-7.94A7.27,7.27,0,0,1,119,204.9Z"/><path class="cls-1" d="M97.07,198.92c1.38.51,3.33-.13,3-1.94a6,6,0,0,0-.46-1c-.15-.39-.25-.14-.12-.51s.43-.45.6-.62c.32-.33.57-.7.91-.67s.77.56,1.25.59a1.9,1.9,0,0,0,2.07-2.09c0-.19-.1-.37-.12-.55,0-.53-.23-.21.23-.58a4,4,0,0,1,1.44-.71c.38,0,.31.19.61.53a2,2,0,0,0,2.33.48,1.86,1.86,0,0,0,1-1.34c.1-.44,0-.67.29-.86a5.54,5.54,0,0,1,1.8-.19c.47.17.6,1.34,1.35,1.7a1.91,1.91,0,0,0,2-.18,3.63,3.63,0,0,0,.61-.79c.07-.09.13-.42.22-.47a4.75,4.75,0,0,1,.87.21c.25.06,1.14.13,1.29.32s0,1,.12,1.32c.52,1.52,2,1.29,3.05.68.53-.29.42-.4,1,0a4.68,4.68,0,0,1,.94.65c.39.44.19-.08.14.56,0,.16-.14.33-.17.5a1.87,1.87,0,0,0,.3,1.36,1.84,1.84,0,0,0,1.75.93c.3,0,.88-.46,1.1-.42s.93,1.18,1.06,1.43c.31.6.07.38-.32,1a1.93,1.93,0,0,0,.56,2.7,2.11,2.11,0,0,0,1,.27c.61,0,.6-.17.87.37a4.76,4.76,0,0,1,.45,1.5c-.05.4-.48.4-.84.72a1.93,1.93,0,0,0,.38,3.1c.4.22.79.15.93.53a4.46,4.46,0,0,1-.09,1.36c-.05.77-.09.62-.72.8a2.27,2.27,0,0,0-.94.47,2,2,0,0,0-.56,1.52,1.77,1.77,0,0,0,.24.78c.19.33.76.55.89.83s-.19.87-.38,1.3a2.34,2.34,0,0,1-.27.62c-.33.29,0,.07-.41.11-.74.07-1.25-.2-1.89.38a1.89,1.89,0,0,0-.42,2.32c.07.14.29.35.32.49.08.35,0,.25-.24.59A4.14,4.14,0,0,1,125,220.1c-.32.12-.72-.37-1.18-.49a2,2,0,0,0-1.28.11,1.86,1.86,0,0,0-1,2.08c.11.69.31.72-.38,1.09-.44.23-1.16.72-1.51.54s-.51-.74-1-1a1.92,1.92,0,0,0-1.34-.11,1.85,1.85,0,0,0-1.31,1.4c-.11.45,0,.77-.31,1a7.35,7.35,0,0,1-2.06.24,2,2,0,0,0-2.3-2,1.72,1.72,0,0,0-1.07.65c-.19.23-.25.55-.43.78-.34.44-.38.27-1,.12-.26-.06-1.24-.15-1.34-.32s.09-.7.08-.87a1.89,1.89,0,0,0-.65-1.39,2,2,0,0,0-3,.69L102,221.38a2,2,0,0,0-.25-2.82,1.9,1.9,0,0,0-1.22-.42,2.09,2.09,0,0,0-.84.21c-.41.19-.32.3-.66.13s-.51-.69-.7-.95-.51-.56-.41-.88.69-.66.81-1.17a1.94,1.94,0,0,0-1-2.16,3.79,3.79,0,0,0-1.34-.15c-.47-.06-.25.12-.48-.36a7,7,0,0,1-.31-1.07c-.26-.89.09-.65.71-1.08a1.87,1.87,0,0,0,.76-1,1.9,1.9,0,0,0-.64-2c-.28-.21-1.27-.32-1.41-.5s.12-1.89.15-2.3a2,2,0,0,0,2.32-2.17c-.1-.71-.5-.89-.91-1.38a2.08,2.08,0,0,0-.49-.26l.29-.64.67-1.5C98.26,199.36,96.74,199.64,97.07,198.92Zm16.07,3a5.31,5.31,0,1,0,4.94,5.63,5.35,5.35,0,0,0-4.94-5.63Z"/><circle class="cls-2" cx="112.81" cy="207.51" r="5.56" transform="translate(-116.19 265.34) rotate(-75.64)"/><circle class="cls-3" cx="112.81" cy="207.51" r="2.12" transform="translate(-116.19 265.34) rotate(-75.64)"/><path class="cls-1" d="M308.09,236.72c-1.84-1.55-4.83-5.25-7.54-4.29-1.57.56-2.84,2.71-3.86,3.92l-12.83,15.26c-1.25,1.49-3.3,3.22-2.69,5.38.39,1.4,1.92,2.33,3,3.22s2.23,2.26,3.56,2.67c2.46.76,3.9-1.63,5.24-3.22l6.22-7.4,7.23-8.6C308,241.78,310.87,239.05,308.09,236.72Z"/><path d="M239.65,255.65l-.25-.06c-.3-.64-.44-1.57-.94-1.84s-1.25.31-1.89.52-1.07-.12-1.15-.78c-.16-1.33-.84-1.54-1.94-1-.9.46-1.41.12-1.48-.83-.09-1.22-.62-1.57-1.76-1.13-.75.29-1.37,0-1.37-.83,0-1.34-.64-1.56-1.79-1.35-.82.15-1.25-.35-1.1-1.13.27-1.38-.37-1.7-1.55-1.51-.78.13-1.13-.17-1-1,.18-1.78.17-1.78-1.56-2.1a5.79,5.79,0,0,1-.67-.21c.52-2,.5-2-1.16-3a1.42,1.42,0,0,1-.42-1.31c.47-1.1,0-1.64-.94-1.91s-.93-.75-.52-1.41c.64-1,.21-1.67-.77-2.11-.34-.15-.67-.33-1-.51a3.5,3.5,0,0,1,.3-.36c1.53-1.35,1.54-1.36,0-2.74-.69-.62-.43-1.12.1-1.6.84-.76.59-1.41-.18-2-.36-.28-.75-.51-1.54-1a4.58,4.58,0,0,0,1-.24c1.59-.91,1.59-.93.53-2.4-.44-.61-.43-1.19.25-1.49,1.15-.51,1.06-1.19.61-2.15a1.41,1.41,0,0,1,.25-1.32c1.25-.94.94-1.83.12-2.8l.25-1c2.07,0,2.19-.18,1.58-2.06-.28-.86,0-1.15.86-1.23,1.31-.13,1.48-.42,1.08-1.63s-.29-1.46,1.1-1.4c1,0,1.32-.4,1.23-1.31,0-.53-.07-1.05-.14-1.94,1.06,1.18,1.86.74,2.29,0a6.08,6.08,0,0,0,.42-2,5.25,5.25,0,0,0,2-.15c.41-.21.55-1,.76-1.54a5.62,5.62,0,0,0,.23-.87c.58.24.9.5,1.2.48a1.77,1.77,0,0,0,1.76-1.68c.06-.32.8-.84.89-.78,1.12.77,1.7.63,2.21-.64.17-.43.37-.84.71-1.6l.05,1.17a2.75,2.75,0,0,0,3.05-1.15,1,1,0,0,1,1.6-.3,1,1,0,0,0,1.69-.39c.46-.81,1-.94,1.77-.46a1.92,1.92,0,0,0,2.53-.35,1.15,1.15,0,0,1,1.09-.08c.88,1.09,1.62.92,2.48,0a1.06,1.06,0,0,1,1,0c1.48,1.36,1.46,1.38,3,.25l1,.25c.89,1.71,1.14,1.78,2.48.64l1,.25c.55,1.74.55,1.75,2.22,1.09.77-.3,1.28-.06,1.43.73.23,1.24.86,1.44,1.91.87s1.33-.12,1.43.85c.16,1.52.19,1.53,1.75,1.07.92-.28,1.38-.13,1.26,1-.15,1.48,0,1.52,1.52,1.59.38,0,1.09.51,1.06.67-.35,1.77.68,2,2,2,.15,0,.3.12.44.18,0,2.23,0,2.23,2.35,3.12-.73,1.39-.75,2.54,1.2,2.86a1.32,1.32,0,0,1,.22,1.1c-.63,1.14-.33,1.73.9,2,.94.23,1.22.82.47,1.56-.91.9-.7,1.48.33,2.07a1.39,1.39,0,0,1,.62,1.08,4.29,4.29,0,0,0,.69,3.17,1.27,1.27,0,0,1,.13.36,1.16,1.16,0,0,1-.22.31c-1,.73-1.49,1.46-.3,2.52.56.5.29,1.07-.33,1.47a1.14,1.14,0,0,0-.31,1.85,1.26,1.26,0,0,1-.21,2,1.24,1.24,0,0,0,0,2.16,21.43,21.43,0,0,0,3.71,2.64c4.39,2.26,8.91,4.28,13.27,6.59a5.51,5.51,0,0,1,2.37,7.57c-1.33,2.71-3.84,3.67-7.05,2.37-2.84-1.14-5.57-2.56-8.33-3.89-2.61-1.26-5.16-2.64-7.8-3.83-2.05-.93-3.2-.2-3.39,2-.08.9-.54,1.22-1.38.94-1.13-.38-1.6,0-1.59,1.2,0,.78-.21,1.33-1.21,1.12-1.2-.26-1.88.19-1.86,1.53,0,.84-.59,1.25-1.28.86-1.28-.71-1.73-.07-2.2,1a1.32,1.32,0,0,1-1.12.6c-1.39-.54-1.95,0-2.21,1.31-.15.77-.71,1-1.43.44-1.32-1.05-1.43-1.06-2.26.36-.51.87-1.06,1-1.7.29-.91-1-1.5-.66-2,.35-.43.81-1,1.11-1.64.23s-1.37-.87-2.1-.05-1.31.87-1.94-.1-1.14-.88-1.83-.07c-.92,1.09-1.26,1.06-2-.14-.51-.89-1.08-1.15-1.94-.45A11.68,11.68,0,0,1,239.65,255.65Zm3.54-11.48c2.44.06,5.33.24,8.21.15,1.87-.06,2.72-1.34,1.9-2.69a28,28,0,0,0-3.71-5,5.45,5.45,0,0,0-6.85-.81,29.56,29.56,0,0,0-4.23,3.09c-1.28,1.08-1.19,2.4.25,3.26A43.93,43.93,0,0,0,243.19,244.17Zm17.54-25.5c1.33-.15,3.47-.34,5.58-.68.28,0,.63-.81.61-1.22a2.84,2.84,0,0,0-.65-1.49,45.59,45.59,0,0,0-4.12-4.87,23,23,0,0,0-4.58-3.19c-1.47-.82-2.48-.16-2.65,1.51-.09.8-.11,1.61-.19,2.42C254.38,214.67,256.47,217.63,260.73,218.67Zm-23.13,8.91a4.86,4.86,0,0,0-1.67-5.24,35.6,35.6,0,0,0-4.43-2.52c-.68-.34-1.38-.33-1.65.72-1,3.81-1.58,7.6.18,11.37a11.51,11.51,0,0,1,.49,1.58c.49,1.63,1.08,1.82,2.24.52,1.45-1.61,2.79-3.32,4.13-5A6.55,6.55,0,0,0,237.6,227.58ZM248,206c-5.53,1.08-10.44,2.58-14.12,6.91a9.8,9.8,0,0,0,1.28.83,11.91,11.91,0,0,0,5.73,1.4,5.39,5.39,0,0,0,3.63-1.09C246.79,212,247.22,209.08,248,206Zm15.2,32.06,0-.44a18.53,18.53,0,0,0-2.85-.91c-1.18-.18-1.72.7-1.22,1.8a1.76,1.76,0,0,0,2.57.83A12.64,12.64,0,0,0,263.18,238.07Zm31.63,6.81A1.82,1.82,0,0,0,292.4,246a1.55,1.55,0,0,0,1,1.93,1.74,1.74,0,0,0,2.25-1.1A1.47,1.47,0,0,0,294.81,244.88Zm-29.34-19.2c.21.15.41.3.63.42a5.8,5.8,0,0,0,1.13.58,2.64,2.64,0,0,0,.9,0,2.52,2.52,0,0,0-.2-.89C267.3,224.82,266.41,224.8,265.47,225.67Z"/><path d="M95.88,201.12c1.29-1.3,1.51-2.72,2.54-4,3.32-4.1,6.66-6.42,11.53-7.52a84.93,84.93,0,0,1,18.28-1.88c36.29-.1,65.78-.91,102.09-.87.47,0,7.74.59,8.19.38l8.89,1.1a60.15,60.15,0,0,1,20.9,10.51c13.76,10.63,18.5,23.78,11.26,38.6C271.43,254.12,247,262,222.29,254.92c-24.47-7-49.5-12.61-74.29-18.83-9.88-2.48-19.73-5.06-29.64-7.42-11.71-2.79-20.34-7.88-23.08-17.8-.27-1,.24-1.85-.26-2.81Zm183.81,25c1.34-8.93-3.69-20-17.85-28.91-10.4-6.51-22.12-7.13-34-7.16-21.47-.05-42.93.06-64.4.12-15.55,0-31.14-.26-46.62.3-10.55.38-18,6.62-19.18,14.39-1.16,7.57,4,15.3,13.62,18.9,5.59,2.1,11.68,3.34,17.59,4.83,33.69,8.45,67.33,17.07,101.12,25.22C252.81,259.36,275.43,247.5,279.69,226.15Z"/></g></g></svg>