<svg xmlns="http://www.w3.org/2000/svg" viewBox="0 0 177.75 177.74"><title>Asset 11</title><g id="Layer_2" data-name="Layer 2"><g id="Layer_1-2" data-name="Layer 1"><path d="M177.75,88.82A88.88,88.88,0,1,1,89.9,0,88.89,88.89,0,0,1,177.75,88.82Zm-89.6,30.72c-.26.29-.39.41-.49.55l-5.56,7.24c-3.64,4.73-7.29,9.45-10.92,14.19a14.49,14.49,0,0,0-1.58,2.54c-.48,1-.79,2.1-1.17,3.16l-5.36,14.71c-.44,1.21-.87,2.42-1.34,3.72a80.79,80.79,0,0,0,18.92,4.17c.5-1.55,1-3,1.47-4.55,1.85-5.84,3.68-11.69,5.54-17.52a9,9,0,0,0,.51-3.1c0-1.41,0-2.82,0-4.23q0-9.83,0-19.66Zm-9-59.71c.41-1.28.76-2.32,1.09-3.37q3.8-12,7.58-24.08a7.74,7.74,0,0,0,.35-2.25c0-7.27,0-14.54,0-21.81V7.48h-.72a86.08,86.08,0,0,0-17,2c-1.69.35-1.72.44-1.49,2.19,0,.14,0,.29,0,.43.28,6.57.6,13.13.83,19.7a16.68,16.68,0,0,0,1,5.39C73.29,43.73,75.62,50.3,78,56.84,78.33,57.77,78.69,58.7,79.11,59.83Zm84-4.35c-1.82.41-3.59.83-5.36,1.22-5.31,1.17-10.62,2.32-15.92,3.5a18.19,18.19,0,0,0-3.5,1,44.32,44.32,0,0,0-3.87,2.21l-17.13,9.87c-.46.27-.91.56-1.43.88a1.66,1.66,0,0,0,.29.13l15.46,2.06c3.51.47,7,.95,10.55,1.38a14.22,14.22,0,0,0,3.84.26c5.41-.85,10.8-1.86,16.2-2.81L168.9,74A78,78,0,0,0,163.13,55.48ZM69.71,64.87c0-.77,0-1.37,0-2-.17-3.9-.35-7.81-.53-11.71C69,46,68.74,40.85,68.49,35.67a4.84,4.84,0,0,0-.29-1.39Q64.87,25,61.5,15.79c-.38-1-.78-2.09-1.18-3.17A81,81,0,0,0,43.1,21.55c.81,1.94,1.63,3.85,2.42,5.76,2,4.89,4.07,9.77,6,14.68a16.8,16.8,0,0,0,2.91,4.72c4.39,5.17,8.73,10.38,13.09,15.58Zm-10.85,18-3.4-3.7c-4.58-5-9.18-10-13.72-15a22.79,22.79,0,0,0-6.16-5.18c-3.72-2-7.32-4.18-11-6.29L18,48.81a79.9,79.9,0,0,0-7.33,17.47.8.8,0,0,0,.25.63,3.07,3.07,0,0,0,.75.42q9.56,5,19.13,9.93a10.86,10.86,0,0,0,2.36,1c1.46.35,3,.54,4.45.8L52,81.62Zm3,20.75c-.34-.08-.5-.12-.67-.15l-15.37-2c-3.54-.47-7.08-.95-10.62-1.4A18.5,18.5,0,0,0,32,99.7a30.84,30.84,0,0,0-3.68.6l-13.5,2.39-5.94,1.06a77.61,77.61,0,0,0,5.8,18.52l1.28-.3c6.7-1.48,13.41-2.95,20.11-4.45a13.09,13.09,0,0,0,3.54-1.07c5.77-3.23,11.47-6.57,17.2-9.88Zm97.84,25.36a79.32,79.32,0,0,0,7.47-17.9l-1.52-.78q-9.39-4.9-18.79-9.8a11,11,0,0,0-2.44-1c-1.46-.35-3-.54-4.45-.8l-16.75-3c-1.39-.24-2.79-.47-4.35-.73l3.85,4.23q7,7.64,14,15.26a15.54,15.54,0,0,0,2.86,2.8c3,1.9,6.15,3.61,9.24,5.4ZM119.24,84.27c.21.15.28.21.36.25l7.82,4.1,16,8.36a15.19,15.19,0,0,0,2.6,1.2,30,30,0,0,0,3.31.62l16.12,2.85c1.22.21,2.44.4,3.6.6.08-.1.1-.11.11-.13a83.79,83.79,0,0,0,.92-18.71c0-.42-.23-.52-.58-.56l-11-1.46C155,80.9,151.51,80.42,148,80a10.11,10.11,0,0,0-2.84-.24c-5.88,1-11.74,2.05-17.61,3.09Zm27.92-52.11-5.6,3.55c-4.35,2.76-8.7,5.51-13,8.31a14.25,14.25,0,0,0-2.88,2.22c-1.87,2.06-3.59,4.25-5.38,6.37L109.8,65c-.19.23-.37.47-.61.79a3,3,0,0,0,.49,0l4.9-1.09,8.47-1.88c3.46-.77,6.91-1.55,10.37-2.3a24.43,24.43,0,0,0,7.92-2.76c4.66-2.88,9.48-5.52,14.23-8.26,1.13-.65,2.25-1.33,3.37-2C157.51,44.29,149.64,34,147.16,32.16ZM108,112.86c0,.3-.05.39,0,.48q.25,6,.51,12.07.36,8.16.73,16.32a4.53,4.53,0,0,0,.16,1.28c.79,2.26,1.62,4.5,2.44,6.76q2.22,6.14,4.44,12.29c.37,1,.79,2,1.2,3.11,1.39-.57,2.73-1.09,4-1.67a82.29,82.29,0,0,0,12.05-6.54c1.08-.71,1.08-.72.61-1.85q-4.1-10-8.2-19.91a11.78,11.78,0,0,0-1.9-3.25c-3.87-4.55-7.7-9.13-11.54-13.7Zm-9.39,5.06c-.12.34-.19.51-.24.69L94.79,130c-1.43,4.51-2.87,9-4.28,13.54a12.31,12.31,0,0,0-.85,3.38c-.08,7.51,0,15,0,22.53v.76c.46,0,.84,0,1.21,0,2.32-.15,4.66-.17,7-.49,3.48-.49,6.93-1.19,10.4-1.79.51-.09.66-.3.63-.82-.09-1.34-.12-2.68-.17-4q-.38-9.17-.77-18.34a10.81,10.81,0,0,0-.63-3.36c-2.4-6.49-4.75-13-7.11-19.48C99.65,120.64,99.17,119.35,98.64,117.91ZM116,12.07c-1.46-.45-2.84-.9-4.24-1.31A74.3,74.3,0,0,0,98.46,8c-1.38-.15-1.38-.14-1.81,1.22q-3.27,10.34-6.53,20.67A7.3,7.3,0,0,0,89.64,32c0,8.49,0,17,0,25.48,0,.18,0,.35,0,.65.19-.23.3-.35.4-.48l4.73-6.16q5.5-7.15,11-14.3a15.79,15.79,0,0,0,2.74-4.42c1.68-4.89,3.51-9.73,5.28-14.58ZM30.53,145.63c2.14-1.37,4.22-2.72,6.32-4.06,3.76-2.39,7.53-4.76,11.29-7.16a17.68,17.68,0,0,0,4.75-3.76c2.27-2.88,4.71-5.62,7.07-8.42q3.1-3.68,6.17-7.39L68.52,112c-.09,0-.14-.06-.18-.05l-12.61,2.8c-4.46,1-8.93,2-13.39,3a13,13,0,0,0-3.49,1c-5.77,3.23-11.48,6.56-17.2,9.87-1,.56-1.92,1.13-2.9,1.71A82,82,0,0,0,30.53,145.63Zm32.21-72.7c-1.31-3.18-2.52-6.14-3.74-9.1q-2.73-6.6-5.48-13.19c-1.15-2.74-2.14-5.52-4.2-7.84C45.47,38.47,41.83,34,38.1,29.52L36,27A81.57,81.57,0,0,0,22.86,41.25c.58.65,1.13,1.27,1.7,1.89l14,15.33a6.28,6.28,0,0,0,1.29,1.23c2.82,1.68,5.67,3.3,8.51,4.94l7,4.06Zm79,77.81a81.5,81.5,0,0,0,13.12-14.26c-1.21-1.33-2.36-2.61-3.53-3.89-3.25-3.55-6.48-7.13-9.78-10.64-1.57-1.68-2.93-3.56-5-4.75-7-4-14-8-21-12.07a3.79,3.79,0,0,0-.5-.19c.12.31.19.5.27.7,1.11,2.67,2.23,5.34,3.33,8q3.5,8.5,7,17a8.14,8.14,0,0,0,1,2.11c3.89,4.71,7.84,9.37,11.76,14ZM53.43,162.17c1.17-1.51,2.3-2.94,3.41-4.39,3.37-4.39,6.76-8.77,10.1-13.18a23.94,23.94,0,0,0,2-3.13,18.61,18.61,0,0,0,.95-2.48l6.59-18.14c.39-1.09.78-2.18,1.21-3.41l-.52.29-7,4.48q-7.77,4.93-15.54,9.86a10.52,10.52,0,0,0-2.42,1.76c-4,4.69-8,9.44-12,14.18l-3.08,3.69A81.26,81.26,0,0,0,53.43,162.17ZM100.07,60.31c.42-.24.69-.39.95-.55l6.78-4.33q7.76-4.93,15.53-9.86a9.71,9.71,0,0,0,2.24-1.64c4.31-5,8.56-10.14,12.83-15.22L140.62,26a80.72,80.72,0,0,0-16.28-10.45c-.21.24-.37.41-.52.6q-6.52,8.49-13,17a15.18,15.18,0,0,0-1.91,3c-.78,1.77-1.35,3.63-2,5.45l-5.46,15ZM58.36,93.48v-.15L49.91,88.9q-7.8-4.07-15.61-8.14a10.59,10.59,0,0,0-2.73-1.23c-5.67-1.07-11.36-2-17-3l-5.95-1a81.64,81.64,0,0,0-.89,19.36l8,1.08q7,.93,14,1.84A11.46,11.46,0,0,0,32.7,98c3.46-.52,6.89-1.19,10.33-1.8l10-1.76ZM99.53,91.4c-1.37-.38-2.35-1-2.39-2.45s1-2.23,2.4-2.63l-1.35-3.2c-1.25.71-2.42.91-3.44-.07s-.85-2.24-.14-3.52L91.4,78.21c-.39,1.44-1.11,2.43-2.59,2.4s-2.09-1-2.47-2.4l-3.24,1.35c.76,1.24.92,2.4,0,3.42s-2.23.86-3.54.15l-1.31,3.22c1.41.38,2.34,1.06,2.38,2.44s-.95,2.2-2.39,2.61l1.32,3.2c1.27-.7,2.45-.93,3.48.11s.84,2.2.1,3.47l3.23,1.33c.37-1.36,1-2.3,2.35-2.38,1.57-.1,2.31.91,2.71,2.4l3.22-1.36c-.74-1.24-.91-2.4,0-3.39s2.26-.92,3.57-.18ZM82.06,68c.12-.08.17-.09.2-.12,1.87-2.43,3.75-4.85,5.61-7.3a1.39,1.39,0,0,0,.27-.78q0-11.58,0-23.16a21,21,0,0,0-1,2.52c-1.13,3.6-2.24,7.21-3.37,10.82-1.26,4-2.53,8-3.79,12a.81.81,0,0,0,0,.49C80.69,64.24,81.37,66.07,82.06,68ZM37.51,98.67v.1c.3.05.61.12.91.16l9.33,1.21c4.65.61,9.32,1.15,14,1.89a5.8,5.8,0,0,0,4.58-.94c1-.7,2.1-1.25,3.26-1.93-2.91-1.52-5.69-3-8.48-4.41a1.52,1.52,0,0,0-.89-.07l-17.52,3.1Zm50.64,12.21a1.32,1.32,0,0,0-.3.07q-4,2.49-7.89,5a1.07,1.07,0,0,0-.34.52c-.57,1.52-1.12,3.05-1.68,4.58l-5.47,15c-.25.68-.48,1.37-.72,2.05,2.3-2.79,4.5-5.63,6.68-8.48q4.6-6,9.19-12a2,2,0,0,0,.5-1C88.17,114.78,88.15,112.87,88.15,110.88Zm20.11-32.33c.18.12.27.19.38.25,2.63,1.38,5.25,2.77,7.89,4.12a1.77,1.77,0,0,0,1,.14c2-.33,4-.71,6-1.06L137,79.63l3.16-.57c-3.84-.62-7.66-1.11-11.47-1.61q-6.73-.89-13.45-1.81a3.44,3.44,0,0,0-2.8.41A14.78,14.78,0,0,1,111,77ZM70.31,77.29c-.14-3.33-.27-6.49-.43-9.65a1.2,1.2,0,0,0-.32-.6q-1.89-2.31-3.81-4.6l-9-10.73c-.65-.78-1.32-1.54-2-2.31.6,1.76,1.31,3.45,2,5.14q3.94,9.55,7.88,19.1a1.21,1.21,0,0,0,.38.58C66.73,75.23,68.45,76.22,70.31,77.29Zm33.22-4.72c.31.06.52.11.73.14,2.75.36,5.51.7,8.26,1.09a2.17,2.17,0,0,0,1.49-.28q7.82-4.54,15.66-9.06l3.95-2.3a2.58,2.58,0,0,0-1,.07c-7.61,1.68-15.22,3.38-22.84,5a5.18,5.18,0,0,0-3.57,2.05C105.44,70.44,104.47,71.44,103.53,72.57Zm7,13.24c2.24,2.44,4.38,4.77,6.53,7.09a1.16,1.16,0,0,0,.62.29l19.44,3.43,3.24.58c-1.31-.84-2.65-1.58-4-2.28-5.8-3-11.63-6-17.39-9.07a5.87,5.87,0,0,0-4.61-.75C113.17,85.43,111.91,85.57,110.54,85.81ZM75.32,71.54c.1-.11.12-.12.13-.14,1-3,1.91-6,2.84-9a1.16,1.16,0,0,0-.07-.68q-3.15-8.71-6.32-17.4c-.52-1.43-1.06-2.84-1.59-4.27a1.77,1.77,0,0,0-.1.74q.28,6.4.56,12.8t.56,12.8a1,1,0,0,0,.14.54C72.73,68.48,74,70,75.32,71.54Zm32.12,28.9c.14,3.29.27,6.4.42,9.52a1.39,1.39,0,0,0,.33.75q6,7.22,12.09,14.43l2.65,3.15a21.62,21.62,0,0,0-1-2.91q-4.39-10.65-8.79-21.29a1.29,1.29,0,0,0-.45-.6C111,102.48,109.27,101.51,107.44,100.44Zm-33.22,4.73c-.29-.06-.5-.12-.71-.15-2.73-.36-5.46-.7-8.19-1.07a2.19,2.19,0,0,0-1.51.22Q55,109.29,46.14,114.38c-.71.41-1.4.84-2.1,1.25,2-.33,3.87-.75,5.79-1.17,6.1-1.34,12.19-2.73,18.3-4a5,5,0,0,0,3.41-2.05C72.33,107.28,73.3,106.27,74.22,105.17Zm33.19,32.43.14,0c0-.23,0-.46,0-.69q-.24-5.75-.49-11.51c-.17-3.91-.44-7.81-.46-11.72a6.18,6.18,0,0,0-1.85-4.79c-.84-.81-1.53-1.77-2.33-2.72-.07.17-.11.25-.14.33-.93,2.92-1.86,5.83-2.77,8.76a1.41,1.41,0,0,0,.09.82q3.14,8.67,6.31,17.33Zm-1.4-98-.1,0q-3.24,4.2-6.49,8.4c-2.76,3.59-5.46,7.23-8.29,10.76a5.66,5.66,0,0,0-1.55,4.4,33.82,33.82,0,0,1,0,3.81,1.8,1.8,0,0,0,.29-.1q3.91-2.48,7.82-5a1.17,1.17,0,0,0,.39-.56c.58-1.54,1.15-3.09,1.71-4.65q2.36-6.47,4.72-12.94C105.05,42.3,105.53,40.93,106,39.57ZM89.62,141h.12c.06-.16.12-.31.17-.47q1.61-5.1,3.21-10.19,2.29-7.25,4.58-14.5a1.15,1.15,0,0,0-.05-.67c-.5-1.44-1-2.88-1.55-4.32-.13-.36-.3-.72-.48-1.14-2,2.55-3.88,5-5.75,7.49a1.64,1.64,0,0,0-.24.94q0,11.12,0,22.23ZM67.21,91.94c-2.24-2.44-4.33-4.75-6.45-7a1.52,1.52,0,0,0-.81-.39q-9.72-1.73-19.44-3.43l-2.93-.5a1.12,1.12,0,0,0,.53.5l8.6,4.47L60.6,92.8a1.1,1.1,0,0,0,.6.18C63.15,92.65,65.1,92.31,67.21,91.94ZM97.07,68.53l.41-.06c2.83-.63,5.65-1.27,8.49-1.86a2.11,2.11,0,0,0,1.3-.79c.89-1.1,1.8-2.18,2.71-3.26l10.42-12.37c.47-.56.93-1.15,1.5-1.86l-.32.13-8.92,5.66L99.49,62.49a.93.93,0,0,0-.37.41C98.44,64.74,97.78,66.59,97.07,68.53ZM56,129.24l.08.12c.3-.18.61-.35.91-.54L65,123.68q6.61-4.21,13.21-8.43a1.28,1.28,0,0,0,.46-.59c.56-1.48,1.1-3,1.64-4.45.11-.3.19-.61.32-1-2.62.59-5.08,1.23-7.57,1.67a4.63,4.63,0,0,0-3.41,2,1.71,1.71,0,0,1-.14.16l-9.4,11.24Zm78.34-15,.09-.12-1.32-1.47c-5-5.46-10-10.9-15-16.41a5.47,5.47,0,0,0-3.89-2.15,33.1,33.1,0,0,1-3.79-.66c0,.12,0,.14,0,.16q1.79,4.38,3.6,8.76a1.06,1.06,0,0,0,.44.44q3.75,2.2,7.51,4.38,5.13,3,10.28,5.9ZM67.37,84.32a3,3,0,0,0-.09-.45q-1.74-4.21-3.5-8.42a1,1,0,0,0-.42-.45q-4.77-2.79-9.55-5.56-4-2.3-8-4.57l-2.6-1.46a2.39,2.39,0,0,0,.15.29c5.44,5.94,10.92,11.84,16.29,17.85a5.73,5.73,0,0,0,4,2.15C64.87,83.79,66.08,84.09,67.37,84.32Zm20.74,67.3-.12,0-5.83,18.47,6,.23ZM67.43,10.28,61.7,12l6.42,17.62.15,0ZM116,165.69l-6.42-17.62-.15,0,.85,19.35Zm43-35.45-16.22-9.37-.08.1,13.08,14.3Zm-8.48-29.74-.05.15,17.16,8.95,1.27-5.85ZM111,30.14l.13.07L123,14.88l-5.53-2.29Zm48.74,18.65-16.16,9.33.05.15,18.87-4.17ZM10.09,68.14,8.79,74l18.34,3.24,0-.16ZM150.92,78.68v.19L170,81.39l-.75-5.93Zm-135.71,45L18,128.95l16.12-9.31-.06-.16Zm51.5,24-.13-.08L54.79,162.86l5.53,2.29ZM26.91,99l0-.16L7.78,96.35l.76,5.93ZM129.82,41.24l.1.12L146.18,31l-4.4-4ZM89.67,7.44V26.12h.1L95.59,7.69ZM49.13,40.34l.11-.08L41.85,22.38,37.1,26Zm79.5,97.06-.12.07,7.4,17.89,4.74-3.64ZM18.71,47.5l16.08,9.28.11-.15-13-14.15ZM36,150.77l12-14.28-.11-.11L31.57,146.72ZM88.14,62.93,88,62.85c-1.54,2-3,4-4.65,6A1.55,1.55,0,0,0,83.27,71c1.55-1,3.11-2,4.66-3a.57.57,0,0,0,.21-.41C88.15,66.08,88.14,64.5,88.14,62.93ZM80.63,113.7c.37-.22.6-.34.81-.48l5.93-3.77c.88-.56,1-.8.64-1.91l-5.36,1.19a.49.49,0,0,0-.29.27C81.79,110.51,81.24,112,80.63,113.7Zm33.66-30.06,0-.18-.68-.37c-2-1.07-4.08-2.12-6.1-3.2-.93-.5-1.21-.46-2,.39,1.2,1.3,2.39,2.61,3.6,3.9a.81.81,0,0,0,.61.21C111.24,84.17,112.76,83.9,114.29,83.65Zm-18.22-12c1.4.18,2.82.26,4.19.56a2.15,2.15,0,0,0,2.53-1c.67-.95,1.47-1.8,2.31-2.82-.37.05-.56.07-.74.11-2.24.5-4.47,1.06-6.73,1.48C96.66,70.13,96.1,70.49,96.07,71.63ZM73.13,78.8c.42-1.35.74-2.7,1.27-4a2.11,2.11,0,0,0-.47-2.66c-.85-.84-1.57-1.82-2.45-2.87,0,.45,0,.71,0,1,.1,2.25.25,4.5.27,6.75A1.57,1.57,0,0,0,73.13,78.8ZM97.12,64c-.33.19-.54.29-.73.42l-5.93,3.77c-1,.6-1,.76-.71,2L95.12,69a.47.47,0,0,0,.28-.26C96,67.22,96.51,65.7,97.12,64ZM66.57,102.61c2.72.38,5.21.69,7.69,1.09a1.58,1.58,0,0,0,2-1.07c-1.62-.84-3.27-1.7-4.92-2.55a.5.5,0,0,0-.4,0C69.51,100.91,68.13,101.71,66.57,102.61Zm35-27.5c1.63.85,3.25,1.7,4.89,2.52a.77.77,0,0,0,.58-.1c.74-.4,1.46-.82,2.18-1.24l2-1.16-.42-.1c-2.39-.32-4.79-.59-7.18-1A1.58,1.58,0,0,0,101.53,75.11Zm5.86,11.32c.59,1.42,1.24,2.78,1.72,4.2a1.77,1.77,0,0,0,1.7,1.38c1.26.14,2.5.42,4,.68-.36-.42-.57-.68-.79-.92-1.49-1.62-3-3.2-4.44-4.88A1.58,1.58,0,0,0,107.4,86.43ZM81.7,106.12c-1.84-.24-3.64-.47-5.44-.69a.57.57,0,0,0-.44.16c-1,1.21-2.05,2.43-3.2,3.81.45-.08.7-.11.95-.17,2.21-.49,4.41-1.06,6.64-1.46A1.56,1.56,0,0,0,81.7,106.12ZM70.35,91.31c-.56-1.35-1.19-2.67-1.66-4a2,2,0,0,0-1.88-1.56c-1.22-.1-2.42-.41-3.83-.66.34.4.54.66.76.9,1.5,1.64,3.06,3.24,4.49,4.94A1.58,1.58,0,0,0,70.35,91.31Zm34.28,7.62c-.55,1.73-1.1,3.43-1.61,5.15a1,1,0,0,0,.22.74c.8,1,1.63,1.95,2.45,2.92l.61.71c-.12-2.73-.29-5.27-.32-7.8A1.55,1.55,0,0,0,104.63,98.93Zm-6.13,14.2c.1-.24.17-.36.21-.48.73-2.27,1.4-4.57,2.2-6.81a1.58,1.58,0,0,0-.62-2.09.64.64,0,0,0-.17.11c-1.07,1.38-2.14,2.76-3.19,4.15a.66.66,0,0,0-.12.52C97.35,110,97.91,111.51,98.51,113.12ZM66,76.51c0,.07-.06.1-.05.11,1,2.39,2,4.77,2.94,7.16.43,1,.54,1.07,1.77,1-.08-1.81-.15-3.63-.25-5.44a.65.65,0,0,0-.27-.46C68.73,78.09,67.35,77.3,66,76.51ZM77.5,74c1-1.26,1.92-2.55,2.93-3.79a1.4,1.4,0,0,0,.28-1.66c-.55-1.26-1-2.58-1.48-4-.16.42-.27.67-.36.93-.68,2.14-1.31,4.31-2.05,6.43A1.61,1.61,0,0,0,77.5,74Zm12.12,40.91a2.77,2.77,0,0,0,.3-.26c1.49-1.93,2.94-3.91,4.49-5.79a1.57,1.57,0,0,0,.07-2.18c-1.55,1-3.08,1.94-4.61,2.92a.57.57,0,0,0-.23.4C89.62,111.63,89.62,113.22,89.62,114.94Zm22.25-13.66c-.09-.26-.13-.39-.18-.51q-1.4-3.41-2.81-6.83c-.41-1-.48-1-1.54-1,0,1.84,0,3.67,0,5.51a.65.65,0,0,0,.31.44C109,99.66,110.39,100.43,111.88,101.28ZM63.29,94.16c.25.16.34.24.44.29l6.66,3.48c.8.42,1.09.34,1.85-.48a36.64,36.64,0,0,1-2.47-2.77,2.58,2.58,0,0,0-3.35-1.1,1.17,1.17,0,0,1-.21,0Zm37.83,8.23.64.73.55-1.9ZM72,81.58l.16,0,.56-1.21L71.9,80Zm19,25.58,0-.18-1.38.12.06.88ZM106.69,85l.92-.19-1.3-1.38Zm.26,6.3.93.19-.68-1.66-.12,0ZM70.81,86.44l-.92-.15.64,1.52.16,0ZM76,74.67l-.49,1.7,1.14-1Zm-2.5,23.94-.74.5,1.46.78.08-.09Zm31.59-20-1.48-.76-.07.1.76,1.14ZM81.61,71.14l-1,1.37.08.08L81.9,72Zm12.8.34.28-.84L92.82,71Zm-7.65-.9c1.44.2,1.49.17,1.26-.77Zm9,35.17.36.81,1.16-1.5Zm-10.9.93-1.56-.42-.26.85ZM71.06,92.74l-.92.21,1.12,1.17.11-.06Zm6.68,10.6-.54.69,1.63.19,0-.12Zm28.1-5.58-.11-1.87-.7,1.44ZM99.07,73.53l-.08.17,1,.69.54-.68Z"/><path d="M94.69,88.84a5.82,5.82,0,1,1-5.92-5.79A5.78,5.78,0,0,1,94.69,88.84Z"/></g></g></svg>