<svg xmlns="http://www.w3.org/2000/svg" viewBox="0 0 41 40.92"><title>Asset 12</title><g id="Layer_2" data-name="Layer 2"><g id="Layer_1-2" data-name="Layer 1"><path d="M1.72,12.05c1.41.42,2.41.14,3-.78s.46-2-.65-3.15L5.7,6.18a2.4,2.4,0,0,0,1.86.73A2.25,2.25,0,0,0,8.92,6.3a2.3,2.3,0,0,0,.25-3L11.48,2A2.42,2.42,0,0,0,13,3.26a2.28,2.28,0,0,0,1.46-.09c1-.39,1.44-1.29,1.32-2.73L18.34,0a2.45,2.45,0,0,0,1,1.69,2.18,2.18,0,0,0,1.32.38c1.08,0,1.78-.66,2.21-2l2.54.45c0,1.56.47,2.33,1.46,2.67s1.93,0,2.8-1.08c.36.2.74.39,1.1.6s.77.47,1.18.73a2.13,2.13,0,0,0-.22,2,3,3,0,0,0,.74,1,2.21,2.21,0,0,0,2.92-.11l1.67,2a2.39,2.39,0,0,0-.93,1.64,2.25,2.25,0,0,0,.32,1.39c.56.91,1.47,1.21,2.87.89l.9,2.42a2.25,2.25,0,0,0-1.58,2.57c.19,1.16.92,1.71,2.36,1.91v2.62c-1.57.3-2.23.91-2.36,2.13a2.3,2.3,0,0,0,1.62,2.34l-.87,2.43a2.26,2.26,0,0,0-3,1.12c-.48.95-.25,1.83.69,2.81-.26.34-.52.69-.8,1s-.58.67-.89,1a2.26,2.26,0,0,0-1.86-.67,2.13,2.13,0,0,0-1.23.52c-.86.74-1,1.71-.36,3.08-.29.19-.59.39-.89.57s-.9.51-1.36.77a2.42,2.42,0,0,0-1.47-1.28,2.12,2.12,0,0,0-1.37,0c-1.12.45-1.56,1.29-1.43,2.82l-2.62.48a2.36,2.36,0,0,0-1-1.84,2.19,2.19,0,0,0-1.35-.37c-1.11.06-1.76.7-2.17,2.22l-2.62-.45c.23-1.47-.31-2.5-1.44-2.87a2.28,2.28,0,0,0-2.82,1.32L9.13,37.62a2.31,2.31,0,0,0,.41-1.91,2.17,2.17,0,0,0-.79-1.23,2.29,2.29,0,0,0-3.09.24L3.9,32.63a2.29,2.29,0,0,0,.76-3c-.57-1-1.64-1.37-3-.93L.76,26.25c1.47-.66,2-1.46,1.81-2.63s-1-1.76-2.57-1.88V19.07a2.28,2.28,0,0,0,1.94-.67,2.21,2.21,0,0,0,.62-1.33A2.31,2.31,0,0,0,.78,14.6Zm18.79,2.27a6.15,6.15,0,1,0,6.13,6.13A6.13,6.13,0,0,0,20.52,14.32Z"/></g></g></svg>