<svg xmlns="http://www.w3.org/2000/svg" viewBox="0 0 408.34 137.47"><defs><style>.cls-1{fill:#fff;}.cls-2{fill:none;}</style></defs><title>Asset 10</title><g id="Layer_2" data-name="Layer 2"><g id="Layer_1-2" data-name="Layer 1"><path d="M193.94,134.3m76.69.33c-10.65.93-55.49-2.33-65.88-4.35l-9.88-.67c-1.6,1-3.85.56-5.5.44-41-2.85-82-6-123-9a13.25,13.25,0,0,1-2.94-.5c0-6.75-1-12.79.26-18.35,1.31-6,4.72-11.58,7.06-17.4,4.05-10.11,8-20.26,13-33,.73,0,3.26-10.13,4-10.1l3.46-4.42c1.39-1.77,2.32-3.78,4.29-5.8L97,29s64.15.42,64.16,0l0-1.26.11-3.15H159c-9.29,0-18.57.1-27.86,0-10.79-.16-21.6-.25-32.36-1-4.07-.29-8.13-2.08-12-3.7C77.59,16,78.43,8.91,88.29,2.39L87.84.68A78.36,78.36,0,0,1,79,0L77.8.59C75.59,3.91,70,4.13,65.8,5.48c-6.65,2.14-13.34,4.18-20,6.26l2.71,3C33.78,17.42,14.18,16.75,6.36,36c2.38-1.71,26-16.9,39.38-15.21.4,19-4.54,35.67-18.61,48.63C6.85,62.3,11.61,52,9.08,30.75,8,35.49-1.92,43.68,1,51.15,2.56,55.25-1.47,54.28.61,61c5.67,3.53,6.49,4.22,11,7.45,6.9,4.93,12.76,9.58,22.55,7.73,6.52-1.23,13.93,1.5,20.71,3.31.73.2,1.15,6.84-.35,9.14-4.59,7-10.32,13.33-15.36,20.1-4.79,6.43-1.87,10.91,4.64,13,4.58,1.47,9.63,1.62,14.5,2q65.16,5.35,130.4,10.58m-.34-1.26c16.66.88,79.94,4.35,96.61,4.42,19.36.09,37.28-7.07,46.26-23.75,9.53-17.71,22.1-16.16,37-13.25,3.13.61,6.32,1,9.49,1.4,6.92.94,13.62.37,14.69-8.09,1.14-9-5.3-11.28-12.79-12-9.2-.93-18.45-1.7-27.49-3.49a13.36,13.36,0,0,1-8.33-6.41C340,64,337.2,55.65,334.29,47.39a7.54,7.54,0,0,1-.25-1c-1.78-1.83-3.41-3.74-4.94-5.4-7.37-8-16.34-13.12-26.24-17.53a6.7,6.7,0,0,1-.7-.4c-21.69-6.13-41.34-3.16-59.7,11,4.32-3.63,10.05-9.42,8.92-12.22-.47-.15-1.52-.34-2-.54H247c-8.65.07-17,2.5-25.46.7l-2.09.52c-.94.84-1,.82-1.39.8-25.5-1.48-29.77,0-46.12,1.12-.37,0-10.22.19-10.59.15,0,.9-.15,4.42-.15,4.42l10.74-2h52.87v0a9,9,0,0,1,2.27-.39,3.61,3.61,0,0,1,1.2.17,18.31,18.31,0,0,1,2.44-.74c5.81-1.26,11.37,6.23,6.24,10.71l-.17.15a4.9,4.9,0,0,1-1.43,2c-3,2.43-4.08,6.18-4.53,9.89a7.84,7.84,0,0,1-4.41,5.95c-4.8,7.81-2.26,19.13-.51,29.35a5.17,5.17,0,0,1,.3.45c.34.61,0,3.54.65,4.55h0c-.72,1.58,2,8.48,2,8.08.15,1.44-.22-2-.15-.54v.06a73.55,73.55,0,0,0,3.59,10.09l.21.17a4.46,4.46,0,0,1,1.89,1c1.42,1.34,3.33,2.4,4.57,4.24l23.81,19.62m-7.66-83.84c2.19-2.5,7.05-2.67,10.75-3.86l.12,2.65L252.81,61.23C253.66,55.28,253,50.46,255.07,48.07Zm6.21,40.07,14.29,3.22-4.85,15.15-11.44-16ZM247.4,102.94c-2.06-3-1.59-7.71-2.24-11.67l3.72-1.15,5.53,8.8,5.2,8.3-1.79,3.06C254.26,107.9,249.67,106.22,247.4,102.94Zm10.81,15.82c11.83-6.45,15.9-4.67,19.62,8.74Zm4.23-53.59,12-13.11,4.33,16.64Zm43.31,40.91-24.89,4.67C288.2,93.34,291.18,92.72,305.76,106.08Zm-5.66,18.81c-4,1.69-9.32.4-14.06.4l-.4-4.42,23.29-7.16C305.27,118.58,303.42,123.5,300.1,124.89ZM314,120.67c-1.1-13.91,2.05-17.11,14.62-15.35Z"/><path class="cls-1" d="M289.86,42.53c0-.27,1.6,10.2,1.6,10.2l10.41-7.26"/><path class="cls-2" d="M304.54,82.31l11.22,7.81s10.15-10,3.74-12.35S304.54,82.31,304.54,82.31Z"/><polygon class="cls-1" points="310.15 53.65 321.17 65.58 321.17 49.74 310.15 53.65"/><rect id="_Rectangle_" data-name="&lt;Rectangle&gt;" x="378.87" y="63.08" width="16.11" height="58.24" rx="8.06" ry="8.06" transform="translate(146.35 -224.55) rotate(39.38)"/></g></g></svg>