<svg xmlns="http://www.w3.org/2000/svg" viewBox="0 0 146.66 118.94"><title>Asset 9</title><g id="Layer_2" data-name="Layer 2"><g id="Layer_1-2" data-name="Layer 1"><path d="M146.66,70.55c-10.38-5.93-9.6-16.07-11.35-25.26-.83-4.36-2.94-8.53-3.43-12.9a82.7,82.7,0,0,1,0-16c.45-5.51,1.6-11,2.45-16.43-6.48.07-13,0-19.45.33-1.82.1-3.51,1.76-5.38,2.21-6.45,1.55-8.64,5.73-9.48,12.08a16.17,16.17,0,0,1-5.93,10c-8.32,6-18,5.6-27.78,4.13-3.1-.47-7.21-.88-9.44.69C48.95,35,40.45,36.24,31,36.16c-4.31,0-8.65,3.44-12,4.89,1.54,4.23,3.07,8,4.43,11.51,4-1.86,9.83-1.64,15.18-1a.84.84,0,0,1,.18-.06,5.38,5.38,0,0,1,.94,0,.71.71,0,0,1,.64-.06h0l0,0c7.22-.37,13.37-.45,19.47-1.07,4.38-.44,8.69-1.59,13.18-2.45.86,14-6.69,22.95-19.56,29A4.06,4.06,0,0,1,51.55,78a8.73,8.73,0,0,0-1.31.49,33.21,33.21,0,0,1-6.1,10.4c-.47,1.46-.88,3-1.28,4.45a.85.85,0,0,1,.2.2.6.6,0,0,1,.2,0l.21.07a.84.84,0,0,1,.42,1.27A1.79,1.79,0,0,1,43.52,96a.68.68,0,0,1-.25.47l0,0a5.46,5.46,0,0,1-.33.47,8,8,0,0,1-.54,1.64A4.12,4.12,0,0,1,41.9,100c1.57,4.38,3.68,8.61,5.14,13,5.51.69,11-2.24,15.83-4.52l.06,0a1,1,0,0,1,.18-.09.88.88,0,0,1,.62-.49c5.78-2.79,10.7-4.71,15.13-7.43,19.85-12.18,36.63-26.24,31.62-53.37-.42-2.29,2-5.11,3.13-7.68,1.92,7.23.06,14.69,2.42,20.39,2.57,6.21,8,12.34,17.66,12.82l-8.38-12.83C134,63.6,136.68,72.95,146.66,70.55ZM58.35,88.72a.78.78,0,0,1-.3.27,18,18,0,0,1-1.95.66l0,0a.77.77,0,0,1-.49.23,2.13,2.13,0,0,0-.21.12.88.88,0,0,1-.7.19.83.83,0,0,1-.42.17l0,0h0a6.13,6.13,0,0,1-1.35.68h0a4.72,4.72,0,0,1-1.77.54c-1,.47-2,1-3,1.52a.77.77,0,0,1-.35.1,1.22,1.22,0,0,1-1,.16,2,2,0,0,1-1.55-.73.8.8,0,0,1-.48-.74.79.79,0,0,1-.07-.47h0a.7.7,0,0,1,0-.38c.67-2,2.27-3.39,3.08-5.31a.86.86,0,0,1,.3-.36,4,4,0,0,1,1.75-2.2,55.67,55.67,0,0,0,6.72-4.51c3.33-4,11-5.42,12.27-11.52C73.06,81.3,70.73,85.9,58.35,88.72Zm13.82-7.31L77.34,45.7C93.14,51.12,93.94,65.69,72.17,81.41Z"/><path d="M15.06,42.31H32.3a0,0,0,0,1,0,0v71.83a4.35,4.35,0,0,1-4.35,4.35H14.32a4.82,4.82,0,0,1-4.82-4.82V47.87a5.57,5.57,0,0,1,5.57-5.57Z" transform="translate(-23.16 9.98) rotate(-17.46)"/></g></g></svg>