<svg xmlns="http://www.w3.org/2000/svg" viewBox="0 0 202.58 85.66"><defs><style>.cls-1,.cls-2{stroke:#000;stroke-miterlimit:10;stroke-width:2px;}.cls-2{fill:#fff;}</style></defs><title>Asset 14</title><g id="Layer_2" data-name="Layer 2"><g id="Layer_1-2" data-name="Layer 1"><path class="cls-1" d="M201.53,34.22a6.8,6.8,0,0,0,0-1.86c-.17-1.08-.23-2.18-.36-3.27a11.57,11.57,0,0,0-.28-1.53c-.28-1.08-.63-2.14-.89-3.23a7.21,7.21,0,0,0-.68-1.79c-.51-1-.92-2-1.39-2.94a10.34,10.34,0,0,0-.77-1.32c-.6-.87-1.27-1.68-1.82-2.57A6.25,6.25,0,0,0,194,14.23a17.07,17.07,0,0,1-2-2,6.66,6.66,0,0,0-1.59-1.35c-1.24-.81-2.43-1.68-3.67-2.53l.08-.12a.68.68,0,0,1-.26-.38c-.22.27-.46.41-.8.25L183.52,7a.62.62,0,0,1-.22-.19h0a7.71,7.71,0,0,1-1.05-.2h-.79c-.07.51-.64.77-.63,1.51.22-.17.34-.25.44-.35a6.89,6.89,0,0,1,.65-.58.37.37,0,0,1,.37.07.47.47,0,0,1,0,.37h.12a.75.75,0,0,1,.18-.29.67.67,0,0,1,.87,0h0l.26.06a1.35,1.35,0,0,1,.46.33.69.69,0,0,1,.17.48l1.23.61a3.46,3.46,0,0,1-.22.28.83.83,0,0,1,.29.39l.22-.18a1,1,0,0,1,1.24,0,1.28,1.28,0,0,1,.47,1.24,1,1,0,0,1-.94.87,1.88,1.88,0,0,1-.82-.18c-.43-.2-.82-.48-1.35-.79l.13-.11a.82.82,0,0,1-.32-.34l-.2.13c-.11.07-.32,0-.47,0s-.52-.21-.85-.35h0a.64.64,0,0,1-.14-.06.75.75,0,0,1-.23-.31l-.26-.18a.44.44,0,0,1-.07.39c-.78,0-.74-.79-1.08-1.26-.41.42.06.88-.26,1.27l1.27.86,0,.3.68,0c0-.31.12-.27.66-.06l-.15.09h.11a.64.64,0,0,1,.47.23c.45-.13.75.06,1.37.64a2.52,2.52,0,0,0,1,.59A4.93,4.93,0,0,1,188.64,14a2.61,2.61,0,0,0,.83.67,5.17,5.17,0,0,1,2.22,2.23,2.59,2.59,0,0,0,.69.83,5.39,5.39,0,0,1,1.91,2.71,2.36,2.36,0,0,0,.52.87,5.64,5.64,0,0,1,1.38,2.8,3.74,3.74,0,0,0,.41,1.18,5.66,5.66,0,0,1,.87,3.17,3.08,3.08,0,0,0,.25,1.15,5.68,5.68,0,0,1,.32,3.14,3.34,3.34,0,0,0,0,1.18,6.34,6.34,0,0,1-.18,3.17,3.52,3.52,0,0,0-.18,1.24,5.58,5.58,0,0,1-.7,3.07,4.08,4.08,0,0,0-.4,1.26,5.56,5.56,0,0,1-1.19,2.84,3,3,0,0,0-.54,1,6,6,0,0,1-1.7,2.72,3.11,3.11,0,0,0-.67.86,5.3,5.3,0,0,1-2.18,2.4,2.57,2.57,0,0,0-.78.75,5.56,5.56,0,0,1-2.47,2,3,3,0,0,0-1,.66,4.81,4.81,0,0,1-2.5,1.36,3.64,3.64,0,0,0-1.43.61,4.12,4.12,0,0,1-2.4.78l-.45.29A15.36,15.36,0,0,1,175,60.73a1,1,0,0,1,1,.4,2.78,2.78,0,0,1,.29.63,1.3,1.3,0,0,1-1.17,1.31,14.3,14.3,0,0,0-3.79,1,1.5,1.5,0,0,1-.27.09,1.14,1.14,0,0,1-1.36-1.34,1.08,1.08,0,0,1,.87-1c.34-.09.71-.08,1.05-.18.94-.26,1.87-.52,2.8-.82a17.23,17.23,0,0,1-3.46.32l-2.35.71a5.55,5.55,0,0,1-1,.26,33.84,33.84,0,0,0-4.17,1c-1.46.34-2.93.63-4.36,1.1a16,16,0,0,1-2,.35c-.47.09-.93.22-1.39.32l-2.85.66a13.82,13.82,0,0,0-1.59.4,15,15,0,0,1-3.5.73,11.88,11.88,0,0,0-1.18.25c-1,.21-1.91.41-2.86.63s-1.71.45-2.57.63-1.64.26-2.47.4a7.62,7.62,0,0,0-1.12.22,14.53,14.53,0,0,1-3.58.69,2.57,2.57,0,0,0-.77.15,12.7,12.7,0,0,1-4,.77,3.21,3.21,0,0,0-.84.15,12.85,12.85,0,0,1-3.58.65,3.82,3.82,0,0,0-.91.2,14.35,14.35,0,0,1-3.51.64,7.3,7.3,0,0,0-1.48.25,14.62,14.62,0,0,1-3.17.52,4.76,4.76,0,0,0-1.19.2,12.14,12.14,0,0,1-3.73.57,3.1,3.1,0,0,0-1,.17,14.69,14.69,0,0,1-3.53.55,5.78,5.78,0,0,0-1.12.18,12.42,12.42,0,0,1-3.6.5,7.52,7.52,0,0,0-1.27.18l-3,.43a16.06,16.06,0,0,0-1.62.24,12.3,12.3,0,0,1-3.25.4,5.78,5.78,0,0,0-1.48.19,14.14,14.14,0,0,1-3.26.38,4.68,4.68,0,0,0-1.2.17,14.16,14.16,0,0,1-3.82.42,2.42,2.42,0,0,0-.64,0,16.28,16.28,0,0,1-4,.44A4,4,0,0,0,77,78a12.45,12.45,0,0,1-3.47.34,5.52,5.52,0,0,0-1.27.12,12.48,12.48,0,0,1-3,.27,6.06,6.06,0,0,0-1.42.13,14.21,14.21,0,0,1-3.62.31,5.39,5.39,0,0,0-1.35.1,11.87,11.87,0,0,1-3.13.24,4.38,4.38,0,0,0-1.2.09,16.38,16.38,0,0,1-4,.31,19.28,19.28,0,0,0-2.27.21,4.41,4.41,0,0,1-.71.05,12.67,12.67,0,0,0-3.55.24,1.7,1.7,0,0,1-.5.06c-2.12-.18-4.22.3-6.34.18a13,13,0,0,0-1.56.1c-.92.06-1.85.15-2.77.18s-1.7,0-2.55,0l0-.05h-.13l-.41,0h-.06a2.87,2.87,0,0,1-.57,0,3.37,3.37,0,0,1-1.41-.18,19.64,19.64,0,0,1-2-.41,4,4,0,0,1-2.61-4,3.6,3.6,0,0,1,.92-3.56,4,4,0,0,1,1.2-1.84,5.31,5.31,0,0,1,.45-.63,1.46,1.46,0,0,1-.26-.14c.38-.42.77-.82,1.11-1.26s.64-.93,1-1.38a1.26,1.26,0,0,1,.38-.35A7,7,0,0,0,34,64.9c.4-.55.92-1,1.37-1.53s.83-.9,1.19-1.39a6.49,6.49,0,0,1,2.09-1.9,4.34,4.34,0,0,0,1.12-.91,13.65,13.65,0,0,1,2.59-2.36,2.54,2.54,0,0,0,1-1.25,5.38,5.38,0,0,1,2-2.51,2.45,2.45,0,0,0,1-2.37,17.3,17.3,0,0,1,.17-3.36,2.28,2.28,0,0,0-.88-2.41,5.32,5.32,0,0,1-1.89-2.56,2.18,2.18,0,0,0-2-1.54,18.65,18.65,0,0,1-3.05-.71,3.07,3.07,0,0,0-2-.07,4.85,4.85,0,0,1-2.68.09,5.22,5.22,0,0,0-1.84-.05c-.63.08-1.27.05-1.9.07l.42-.31h-.59l-.25,0c1-.05.31,0-.12.08a.65.65,0,0,0,.5.22,1.52,1.52,0,0,1-.59,0,2.8,2.8,0,0,0-.74-.1l-.34.06L28,40.2l-.44.14a.93.93,0,0,1-.25,0,.73.73,0,0,1,0-.11A8.26,8.26,0,0,1,25,39.94a17,17,0,0,1-9.1-1,12.84,12.84,0,0,1-4.62-2.18,12,12,0,0,1-3.6-4.31c-.13-.22-.27-.44-.39-.67a14.32,14.32,0,0,1-2-4.42,16.24,16.24,0,0,1-1-6.72,16.64,16.64,0,0,1,4-9.75,9.2,9.2,0,0,1,3.8-3.26l.63-.27a12.51,12.51,0,0,1,4.51-2.16,10.67,10.67,0,0,1,5.09,0,22,22,0,0,1,8.05.68c0-.35.12-.46.55-.42a1.4,1.4,0,0,1,.35.06A11,11,0,0,0,34.4,6c.66.05,1.32.19,2,.28l1.84.22,3,.37,1.83.23c.92.11,1.84.23,2.76.32.56.06,1.13.08,1.7.14l3,.33,1.76.22,3,.31a14.62,14.62,0,0,0,1.49.1,13.7,13.7,0,0,1,3.75.41,2.4,2.4,0,0,0,.7.06,14.34,14.34,0,0,1,3.55.28,3.68,3.68,0,0,0,1.06.08,13.14,13.14,0,0,1,3.69.25A11.14,11.14,0,0,0,71,9.66l3.27.25a6.34,6.34,0,0,0,.92.08,15.78,15.78,0,0,1,4.19.25,6.74,6.74,0,0,0,.93,0c1.14.06,2.27.14,3.41.19.64,0,1.28,0,1.92,0,.85,0,1.7.11,2.56.15s1.9,0,2.84.09c.71,0,1.42.15,2.13.2.47,0,.95,0,1.42,0a29,29,0,0,1,3,.09,16.9,16.9,0,0,0,2.13.07c1,0,1.94.09,2.91.13.31,0,.62,0,.92,0a29.07,29.07,0,0,1,3.06,0,22,22,0,0,0,3.42,0,5,5,0,0,1,1.35.05,6.26,6.26,0,0,0,2.06,0,10.14,10.14,0,0,1,3.34,0,5.21,5.21,0,0,0,1.14,0l3.28,0c.54,0,1.09,0,1.63-.05a12.81,12.81,0,0,1,3.7,0,5,5,0,0,0,1.13-.05l1.09-.07c0,.25-.05.5-.08.75l.42,0,0-.15c.07-.57.13-.65.67-.61A14.74,14.74,0,0,0,133,11a12.32,12.32,0,0,1,2.28,0,14.17,14.17,0,0,0,2.49-.08,19.26,19.26,0,0,1,2.13,0,11.51,11.51,0,0,0,1.56-.06,11.31,11.31,0,0,1,3.13-.19,12.85,12.85,0,0,0,3.06-.18,1.78,1.78,0,0,1,.42,0c1.67.24,3.32-.26,5-.26a31.61,31.61,0,0,0,4.47-.25,1,1,0,0,1,.29,0,11.23,11.23,0,0,0,3.62-.26c.32-.06.66-.06,1.11-.09-.13.15-.17.24-.23.27l-.09.06a2.4,2.4,0,0,1,.42-.19,4.25,4.25,0,0,1,2.2-.15l.33,0,.73-.12,0,.06.9-.07a1.24,1.24,0,0,1,1.05-.12l.13.07a12.45,12.45,0,0,1,1.64.08,1,1,0,0,1,.56-.34,1.5,1.5,0,0,1,1.71-.26V8.62c1,0,1.94.67,2.85-.11,2.05.47,2.54.56,2.55.54a9.57,9.57,0,0,0-3.27-.76,2.7,2.7,0,0,1-1.11-.14l-.1-.05h0a.72.72,0,0,1-.85-.58,1.77,1.77,0,0,1,1.34-2.1.66.66,0,0,1,.74.36l.43.06a23.14,23.14,0,0,0,2.68.19,14.57,14.57,0,0,1-2.47-.52,3.44,3.44,0,0,0-.6-.16,8.91,8.91,0,0,0-1-.07V5.15l.79,0a.51.51,0,0,0-.18-.29h-.1l-.19,0a3,3,0,0,1-1.23.42l.34.35c-.4.09-.5,0-.51-.35h-.3a2.61,2.61,0,0,1-.7.2l.09.07-.64.12,0-.07a2.09,2.09,0,0,1-1.16-.16v0a13.66,13.66,0,0,1-3.82.47,6.61,6.61,0,0,0-2.26.21.58.58,0,0,1-.81-.38h0a.38.38,0,0,1-.43.09l.14.37-.6.08a30.47,30.47,0,0,0-3.56.18,14.37,14.37,0,0,1-2.21.08,8.52,8.52,0,0,0-1.42.1,12.9,12.9,0,0,1-3.48.21,13.41,13.41,0,0,0-1.49.05l-2.7.14a14.07,14.07,0,0,0-1.64.06,15.11,15.11,0,0,1-3.56.19,9.6,9.6,0,0,0-1.63.05,14.17,14.17,0,0,1-3.27.08,3.93,3.93,0,0,0-1,0,10.66,10.66,0,0,1-3.76.06,2.45,2.45,0,0,0-.92,0,14.3,14.3,0,0,1-3.35.1,15.87,15.87,0,0,0-1.64,0c-.64,0-1.28.07-1.92.07-.88,0-1.76-.12-2.63,0a19.27,19.27,0,0,1-3.49,0,2.16,2.16,0,0,0-.64,0,13.92,13.92,0,0,1-4.13,0,5,5,0,0,0-.92,0,12.2,12.2,0,0,1-3.77-.07,2,2,0,0,0-.64,0,12.36,12.36,0,0,1-4,0,5.74,5.74,0,0,0-1.28,0,12.38,12.38,0,0,1-2.84,0,8,8,0,0,0-1.91,0,12.13,12.13,0,0,1-3.2-.13,7.85,7.85,0,0,0-1.42-.09c-.93,0-1.85,0-2.78-.07a12.19,12.19,0,0,0-2-.08,10.85,10.85,0,0,1-2.13,0A14.62,14.62,0,0,0,83.1,7a8.2,8.2,0,0,1-1.64-.08,14.13,14.13,0,0,0-1.91-.19,16.56,16.56,0,0,1-4.19-.26,5.57,5.57,0,0,0-1,0c-.64,0-1.28,0-1.92,0-.85-.06-1.7-.19-2.55-.26C68.8,6,67.72,6,66.63,5.88l-1.91-.15c-.55,0-1.1,0-1.64-.1a28.41,28.41,0,0,0-3.62-.33c-.9,0-1.79-.22-2.69-.33-.24,0-.47-.05-.71-.06a16,16,0,0,1-3.69-.36,4.31,4.31,0,0,0-1.06-.08A14.58,14.58,0,0,1,48,4.16a11.36,11.36,0,0,0-1.83-.25,15.33,15.33,0,0,1-3.39-.45,1.85,1.85,0,0,0-.63-.07A12,12,0,0,1,38.32,3a7.84,7.84,0,0,0-1.26-.19c-.66-.06-1.33-.06-2-.15a16.58,16.58,0,0,0-2.24-.39,14.11,14.11,0,0,1-4-.54,3.52,3.52,0,0,0-.91-.13,12.23,12.23,0,0,1-3.32-.46,3.9,3.9,0,0,0-1.69-.09,10.41,10.41,0,0,1-3.55.06,2.37,2.37,0,0,0-1.47.18,10.57,10.57,0,0,1-3.15,1A3.28,3.28,0,0,0,13,3a11.9,11.9,0,0,1-2.93,1.71,2.78,2.78,0,0,0-1.25,1A10.62,10.62,0,0,1,6.5,7.94,3.21,3.21,0,0,0,5.44,9.24a16.71,16.71,0,0,1-1.95,3.15,3.59,3.59,0,0,0-.58,1.26,20.41,20.41,0,0,1-1.17,3.46,3.4,3.4,0,0,0-.32,1.36,14.86,14.86,0,0,1-.32,3.65,3.38,3.38,0,0,0,0,1.77,12.1,12.1,0,0,1,.45,3.25A3.21,3.21,0,0,0,2,28.81a15.18,15.18,0,0,1,1.36,3.45A3.52,3.52,0,0,0,4,33.48a16.46,16.46,0,0,1,2,3,3.14,3.14,0,0,0,1.06,1.18,12.68,12.68,0,0,1,2.56,2.25,2.57,2.57,0,0,0,1.15.84A13.6,13.6,0,0,1,14,42.38a2.68,2.68,0,0,0,1.18.45,14.45,14.45,0,0,1,3.55.8,2.52,2.52,0,0,0,1.11.17,19.2,19.2,0,0,1,3.63,0A4.94,4.94,0,0,0,25,43.64a6.19,6.19,0,0,1,2.9-.06,5.72,5.72,0,0,0,1.41,0c.66,0,1.33-.11,2-.12.4,0,.8,0,1.2,0,.62-.08,1.24-.18,1.86-.23a.48.48,0,0,1,.21,0,6.74,6.74,0,0,1,1.41,0,4.66,4.66,0,0,1,1.49.48,3.61,3.61,0,0,1,2.14.14,5.14,5.14,0,0,1,2.19,1.4,3.77,3.77,0,0,1,1.4,2.46,5.18,5.18,0,0,1-.15,2.57,4,4,0,0,1-.82,1.51,3.3,3.3,0,0,1-2.85,2.63c-.37.38-.76.74-1.14,1.08a.72.72,0,0,1-.38.74,4.65,4.65,0,0,0-1.47,1.51,5.14,5.14,0,0,1-2,1.77,2.92,2.92,0,0,0-1.18,1.06,15,15,0,0,1-2.35,2.73,4.43,4.43,0,0,0-.7.85,5.8,5.8,0,0,1-1.87,1.94,1.86,1.86,0,0,0-.63.6,17.22,17.22,0,0,1-2.57,3.32,2,2,0,0,0-.54,1,16.63,16.63,0,0,1-1.27,4.29,1.86,1.86,0,0,0,.07,1.8,15,15,0,0,1,1.51,3.71,2,2,0,0,0,1.38,1.48,11.63,11.63,0,0,1,3.45,1.76,2.31,2.31,0,0,0,2,.44,10.75,10.75,0,0,1,3.13-.11,4,4,0,0,0,1.14,0A15.17,15.17,0,0,1,40,84.26a10.87,10.87,0,0,0,1.35-.06l2.77-.13A13.15,13.15,0,0,0,45.65,84a14.53,14.53,0,0,1,3.48-.22,13,13,0,0,0,1.63-.07l2.7-.16a13.3,13.3,0,0,0,1.63-.14,15.31,15.31,0,0,1,3.55-.27A13.15,13.15,0,0,0,60.14,83l3.2-.22a6.28,6.28,0,0,0,1-.09,11,11,0,0,1,3.33-.31,9.7,9.7,0,0,0,1.63-.12L72.19,82c.68-.07,1.37-.1,2-.23a13.84,13.84,0,0,1,3.05-.27,11.32,11.32,0,0,0,1.63-.16L81.69,81c.57-.06,1.14-.08,1.69-.2a15.46,15.46,0,0,1,3.11-.38,17.11,17.11,0,0,0,1.77-.17l2.83-.34,1.69-.22,2.82-.41c.71-.1,1.41-.16,2.12-.25l2.76-.36a13.93,13.93,0,0,0,1.55-.24,14.78,14.78,0,0,1,3.39-.5,13.21,13.21,0,0,0,1.69-.23l2.75-.42a10.71,10.71,0,0,0,1.41-.22,14.85,14.85,0,0,1,3.31-.57,19.23,19.23,0,0,0,2-.31l2.54-.42,1.75-.3c.94-.17,1.87-.4,2.81-.51a17.68,17.68,0,0,0,2.45-.44c.87-.23,1.78-.29,2.67-.43.4-.06.79-.14,1.19-.23a26,26,0,0,1,2.65-.59,17,17,0,0,0,3-.57,19.63,19.63,0,0,1,2-.37c.63-.12,1.25-.26,1.88-.4.79-.18,1.57-.42,2.37-.52a14.4,14.4,0,0,0,2.94-.59,17,17,0,0,1,2.1-.43c.6-.12,1.21-.25,1.81-.39.81-.19,1.61-.46,2.43-.58a11.14,11.14,0,0,0,2.92-.65,3,3,0,0,1,.69-.17,18.79,18.79,0,0,0,4.3-1.06,1.63,1.63,0,0,1,.35-.07,22,22,0,0,0,4.66-1.1,3.4,3.4,0,0,1,1-.18,11.4,11.4,0,0,0,2.42-.6c1-.32,2-.48,3-.71a8,8,0,0,0,1.17-.29,16,16,0,0,1,3.18-.84,4.86,4.86,0,0,0,1.42-.47,5.3,5.3,0,0,1,2.47-.66,3.63,3.63,0,0,0,1.59-.38,10.28,10.28,0,0,1,3-1,3.21,3.21,0,0,0,1.45-.59,14.08,14.08,0,0,1,2.93-1.56,4.15,4.15,0,0,0,1.26-.82,16.54,16.54,0,0,1,2.76-2.14,3.13,3.13,0,0,0,.91-.82,18.06,18.06,0,0,1,2.49-2.79,4.16,4.16,0,0,0,.86-1.18,18.51,18.51,0,0,1,1.82-2.88,4.44,4.44,0,0,0,.68-1.3,19.55,19.55,0,0,1,1.37-3.3,6.39,6.39,0,0,0,.46-1.48c.26-1.07.45-2.15.75-3.2a6.65,6.65,0,0,0,.26-1.84A29.39,29.39,0,0,1,201.53,34.22Zm-38.08-27a1.15,1.15,0,0,1,1.1-.7c.43,0,.86.07,1.28,0,.85-.07,1.7-.19,2.54-.3l.09,0a.63.63,0,0,1,.61-.34.66.66,0,0,1,.17,0,.68.68,0,0,1,.92.11,1.84,1.84,0,0,1,.29.6c.45,0,.45,0,.36.57l-.32-.35a2.83,2.83,0,0,1,0,.6.68.68,0,0,1-.51.65c0,.07,0,.13,0,.2l-.53.09.05-.32a.68.68,0,0,1-.41-.7v0l-.12,0a.63.63,0,0,1-.56-.39c-.33.42-.17.64.43,1.34a1.65,1.65,0,0,1-.44.16,17.18,17.18,0,0,0-3.47.34,1.13,1.13,0,0,1-1.3-.35A1.22,1.22,0,0,1,163.45,7.23ZM161.21,7c1.15,0,1.35-.33,1.62,1.3,0,.16.06.33.11.58l-1.65.08L161.14,7S161.17,7,161.21,7Zm-6.09.22c.86,0,1.71,0,2.57,0,.54,0,1.08-.16,1.63-.23a1.1,1.1,0,0,1,1.22.58,1.21,1.21,0,0,1-.92,1.78,2.68,2.68,0,0,1-.57,0,11,11,0,0,0-3.34.2,4.38,4.38,0,0,1-.53.06,1.19,1.19,0,0,1-1.24-1.2A1.21,1.21,0,0,1,155.12,7.17Zm-1.7.31c0,.37-.06.67-.05,1s.08.58.14,1l-1.66.13-.07-2Zm-7.77.19c.33,0,.66.05,1,0,1,0,1.94-.11,2.91-.18a6.06,6.06,0,0,1,.64-.07,1.09,1.09,0,0,1,1.06,1.08,1.16,1.16,0,0,1-1,1.26,3,3,0,0,1-.71,0,11.19,11.19,0,0,0-3.19.16,5.73,5.73,0,0,1-.6.06,1.18,1.18,0,0,1-.12-2.35ZM144,7.94l0,2-1.55.09L142.35,8Zm-8.09.18a3.18,3.18,0,0,1,.61-.12A11,11,0,0,0,140,8a3.62,3.62,0,0,1,.78,0,1.12,1.12,0,0,1,1.08,1.16,1.23,1.23,0,0,1-1.09,1.18,2.67,2.67,0,0,1-.5,0,12.91,12.91,0,0,0-3.63.11,1.78,1.78,0,0,1-.43,0,1.23,1.23,0,0,1-1.11-1.09A1.14,1.14,0,0,1,135.91,8.12Zm-1.3.18,0,1.93L133,10.3l0-1.86A3.92,3.92,0,0,1,134.61,8.3Zm-7.69,0a19.77,19.77,0,0,0,4.33-.13,1.1,1.1,0,0,1,1.19,1.11,1.13,1.13,0,0,1-1.09,1.22c-.4,0-.81,0-1.21-.06-.71,0-.71,0-1.06-.82l-.39.78c-.56.08-1.14.19-1.73.24a1.15,1.15,0,0,1-1.23-1.15A1.09,1.09,0,0,1,126.93,8.3Zm-1.76.27,0,1.85-1.57.07-.06-2Zm-7.6-.23c.45,0,.9.05,1.35.08v.11l2.55-.18c.14,0,.28,0,.43,0A1.16,1.16,0,0,1,123,9.49a1.13,1.13,0,0,1-1.15,1.18,22.5,22.5,0,0,0-4.41,0,1.07,1.07,0,0,1-1.17-1.19A1.17,1.17,0,0,1,117.57,8.34Zm-1.79.28V10.4a2.88,2.88,0,0,1-1.59.07V8.53ZM108,8.27a2.09,2.09,0,0,1,.64,0,10.64,10.64,0,0,0,3.12.08c.24,0,.47-.06.71-.05a1.17,1.17,0,0,1,1.17,1.23,1.21,1.21,0,0,1-1.22,1.11l-.6,0a9.9,9.9,0,0,0-3.38,0,2.44,2.44,0,0,1-.5,0,1.13,1.13,0,0,1-1.06-1.17A1.25,1.25,0,0,1,108,8.27Zm-1.63.22v1.94l-1.6-.1,0-1.94ZM97.6,8.8a1.07,1.07,0,0,1,1.09-.69c.4,0,.8.09,1.21.1.9,0,1.8,0,2.71,0a5.52,5.52,0,0,1,.57,0,1.12,1.12,0,0,1,1.05,1.18,1.15,1.15,0,0,1-1.09,1.16,4.56,4.56,0,0,1-.54,0,11.92,11.92,0,0,0-3.72-.08A1.18,1.18,0,0,1,97.6,8.8Zm-.55-.58-.12,2-1.57-.09,0-1.85Zm-8.91.49a1.15,1.15,0,0,1,1.4-.94A12.11,12.11,0,0,0,93.09,8a3.43,3.43,0,0,1,.85,0,1.06,1.06,0,0,1,.87,1,1.17,1.17,0,0,1-.69,1.27,3.84,3.84,0,0,1-.69.13v-.13c-.92-.06-1.84-.13-2.77-.16-.52,0-1,.07-1.56,0A1,1,0,0,1,88.14,8.72ZM86,7.85l1.61.1L87.5,9.79H85.88ZM79.95,7.3l.35,0a15.45,15.45,0,0,0,3.83.21A1.09,1.09,0,0,1,85.4,8.71a1.12,1.12,0,0,1-1.19,1.19c-.5,0-1-.16-1.48-.19-.76,0-1.51,0-2.27-.06-.21,0-.43,0-.64,0a1.13,1.13,0,0,1-1.1-1.2A1.15,1.15,0,0,1,79.95,7.3Zm-3.36.13a2.69,2.69,0,0,1,1.64,0l-.11,1.91-1.63-.1Zm-6.1-.72.28,0v0c.85.08,1.7.19,2.55.24.52,0,1,0,1.56,0A1.1,1.1,0,0,1,76,8.18a1.12,1.12,0,0,1-1.13,1.18c-.26,0-.52-.08-.77-.1l-3.26-.2a4.88,4.88,0,0,1-.57,0,1.16,1.16,0,0,1-1-1.28A1.12,1.12,0,0,1,70.49,6.72Zm-3.28,0,1.62.1-.11,1.78A2.33,2.33,0,0,1,67.1,8.5Zm-7.06-.23A1.15,1.15,0,0,1,61.41,6a11.66,11.66,0,0,0,3.75.33,2,2,0,0,1,.43,0,1.22,1.22,0,0,1,1.07,1.27,1.16,1.16,0,0,1-1.18,1.07l-.36,0V8.59c-.87-.09-1.75-.21-2.62-.27a10.9,10.9,0,0,0-1.28,0,1.19,1.19,0,0,1-1.17-.69A1.07,1.07,0,0,1,60.15,6.45Zm-2.25-.54L59.47,6l-.11,1.9-1.66-.1Zm-6-.86a6.91,6.91,0,0,1,.91.2,10.16,10.16,0,0,0,3.12.23,1.19,1.19,0,0,1,1.24.68A1.08,1.08,0,0,1,57,7.37a1.2,1.2,0,0,1-1.33.46c-.88-.19-1.78-.31-2.67-.46v.11c-.47,0-1,0-1.42-.09a1.11,1.11,0,0,1-1.05-1.25A1.23,1.23,0,0,1,51.89,5.06Zm-3.34,0c.53-.22,1.07.05,1.59,0l-.21,2-1.6-.22ZM42.39,4a1.44,1.44,0,0,1,.42.07,13.78,13.78,0,0,0,3.6.45c.14,0,.29,0,.43,0a1.18,1.18,0,1,1-.23,2.34c-.45-.05-.88-.19-1.33-.27s-1.17-.17-1.76-.25v.07l-1.28-.08a1.12,1.12,0,0,1-1-1.27A1.2,1.2,0,0,1,42.39,4Zm-3.18-.16,1.57.18L40.57,6,39,5.82ZM32,3.59a1.19,1.19,0,0,1,1.3-.69c.56.11,1.11.29,1.67.36s1.41.1,2.12.14l.36,0a1.19,1.19,0,0,1,1.13,1.34c-.07.69-.57,1.07-1.49,1A10.29,10.29,0,0,0,36,5.52c-.94-.12-1.89-.18-2.83-.3a1.83,1.83,0,0,1-.8-.24A1.14,1.14,0,0,1,32,3.59Zm-2.09-.82a2.36,2.36,0,0,1,1.57.2l-.22,1.76-1.62-.1Zm-7.28-.33a1.15,1.15,0,0,1,1.35-.81c.84.16,1.67.35,2.51.5a10.3,10.3,0,0,0,1.14.08,5.06,5.06,0,0,1,.64,0,1.21,1.21,0,0,1,1,1.34,1.1,1.1,0,0,1-1.3.95c-.84-.15-1.68-.31-2.52-.43C25,4,24.5,4.05,24.06,4a2.73,2.73,0,0,1-.76-.13A1.15,1.15,0,0,1,22.59,2.44Zm-.52-.61L22,3.67a2.17,2.17,0,0,1-1.52.06l-.09-1.89ZM14.05,3a3.47,3.47,0,0,1,.76-.18A11.26,11.26,0,0,0,17.91,2a6.76,6.76,0,0,1,.72-.25,1.17,1.17,0,0,1,1.23,1A1.19,1.19,0,0,1,19.15,4a2.17,2.17,0,0,1-.49.12A14.05,14.05,0,0,0,15,5.18a1.51,1.51,0,0,1-.55.13,1.1,1.1,0,0,1-1.16-.89A1.19,1.19,0,0,1,14.05,3ZM12.48,4.14l1,1.74-1.11.66-.93-1.78ZM6.31,8.93a1.42,1.42,0,0,1,.26-.25A15,15,0,0,0,9.48,5.82a1.28,1.28,0,0,1,1-.54,1.22,1.22,0,0,1,1,.74,1.28,1.28,0,0,1-.29,1.37c-.28.26-.62.47-.9.74-.69.69-1.36,1.4-2,2.1a3.58,3.58,0,0,1-.46.46,1.12,1.12,0,0,1-1.49-.18A1.27,1.27,0,0,1,6.31,8.93ZM5.49,10.5a2.21,2.21,0,0,0,1.63,1.1l-.75,1.25L4.75,11.73ZM2.12,17.74c.24-.65.55-1.28.78-1.93s.35-1.25.52-1.87a4.69,4.69,0,0,1,.19-.64A1.09,1.09,0,0,1,5,12.65a1.17,1.17,0,0,1,.68,1.46,2,2,0,0,1-.13.35A16.24,16.24,0,0,0,4.3,18.27c-.16.78-.63,1.15-1.23,1.11A1.17,1.17,0,0,1,2.12,17.74ZM4,20l-.21,1.3L1.9,21.19,2,19.88ZM2.28,28a2.69,2.69,0,0,1-.1-.74A13.5,13.5,0,0,0,1.78,24c-.05-.22-.11-.43-.15-.65-.14-.84.23-1.47.92-1.57s1.19.38,1.27,1.18c0,.44,0,.9.08,1.34.12.86.28,1.71.43,2.57,0,.27.12.53.15.71a1.32,1.32,0,0,1-1,1.23A1.15,1.15,0,0,1,2.28,28Zm.84,1.64,1.73-.79L5.32,30l-1.78.82ZM7.85,37c-.58.1-.93-.25-1.22-.72-.49-.8-1-1.6-1.49-2.37-.29-.43-.66-.79-1-1.2a1.08,1.08,0,0,1-.09-1.26,1.23,1.23,0,0,1,1-.67,1.23,1.23,0,0,1,1,.64A18.48,18.48,0,0,0,8.51,35,1.18,1.18,0,0,1,7.85,37Zm1.5,1.6-1-.9,1.22-1.53,1.06.88a6.89,6.89,0,0,0-.77.68A6.42,6.42,0,0,0,9.34,38.65Zm5.47,3.46a2.81,2.81,0,0,1-.56-.32,13,13,0,0,0-3.12-1.6,2.19,2.19,0,0,1-.73-.43,1.1,1.1,0,0,1-.24-1.3,1,1,0,0,1,1.1-.65,1.7,1.7,0,0,1,.73.26,13.88,13.88,0,0,0,3.44,1.75,1.2,1.2,0,0,1,.89,1.28A1.14,1.14,0,0,1,14.81,42.11Zm3,.53-1.21-.28.42-2,1.23.25Zm6.4.55c-.52,0-1-.05-1.56-.08V43c-.9.06-1.8.1-2.7.18a1.23,1.23,0,0,1-1.05-.32,1.09,1.09,0,0,1-.33-1.15,1.06,1.06,0,0,1,1-.86,3.6,3.6,0,0,1,.78,0,12.17,12.17,0,0,0,3.27,0,2.55,2.55,0,0,1,.78,0,1.17,1.17,0,0,1,.88,1.26A1.08,1.08,0,0,1,24.21,43.19Zm1.64-.37-.05-1.66,1.16,0c0,.57,0,1.06,0,1.62Zm7.33.15a2.42,2.42,0,0,1-.43,0,13.06,13.06,0,0,0-3.62.08,2.07,2.07,0,0,1-.36,0,1.17,1.17,0,0,1-1.25-1.2,1.23,1.23,0,0,1,1.27-1.15c.43,0,.85.07,1.28.06.81,0,1.61-.06,2.42-.1a6.38,6.38,0,0,1,.71,0,1.14,1.14,0,0,1,1.09,1.15A1.25,1.25,0,0,1,33.18,43Zm1.62-.41,0-1.63L36,40.84l0,1.67Zm10.13,2.88c.7,0,1.15.59,1.08,1.45s-.19,1.89-.26,2.83a8.13,8.13,0,0,0,0,.9c0,.2,0,.4,0,.6a1.22,1.22,0,0,1-1.2,1.31,1.11,1.11,0,0,1-.94-1.43c.06-1,.13-2,.17-3,0-.45,0-.9,0-1.35C43.79,45.94,44.25,45.42,44.93,45.43ZM42,43.88a4.38,4.38,0,0,1-.61-.15,14,14,0,0,0-3.73-.89,1.2,1.2,0,0,1-1.11-1,1.18,1.18,0,0,1,1.23-1.38,1.47,1.47,0,0,1,.41.1,13.85,13.85,0,0,0,3.87.92,1.12,1.12,0,0,1,1,.87,1.09,1.09,0,0,1-.38,1.21A2.93,2.93,0,0,1,42,43.88Zm1.29,1.84-.83-1.14,1.2-1,.8,1.16ZM43,52.19l1.21,1-.9,1.12-1.14-1.06Zm-5.46,5.19c.38-.34.82-.6,1.2-.95.57-.52,1.11-1.09,1.67-1.64a7.5,7.5,0,0,1,.57-.57,1,1,0,0,1,1.52.15,1.1,1.1,0,0,1-.06,1.6,26.93,26.93,0,0,0-3.49,3.2,1.38,1.38,0,0,1-.55.26,1.12,1.12,0,0,1-1.19-.77A1.15,1.15,0,0,1,37.52,57.37Zm-1.06,1.44-.08.21,1,1.13-.66.53-.89-1.11Zm-5.61,5.49a2.07,2.07,0,0,1,.48-.55A12.87,12.87,0,0,0,33.73,61a2.65,2.65,0,0,1,.37-.46,1.07,1.07,0,0,1,1.54,0,1.17,1.17,0,0,1,0,1.62c-.34.38-.76.69-1.1,1.08-.59.69-1.15,1.41-1.69,2.13a1.38,1.38,0,0,1-1.15.7A1.19,1.19,0,0,1,30.84,64.31ZM30,65.54l1.12,1.2-.23.45-1.22-1.26Zm-4.74,5.31a3.12,3.12,0,0,1,.52-.62,14.32,14.32,0,0,0,2.08-2.66,2.74,2.74,0,0,1,.71-.81,1,1,0,0,1,1.25.13,1.1,1.1,0,0,1,.26,1.29,2.61,2.61,0,0,1-.53.78,13.69,13.69,0,0,0-2.16,2.78,2.37,2.37,0,0,1-.51.62,2.46,2.46,0,0,1-.57.29A1.21,1.21,0,0,1,25.28,70.85Zm-.44,2,1.8.58L26.2,75a6.56,6.56,0,0,0-.89-.44,5.4,5.4,0,0,0-.92-.12ZM27,81.68a1.1,1.1,0,0,1-1.38-.43,1.6,1.6,0,0,1-.18-.4,16.73,16.73,0,0,0-1.58-3.91,1.17,1.17,0,0,1,.5-1.76,2.44,2.44,0,0,1,.47-.12,1.14,1.14,0,0,1,1,.73c.1.25.14.53.24.78.4,1,.8,2,1.21,2.94a5.53,5.53,0,0,1,.36.89A1.13,1.13,0,0,1,27,81.68ZM29.09,83l-1.47-.69.89-1.78,1.42.72Zm6.35.94h-.28a15.3,15.3,0,0,0-4,.14,1.1,1.1,0,0,1-1.29-1.2,1,1,0,0,1,1.1-1.1c.57,0,1.14,0,1.71,0,.78,0,1.56-.12,2.34-.18l.38,0a1.14,1.14,0,0,1,1.18,1.17A1.16,1.16,0,0,1,35.43,83.9Zm1.71-.32,0-1.9,1.53-.08.11,1.89A3.8,3.8,0,0,1,37.14,83.58ZM45,83.44c-.28,0-.57,0-.85,0l-3,.17c-.21,0-.42.07-.64.08a1.18,1.18,0,0,1-1.26-1.13,1.26,1.26,0,0,1,1.11-1.25,1.65,1.65,0,0,1,.36,0,13.64,13.64,0,0,0,3.83-.17,1.16,1.16,0,0,1,1.45,1c0,.1,0,.2,0,.25A1.2,1.2,0,0,1,45,83.44Zm1.58-.24-.06-2,1.58-.11L48.15,83Zm8-.37a1.43,1.43,0,0,1-.56.08,12.85,12.85,0,0,0-3.75.22,2.54,2.54,0,0,1-.42,0,1.12,1.12,0,0,1-1.19-1.11,1.17,1.17,0,0,1,1-1.24c.21,0,.43,0,.64,0l3.19-.19a6.73,6.73,0,0,1,.85-.05,1.09,1.09,0,0,1,1,1A1.17,1.17,0,0,1,54.61,82.83ZM56,82.57l-.14-2,1.6-.08.16,2Zm7.57-.4a15.93,15.93,0,0,0-3.89.31,2.55,2.55,0,0,1-.42,0,1.13,1.13,0,0,1-1.19-1.19,1.18,1.18,0,0,1,1.17-1.16,16.32,16.32,0,0,0,4.24-.33,1.08,1.08,0,0,1,1.27,1.08A1.11,1.11,0,0,1,63.56,82.17Zm1.82-.32-.15-1.95,1.6-.16.18,2Zm7.7-.51c-.47,0-1,0-1.42,0-.85.09-1.7.22-2.54.34a4.93,4.93,0,0,1-.49.08,1.17,1.17,0,0,1-1.16-1,1.15,1.15,0,0,1,.75-1.29,1.8,1.8,0,0,1,.7-.09,12.85,12.85,0,0,0,3.61-.32,2.08,2.08,0,0,1,.77,0,1.17,1.17,0,0,1-.22,2.3ZM74.79,81l-.22-2,1.63-.1.2,1.91Zm8-.69a1.58,1.58,0,0,1-.56.09,15.33,15.33,0,0,0-3.82.4,1.71,1.71,0,0,1-.89-.05,1.15,1.15,0,0,1,.16-2.18,2.49,2.49,0,0,1,.77-.09,11.37,11.37,0,0,0,3.46-.37c.18,0,.37-.07.52-.09a1.24,1.24,0,0,1,1.14,1.1A1.21,1.21,0,0,1,82.77,80.29ZM84.12,80,84,78l1.62-.19.17,2Zm8.11-.87a1.59,1.59,0,0,1-.69.16,13.7,13.7,0,0,0-3.81.46c-.16,0-.33.06-.42.07a1.18,1.18,0,0,1-.17-2.34c.37-.06.76,0,1.14-.08Q89.65,77.21,91,77c.42-.06.83-.24,1.25,0a1.06,1.06,0,0,1,.59,1A1.1,1.1,0,0,1,92.23,79.12Zm1.3-.3-.24-1.93,1.59-.22.25,2Zm7.66-.82a2.31,2.31,0,0,1-.5,0,11.23,11.23,0,0,0-3,.38c-.34.09-.7.14-.89.18a1.2,1.2,0,0,1-1.24-1.17,1.23,1.23,0,0,1,1.1-1.18c.43,0,.86,0,1.28,0,1-.15,1.92-.33,2.88-.52a1.13,1.13,0,0,1,1.42.87A1.19,1.19,0,0,1,101.19,78Zm1.69-.45-.25-1.95,1.58-.23.29,2Zm7.9-1a2,2,0,0,1-.63.11,11.91,11.91,0,0,0-3.37.51,7.38,7.38,0,0,1-.72.15,1.2,1.2,0,0,1-1.18-1.11,1.17,1.17,0,0,1,.86-1.22,2.5,2.5,0,0,1,.7-.09A11,11,0,0,0,110,74.3a1.14,1.14,0,0,1,1,.07,1.2,1.2,0,0,1,.6,1.18A1.11,1.11,0,0,1,110.78,76.52Zm1.44-.38-.26-2,1.59-.27.27,2Zm8-1.19a2.16,2.16,0,0,1-.76.14,13.86,13.86,0,0,0-3.44.59,4,4,0,0,1-.58.12,1.21,1.21,0,0,1-1.25-1.19,1.28,1.28,0,0,1,1.19-1.18c1-.11,1.93-.22,2.89-.36.37-.05.73-.21,1.11-.28a1.21,1.21,0,0,1,1.09.19A1.19,1.19,0,0,1,120.19,75Zm1.34-.36-.27-1.88a2.77,2.77,0,0,1,1.56-.27l.3,1.83Zm7.64-1.19c-.3.05-.62,0-.92.08-1,.18-2,.38-2.93.58l-.66.16a1.19,1.19,0,0,1-.31-2.33,4.19,4.19,0,0,1,.92-.11,10.82,10.82,0,0,0,2.94-.55,3.23,3.23,0,0,1,.76-.17,1.1,1.1,0,0,1,1.15,1A1.17,1.17,0,0,1,129.17,73.4Zm1.65-.54-.32-1.93,1.54-.27.39,1.92Zm7.81-1.33a2.42,2.42,0,0,1-.7.13,11.44,11.44,0,0,0-3.29.63,3.56,3.56,0,0,1-.62.17,1.12,1.12,0,0,1-1.24-1,1.15,1.15,0,0,1,.86-1.35c.37-.08.76-.05,1.13-.13.89-.18,1.77-.38,2.65-.58a6.74,6.74,0,0,1,.76-.2,1.1,1.1,0,0,1,1.21,1.23A1.11,1.11,0,0,1,138.63,71.54Zm1.49-.48-.39-1.93,1.58-.33.4,1.92ZM148,69.53a1.38,1.38,0,0,1-.54.17,14.91,14.91,0,0,0-4,.84,1.29,1.29,0,0,1-.76,0,1.2,1.2,0,0,1,.07-2.23c.44-.1.9-.11,1.34-.2.86-.18,1.71-.4,2.57-.61l.67-.17a1.15,1.15,0,0,1,1.2.87A1.19,1.19,0,0,1,148,69.53Zm1.34-.45-.42-1.9,1.58-.36.38,1.92Zm7.78-1.57a5.61,5.61,0,0,1-.77.16l-3.13.71c-.23.05-.45.16-.69.2a1.15,1.15,0,0,1-1.31-.88,1.21,1.21,0,0,1,.78-1.41,1.83,1.83,0,0,1,.49-.1,12,12,0,0,0,3.55-.8c.22-.08.45-.14.57-.17a1.15,1.15,0,0,1,1.19,1A1.14,1.14,0,0,1,157.16,67.5Zm1.37-.51-.35-1.93,1.57-.37.37,1.94Zm7.66-1.63c-.25.07-.52.07-.77.13-.93.22-1.85.44-2.77.67-.3.08-.58.23-.89.29a1.1,1.1,0,0,1-1.27-.82,1.17,1.17,0,0,1,.79-1.47,24.78,24.78,0,0,0,4.44-1.08,1.1,1.1,0,0,1,1.34,1.22A1.22,1.22,0,0,1,166.19,65.36Zm1.57-.58-.43-1.93,1.56-.38.44,1.88Zm20.53-52.06-1-.69,1.08-1.67,1,.69ZM192.77,17a3.11,3.11,0,0,1-.39-.43,15.28,15.28,0,0,0-2.63-2.6,2,2,0,0,1-.62-.87,1.14,1.14,0,0,1,.51-1.28A1.08,1.08,0,0,1,191,12c.32.33.56.75.88,1.06.67.66,1.38,1.28,2.08,1.91a1.42,1.42,0,0,1,.6,1.31,1.09,1.09,0,0,1-.67.86A1.06,1.06,0,0,1,192.77,17Zm1.72,2.29-.83-1.22,1.55-1.17.8,1C195.38,18.25,194.75,18.48,194.49,19.3Zm2.71,5.46a2.85,2.85,0,0,1-.26-.61,14.36,14.36,0,0,0-1.5-3.21,4,4,0,0,1-.32-.58,1.23,1.23,0,0,1,1.25-1.68,6.32,6.32,0,0,1,.7.56,1.33,1.33,0,0,1,.24.54,15.29,15.29,0,0,0,1.6,3.41,2.21,2.21,0,0,1,.33.89,1.07,1.07,0,0,1-.8,1.17A1,1,0,0,1,197.2,24.76Zm.48,1.33,1.86-.63.28,1.17L198,27.3ZM177,62.24l-.55-1.74.92-.24.44,1.76Zm6.92-1.76a2.88,2.88,0,0,1-.62.16,13.76,13.76,0,0,0-3.4,1.08,6.29,6.29,0,0,1-.62.23,1.21,1.21,0,0,1-1.15-1,1,1,0,0,1,.66-1.17c.37-.16.76-.26,1.15-.39l2.64-.88a7.15,7.15,0,0,1,.74-.28,1.07,1.07,0,0,1,1.29.78A1.21,1.21,0,0,1,183.89,60.49Zm1.5-.95-.8-1.83,1-.59.83,1.81Zm6.29-4.05a12.87,12.87,0,0,0-1.1.7c-.76.61-1.49,1.25-2.23,1.88a1.14,1.14,0,0,1-1.44.18,1.23,1.23,0,0,1-.16-1.83,2,2,0,0,1,.46-.35A13.8,13.8,0,0,0,190,53.89a3,3,0,0,1,.62-.5,1.12,1.12,0,0,1,1.65,1.06A1.26,1.26,0,0,1,191.68,55.49ZM193,53.85l-1.39-1.38.81-.94,1.4,1.42Zm4.72-6.26a2.25,2.25,0,0,1-.28.43,14.26,14.26,0,0,0-2,3.25,1.36,1.36,0,0,1-.86.84,2.42,2.42,0,0,1-.29.05,1.19,1.19,0,0,1-1-1.77c.12-.22.3-.39.43-.6q.91-1.43,1.81-2.87c.1-.17.16-.36.27-.53a1.06,1.06,0,0,1,1.49-.41A1.2,1.2,0,0,1,197.73,47.59Zm.59-1.78L196.53,45l.48-1.18,1.76.82Zm2.25-7a15,15,0,0,0-.86,3.78,1.73,1.73,0,0,1-.14.57,1.16,1.16,0,0,1-1.39.63,1.23,1.23,0,0,1-.69-1.43c0-.1.08-.32.15-.53a14.88,14.88,0,0,0,.81-3.56,3,3,0,0,1,.08-.52,1.14,1.14,0,0,1,1.28-.82,1.12,1.12,0,0,1,.9,1.17A2.31,2.31,0,0,1,200.57,38.81Zm-1.77-2.54.08-1.27,1.77.11a2.22,2.22,0,0,1,0,1.28ZM200,34.48a1.07,1.07,0,0,1-1.17-1c0-.42,0-.85,0-1.27-.11-.94-.25-1.87-.39-2.81,0-.17-.07-.34-.08-.52a1.21,1.21,0,0,1,1.08-1.4,1.26,1.26,0,0,1,1.16,1.34c0,1,.11,1.94.19,2.91,0,.39.17.78.24,1.17a3.51,3.51,0,0,1,0,.45A1.13,1.13,0,0,1,200,34.48Z"/><path class="cls-2" d="M33.18,80.8a3.37,3.37,0,0,1-1.42-.18,19.64,19.64,0,0,1-2-.41,4,4,0,0,1-2.61-4,3.6,3.6,0,0,1,.92-3.56,4,4,0,0,1,1.19-1.82v0c-.43-.09-.49,0-.83.5a5.27,5.27,0,0,0-.31.67,7.6,7.6,0,0,1-.45.93,5.2,5.2,0,0,0-.55,4.83,4.83,4.83,0,0,0,1.06,1.65,5.5,5.5,0,0,0,2.47,1.39,7.44,7.44,0,0,0,1.16.3,3.51,3.51,0,0,0,1.26.07.73.73,0,0,0,.36-.3l-.14,0Z"/><path class="cls-2" d="M5.08,30.84a1.23,1.23,0,0,1,1,.64A18.48,18.48,0,0,0,8.51,35a1.18,1.18,0,0,1-.66,2c-.58.1-.93-.25-1.22-.72-.49-.8-1-1.6-1.49-2.37-.29-.43-.66-.79-1-1.2a1.08,1.08,0,0,1-.09-1.26A1.23,1.23,0,0,1,5.08,30.84Zm0,.46a.73.73,0,0,0-.73.74.7.7,0,0,0,.64.74.67.67,0,0,0,.72-.64A.77.77,0,0,0,5.1,31.31Zm2.68,3.85a.67.67,0,0,0-.74.63.68.68,0,0,0,.54.82.72.72,0,0,0,.8-.67A.68.68,0,0,0,7.78,35.15Z"/><path class="cls-2" d="M82.41,78a1.24,1.24,0,0,1,1.14,1.1,1.21,1.21,0,0,1-.79,1.2,1.58,1.58,0,0,1-.56.09,15.33,15.33,0,0,0-3.82.4,1.71,1.71,0,0,1-.89-.05,1.15,1.15,0,0,1,.16-2.18,2.49,2.49,0,0,1,.77-.09,11.37,11.37,0,0,0,3.46-.37C82.08,78,82.27,78,82.41,78Zm-3.8,1.67a.67.67,0,0,0-.65-.72.73.73,0,0,0-.73.66.7.7,0,1,0,1.39.06Zm4.47-.43a.67.67,0,1,0-1.34-.12.74.74,0,0,0,.65.82A.67.67,0,0,0,83.08,79.23Z"/><path class="cls-2" d="M28.76,43.05a1.17,1.17,0,0,1-1.25-1.2,1.23,1.23,0,0,1,1.27-1.15c.43,0,.85.07,1.28.06.81,0,1.61-.06,2.42-.1a6.38,6.38,0,0,1,.71,0,1.14,1.14,0,0,1,1.09,1.15A1.25,1.25,0,0,1,33.18,43a2.42,2.42,0,0,1-.43,0,13.06,13.06,0,0,0-3.62.08A2.07,2.07,0,0,1,28.76,43.05Zm.57-1.14a.74.74,0,0,0-.71-.77.77.77,0,0,0-.69.72.73.73,0,0,0,.71.76A.75.75,0,0,0,29.34,41.91Zm4.49-.12a.71.71,0,0,0-.64-.75.73.73,0,0,0,0,1.46A.68.68,0,0,0,33.83,41.79Z"/><path class="cls-2" d="M10.47,5.28a1.22,1.22,0,0,1,1,.74,1.28,1.28,0,0,1-.29,1.37c-.28.26-.62.47-.9.74-.69.69-1.36,1.4-2,2.1a3.58,3.58,0,0,1-.46.46,1.12,1.12,0,0,1-1.49-.18,1.27,1.27,0,0,1,0-1.58,1.42,1.42,0,0,1,.26-.25A15,15,0,0,0,9.48,5.82,1.28,1.28,0,0,1,10.47,5.28ZM7.1,10.47a.71.71,0,0,0,.73-.67.69.69,0,1,0-1.37-.16A.72.72,0,0,0,7.1,10.47Zm4-3.93a.71.71,0,0,0-.68-.78.69.69,0,0,0-.72.66.75.75,0,0,0,.69.78A.68.68,0,0,0,11.14,6.55Z"/><path class="cls-2" d="M22.64,43c-.9.06-1.8.1-2.7.18a1.23,1.23,0,0,1-1.05-.32,1.09,1.09,0,0,1-.33-1.15,1.06,1.06,0,0,1,1-.86,3.6,3.6,0,0,1,.78,0,12.17,12.17,0,0,0,3.27,0,2.55,2.55,0,0,1,.78,0,1.17,1.17,0,0,1,.88,1.26,1.08,1.08,0,0,1-1,1c-.52,0-1-.05-1.56-.08Zm1.45-.27a.72.72,0,1,0-.65-.76A.75.75,0,0,0,24.09,42.74Zm-4.41-1.46A.7.7,0,0,0,19,42a.68.68,0,0,0,.59.78.73.73,0,0,0,.76-.71A.71.71,0,0,0,19.68,41.28Z"/><path class="cls-2" d="M136.52,8A11,11,0,0,0,140,8a3.62,3.62,0,0,1,.78,0,1.12,1.12,0,0,1,1.08,1.16,1.23,1.23,0,0,1-1.09,1.18,2.66,2.66,0,0,1-.5,0,12.91,12.91,0,0,0-3.63.11,1.78,1.78,0,0,1-.43,0,1.23,1.23,0,0,1-1.11-1.09,1.14,1.14,0,0,1,.79-1.2A3.18,3.18,0,0,1,136.52,8Zm4.94,1.12a.7.7,0,0,0-.68-.78.71.71,0,0,0-.72.67.76.76,0,0,0,.68.8A.72.72,0,0,0,141.45,9.12Zm-5.18-.64a.68.68,0,0,0-.71.68.7.7,0,0,0,.7.77.68.68,0,0,0,.67-.72A.7.7,0,0,0,136.28,8.48Z"/><path class="cls-2" d="M31.74,66.1a1.19,1.19,0,0,1-.9-1.79,2.07,2.07,0,0,1,.48-.55A12.87,12.87,0,0,0,33.73,61a2.64,2.64,0,0,1,.37-.46,1.07,1.07,0,0,1,1.54,0,1.17,1.17,0,0,1,0,1.62c-.34.38-.76.69-1.1,1.08-.59.69-1.15,1.41-1.69,2.13A1.38,1.38,0,0,1,31.74,66.1Zm3-4a.66.66,0,0,0,.75-.62.69.69,0,0,0-.59-.79.71.71,0,0,0-.8.66A.7.7,0,0,0,34.79,62.12ZM32.49,65a.69.69,0,0,0-.62-.76.7.7,0,0,0-.75.71.68.68,0,0,0,.66.72A.69.69,0,0,0,32.49,65Z"/><path class="cls-2" d="M26.33,72.66a1.21,1.21,0,0,1-1-1.81,3.12,3.12,0,0,1,.52-.62,14.32,14.32,0,0,0,2.08-2.66,2.74,2.74,0,0,1,.71-.81,1,1,0,0,1,1.25.13,1.1,1.1,0,0,1,.26,1.29,2.61,2.61,0,0,1-.53.78,13.69,13.69,0,0,0-2.16,2.78,2.37,2.37,0,0,1-.51.62A2.46,2.46,0,0,1,26.33,72.66Zm2.79-5.6a.74.74,0,1,0,.67.8A.75.75,0,0,0,29.12,67.06Zm-2.2,4.44a.76.76,0,0,0-.69-.78.74.74,0,1,0,.69.78Z"/><path class="cls-2" d="M24.86,75.05a1.14,1.14,0,0,1,1,.73c.1.25.14.53.24.78.4,1,.8,2,1.21,2.94a5.53,5.53,0,0,1,.36.89A1.13,1.13,0,0,1,27,81.68a1.1,1.1,0,0,1-1.38-.43,1.6,1.6,0,0,1-.18-.4,16.73,16.73,0,0,0-1.58-3.91,1.17,1.17,0,0,1,.5-1.76A2.44,2.44,0,0,1,24.86,75.05Zm.65,1.24a.69.69,0,1,0-.72.66A.69.69,0,0,0,25.51,76.3Zm1,5a.71.71,0,0,0,.73-.67.68.68,0,0,0-.59-.79.71.71,0,0,0-.78.69A.73.73,0,0,0,26.52,81.33Z"/><path class="cls-2" d="M194.25,52.16a1.19,1.19,0,0,1-1-1.77c.12-.22.3-.39.43-.6q.91-1.43,1.81-2.87c.1-.17.16-.36.27-.53a1.06,1.06,0,0,1,1.49-.41,1.2,1.2,0,0,1,.44,1.61,2.25,2.25,0,0,1-.28.43,14.26,14.26,0,0,0-2,3.25,1.36,1.36,0,0,1-.86.84A2.41,2.41,0,0,1,194.25,52.16Zm0-.45a.74.74,0,0,0,.12-1.47.74.74,0,0,0-.12,1.47Zm3.23-4.63a.68.68,0,0,0-.6-.77.74.74,0,0,0-.8.67.75.75,0,0,0,.67.74A.67.67,0,0,0,197.44,47.09Z"/><path class="cls-2" d="M102.59,10.54a11.92,11.92,0,0,0-3.72-.08A1.18,1.18,0,0,1,97.6,8.8a1.07,1.07,0,0,1,1.09-.69c.4,0,.8.09,1.21.1.9,0,1.8,0,2.71,0a5.52,5.52,0,0,1,.57,0,1.12,1.12,0,0,1,1.05,1.18,1.15,1.15,0,0,1-1.09,1.16A4.55,4.55,0,0,1,102.59,10.54Zm.51-.41a.68.68,0,0,0,.7-.68.69.69,0,1,0-1.36-.1A.7.7,0,0,0,103.11,10.13ZM97.95,9.2a.68.68,0,0,0,.57.8.67.67,0,0,0,.77-.68.75.75,0,0,0-.61-.78A.69.69,0,0,0,97.95,9.2Z"/><path class="cls-2" d="M43.51,6.45l-1.28-.08a1.12,1.12,0,0,1-1-1.27A1.2,1.2,0,0,1,42.39,4a1.44,1.44,0,0,1,.42.07,13.78,13.78,0,0,0,3.6.45c.14,0,.29,0,.43,0a1.18,1.18,0,1,1-.23,2.34c-.45-.05-.88-.19-1.33-.27s-1.17-.17-1.76-.25Zm4-.69A.75.75,0,0,0,46.84,5a.71.71,0,0,0-.72.75.69.69,0,0,0,.67.72A.71.71,0,0,0,47.48,5.76ZM43,5.26a.67.67,0,1,0-1.34-.09.68.68,0,0,0,.66.79A.67.67,0,0,0,43,5.26Z"/><path class="cls-2" d="M46,82.34a1.2,1.2,0,0,1-1,1.11c-.28,0-.57,0-.85,0l-3,.17c-.21,0-.42.07-.64.08a1.18,1.18,0,0,1-1.26-1.13,1.26,1.26,0,0,1,1.11-1.25,1.65,1.65,0,0,1,.36,0,13.64,13.64,0,0,0,3.83-.17,1.16,1.16,0,0,1,1.45,1C46,82.19,46,82.29,46,82.34Zm-1.2.69a.73.73,0,0,0,.73-.66.71.71,0,0,0-.63-.82.67.67,0,0,0-.73.64A.76.76,0,0,0,44.83,83Zm-3.75-.46a.7.7,0,0,0-.63-.76.67.67,0,0,0-.76.61.7.7,0,1,0,1.39.14Z"/><path class="cls-2" d="M192.3,54.46a1.26,1.26,0,0,1-.62,1,12.88,12.88,0,0,0-1.1.7c-.76.61-1.49,1.25-2.23,1.88a1.14,1.14,0,0,1-1.44.18,1.23,1.23,0,0,1-.16-1.83,2,2,0,0,1,.46-.35A13.8,13.8,0,0,0,190,53.89a3,3,0,0,1,.62-.5A1.12,1.12,0,0,1,192.3,54.46ZM187.52,58a.75.75,0,0,0,.72-.69.73.73,0,0,0-.67-.79.78.78,0,0,0-.72.69A.75.75,0,0,0,187.52,58Zm4.33-3.51a.72.72,0,0,0-.62-.77.73.73,0,0,0-.77.71.76.76,0,0,0,.67.74A.69.69,0,0,0,191.85,54.48Z"/><path class="cls-2" d="M118.92,8.53l2.55-.18c.14,0,.28,0,.43,0A1.16,1.16,0,0,1,123,9.49a1.13,1.13,0,0,1-1.15,1.18,22.5,22.5,0,0,0-4.41,0,1.07,1.07,0,0,1-1.17-1.19,1.17,1.17,0,0,1,1.24-1.15c.45,0,.9.05,1.35.08Zm3.69,1a.66.66,0,0,0-.57-.79.72.72,0,0,0-.16,1.44A.67.67,0,0,0,122.61,9.58Zm-5.14-.77a.72.72,0,1,0,.64.73A.68.68,0,0,0,117.47,8.81Z"/><path class="cls-2" d="M38.37,59.43a1.12,1.12,0,0,1-1.19-.77,1.15,1.15,0,0,1,.34-1.29c.38-.34.82-.6,1.2-.95.57-.52,1.11-1.09,1.67-1.64a7.5,7.5,0,0,1,.57-.57,1,1,0,0,1,1.52.15,1.1,1.1,0,0,1-.06,1.6,26.92,26.92,0,0,0-3.49,3.2A1.38,1.38,0,0,1,38.37,59.43Zm.56-1.09a.76.76,0,0,0-.61-.8.73.73,0,1,0,.61.8Zm2-3.27a.67.67,0,1,0,1.34.16.69.69,0,0,0-.62-.83A.68.68,0,0,0,41,55.08Z"/><path class="cls-2" d="M106.06,77.29a1.2,1.2,0,0,1-1.18-1.11,1.17,1.17,0,0,1,.86-1.22,2.5,2.5,0,0,1,.7-.09A11,11,0,0,0,110,74.3a1.14,1.14,0,0,1,1,.07,1.2,1.2,0,0,1,.6,1.18,1.11,1.11,0,0,1-.78,1,2,2,0,0,1-.63.11,11.91,11.91,0,0,0-3.37.51A7.38,7.38,0,0,1,106.06,77.29Zm.62-1.09a.77.77,0,0,0-.65-.83.8.8,0,0,0-.76.65.78.78,0,0,0,.66.82A.74.74,0,0,0,106.67,76.2Zm3.86-1.48a.68.68,0,0,0-.78.59.7.7,0,0,0,.64.81.68.68,0,0,0,.74-.64A.69.69,0,0,0,110.53,74.72Z"/><path class="cls-2" d="M93.42,10.21c-.92-.06-1.84-.13-2.77-.16-.52,0-1,.07-1.56,0a1,1,0,0,1-1-1.36,1.15,1.15,0,0,1,1.4-.94A12.11,12.11,0,0,0,93.09,8a3.43,3.43,0,0,1,.85,0,1.06,1.06,0,0,1,.87,1,1.17,1.17,0,0,1-.69,1.27,3.84,3.84,0,0,1-.69.13Zm1-1a.71.71,0,0,0-.62-.78A.77.77,0,0,0,93,9a.7.7,0,1,0,1.38.12ZM89.9,9a.65.65,0,0,0-.66-.7.69.69,0,0,0-.71.74.67.67,0,0,0,.7.68A.71.71,0,0,0,89.9,9Z"/><path class="cls-2" d="M87.31,79.8a1.18,1.18,0,0,1-.17-2.34c.37-.06.76,0,1.14-.08Q89.65,77.21,91,77c.42-.06.83-.24,1.25,0a1.06,1.06,0,0,1,.59,1,1.1,1.1,0,0,1-.63,1.08,1.59,1.59,0,0,1-.69.16,13.7,13.7,0,0,0-3.81.46C87.57,79.77,87.4,79.79,87.31,79.8ZM88,78.68a.71.71,0,0,0-.58-.79.75.75,0,0,0-.8.66.74.74,0,0,0,.6.79A.69.69,0,0,0,88,78.68Zm4.47-.55a.67.67,0,0,0-.59-.77.72.72,0,0,0-.78.59.73.73,0,0,0,.64.82A.67.67,0,0,0,92.44,78.13Z"/><path class="cls-2" d="M53,7.48c-.47,0-1,0-1.42-.09a1.11,1.11,0,0,1-1.05-1.25,1.23,1.23,0,0,1,1.34-1.08,6.91,6.91,0,0,1,.91.2,10.16,10.16,0,0,0,3.12.23,1.19,1.19,0,0,1,1.24.68A1.08,1.08,0,0,1,57,7.37a1.2,1.2,0,0,1-1.33.46c-.88-.19-1.78-.31-2.67-.46Zm3.06-.08a.68.68,0,0,0,.76-.63A.67.67,0,0,0,56.26,6a.7.7,0,0,0-.8.66A.68.68,0,0,0,56.09,7.39ZM51.61,7a.72.72,0,0,0,.76-.64A.7.7,0,1,0,51,6.2.75.75,0,0,0,51.61,7Z"/><path class="cls-2" d="M155.17,9.53a1.19,1.19,0,0,1-1.24-1.2,1.21,1.21,0,0,1,1.19-1.16c.86,0,1.71,0,2.57,0,.54,0,1.08-.16,1.63-.23a1.1,1.1,0,0,1,1.22.58,1.21,1.21,0,0,1-.92,1.78,2.69,2.69,0,0,1-.57,0,11,11,0,0,0-3.34.2A4.38,4.38,0,0,1,155.17,9.53Zm.57-1.11a.69.69,0,0,0-.58-.79.74.74,0,0,0-.8.66.76.76,0,0,0,.68.81A.68.68,0,0,0,155.74,8.42Zm3.82.35a.67.67,0,0,0,.71-.68.7.7,0,1,0-1.4,0A.67.67,0,0,0,159.56,8.77Z"/><path class="cls-2" d="M196.36,18.68a6.32,6.32,0,0,1,.7.56,1.33,1.33,0,0,1,.24.54,15.29,15.29,0,0,0,1.6,3.41,2.21,2.21,0,0,1,.33.89,1.07,1.07,0,0,1-.8,1.17,1,1,0,0,1-1.24-.48,2.86,2.86,0,0,1-.26-.61,14.36,14.36,0,0,0-1.5-3.21,4,4,0,0,1-.32-.58A1.23,1.23,0,0,1,196.36,18.68ZM198,24.85a.76.76,0,0,0,.8-.69.69.69,0,0,0-.59-.79.76.76,0,0,0-.81.67A.78.78,0,0,0,198,24.85Zm-1.2-4.91a.71.71,0,0,0-.63-.76.71.71,0,0,0-.11,1.42A.74.74,0,0,0,196.83,19.94Z"/><path class="cls-2" d="M4.5,27.59a1.32,1.32,0,0,1-1,1.23A1.15,1.15,0,0,1,2.28,28a2.69,2.69,0,0,1-.1-.74A13.5,13.5,0,0,0,1.78,24c-.05-.22-.11-.43-.15-.65-.14-.84.23-1.47.92-1.57s1.19.38,1.27,1.18c0,.44,0,.9.08,1.34.12.86.28,1.71.43,2.57C4.39,27.15,4.46,27.42,4.5,27.59ZM2.78,22.22a.77.77,0,0,0-.78.7.7.7,0,0,0,.61.77A.76.76,0,0,0,3.41,23,.8.8,0,0,0,2.78,22.22ZM4.05,27.7a.75.75,0,0,0-.69-.78.71.71,0,0,0-.7.69.72.72,0,0,0,.61.78A.72.72,0,0,0,4.05,27.7Z"/><path class="cls-2" d="M65.13,8.59c-.87-.09-1.75-.21-2.62-.27a10.9,10.9,0,0,0-1.28,0,1.19,1.19,0,0,1-1.17-.69,1.07,1.07,0,0,1,.1-1.2A1.15,1.15,0,0,1,61.41,6a11.66,11.66,0,0,0,3.75.33,2,2,0,0,1,.43,0,1.22,1.22,0,0,1,1.07,1.27,1.16,1.16,0,0,1-1.18,1.07l-.36,0ZM61,7.84a.71.71,0,1,0,0-1.42.67.67,0,0,0-.68.7A.67.67,0,0,0,61,7.84Zm4.49.4a.72.72,0,0,0,.71-.69.71.71,0,0,0-.62-.77.72.72,0,0,0-.75.73A.7.7,0,0,0,65.5,8.24Z"/><path class="cls-2" d="M156.66,65.22a1.15,1.15,0,0,1,1.19,1,1.14,1.14,0,0,1-.68,1.26,5.61,5.61,0,0,1-.77.16l-3.13.71c-.23.05-.45.16-.69.2a1.15,1.15,0,0,1-1.31-.88,1.21,1.21,0,0,1,.78-1.41,1.83,1.83,0,0,1,.49-.1,12,12,0,0,0,3.55-.8C156.31,65.31,156.54,65.26,156.66,65.22Zm.76,1.3a.7.7,0,0,0-.54-.83.68.68,0,0,0-.79.58.71.71,0,0,0,.58.87A.66.66,0,0,0,157.41,66.52Zm-5.12,1.63a.73.73,0,0,0,.75-.63.7.7,0,1,0-1.4-.11A.72.72,0,0,0,152.3,68.15Z"/><path class="cls-2" d="M96.76,78.59a1.2,1.2,0,0,1-1.24-1.17,1.23,1.23,0,0,1,1.1-1.18c.43,0,.86,0,1.28,0,1-.15,1.92-.33,2.88-.52a1.13,1.13,0,0,1,1.42.87,1.19,1.19,0,0,1-1,1.45,2.31,2.31,0,0,1-.5,0,11.23,11.23,0,0,0-3,.38C97.31,78.5,97,78.55,96.76,78.59Zm0-1.89a.75.75,0,0,0-.78.71.76.76,0,0,0,.67.74.75.75,0,0,0,.73-.68A.73.73,0,0,0,96.73,76.7Zm5.09.16a.69.69,0,0,0-.64-.75.67.67,0,0,0-.75.62.69.69,0,0,0,.67.79A.71.71,0,0,0,101.82,76.86Z"/><path class="cls-2" d="M3.06,19.38a1.17,1.17,0,0,1-.94-1.64c.24-.65.55-1.28.78-1.93s.35-1.25.52-1.87a4.69,4.69,0,0,1,.19-.64A1.09,1.09,0,0,1,5,12.65a1.17,1.17,0,0,1,.68,1.46,2,2,0,0,1-.13.35A16.24,16.24,0,0,0,4.3,18.27C4.13,19.05,3.67,19.42,3.06,19.38ZM4.72,13a.74.74,0,0,0-.76.71.75.75,0,0,0,.62.77.74.74,0,0,0,.76-.63A.78.78,0,0,0,4.72,13ZM3.19,17.49A.74.74,0,0,0,3.1,19a.74.74,0,0,0,.74-.65A.76.76,0,0,0,3.19,17.49Z"/><path class="cls-2" d="M201,33.32A1.13,1.13,0,0,1,200,34.48a1.07,1.07,0,0,1-1.17-1c0-.42,0-.85,0-1.27-.11-.94-.25-1.87-.39-2.81,0-.17-.07-.34-.08-.52a1.21,1.21,0,0,1,1.08-1.4,1.26,1.26,0,0,1,1.16,1.34c0,1,.11,1.94.19,2.91,0,.39.17.78.24,1.17A3.5,3.5,0,0,1,201,33.32Zm-.41.08a.76.76,0,0,0-.69-.8.75.75,0,0,0-.71.71.76.76,0,0,0,.66.75A.73.73,0,0,0,200.61,33.39Zm-.52-4.72a.72.72,0,0,0-.62-.77.73.73,0,0,0-.08,1.46A.72.72,0,0,0,200.09,28.67Z"/><path class="cls-2" d="M139.39,70.47a1.11,1.11,0,0,1-.76,1.07,2.42,2.42,0,0,1-.7.13,11.44,11.44,0,0,0-3.29.63,3.56,3.56,0,0,1-.62.17,1.12,1.12,0,0,1-1.24-1,1.15,1.15,0,0,1,.86-1.35c.37-.08.76-.05,1.13-.13.89-.18,1.77-.38,2.65-.58a6.75,6.75,0,0,1,.76-.2A1.1,1.1,0,0,1,139.39,70.47ZM133.79,72a.74.74,0,0,0,.77-.62.76.76,0,0,0-.61-.85.74.74,0,0,0-.15,1.46Zm5.2-1.56a.75.75,0,0,0-.68-.79.72.72,0,0,0-.7.69.69.69,0,1,0,1.38.1Z"/><path class="cls-2" d="M111.83,10.65a9.9,9.9,0,0,0-3.38,0,2.44,2.44,0,0,1-.5,0,1.13,1.13,0,0,1-1.06-1.17A1.25,1.25,0,0,1,108,8.27a2.09,2.09,0,0,1,.64,0,10.64,10.64,0,0,0,3.12.08c.24,0,.47-.06.71-.05a1.17,1.17,0,0,1,1.17,1.23,1.21,1.21,0,0,1-1.22,1.11Zm1.39-1.09a.75.75,0,0,0-.6-.78.73.73,0,0,0-.8.66.77.77,0,0,0,.6.79A.75.75,0,0,0,113.23,9.56Zm-4.51-.08a.7.7,0,1,0-1.4,0,.7.7,0,1,0,1.4,0Z"/><path class="cls-2" d="M49.87,83.16a1.12,1.12,0,0,1-1.19-1.11,1.17,1.17,0,0,1,1-1.24c.21,0,.43,0,.64,0l3.19-.19a6.72,6.72,0,0,1,.85-.05,1.09,1.09,0,0,1,1,1,1.17,1.17,0,0,1-.77,1.27,1.43,1.43,0,0,1-.56.08,12.85,12.85,0,0,0-3.75.22A2.54,2.54,0,0,1,49.87,83.16ZM55,81.79a.68.68,0,1,0-.73.66A.7.7,0,0,0,55,81.79Zm-5.11-.52a.75.75,0,0,0-.76.72.74.74,0,0,0,.64.74.76.76,0,0,0,.75-.64A.72.72,0,0,0,49.84,81.27Z"/><path class="cls-2" d="M194.58,16.3a1.09,1.09,0,0,1-.67.86,1.06,1.06,0,0,1-1.14-.16,3.11,3.11,0,0,1-.39-.43,15.27,15.27,0,0,0-2.63-2.6,2,2,0,0,1-.62-.87,1.14,1.14,0,0,1,.51-1.28A1.08,1.08,0,0,1,191,12c.32.33.56.75.88,1.06.67.66,1.38,1.28,2.08,1.91A1.42,1.42,0,0,1,194.58,16.3Zm-1.16.52a.69.69,0,0,0,.74-.72.74.74,0,0,0-.65-.75.73.73,0,0,0-.09,1.47Zm-3.35-3.28a.64.64,0,0,0,.79-.54.69.69,0,0,0-.53-.88.73.73,0,0,0-.83.62A.69.69,0,0,0,190.07,13.54Z"/><path class="cls-2" d="M27.92,4.54c-.84-.15-1.68-.31-2.52-.43C25,4,24.5,4.05,24.06,4a2.73,2.73,0,0,1-.76-.13,1.15,1.15,0,0,1-.7-1.44,1.15,1.15,0,0,1,1.35-.81c.84.16,1.67.35,2.51.5a10.3,10.3,0,0,0,1.14.08,5.06,5.06,0,0,1,.64,0,1.21,1.21,0,0,1,1,1.34A1.1,1.1,0,0,1,27.92,4.54ZM24.36,2.81a.72.72,0,0,0-.66-.73.67.67,0,0,0-.73.64.67.67,0,0,0,.67.77A.73.73,0,0,0,24.36,2.81Zm3.8-.12a.71.71,0,0,0-.71.68.67.67,0,0,0,.66.78.68.68,0,0,0,.68-.7A.7.7,0,0,0,28.16,2.68Z"/><path class="cls-2" d="M115.41,75.8a1.21,1.21,0,0,1-1.25-1.19,1.28,1.28,0,0,1,1.19-1.18c1-.11,1.93-.22,2.89-.36.37-.05.73-.21,1.11-.28a1.21,1.21,0,0,1,1.09.19,1.19,1.19,0,0,1-.24,2,2.16,2.16,0,0,1-.76.14,13.86,13.86,0,0,0-3.44.59A4,4,0,0,1,115.41,75.8Zm4.25-1.17a.73.73,0,0,0,.17-1.45.73.73,0,0,0-.17,1.45Zm-4.29-.71a.69.69,0,0,0-.77.61.73.73,0,0,0,.64.83.71.71,0,0,0,.73-.66A.72.72,0,0,0,115.38,73.92Z"/><path class="cls-2" d="M18.63,1.7a1.17,1.17,0,0,1,1.23,1A1.19,1.19,0,0,1,19.15,4a2.17,2.17,0,0,1-.49.12A14.05,14.05,0,0,0,15,5.18a1.51,1.51,0,0,1-.55.13,1.1,1.1,0,0,1-1.16-.89A1.19,1.19,0,0,1,14.05,3a3.47,3.47,0,0,1,.76-.18A11.26,11.26,0,0,0,17.91,2,6.78,6.78,0,0,1,18.63,1.7ZM15.08,4.18a.67.67,0,0,0-.61-.76.7.7,0,0,0-.76.7.69.69,0,0,0,.61.76A.69.69,0,0,0,15.08,4.18Zm3.7-2a.76.76,0,0,0-.73.75.79.79,0,0,0,.67.74.75.75,0,0,0,.72-.76A.7.7,0,0,0,18.78,2.15Z"/><path class="cls-2" d="M80.29,7.34a15.45,15.45,0,0,0,3.83.21A1.09,1.09,0,0,1,85.4,8.71a1.12,1.12,0,0,1-1.19,1.19c-.5,0-1-.16-1.48-.19-.76,0-1.51,0-2.27-.06-.21,0-.43,0-.64,0a1.13,1.13,0,0,1-1.1-1.2A1.15,1.15,0,0,1,79.95,7.3Zm-.42.42a.72.72,0,0,0-.1,1.43.68.68,0,0,0,.75-.62A.7.7,0,0,0,79.87,7.76Zm5.13,1a.7.7,0,1,0-1.39,0,.73.73,0,0,0,.67.73A.76.76,0,0,0,85,8.75Z"/><path class="cls-2" d="M147.42,67.33a1.15,1.15,0,0,1,1.2.87,1.19,1.19,0,0,1-.58,1.33,1.38,1.38,0,0,1-.54.17,14.91,14.91,0,0,0-4,.84,1.29,1.29,0,0,1-.76,0,1.2,1.2,0,0,1,.07-2.23c.44-.1.9-.11,1.34-.2.86-.18,1.71-.4,2.57-.61Zm.79,1.24a.7.7,0,0,0-.63-.81.68.68,0,0,0-.73.65.7.7,0,0,0,.63.81A.68.68,0,0,0,148.21,68.57Zm-5.1,1.6a.7.7,0,0,0,.69-.69.71.71,0,0,0-.67-.78.7.7,0,0,0-.7.69A.74.74,0,0,0,143.12,70.17Z"/><path class="cls-2" d="M35.4,81.54a1.14,1.14,0,0,1,1.18,1.17,1.16,1.16,0,0,1-1.15,1.18h-.28a15.3,15.3,0,0,0-4,.14,1.1,1.1,0,0,1-1.29-1.2,1,1,0,0,1,1.1-1.1c.57,0,1.14,0,1.71,0,.78,0,1.56-.12,2.34-.18Zm0,1.92A.75.75,0,0,0,35.55,82a.68.68,0,0,0-.76.62A.72.72,0,0,0,35.38,83.46Zm-4.46.1a.68.68,0,0,0,.75-.62.75.75,0,0,0-.61-.79.69.69,0,0,0-.79.67A.68.68,0,0,0,30.92,83.56Z"/><path class="cls-2" d="M74.16,80.24a1.16,1.16,0,0,1-1.08,1.1c-.47,0-1,0-1.42,0-.85.09-1.7.22-2.54.34a4.93,4.93,0,0,1-.49.08,1.17,1.17,0,0,1-1.16-1,1.15,1.15,0,0,1,.75-1.29,1.8,1.8,0,0,1,.7-.09,12.85,12.85,0,0,0,3.61-.32,2.08,2.08,0,0,1,.77,0A1.16,1.16,0,0,1,74.16,80.24Zm-4.91.42a.75.75,0,0,0-.64-.83.73.73,0,0,0-.75.65.71.71,0,0,0,.64.81A.68.68,0,0,0,69.25,80.66Zm4.47-.44a.7.7,0,0,0-.58-.8.74.74,0,0,0-.76.72.67.67,0,1,0,1.34.08Z"/><path class="cls-2" d="M197.49,42.35c0-.1.08-.32.15-.53a14.88,14.88,0,0,0,.81-3.56,3,3,0,0,1,.08-.52,1.14,1.14,0,0,1,1.28-.82,1.12,1.12,0,0,1,.9,1.17,2.31,2.31,0,0,1-.15.73,15,15,0,0,0-.86,3.78,1.73,1.73,0,0,1-.14.57,1.16,1.16,0,0,1-1.39.63A1.23,1.23,0,0,1,197.49,42.35Zm1,1a.73.73,0,0,0,.74-.65.7.7,0,1,0-1.39-.17A.77.77,0,0,0,198.52,43.39Zm1.14-6.07a.74.74,0,0,0-.73.68.72.72,0,0,0,.62.78.74.74,0,0,0,.78-.71A.8.8,0,0,0,199.66,37.32Z"/><path class="cls-2" d="M16.32,41.09a1.14,1.14,0,0,1-1.51,1,2.81,2.81,0,0,1-.56-.32,13,13,0,0,0-3.12-1.6,2.19,2.19,0,0,1-.73-.43,1.1,1.1,0,0,1-.24-1.3,1,1,0,0,1,1.1-.65,1.7,1.7,0,0,1,.73.26,13.87,13.87,0,0,0,3.44,1.75A1.2,1.2,0,0,1,16.32,41.09Zm-5.21-1.47a.65.65,0,0,0,.74-.61.68.68,0,1,0-1.36-.13A.66.66,0,0,0,11.11,39.62Zm4,2.1a.69.69,0,0,0,.75-.64.72.72,0,0,0-.65-.82.71.71,0,0,0-.71.68A.7.7,0,0,0,15.13,41.73Z"/><path class="cls-2" d="M43.65,51.09c.06-1,.13-2,.17-3,0-.45,0-.9,0-1.35,0-.82.47-1.34,1.15-1.33S46.08,46,46,46.88s-.18,1.89-.26,2.83a8.13,8.13,0,0,0,0,.9c0,.2,0,.4,0,.6a1.22,1.22,0,0,1-1.2,1.31A1.11,1.11,0,0,1,43.65,51.09Zm1.72.24a.74.74,0,0,0-.75-.72.68.68,0,0,0-.65.73.71.71,0,0,0,.65.73A.75.75,0,0,0,45.37,51.33Zm-.49-4a.76.76,0,0,0,.73-.75.7.7,0,0,0-.66-.72.75.75,0,0,0-.73.66A.77.77,0,0,0,44.88,47.34Z"/><path class="cls-2" d="M167.06,64.29a1.22,1.22,0,0,1-.87,1.07c-.25.07-.52.07-.77.13-.93.22-1.85.44-2.77.67-.3.08-.58.23-.89.29a1.1,1.1,0,0,1-1.27-.82,1.17,1.17,0,0,1,.79-1.47,24.78,24.78,0,0,0,4.44-1.08A1.1,1.1,0,0,1,167.06,64.29Zm-.42-.07a.7.7,0,0,0-.64-.74.71.71,0,0,0-.76.7.77.77,0,0,0,.73.75A.7.7,0,0,0,166.64,64.22Zm-4.41,1.14a.73.73,0,0,0-.65-.82.75.75,0,0,0-.71.71.72.72,0,0,0,.63.77A.69.69,0,0,0,162.23,65.36Z"/><path class="cls-2" d="M175,60.73l-.6.13c-.93.29-1.86.56-2.8.82-.34.09-.71.09-1.05.18a1.08,1.08,0,0,0-.87,1A1.14,1.14,0,0,0,171,64.15a1.5,1.5,0,0,0,.27-.09,14.3,14.3,0,0,1,3.79-1,1.3,1.3,0,0,0,1.17-1.31,2.77,2.77,0,0,0-.29-.63A1,1,0,0,0,175,60.73Zm-4.3,3a.7.7,0,0,1-.64-.82.69.69,0,0,1,.77-.61.74.74,0,0,1,.61.78A.69.69,0,0,1,170.67,63.72ZM175,62.61a.76.76,0,0,1-.65-.82.7.7,0,1,1,1.39.16A.73.73,0,0,1,175,62.61Z"/><path class="cls-2" d="M42,43.88a4.37,4.37,0,0,1-.61-.15,14,14,0,0,0-3.73-.89,1.2,1.2,0,0,1-1.11-1,1.18,1.18,0,0,1,1.23-1.38,1.47,1.47,0,0,1,.41.1,13.85,13.85,0,0,0,3.87.92,1.12,1.12,0,0,1,1,.87,1.09,1.09,0,0,1-.38,1.21A2.93,2.93,0,0,1,42,43.88Zm.74-1.14a.73.73,0,0,0-.62-.78.73.73,0,0,0-.18,1.46A.74.74,0,0,0,42.73,42.75Zm-5.12-.35a.77.77,0,0,0,.71-.79.69.69,0,0,0-.7-.69.71.71,0,0,0-.67.73A.76.76,0,0,0,37.61,42.39Z"/><path class="cls-2" d="M179.24,62a1.21,1.21,0,0,1-1.15-1,1,1,0,0,1,.66-1.17c.37-.16.76-.26,1.15-.39l2.64-.88a7.14,7.14,0,0,1,.74-.28,1.07,1.07,0,0,1,1.29.78,1.21,1.21,0,0,1-.67,1.47,2.88,2.88,0,0,1-.62.16,13.76,13.76,0,0,0-3.4,1.08A6.29,6.29,0,0,1,179.24,62Zm-.08-.48a.73.73,0,0,0,.71-.76.69.69,0,0,0-.68-.7.74.74,0,0,0-.72.67A.75.75,0,0,0,179.16,61.48Zm5-2.09a.65.65,0,0,0-.64-.73.72.72,0,0,0-.71.76.66.66,0,0,0,.68.69A.68.68,0,0,0,184.18,59.39Z"/><path class="cls-2" d="M145.77,10a1.18,1.18,0,0,1-.12-2.35c.33,0,.66.05,1,0,1,0,1.94-.11,2.91-.18a6.06,6.06,0,0,1,.64-.07,1.09,1.09,0,0,1,1.06,1.08,1.16,1.16,0,0,1-1,1.26,3,3,0,0,1-.71,0,11.19,11.19,0,0,0-3.19.16A5.71,5.71,0,0,1,145.77,10Zm.58-1.1a.73.73,0,0,0-.58-.79.74.74,0,1,0,.58.79Zm3.84-1a.71.71,0,0,0-.73.66.68.68,0,0,0,.66.78.68.68,0,0,0,.73-.65A.7.7,0,0,0,150.19,7.91Z"/><path class="cls-2" d="M37.05,5.76A10.29,10.29,0,0,0,36,5.52c-.94-.12-1.89-.18-2.83-.3a1.83,1.83,0,0,1-.8-.24A1.14,1.14,0,0,1,32,3.59a1.19,1.19,0,0,1,1.3-.69c.56.11,1.11.29,1.67.36s1.41.1,2.12.14l.36,0a1.19,1.19,0,0,1,1.13,1.34C38.47,5.46,38,5.84,37.05,5.76Zm.35-.4a.74.74,0,0,0,.74-.73.7.7,0,1,0-1.4,0A.66.66,0,0,0,37.41,5.37ZM33.68,4.14A.7.7,0,1,0,32.28,4a.74.74,0,0,0,.67.8A.72.72,0,0,0,33.68,4.14Z"/><path class="cls-2" d="M124.66,74.22a1.19,1.19,0,0,1-.31-2.33,4.2,4.2,0,0,1,.92-.11,10.82,10.82,0,0,0,2.94-.55,3.22,3.22,0,0,1,.76-.17,1.1,1.1,0,0,1,1.15,1,1.17,1.17,0,0,1-.95,1.36c-.3.05-.62,0-.92.08-1,.18-2,.38-2.93.58Zm.63-1.16a.73.73,0,0,0-.65-.75.7.7,0,0,0-.74.73.69.69,0,1,0,1.39,0Zm3.79-1.59a.77.77,0,0,0-.74.74.69.69,0,1,0,1.39,0A.74.74,0,0,0,129.08,71.48Z"/><path class="cls-2" d="M59.26,82.52a1.13,1.13,0,0,1-1.19-1.19,1.18,1.18,0,0,1,1.17-1.16,16.32,16.32,0,0,0,4.24-.33,1.08,1.08,0,0,1,1.27,1.08,1.11,1.11,0,0,1-1.19,1.25,15.93,15.93,0,0,0-3.89.31A2.55,2.55,0,0,1,59.26,82.52Zm.62-1.1a.74.74,0,0,0-.6-.79.76.76,0,0,0-.79.68.68.68,0,0,0,.59.77A.73.73,0,0,0,59.88,81.42ZM64.36,81a.7.7,0,0,0-.62-.76.73.73,0,0,0-.77.63.7.7,0,1,0,1.39.14Z"/><path class="cls-2" d="M70.77,6.79c.85.08,1.7.19,2.55.24.52,0,1,0,1.56,0A1.1,1.1,0,0,1,76,8.18a1.12,1.12,0,0,1-1.13,1.18c-.26,0-.52-.08-.77-.1l-3.26-.2a4.89,4.89,0,0,1-.57,0,1.16,1.16,0,0,1-1-1.28,1.12,1.12,0,0,1,1.17-1.06l.28,0Zm4.1,2.13a.68.68,0,0,0,.72-.66A.72.72,0,0,0,75,7.43a.78.78,0,0,0-.74.67A.73.73,0,0,0,74.87,8.91ZM70.49,7.14a.72.72,0,0,0-.77.7.7.7,0,1,0,1.4.06A.69.69,0,0,0,70.49,7.14Z"/><path class="cls-2" d="M129.09,9.62l-.39.78c-.56.08-1.14.19-1.73.24a1.15,1.15,0,0,1-1.23-1.15,1.09,1.09,0,0,1,1.19-1.18,19.77,19.77,0,0,0,4.33-.13,1.1,1.1,0,0,1,1.19,1.11,1.13,1.13,0,0,1-1.09,1.22c-.4,0-.81,0-1.21-.06C129.45,10.4,129.45,10.4,129.09,9.62Zm-1.54-.17a.76.76,0,0,0-.73-.74.72.72,0,0,0-.67.72.7.7,0,1,0,1.4,0Zm4.5-.08a.7.7,0,1,0-1.39-.09.76.76,0,0,0,.69.8A.74.74,0,0,0,132,9.38Z"/><path class="cls-2" d="M168.42,7a.86.86,0,0,1,0-.77l-.09,0c-.85.11-1.69.23-2.54.3-.42,0-.85,0-1.28,0a1.15,1.15,0,0,0-1.1.7,1.22,1.22,0,0,0,.19,1.26,1.13,1.13,0,0,0,1.3.35,17.18,17.18,0,0,1,3.47-.34,1.64,1.64,0,0,0,.44-.16C168.26,7.66,168.1,7.43,168.42,7Zm-4.06,1.43a.75.75,0,0,1-.61-.78.7.7,0,1,1,1.4.1A.76.76,0,0,1,164.36,8.45Z"/><path class="cls-2" d="M184.32,8.14a.73.73,0,0,1-.12.43c-.16.21-.32.42-.48.63a.76.76,0,0,1-.24.28.7.7,0,0,1-.77.2h0c.33.14.59.27.85.35s.36.11.47,0l.2-.13a.67.67,0,0,1,.31-1l.09,0a.66.66,0,0,1,.69.08,3.46,3.46,0,0,0,.22-.28Z"/><path class="cls-2" d="M104.77,10.34l0-1.94,1.62.1v1.94Z"/><path class="cls-2" d="M76.48,9.25l.11-1.82a2.69,2.69,0,0,1,1.64,0l-.11,1.91Z"/><path class="cls-2" d="M57.69,7.81l.2-1.89L59.47,6l-.11,1.9Z"/><path class="cls-2" d="M85.58,77.83l.17,2-1.63.2L84,78Z"/><path class="cls-2" d="M160.12,66.64l-1.59.36-.35-1.93,1.57-.37Z"/><path class="cls-2" d="M76.2,78.9l.2,1.91L74.79,81l-.22-2Z"/><path class="cls-2" d="M112,74.19l1.59-.27.27,2-1.6.26Z"/><path class="cls-2" d="M65.38,81.84l-.15-1.95,1.6-.16.18,2Z"/><path class="cls-2" d="M141.31,68.8l.4,1.92-1.58.34-.39-1.93Z"/><path class="cls-2" d="M125.19,10.42l-1.57.07-.06-2,1.62.1Z"/><path class="cls-2" d="M187.07,9.27a1,1,0,0,0-1.24,0l-.22.18a.65.65,0,0,1-.34.87l-.09,0a.66.66,0,0,1-.63,0l-.13.11c.53.32.92.59,1.35.79a1.88,1.88,0,0,0,.82.18,1,1,0,0,0,.94-.87A1.28,1.28,0,0,0,187.07,9.27Zm-.69,1.7a.71.71,0,0,1-.59-.86.68.68,0,0,1,.77-.6.74.74,0,0,1-.18,1.46Z"/><path class="cls-2" d="M114.16,8.53l1.61.1V10.4a2.88,2.88,0,0,1-1.59.07Z"/><path class="cls-2" d="M31.22,4.74l-1.62-.1.27-1.87a2.36,2.36,0,0,1,1.57.2Z"/><path class="cls-2" d="M167.75,64.79l-.43-1.93,1.56-.38.44,1.88Z"/><path class="cls-2" d="M122.81,72.45l.3,1.83-1.58.32-.27-1.88A2.77,2.77,0,0,1,122.81,72.45Z"/><path class="cls-2" d="M153.51,9.41l-1.66.13-.07-2,1.64-.1c0,.37-.06.67-.05,1S153.45,9,153.51,9.41Z"/><path class="cls-2" d="M56,82.57l-.14-2,1.6-.08.16,2Z"/><path class="cls-2" d="M104.5,77.32l-1.62.22-.25-1.95,1.58-.23Z"/><path class="cls-2" d="M130.51,70.94l1.54-.27.39,1.92-1.62.28Z"/><path class="cls-2" d="M93.53,78.81l-.24-1.93,1.59-.22.25,2Z"/><path class="cls-2" d="M20.45,3.73l-.09-1.89h1.72L22,3.67A2.17,2.17,0,0,1,20.45,3.73Z"/><path class="cls-2" d="M27.61,82.27l.89-1.78,1.42.72L29.09,83Z"/><path class="cls-2" d="M48.15,83l-1.59.17-.06-2,1.58-.11Z"/><path class="cls-2" d="M133,10.3l0-1.86a3.92,3.92,0,0,1,1.61-.14l0,1.93Z"/><path class="cls-2" d="M144,7.94l0,2-1.55.09L142.35,8Z"/><path class="cls-2" d="M40.78,4.06,40.57,6,39,5.82l.24-1.94Z"/><path class="cls-2" d="M95.36,10.1l0-1.85,1.66,0-.12,2Z"/><path class="cls-2" d="M50.14,5.1l-.21,2-1.6-.22.22-1.79C49.08,4.85,49.62,5.12,50.14,5.1Z"/><path class="cls-2" d="M150.92,68.74l-1.53.34-.42-1.9,1.58-.36Z"/><path class="cls-2" d="M37.14,83.58l0-1.9,1.53-.08.11,1.89A3.8,3.8,0,0,1,37.14,83.58Z"/><path class="cls-2" d="M85.88,9.8,86,7.85l1.61.1L87.5,9.79Z"/><path class="cls-2" d="M67.1,8.5l.11-1.82,1.62.1-.11,1.78A2.33,2.33,0,0,1,67.1,8.5Z"/><path class="cls-2" d="M162.94,8.84l-1.65.08L161.14,7s0-.05.07-.05c1.15,0,1.35-.33,1.62,1.3C162.86,8.42,162.89,8.58,162.94,8.84Z"/><path class="cls-2" d="M26.2,75a6.55,6.55,0,0,0-.89-.44,5.4,5.4,0,0,0-.92-.12l.46-1.54,1.8.58Z"/><path class="cls-2" d="M4.75,11.73l.75-1.23a2.21,2.21,0,0,0,1.63,1.1l-.75,1.25Z"/><path class="cls-2" d="M18.25,40.65l-.44,2-1.21-.28.42-2Z"/><path class="cls-2" d="M11.42,4.76l1.06-.62,1,1.74-1.11.66Z"/><path class="cls-2" d="M8.36,37.76l1.22-1.53,1.06.88a6.9,6.9,0,0,0-.77.68,6.43,6.43,0,0,0-.52.87Z"/><path class="cls-2" d="M200.67,36.38l-1.86-.11.08-1.27,1.77.11A2.22,2.22,0,0,1,200.67,36.38Z"/><path class="cls-2" d="M193.83,52.94l-.82.91-1.39-1.38.81-.94Z"/><path class="cls-2" d="M188.37,10.36l1,.69-1.09,1.67-1-.69Z"/><path class="cls-2" d="M2,19.88,4,20l-.21,1.3L1.9,21.19Z"/><path class="cls-2" d="M193.66,18.08l1.55-1.17.8,1c-.63.29-1.27.52-1.52,1.34Z"/><path class="cls-2" d="M197.68,26.09l1.86-.63.28,1.17L198,27.3Z"/><path class="cls-2" d="M3.54,30.85l-.42-1.2,1.73-.79L5.32,30Z"/><path class="cls-2" d="M185.63,57.11l.83,1.81-1.07.61-.8-1.83Z"/><path class="cls-2" d="M196.53,45l.48-1.18,1.76.82-.45,1.15Z"/><path class="cls-2" d="M44.45,44.73l-1.16,1-.83-1.14,1.2-1Z"/><path class="cls-2" d="M42.14,53.24,43,52.19l1.21,1-.9,1.12Z"/><path class="cls-2" d="M34.8,42.55l0-1.63L36,40.84l0,1.67Z"/><path class="cls-2" d="M36.7,60.69l-.93-1.16-.1.22.78-.93-.08.21,1,1.13Z"/><path class="cls-2" d="M25.85,42.81l-.05-1.66,1.16,0v1.62Z"/><path class="cls-2" d="M177.33,60.26l.44,1.76-.81.22-.55-1.74Z"/><path class="cls-2" d="M30,65.54l1.12,1.2-.23.45-1.22-1.26Z"/><path class="cls-1" d="M180.22,6.11a.58.58,0,0,0,0-.12,2.65,2.65,0,0,1-.5,0,8.68,8.68,0,0,1-3.09-.82L175.67,5h0a.39.39,0,0,0,.37.51c.16,0,.4,0,.46.13.3.47.73.39,1.15.34a1.26,1.26,0,0,1,1.47.87,1.39,1.39,0,0,0,.26.33,1.22,1.22,0,0,0,.11-.55c0-.16.05-.32.09-.54.43.66,1,.82,1.5.44-.2-.08-.37-.14-.54-.22S180.23,6.21,180.22,6.11Z"/><path class="cls-1" d="M179.37,7.44c.27.8-.51,1-.46,1.55-.6.37-1.16.12-1.7.06a.71.71,0,0,1-.66-.56,3.59,3.59,0,0,1,.48-.05,2.06,2.06,0,0,1,.35.08c1,.21,1.12.16,1.7-.74A4.18,4.18,0,0,1,179.37,7.44Z"/><path class="cls-1" d="M180.47,9.38A1.67,1.67,0,0,1,179.12,9,1,1,0,0,1,180.47,9.38Z"/><path class="cls-1" d="M175.4,5c0,.07,0,.18,0,.21A1.1,1.1,0,0,1,174.06,5c.45-.22.87.05,1.3,0Z"/><path class="cls-1" d="M177.66,7.09c0-.22,0-.41.24-.42a.57.57,0,0,1,.6.4c.09.23,0,.38-.23.41l-.06,0-.51-.3Z"/><path class="cls-1" d="M178.28,7.47c0,.21,0,.42-.27.44a.53.53,0,0,1-.61-.4.3.3,0,0,1,.26-.43l0,.05c.05.31.2.45.51.3Z"/><path class="cls-1" d="M5.1,31.31a.77.77,0,0,1,.64.83.67.67,0,0,1-.72.64A.7.7,0,0,1,4.37,32,.73.73,0,0,1,5.1,31.31Z"/><path class="cls-1" d="M7.78,35.15a.68.68,0,0,1,.6.78.72.72,0,0,1-.8.67A.68.68,0,0,1,7,35.78.67.67,0,0,1,7.78,35.15Z"/><path class="cls-1" d="M78.61,79.66a.7.7,0,1,1-1.39-.06.73.73,0,0,1,.73-.66A.67.67,0,0,1,78.61,79.66Z"/><path class="cls-1" d="M83.08,79.23a.67.67,0,0,1-.68.69.74.74,0,0,1-.65-.82.67.67,0,1,1,1.34.12Z"/><path class="cls-1" d="M29.34,41.91a.75.75,0,0,1-.69.71.73.73,0,0,1-.71-.76.77.77,0,0,1,.69-.72A.74.74,0,0,1,29.34,41.91Z"/><path class="cls-1" d="M33.83,41.79a.68.68,0,0,1-.69.7.73.73,0,0,1,0-1.46A.71.71,0,0,1,33.83,41.79Z"/><path class="cls-1" d="M7.1,10.47a.72.72,0,0,1-.64-.82.69.69,0,1,1,1.37.16A.71.71,0,0,1,7.1,10.47Z"/><path class="cls-1" d="M11.14,6.55a.68.68,0,0,1-.71.67.75.75,0,0,1-.69-.78.69.69,0,0,1,.72-.66A.71.71,0,0,1,11.14,6.55Z"/><path class="cls-1" d="M24.09,42.74a.75.75,0,0,1-.65-.76.7.7,0,1,1,.65.76Z"/><path class="cls-1" d="M19.68,41.28a.71.71,0,0,1,.64.75.73.73,0,0,1-.76.71A.68.68,0,0,1,19,42,.7.7,0,0,1,19.68,41.28Z"/><path class="cls-1" d="M141.45,9.12a.72.72,0,0,1-.72.68.76.76,0,0,1-.68-.8.71.71,0,0,1,.72-.67A.7.7,0,0,1,141.45,9.12Z"/><path class="cls-1" d="M136.28,8.48a.7.7,0,0,1,.66.73.68.68,0,0,1-.67.72.7.7,0,0,1-.7-.77A.68.68,0,0,1,136.28,8.48Z"/><path class="cls-1" d="M34.79,62.12a.7.7,0,0,1-.64-.75.71.71,0,0,1,.8-.66.69.69,0,0,1,.59.79A.66.66,0,0,1,34.79,62.12Z"/><path class="cls-1" d="M32.49,65a.69.69,0,0,1-.71.67.68.68,0,0,1-.66-.72.7.7,0,0,1,.75-.71A.69.69,0,0,1,32.49,65Z"/><path class="cls-1" d="M29.12,67.06a.74.74,0,0,1-.06,1.47.74.74,0,0,1,.06-1.47Z"/><path class="cls-1" d="M26.93,71.51a.7.7,0,1,1-.69-.78A.76.76,0,0,1,26.93,71.51Z"/><path class="cls-1" d="M25.51,76.3a.69.69,0,0,1-.72.66.69.69,0,0,1-.64-.81.69.69,0,1,1,1.36.15Z"/><path class="cls-1" d="M26.52,81.33a.73.73,0,0,1-.64-.76.71.71,0,0,1,.78-.69.68.68,0,0,1,.59.79A.71.71,0,0,1,26.52,81.33Z"/><path class="cls-1" d="M194.21,51.71A.74.74,0,1,1,195,51,.76.76,0,0,1,194.21,51.71Z"/><path class="cls-1" d="M197.44,47.09a.67.67,0,0,1-.74.64A.75.75,0,0,1,196,47a.74.74,0,0,1,.8-.67A.68.68,0,0,1,197.44,47.09Z"/><path class="cls-1" d="M103.11,10.13a.7.7,0,0,1-.67-.78.69.69,0,1,1,1.36.1A.68.68,0,0,1,103.11,10.13Z"/><path class="cls-1" d="M97.95,9.2a.69.69,0,0,1,.73-.66.75.75,0,0,1,.61.78.67.67,0,0,1-.77.68A.68.68,0,0,1,97.95,9.2Z"/><path class="cls-1" d="M47.48,5.76a.71.71,0,0,1-.69.71.69.69,0,0,1-.67-.72A.71.71,0,0,1,46.84,5,.75.75,0,0,1,47.48,5.76Z"/><path class="cls-1" d="M43,5.26a.67.67,0,0,1-.68.7.68.68,0,0,1-.66-.79A.67.67,0,1,1,43,5.26Z"/><path class="cls-1" d="M44.83,83a.76.76,0,0,1-.63-.84.67.67,0,0,1,.73-.64.71.71,0,0,1,.63.82A.73.73,0,0,1,44.83,83Z"/><path class="cls-1" d="M41.07,82.56a.7.7,0,1,1-1.39-.14.67.67,0,0,1,.76-.61A.7.7,0,0,1,41.07,82.56Z"/><path class="cls-1" d="M187.52,58a.75.75,0,0,1-.68-.79.78.78,0,0,1,.72-.69.73.73,0,0,1,.67.79A.75.75,0,0,1,187.52,58Z"/><path class="cls-1" d="M191.85,54.48a.69.69,0,0,1-.72.67.76.76,0,0,1-.67-.74.73.73,0,0,1,.77-.71A.72.72,0,0,1,191.85,54.48Z"/><path class="cls-1" d="M122.61,9.58a.67.67,0,0,1-.73.64A.72.72,0,0,1,122,8.79.66.66,0,0,1,122.61,9.58Z"/><path class="cls-1" d="M117.47,8.81a.68.68,0,0,1,.64.73.69.69,0,0,1-.68.7.72.72,0,0,1,0-1.44Z"/><path class="cls-1" d="M38.93,58.35a.7.7,0,1,1-.61-.8A.76.76,0,0,1,38.93,58.35Z"/><path class="cls-1" d="M41,55.08a.68.68,0,0,1,.72-.67.73.73,0,0,1-.13,1.46A.68.68,0,0,1,41,55.08Z"/><path class="cls-1" d="M106.67,76.2a.74.74,0,0,1-.74.65.78.78,0,0,1-.66-.82.8.8,0,0,1,.76-.65A.77.77,0,0,1,106.67,76.2Z"/><path class="cls-1" d="M110.53,74.72a.69.69,0,0,1,.61.77.68.68,0,0,1-.74.64.7.7,0,0,1-.64-.81A.68.68,0,0,1,110.53,74.72Z"/><path class="cls-1" d="M94.4,9.17A.7.7,0,1,1,93,9a.77.77,0,0,1,.76-.65A.71.71,0,0,1,94.4,9.17Z"/><path class="cls-1" d="M89.9,9a.71.71,0,0,1-.68.71.67.67,0,0,1-.7-.68.69.69,0,0,1,.71-.74A.65.65,0,0,1,89.9,9Z"/><path class="cls-1" d="M88,78.68a.69.69,0,0,1-.79.66.74.74,0,0,1-.6-.79.75.75,0,0,1,.8-.66A.71.71,0,0,1,88,78.68Z"/><path class="cls-1" d="M92.44,78.13a.67.67,0,0,1-.73.64.73.73,0,0,1-.64-.82.72.72,0,0,1,.78-.59A.67.67,0,0,1,92.44,78.13Z"/><path class="cls-1" d="M56.09,7.39a.68.68,0,0,1-.64-.75.7.7,0,0,1,.8-.66.67.67,0,0,1,.59.78A.68.68,0,0,1,56.09,7.39Z"/><path class="cls-1" d="M51.61,7A.75.75,0,0,1,51,6.2a.7.7,0,1,1,1.39.13A.72.72,0,0,1,51.61,7Z"/><path class="cls-1" d="M155.74,8.42a.68.68,0,0,1-.71.68.76.76,0,0,1-.68-.81.74.74,0,0,1,.8-.66A.69.69,0,0,1,155.74,8.42Z"/><path class="cls-1" d="M159.56,8.77a.67.67,0,0,1-.69-.69.7.7,0,1,1,1.4,0A.67.67,0,0,1,159.56,8.77Z"/><path class="cls-1" d="M173.94,7.62a.67.67,0,0,1-.69-.69.7.7,0,1,1,1.4,0A.67.67,0,0,1,173.94,7.62Z"/><path class="cls-1" d="M198,24.85a.78.78,0,0,1-.61-.8.76.76,0,0,1,.81-.67.69.69,0,0,1,.59.79A.76.76,0,0,1,198,24.85Z"/><path class="cls-1" d="M196.83,19.94a.74.74,0,0,1-.74.66.71.71,0,0,1,.11-1.42A.71.71,0,0,1,196.83,19.94Z"/><path class="cls-1" d="M2.78,22.22a.8.8,0,0,1,.62.78.76.76,0,0,1-.79.69A.7.7,0,0,1,2,22.92.77.77,0,0,1,2.78,22.22Z"/><path class="cls-1" d="M4.05,27.7a.72.72,0,0,1-.78.69.72.72,0,0,1-.61-.78.71.71,0,0,1,.7-.69A.75.75,0,0,1,4.05,27.7Z"/><path class="cls-1" d="M61,7.84a.67.67,0,0,1-.66-.72.67.67,0,0,1,.68-.7.71.71,0,1,1,0,1.42Z"/><path class="cls-1" d="M65.5,8.24a.7.7,0,0,1-.66-.74.72.72,0,0,1,.75-.73.71.71,0,0,1,.62.77A.72.72,0,0,1,65.5,8.24Z"/><path class="cls-1" d="M157.41,66.52a.66.66,0,0,1-.75.62.71.71,0,0,1-.58-.87.68.68,0,0,1,.79-.58A.7.7,0,0,1,157.41,66.52Z"/><path class="cls-1" d="M152.3,68.15a.72.72,0,0,1-.64-.74.7.7,0,1,1,1.4.11A.73.73,0,0,1,152.3,68.15Z"/><path class="cls-1" d="M96.73,76.7a.73.73,0,0,1,.62.78.75.75,0,0,1-.73.68.76.76,0,0,1-.67-.74A.75.75,0,0,1,96.73,76.7Z"/><path class="cls-1" d="M101.82,76.86a.71.71,0,0,1-.73.67.69.69,0,0,1-.67-.79.67.67,0,0,1,.75-.62A.69.69,0,0,1,101.82,76.86Z"/><path class="cls-1" d="M4.72,13a.78.78,0,0,1,.62.85.74.74,0,0,1-.76.63A.75.75,0,0,1,4,13.71.74.74,0,0,1,4.72,13Z"/><path class="cls-1" d="M3.19,17.49a.76.76,0,0,1,.65.82A.74.74,0,0,1,3.1,19a.74.74,0,0,1,.09-1.47Z"/><path class="cls-1" d="M200.61,33.39a.73.73,0,0,1-.74.67.76.76,0,0,1-.66-.75.75.75,0,0,1,.71-.71A.76.76,0,0,1,200.61,33.39Z"/><path class="cls-1" d="M200.09,28.67a.72.72,0,0,1-.71.69.73.73,0,0,1,.08-1.46A.72.72,0,0,1,200.09,28.67Z"/><path class="cls-1" d="M133.79,72a.74.74,0,0,1,.15-1.46.76.76,0,0,1,.61.85A.74.74,0,0,1,133.79,72Z"/><path class="cls-1" d="M139,70.48a.69.69,0,1,1-1.38-.1.72.72,0,0,1,.7-.69A.75.75,0,0,1,139,70.48Z"/><path class="cls-1" d="M113.23,9.56a.75.75,0,0,1-.8.67.77.77,0,0,1-.6-.79.73.73,0,0,1,.8-.66A.75.75,0,0,1,113.23,9.56Z"/><path class="cls-1" d="M108.72,9.48a.7.7,0,1,1-1.4,0,.7.7,0,1,1,1.4,0Z"/><path class="cls-1" d="M55,81.79a.69.69,0,1,1-.59-.79A.7.7,0,0,1,55,81.79Z"/><path class="cls-1" d="M49.84,81.27a.72.72,0,0,1,.64.81.76.76,0,0,1-.75.64.74.74,0,0,1-.64-.74A.75.75,0,0,1,49.84,81.27Z"/><path class="cls-1" d="M193.42,16.82a.73.73,0,0,1,.09-1.47.74.74,0,0,1,.65.75A.69.69,0,0,1,193.42,16.82Z"/><path class="cls-1" d="M190.07,13.54a.69.69,0,0,1-.57-.8.73.73,0,0,1,.83-.62.69.69,0,0,1,.53.88A.64.64,0,0,1,190.07,13.54Z"/><path class="cls-1" d="M24.36,2.81a.73.73,0,0,1-.71.68A.67.67,0,0,1,23,2.72a.67.67,0,0,1,.73-.64A.72.72,0,0,1,24.36,2.81Z"/><path class="cls-1" d="M28.16,2.68a.7.7,0,0,1,.63.75.68.68,0,0,1-.68.7.67.67,0,0,1-.66-.78A.71.71,0,0,1,28.16,2.68Z"/><path class="cls-1" d="M119.67,74.63a.73.73,0,0,1,.17-1.45.73.73,0,0,1-.17,1.45Z"/><path class="cls-1" d="M115.38,73.92a.72.72,0,0,1,.61.79.71.71,0,0,1-.73.66.73.73,0,0,1-.64-.83A.69.69,0,0,1,115.38,73.92Z"/><path class="cls-1" d="M15.08,4.18a.69.69,0,0,1-.75.7.69.69,0,0,1-.61-.76.7.7,0,0,1,.76-.7A.67.67,0,0,1,15.08,4.18Z"/><path class="cls-1" d="M18.78,2.15a.7.7,0,0,1,.66.73.75.75,0,0,1-.72.76.79.79,0,0,1-.67-.74A.76.76,0,0,1,18.78,2.15Z"/><path class="cls-1" d="M79.87,7.76a.7.7,0,0,1,.64.81.68.68,0,0,1-.75.62.72.72,0,0,1,.1-1.43Z"/><path class="cls-1" d="M85,8.75a.76.76,0,0,1-.72.7.73.73,0,0,1-.67-.73.7.7,0,1,1,1.39,0Z"/><path class="cls-1" d="M148.21,68.57a.68.68,0,0,1-.73.65.7.7,0,0,1-.63-.81.68.68,0,0,1,.73-.65A.7.7,0,0,1,148.21,68.57Z"/><path class="cls-1" d="M143.12,70.17a.74.74,0,0,1-.67-.79.7.7,0,0,1,.7-.69.71.71,0,0,1,.67.78A.7.7,0,0,1,143.12,70.17Z"/><path class="cls-1" d="M35.38,83.46a.72.72,0,0,1-.59-.86.68.68,0,0,1,.76-.62.75.75,0,0,1-.17,1.48Z"/><path class="cls-1" d="M30.92,83.56a.68.68,0,0,1-.64-.74.69.69,0,0,1,.79-.67.75.75,0,0,1,.61.79A.68.68,0,0,1,30.92,83.56Z"/><path class="cls-1" d="M69.25,80.66a.68.68,0,0,1-.74.63.71.71,0,0,1-.64-.81.73.73,0,0,1,.75-.65A.75.75,0,0,1,69.25,80.66Z"/><path class="cls-1" d="M73.72,80.22a.67.67,0,1,1-1.34-.08.74.74,0,0,1,.76-.72A.7.7,0,0,1,73.72,80.22Z"/><path class="cls-1" d="M198.52,43.39a.77.77,0,0,1-.65-.82.7.7,0,1,1,1.39.17A.73.73,0,0,1,198.52,43.39Z"/><path class="cls-1" d="M199.66,37.32a.8.8,0,0,1,.67.76.74.74,0,0,1-.78.71.72.72,0,0,1-.62-.78A.74.74,0,0,1,199.66,37.32Z"/><path class="cls-1" d="M11.11,39.62a.66.66,0,0,1-.62-.74.68.68,0,1,1,1.36.13A.65.65,0,0,1,11.11,39.62Z"/><path class="cls-1" d="M15.13,41.73a.7.7,0,0,1-.61-.77.71.71,0,0,1,.71-.68.72.72,0,0,1,.65.82A.69.69,0,0,1,15.13,41.73Z"/><path class="cls-1" d="M45.37,51.33a.75.75,0,0,1-.74.73.71.71,0,0,1-.65-.73.68.68,0,0,1,.65-.73A.74.74,0,0,1,45.37,51.33Z"/><path class="cls-1" d="M44.88,47.34a.77.77,0,0,1-.67-.81.75.75,0,0,1,.73-.66.7.7,0,0,1,.66.72A.76.76,0,0,1,44.88,47.34Z"/><path class="cls-1" d="M166.64,64.22a.7.7,0,0,1-.68.71.77.77,0,0,1-.73-.75.71.71,0,0,1,.76-.7A.7.7,0,0,1,166.64,64.22Z"/><path class="cls-1" d="M162.23,65.36a.69.69,0,0,1-.73.65.72.72,0,0,1-.63-.77.75.75,0,0,1,.71-.71A.73.73,0,0,1,162.23,65.36Z"/><path class="cls-1" d="M171.42,63.07a.69.69,0,0,1-.74.65.7.7,0,0,1-.64-.82.69.69,0,0,1,.77-.61A.74.74,0,0,1,171.42,63.07Z"/><path class="cls-1" d="M175.78,62a.73.73,0,0,1-.73.66.76.76,0,0,1-.65-.82.7.7,0,1,1,1.39.16Z"/><path class="cls-1" d="M42.73,42.75a.74.74,0,0,1-.8.68A.73.73,0,0,1,42.11,42,.73.73,0,0,1,42.73,42.75Z"/><path class="cls-1" d="M37.61,42.39a.76.76,0,0,1-.66-.75.71.71,0,0,1,.67-.73.69.69,0,0,1,.7.69A.77.77,0,0,1,37.61,42.39Z"/><path class="cls-1" d="M179.16,61.48a.75.75,0,0,1-.68-.79.74.74,0,0,1,.72-.67.69.69,0,0,1,.68.7A.73.73,0,0,1,179.16,61.48Z"/><path class="cls-1" d="M184.18,59.39a.68.68,0,0,1-.67.72.66.66,0,0,1-.68-.69.72.72,0,0,1,.71-.76A.65.65,0,0,1,184.18,59.39Z"/><path class="cls-1" d="M146.35,8.92a.69.69,0,0,1-.78.66.74.74,0,0,1,.2-1.46A.73.73,0,0,1,146.35,8.92Z"/><path class="cls-1" d="M150.19,7.91a.7.7,0,0,1,.66.79.68.68,0,0,1-.73.65.68.68,0,0,1-.66-.78A.71.71,0,0,1,150.19,7.91Z"/><path class="cls-1" d="M37.41,5.37a.66.66,0,0,1-.66-.71.7.7,0,1,1,1.4,0A.74.74,0,0,1,37.41,5.37Z"/><path class="cls-1" d="M33.68,4.14a.72.72,0,0,1-.73.66.74.74,0,0,1-.67-.8.7.7,0,1,1,1.4.14Z"/><path class="cls-1" d="M125.29,73.07a.69.69,0,1,1-1.39,0,.7.7,0,0,1,.74-.73A.73.73,0,0,1,125.29,73.07Z"/><path class="cls-1" d="M129.08,71.48a.74.74,0,0,1,.64.75.69.69,0,1,1-1.39,0A.77.77,0,0,1,129.08,71.48Z"/><path class="cls-1" d="M59.88,81.42a.73.73,0,0,1-.79.67.68.68,0,0,1-.59-.77.76.76,0,0,1,.79-.68A.74.74,0,0,1,59.88,81.42Z"/><path class="cls-1" d="M64.36,81A.7.7,0,1,1,63,80.9a.73.73,0,0,1,.77-.63A.7.7,0,0,1,64.36,81Z"/><path class="cls-1" d="M74.87,8.91a.73.73,0,0,1-.66-.81A.78.78,0,0,1,75,7.43a.72.72,0,0,1,.64.82A.68.68,0,0,1,74.87,8.91Z"/><path class="cls-1" d="M70.49,7.14a.69.69,0,0,1,.62.76.7.7,0,1,1-1.4-.06A.72.72,0,0,1,70.49,7.14Z"/><path class="cls-1" d="M127.55,9.46a.7.7,0,1,1-1.4,0,.72.72,0,0,1,.67-.72A.76.76,0,0,1,127.55,9.46Z"/><path class="cls-1" d="M132,9.38a.74.74,0,0,1-.7.71.76.76,0,0,1-.69-.8.7.7,0,1,1,1.39.09Z"/><path class="cls-1" d="M165.15,7.77a.7.7,0,1,1-1.4-.1.7.7,0,1,1,1.4.1Z"/><path class="cls-1" d="M187.12,10.32a.69.69,0,0,1-.74.65.71.71,0,0,1-.59-.86.68.68,0,0,1,.77-.6A.69.69,0,0,1,187.12,10.32Z"/><path class="cls-2" d="M178.22,7.44c-.3.15-.45,0-.51-.3Z"/></g></g></svg>