<svg xmlns="http://www.w3.org/2000/svg" viewBox="0 0 80.08 59.94"><title>Asset 13</title><g id="Layer_2" data-name="Layer 2"><g id="Layer_1-2" data-name="Layer 1"><path d="M1.29,39.07c.51-.47.81-.7,1-1A1,1,0,0,0,2,36.38c-1.27-.79-1.27-.79-.35-1.86a1,1,0,0,0-.3-1.61C1,32.68.59,32.44,0,32.08c.46-.33.73-.56,1-.73,1.06-.58,1.12-1.13.18-1.88-.76-.61-.68-1.29.22-1.72.63-.3.8-.67.45-1.3-.74-1.34-.69-1.31.42-2.25.25-.21.24-.81.22-1.23,0-.22-.36-.4-.49-.64s-.38-.66-.29-.86A1.18,1.18,0,0,1,2.56,21c1.17-.17,1.45-.66.89-1.65C2.67,18,2.69,18,4.21,17.9A.87.87,0,0,0,5,16.55a8.06,8.06,0,0,1-.4-.83c-.15-.53-.06-.86.64-.78,1.53.16,1.95-.38,1.51-1.81A4.92,4.92,0,0,1,6.69,12L7,12l.2.5c2-.19,2.28-1.48,1.59-3.32l.44.18.3.59,1.08-.27c.87-.23,1.29-.73,1-1.67-.15-.5-.21-1,.58-1.23l-.26,1c.63-.15,1.15-.24,1.66-.39s.79-.64.71-1.28S14.45,4.85,15.51,5l-.64.5c1.53.4,2.23-.05,2.48-1.5a4.49,4.49,0,0,1,.4-.95L18,3.1l-.35.9a7.35,7.35,0,0,0,2-.17,2.12,2.12,0,0,0,1.06-1.08C21,2,21.3,1.8,22,2.21c1.21.69,1.32.65,1.9-.68.29-.66.83-.76,1.37-.25A1.29,1.29,0,0,0,27.59.8C27.94,0,28.25,0,28.8.69c.88,1.15,1.37,1.11,2.08-.13A1.2,1.2,0,0,1,31.62,0c.18,0,.5.31.63.55.63,1.16,1.23,1.26,2.07.31.57-.64,1.08-.57,1.51.19.55,1,1.11,1.1,1.91.36.62-.57,1-.35,1.38.28.69,1.21.86,1.25,2,.49.73-.47,1.15-.32,1.35.49.29,1.14.7,1.34,1.74.84,1.2-.58,1.3-.52,1.47.76s.5,1.32,1.58.83a4.93,4.93,0,0,1,1.15-.22A5.24,5.24,0,0,1,48.62,6c-.09,1,.26,1.37,1.33,1.18,1.24-.23,1.47,0,1.33,1.19-.09.81.34,1.24,1.15,1.14.17,0,.34-.13.5-.12.33,0,.77,0,.94.18s.09.64,0,.93c-.43,1.16-.12,1.58,1.11,1.53a5.24,5.24,0,0,1,1.16.22,6.54,6.54,0,0,1-.33,1.06c-.44.86-.1,1.48.87,1.55,1.47.09,1.57.26.93,1.53-.42.82-.18,1.3.72,1.47,1.44.28,1.54.52.64,1.6a1,1,0,0,0,.56,1.73c1,.3,1.14.76.52,1.53-.77,1-.67,1.32.43,1.84a4.88,4.88,0,0,1,.91.74,6.29,6.29,0,0,1-.72.79c-.72.57-.74,1.15,0,1.77.89.78.86,1.08-.11,1.82a.88.88,0,0,0-.14,1.42c1,1.19.94,1.14-.15,2.11A1.34,1.34,0,0,0,60,34.52a6.86,6.86,0,0,0,2.69,2.27c4.78,1.91,9.5,4,14.26,5.93a5.17,5.17,0,0,1,2.69,6.93,5,5,0,0,1-6.39,2.8c-3-1.1-5.85-2.37-8.76-3.59-2.38-1-4.71-2.1-7.14-2.93a4.75,4.75,0,0,0-2.7.38c-.21.07-.31,1-.21,1.43.26,1.23.13,1.42-1.1,1.17-1-.2-1.45.21-1.39,1.19.08,1.35-.09,1.49-1.43,1.24-.73-.14-1.28.39-1.26,1.22,0,1.33-.21,1.5-1.43,1-.75-.31-1.29,0-1.5.88-.34,1.43-.34,1.42-1.76.91-.71-.26-1.12.08-1.31.75-.08.3-.05.62-.14.91-.21.67-.72.79-1.2.32-1-1-1.7-.85-2.19.54-.11.33-.37.76-.63.83s-.64-.28-.88-.53c-.71-.77-1.23-.75-1.77.12-.11.17-.18.37-.28.55-.45.82-.89.85-1.43.1s-1.35-.84-2,0C32,60,31.78,60,31,59a1,1,0,0,0-1.66-.08c-.18.2-.28.48-.46.68-.49.55-.92.48-1.22-.2-.6-1.35-1.26-1.45-2.28-.4a3.59,3.59,0,0,1-.93.51,6.17,6.17,0,0,1-.42-.87c-.34-1.11-.73-1.27-1.71-.67-.15.09-.28.2-.43.29-.83.49-1.15.34-1.35-.6-.25-1.2-.76-1.39-1.79-.71-.32.21-.81.43-1.08.32s-.35-.66-.39-1c-.11-1.07-.56-1.36-1.6-1s-1.48.13-1.47-1c0-.93-.45-1-1.18-.86-.17,0-.33.11-.49.15-.9.2-1.28-.15-1.15-1.08.15-1.09-.24-1.46-1.32-1.29-1.37.21-1.48.1-1.18-1.19.23-1-.17-1.39-1.2-1.35a6.39,6.39,0,0,1-1.24-.18,7.7,7.7,0,0,1,.29-1.11A1,1,0,0,0,6,45.86a7.5,7.5,0,0,1-1-.3c-.59-.23-.67-.56-.31-1.11.61-.93.36-1.43-.74-1.6s-1.36-.57-.69-1.52.32-1.45-.67-1.78ZM32,48.51c.89-.06,1.78-.1,2.67-.19a4.37,4.37,0,0,0,1.09-.3,1.54,1.54,0,0,0,.76-2.61c-.67-.92-1.32-1.84-1.95-2.78a6.16,6.16,0,0,0-8.3-1.86,28.89,28.89,0,0,0-4.08,3.55,1.68,1.68,0,0,0,.54,2.53A15.38,15.38,0,0,0,32,48.51ZM12.4,31.63a17.86,17.86,0,0,0,.48,2.85c.67,1.9,1.43,3.76,2.22,5.61.24.56.77.9,1.28.24a57.5,57.5,0,0,0,4.24-5.8,4.73,4.73,0,0,0-2.73-6.71,19.64,19.64,0,0,1-2.42-1.12c-1.34-.7-2.53-.24-2.79,1.25A32.4,32.4,0,0,0,12.4,31.63Zm30.62-8c1.28-.21,2.74-.41,4.17-.73a1.2,1.2,0,0,0,.69-.92,2.49,2.49,0,0,0-.52-1.51,45.56,45.56,0,0,0-4.71-5,17.53,17.53,0,0,0-4.5-2.42c-1.22-.51-2,.09-2.11,1.4-.07.75.06,1.52,0,2.26C35.43,20.77,39.07,23.89,43,23.64ZM23.07,21.88a5.52,5.52,0,0,0,5.16-3.7,42.32,42.32,0,0,0,1-4.42c.25-1.5-.11-1.78-1.6-1.49A18.49,18.49,0,0,0,20,15.76a27.43,27.43,0,0,0-3.15,2.95c-.5.52-.68,1.24.18,1.6A16.06,16.06,0,0,0,23.07,21.88Zm7.28-18.1-.06-.21c-1.22.17-2.44.33-3.65.51A25.28,25.28,0,0,0,13.8,10C12,11.55,10,13.05,9.89,15.84a2.09,2.09,0,0,1-.32.75c-.41.85-.87,1.68-1.24,2.55C7.55,21,6.8,22.94,6.05,24.85c-.38,1-.72,1.94-1.08,2.9l-.24-.06L4.78,26a.75.75,0,0,0-.28.53,38,38,0,0,0-.17,5.54c.15,1.5-.18,3.27,1.26,4.36C5.39,34.7,5.11,32.9,5,31.1a8.35,8.35,0,0,1,1.51-5.65c.73-1,1.24-2.17,1.89-3.25s.92-2.59,2.09-3.59a3.78,3.78,0,0,0,1.07-2.54,6.44,6.44,0,0,1,2.1-4.86A24.52,24.52,0,0,1,24.8,5.3c2.56-.57,5.35.16,6.25,3.5.14.51.19,1.05.28,1.58a9.69,9.69,0,0,0-.05-2.27A1.74,1.74,0,0,1,31.52,7c.87-1.07.78-1.45-.56-1.91l-2-.73L29,4ZM28.42,24.56c-.46-.2-.72-.34-1-.43-3.08-1-6.16-1.9-9.23-2.88-.88-.28-1.26.09-1.55.84s-.63,1.37-.89,2.07a.63.63,0,0,0,.2.57c1.43.71,2.88,1.39,4.39,2.11V25.61a5.88,5.88,0,0,1-1-1.09c-.05-.1.4-.58.7-.74a1.18,1.18,0,0,1,.86,0c1.4.51,2.76,1.12,4.17,1.57A4,4,0,0,0,28.42,24.56ZM74.9,46a1.64,1.64,0,0,0-1.62,1.63A1.54,1.54,0,0,0,75,49.1,1.58,1.58,0,1,0,74.9,46ZM45.69,41.62l-.11-.35c-1-.26-2-.57-3-.75-.77-.13-1,.47-1,1.1a1.74,1.74,0,0,0,2.66,1.44A11.06,11.06,0,0,0,45.69,41.62ZM11.88,18.47l.16-.31c.35.74-1.1,1.52.17,2.24a13.47,13.47,0,0,0,2.41,1.31c.63.2,1.66.69,1.92-.71-.82-.36-1.66-.66-2.43-1.08S12.62,19,11.88,18.47ZM51,19.91l-.3.21a5.22,5.22,0,0,0,.68,1.18,7.17,7.17,0,0,0,1.41,1c.2.12.66.2.69.14a8.73,8.73,0,0,0,.65-1.66c0-.11-.31-.44-.51-.48C52.74,20.14,51.86,20,51,19.91ZM49.86,31.33a1.69,1.69,0,0,0-1.22-2,1.35,1.35,0,0,0-1.81.69Zm-4-6.83c-1.14.51-1.63,1.32-1.35,2s.87.53,1.28.26C46.83,26,45.65,25.32,45.82,24.51ZM15.58,14.63c.68.63,1.3.75,1.89.15s.38-1.08-.15-1.71Zm5-3.28-.35-.18-1.87,1.2c.71.89,1.4.77,1.92.27C20.55,12.37,20.49,11.78,20.58,11.35Zm2.54-1.86-1.22,1.33c.26.22.71.66.76.61a5.87,5.87,0,0,0,1.06-1.17C23.77,10.2,23.44,9.88,23.12,9.49ZM9.27,34.07c.38-.35.77-.56.92-.9a1.08,1.08,0,0,0-.14-1c-.2-.22-.65-.21-1-.31a3,3,0,0,0-.2.92A6.7,6.7,0,0,0,9.27,34.07Zm22-9.47.32-.38c-.53-.55-1-1.13-1.61-1.63-.16-.13-.53,0-.8,0,.05.25,0,.6.18.72C30,23.77,30.62,24.17,31.26,24.6ZM10.59,43.79l1.24.31.46-2.23-.56-.35ZM27.24,9.38l-.18-.52-2.21.37-.1.31c.47.25.93.69,1.4.69S26.88,9.68,27.24,9.38ZM8.56,29.48l.75.89c.3-.32.82-.64.82-1s-.49-.69-.77-1Zm1.51,8c.33-.33.66-.51.7-.73a1.85,1.85,0,0,0-.17-1.16c-.12-.19-.59-.18-.9-.25a5.33,5.33,0,0,0-.07,1.1A4.76,4.76,0,0,0,10.07,37.45ZM43.85,12.54l0-.51-1.68-1-.34.22c.19.48.25,1.13.6,1.39S43.37,12.58,43.85,12.54Zm1.26.33c-.44.74-.7,1.28,0,1.76s1,.12,1.56-.32ZM10.56,38.53c.21.74.14,1.53,1,1.59.18,0,.61-.52.57-.76C12.06,38.54,11.4,38.48,10.56,38.53ZM47.84,15.21c-.71.74-1.06,1.27-.36,1.76.27.19.78.05,1.17.07ZM39.47,9.64l-.66.77a4.08,4.08,0,0,0,1.07.74c.17.05.49-.39.74-.61ZM13.91,17.42l.35.27c.33-.23.86-.41.93-.7A3.88,3.88,0,0,0,15,15.55h-.41Zm35.64.45c-.16.42-.33.65-.32.86a2.41,2.41,0,0,0,.29,1.06c.09.14.48.1.73.14a5.44,5.44,0,0,0-.06-1A5.17,5.17,0,0,0,49.54,17.87ZM23,50.45l1.67.31c0-.24,0-.58-.1-.7C24.1,49.63,23.62,49.66,23,50.45Zm3.43.88,2,.23C27.62,50.39,27.27,50.36,26.43,51.33ZM14.35,23.91l.22-.43-1.3-.8c0,.32-.07.73.08.86A3,3,0,0,0,14.35,23.91ZM31.63,51.7l.06-.39c-.43-.57-.91-.59-1.45.24ZM9.12,26.9c1.33-.11,1.5-.28,1.42-1.34Zm24.47,24,.1.51,1.49-.26-.08-.5Zm-3.09-29.7h.14l-.27-4h-.14Z"/></g></g></svg>