<svg xmlns="http://www.w3.org/2000/svg" viewBox="0 0 57.14 81.73"><defs><style>.cls-1{fill:#fff;}</style></defs><title>Asset 17</title><g id="Layer_2" data-name="Layer 2"><g id="Layer_1-2" data-name="Layer 1"><path d="M42.25,75.69a13.19,13.19,0,0,1,.93,2.38c.06.31-.43.94-.8,1.1-1.42.59-2.9,1-4.35,1.56-.65.24-1.29.53-1.94.77a2,2,0,0,1-1,.22,20.05,20.05,0,0,1-4.32-1.26,37.47,37.47,0,0,0-10.43-3.71,4.84,4.84,0,0,1-2.64-1.07,6.11,6.11,0,0,1-.93-2.82c-.15-.78.47-1.1,1.12-1.35a14.8,14.8,0,0,0,7.59-6.58c2.47-4.22,5.11-8.35,7.57-12.58,1.7-2.92,3.22-5.95,4.83-8.92a8.64,8.64,0,0,1,.76-1L37,45.73a27.8,27.8,0,0,0,2.32-3.51c.16-.28.05-.7.07-1.06l.51-1.63-2.17-2a19,19,0,0,0-.35,2.36,1.73,1.73,0,0,1-1,1.82,2.19,2.19,0,0,0-.64.53,1.78,1.78,0,0,1-2.4,0,2.17,2.17,0,0,0-.63-.55c-1-.39-1.07-1.16-1-2,.19-1.78,0-2-1.72-2.21-.85-.11-1.7-.3-2.55-.4s-1.49-.41-1.65-1.38c0-.22-.39-.44-.65-.55-.62-.27-1.27-.48-1.9-.71-.91-2-1-2-2.5-1.53.07.77.55,1.09,1.27,1.2a10.79,10.79,0,0,1,1.23.33c-.16.31-.25.78-.5.9a2.9,2.9,0,0,1-3.23-.69c-.42-.44-.88-.63-1.23,0A3.26,3.26,0,0,1,15,36.2a4.07,4.07,0,0,0-1.29.07.9.9,0,0,0-.52.65.78.78,0,0,0,.53.57c1.1,0,1.13.75,1.13,1.57s-.64.94-1.32,1a1.07,1.07,0,0,0-.66.49c-.48.75-1,.9-1.61.22-.81-1-1.9-.77-2.88-.73-1.66.06-3.31.41-5,.44-1.47,0-1.7-.35-1.72-1.82,0-.32-.07-.65-.05-1,.06-1.24.43-1.61,1.65-1.58,1.54,0,3.11-.13,4.45,1,.24.2.89-.1,1.48-.19.53.71,1.59.64,2.2-.43s.92-2,1.47-3.23c-1.18,0-2.23,0-3.28,0-2.33-.09-4.66-.17-7-.36a1,1,0,0,1-.87-1.5,5.94,5.94,0,0,0,.19-4.06,3.78,3.78,0,0,1,.24-2.42c1.19-2.41.77-4.93.63-7.41A23.38,23.38,0,0,0,1.94,13,7.49,7.49,0,0,0,1,11.44a2.28,2.28,0,0,1-.21-.68A6.91,6.91,0,0,0,.18,8.71l.08.9a4,4,0,0,1,1.06-4.5C4,2.89,6.93.9,10.44.15A8.37,8.37,0,0,1,19,4.07a1.72,1.72,0,0,1,0,1.56,3.13,3.13,0,0,1-1.88,1A17,17,0,0,1,14,6.27c-.46-.06-.94,0-1.4-.14C11,5.81,10.1,6.86,9.29,8s.14,2.76,1.56,3.09c1.61.38,3.26.55,4.89.84a6,6,0,0,1,1.24.34,1.08,1.08,0,0,1,.53.5,4,4,0,0,1-.82,2.82,6.66,6.66,0,0,1-1.75,1c-1.56.46-1.93,1.69-2.21,3-.14.66.14,1,.81.85,1.13-.29,2.24-.64,3.35-1a2.5,2.5,0,0,1,2.74.29A4.28,4.28,0,0,0,23,20.85c3-.06,6,0,9.07,0a1.53,1.53,0,0,0,1.55-.94,20.06,20.06,0,0,1,3.25-4.26c1.28-1.22,3.1-1,4.75-.85A16.18,16.18,0,0,1,51,19.11c1.08.92,2.22,1.79,3.37,2.62a5.74,5.74,0,0,1,2.67,5.73,14.51,14.51,0,0,0-.25,3.11c.12,1.44-.74,2.23-1.57,3.14a44.18,44.18,0,0,0-3.36,3.91,5.51,5.51,0,0,0-1.28,4.52c.06.26-.25.61-.4.92a.28.28,0,0,1-.18.11C46.85,43.89,45.6,46.63,44,49c-2,2.86-3.94,5.77-5.9,8.66a5.37,5.37,0,0,0-.27.5,7.58,7.58,0,0,1,.66.83c1,1.61,1.32,1.78,3.13,1.44a2,2,0,0,1,2.2,1.91,2.41,2.41,0,0,0,1.88,3c.91.29,1.19,2,.56,2.78-1.32,1.53-1.33,1.67-.28,3.46a2.21,2.21,0,0,1-1.24,2.69c-.68.16-1.34.39-2.15.63l-.77-1.52-1.3-3.69-.38.59c0-.36,0-.53,0-.71s0-.37,0-.36C38.2,71,39,73,40,75.06c.57,1.25.32,1.76-1,2.25a8.45,8.45,0,0,1-8.12-1A6.4,6.4,0,0,1,28.2,73l.86.74a9.72,9.72,0,0,1-1.17-6.88l-.46,2a8.28,8.28,0,0,1,4.89-7.69c1.34-.48,2.47-.13,2.9,1.2.51,1.59,1.73,1.56,3,1.76L37,59.45l-.29,1.23A5,5,0,0,1,37.57,57q5.12-7.49,10.27-14.95l3.22-4.66a3.7,3.7,0,0,0-.61-.13c-2,.05-4,.07-6,.2-.68,0-1.4,0-1.89.88C41.11,41,39.53,43.49,38,46,34,52.4,30.07,58.74,26.17,65.13c-1.91,3.12-4.24,5.71-7.8,7a1,1,0,0,0-.19,1.82,6.52,6.52,0,0,0,2.09.66c1.89.36,3.84.5,5.68,1a19.41,19.41,0,0,1,3.56,1.83c1.1-.93,1.18-.93,2-.24l-1.14.65,1,.47c.06,0,.11.09.17.11a14.7,14.7,0,0,0,3.51,1,15.07,15.07,0,0,0,4.48-.58,7.07,7.07,0,0,0,2.66-1.57C42.46,77.07,42.24,76.25,42.25,75.69ZM39.45,28H19c6.48.15,13,.16,19.44.15a5.69,5.69,0,0,0,.95-.16c.66-.09.89-.51.88-1.13,0-1.22,0-2.43,0-3.65a2.65,2.65,0,0,0-.31-.81l-.3.08c0,.89,0,1.77,0,2.66S39.53,27,39.45,28ZM6.57,17.26c1.41.12,3.13.24,4.84.43.93.1,1.69.09,2.21-.92.26-.5.89-.81,1.37-1.18s1-.68,1.46-1.1c.75-.71.6-1.34-.4-1.67s-1.85-.71-2.09.56l-2-1.26-.46,1.16-.27-.09.09-1.45-3-.71a2.55,2.55,0,0,0-.41-.64,2.78,2.78,0,0,1-.26-3.82A3.44,3.44,0,0,1,9.42,5.45a17.77,17.77,0,0,1,3.15,0l-.16-.47,1.45.1.34-.86.24.08v.85a12,12,0,0,0,1.87.25,13.5,13.5,0,0,0,1.93-.3,5.1,5.1,0,0,0-.59-1.48A7,7,0,0,0,12.41,1C8.93.83,6.26,2.69,3.56,4.49c-.12.08-.12.36-.12.38C4,4.9,4.66,4.76,5,5a1.25,1.25,0,0,1,.54,1.57L4.38,5.34,4,5.64,4.76,7,4,8.45l.23.15L6.43,7.18c-.35,2.59-2,3.57-4.65,2.6,0,.14-.11.29-.07.4.53,1.79,1.06,3.58,1.64,5.36a1.16,1.16,0,0,0,.75.66c1.23.22,2.47.36,3.72.5s2.43.23,3.65.34l0,.22Zm45,3.35a16.58,16.58,0,0,0-10-5.2C38,15,36,16.77,34.54,19.57c-.25.46-.58,1.14.25,1.29a17.94,17.94,0,0,0,2.9,0c-.91-1.1-.32-1.75.41-2.29A3.43,3.43,0,0,1,39.46,18a9,9,0,0,1,7.06,1.6C48.1,20.72,49.78,20.63,51.55,20.62ZM39.32,67.83c.57-1-.3-1.44-1-1.86A5.79,5.79,0,0,0,36,65a3.24,3.24,0,0,0-3.25,3.34,3.09,3.09,0,0,0,3.35,3.25A3.21,3.21,0,0,0,39.32,67.83Zm2.49-45.68L41.53,22c-1,1.14-.76,2.63-.73,4,0,.84-.13,1.88,1,2.37Zm4-1.69a8.58,8.58,0,0,0-5.47-1.72,2.22,2.22,0,0,0-2.19,1.43c.58-.37,1-.81,1.43-.86.84-.1,2.13-.33,2.49.11C43.14,20.73,44.52,20.22,45.79,20.45Zm-11.55,20c.86,0,1.46-.2,1.44-1.2,0-.83-.56-1-1.21-1.06s-1.3.25-1.29,1.19S33.52,40.57,34.25,40.5ZM3.74,22.2a17.64,17.64,0,0,1,2.38-1.11,19.49,19.49,0,0,1,2.69-.45,16.66,16.66,0,0,0-3.48-.2C3.79,20.48,3.66,20.66,3.74,22.2ZM2.64,5.44a1.68,1.68,0,0,0-1,1.88C1.73,8,2,8.48,3.13,8.58c-1.09-1.09-.7-2.05-.34-3C2.79,5.54,2.74,5.51,2.64,5.44ZM33.07,26.27a8.75,8.75,0,0,0,1.33-1,.88.88,0,0,0,0-.84,1.32,1.32,0,0,0-.86-.43c-.12,0-.37.37-.41.6A15.21,15.21,0,0,0,33.07,26.27ZM55.8,27.66a3.21,3.21,0,0,0-.45-3.95ZM31.95,26.17l0-.15c-.28-.11-.78-.19-.81-.35a6.11,6.11,0,0,1,0-1.44l.87.08A2,2,0,0,0,30.87,24a4.58,4.58,0,0,0-.08,1.82C30.83,26,31.54,26.07,31.95,26.17Zm-5.72-2.29c-1.22.47-.46,1.46-.64,2.25.43-.51.73-1.26,1.54-.21C27.06,25,25.07,25.15,26.23,23.89Zm-8.29,3.36.14,0V22.51h-.14ZM8.14,9.74c.8-1.17.75-1.48-.35-2.06ZM22.8,26.06c.49-.76-.3-2,1.19-2C22.6,23.82,22.45,24.06,22.8,26.06ZM34.39,37l-.06.43,2.68.28,0-.26Z"/><path class="cls-1" d="M42.25,75.69c0,.56.21,1.38-.07,1.63a7.07,7.07,0,0,1-2.66,1.57,15.07,15.07,0,0,1-4.48.58,14.7,14.7,0,0,1-3.51-1c-.06,0-.11-.09-.17-.11l-1-.47,1.14-.65c-.79-.69-.87-.69-2,.24A19.41,19.41,0,0,0,26,75.61c-1.84-.52-3.79-.67-5.68-1a6.52,6.52,0,0,1-2.09-.66,1,1,0,0,1,.19-1.82c3.56-1.27,5.89-3.85,7.8-7C30.07,58.74,34,52.4,38,46c1.56-2.53,3.14-5.06,4.58-7.66.49-.89,1.22-.83,1.89-.88,2-.13,4-.15,6-.2a3.7,3.7,0,0,1,.61.13l-3.22,4.66Q42.7,49.54,37.57,57a5,5,0,0,0-.86,3.65L37,59.45l1.21,4.64c-1.27-.2-2.48-.17-3-1.76-.43-1.33-1.55-1.67-2.9-1.2a8.28,8.28,0,0,0-4.89,7.69l.46-2a9.72,9.72,0,0,0,1.17,6.88L28.2,73a6.4,6.4,0,0,0,2.68,3.36,8.45,8.45,0,0,0,8.12,1c1.27-.5,1.53-1,1-2.25C39,73,38.2,71,40.1,69.17c0,0,0,.17,0,.36s0,.36,0,.71l.38-.59,1.3,3.69Zm6.27-35.63c0-1.33-.69-2.2-1.82-2.22a2,2,0,1,0-.1,4A1.8,1.8,0,0,0,48.52,40.06Z"/><path class="cls-1" d="M39.38,41.17c0,.36.09.78-.07,1.06A27.8,27.8,0,0,1,37,45.73l1.64-3.34Z"/><path class="cls-1" d="M6.57,17.26h4.87l0-.22c-1.22-.11-2.44-.21-3.65-.34s-2.49-.28-3.72-.5a1.16,1.16,0,0,1-.75-.66C2.76,13.77,2.24,12,1.71,10.18c0-.11,0-.26.07-.4,2.67,1,4.31,0,4.65-2.6L4.24,8.61,4,8.45,4.76,7,4,5.64l.42-.3L5.52,6.57A1.25,1.25,0,0,0,5,5C4.66,4.76,4,4.9,3.44,4.87c0,0,0-.3.12-.38C6.26,2.69,8.93.83,12.41,1a7,7,0,0,1,5.24,2.6,5.1,5.1,0,0,1,.59,1.48,13.5,13.5,0,0,1-1.93.3,12,12,0,0,1-1.87-.25V4.26l-.24-.08L13.87,5l-1.45-.1.16.47a17.77,17.77,0,0,0-3.15,0A3.44,3.44,0,0,0,7.63,6.58a2.78,2.78,0,0,0,.26,3.82,2.55,2.55,0,0,1,.41.64l3,.71-.09,1.45.27.09.46-1.16,2,1.26c.24-1.27,1.22-.84,2.09-.56s1.14,1,.4,1.67c-.44.42-1,.72-1.46,1.1s-1.12.68-1.37,1.18c-.52,1-1.27,1-2.21.92C9.7,17.5,8,17.38,6.57,17.26Z"/><path class="cls-1" d="M51.55,20.62c-1.77,0-3.45.11-5-1A9,9,0,0,0,39.46,18a3.43,3.43,0,0,0-1.36.61c-.73.54-1.31,1.19-.41,2.29a17.94,17.94,0,0,1-2.9,0c-.83-.14-.5-.82-.25-1.29C36,16.77,38,15,41.58,15.42A16.58,16.58,0,0,1,51.55,20.62Z"/><path class="cls-1" d="M39.32,67.83a3.21,3.21,0,0,1-3.22,3.74,3.09,3.09,0,0,1-3.35-3.25A3.24,3.24,0,0,1,36,65a5.79,5.79,0,0,1,2.29,1C39,66.39,39.9,66.84,39.32,67.83Zm-1.57.61a7.92,7.92,0,0,0-.42-1.82,1.59,1.59,0,0,0-1-.82c-1.65-.12-2.45.58-2.82,2.24-.19.88,1.26,2.73,2.11,2.69,1.83-.08,2.64-.94,2.72-3Z"/><path class="cls-1" d="M41.82,22.15v6.27c-1.15-.49-1-1.52-1-2.37,0-1.38-.31-2.87.73-4Z"/><path class="cls-1" d="M45.79,20.45c-1.27-.23-2.66.27-3.74-1-.36-.44-1.65-.21-2.49-.11-.45.05-.84.49-1.43.86a2.22,2.22,0,0,1,2.19-1.43A8.58,8.58,0,0,1,45.79,20.45Z"/><path class="cls-1" d="M34.25,40.5c-.73.07-1.05-.26-1.06-1.06s.53-1.21,1.29-1.19,1.2.22,1.21,1.06C35.71,40.3,35.11,40.51,34.25,40.5Z"/><path class="cls-1" d="M39.44,27.95a5.69,5.69,0,0,1-.95.16c-6.48,0-13,0-19.44-.15H39.44Z"/><path class="cls-1" d="M3.74,22.2c-.08-1.54.06-1.72,1.59-1.77a16.66,16.66,0,0,1,3.48.2,19.49,19.49,0,0,0-2.69.45A17.64,17.64,0,0,0,3.74,22.2Z"/><path class="cls-1" d="M39.45,28c.08-1,.19-1.9.23-2.85s0-1.77,0-2.66l.3-.08a2.65,2.65,0,0,1,.31.81c0,1.21,0,2.43,0,3.65,0,.62-.22,1-.88,1.13Z"/><path class="cls-1" d="M23.24,34.43A10.79,10.79,0,0,0,22,34.1c-.72-.11-1.2-.42-1.27-1.2,1.51-.47,1.59-.42,2.5,1.53Z"/><path class="cls-1" d="M2.64,5.44c.1.07.15.1.15.11-.36,1-.75,1.94.34,3C2,8.48,1.73,8,1.66,7.33A1.68,1.68,0,0,1,2.64,5.44Z"/><path class="cls-1" d="M33.07,26.27a15.21,15.21,0,0,1,.11-1.69c0-.23.3-.62.41-.6a1.32,1.32,0,0,1,.86.43.88.88,0,0,1,0,.84A8.75,8.75,0,0,1,33.07,26.27Z"/><path class="cls-1" d="M55.8,27.66l-.45-3.95A3.21,3.21,0,0,1,55.8,27.66Z"/><path class="cls-1" d="M31.95,26.17c-.4-.1-1.12-.14-1.15-.32A4.58,4.58,0,0,1,30.87,24a2,2,0,0,1,1.17.27l-.87-.08a6.11,6.11,0,0,0,0,1.44c0,.16.52.24.81.35Z"/><path class="cls-1" d="M26.23,23.89c-1.16,1.26.83,1.14.91,2-.81-1-1.11-.3-1.54.21C25.77,25.34,25,24.35,26.23,23.89Z"/><path class="cls-1" d="M17.94,27.24V22.5h.14v4.76Z"/><path class="cls-1" d="M8.14,9.74,7.79,7.68C8.89,8.26,8.95,8.57,8.14,9.74Z"/><path class="cls-1" d="M22.8,26.06c-.34-2-.2-2.24,1.19-2C22.5,24,23.29,25.3,22.8,26.06Z"/><path class="cls-1" d="M34.39,37l2.66.45,0,.26-2.68-.28Z"/><path d="M48.52,40.06a1.8,1.8,0,0,1-1.92,1.76,2,2,0,1,1,.1-4C47.82,37.87,48.54,38.74,48.52,40.06Zm-.62-1c-.55-.25-.87-.53-1.12-.48s-.44.42-.66.66c.21.2.46.58.63.55C47.07,39.76,47.35,39.46,47.89,39.1Z"/><path d="M37.75,68.44l.57-.71c-.09,2.05-.89,2.91-2.72,3-.85,0-2.3-1.81-2.11-2.69.36-1.66,1.16-2.36,2.82-2.24a1.59,1.59,0,0,1,1,.82A7.92,7.92,0,0,1,37.75,68.44Zm-3-1,1.76-.61.66,1.32L37.4,68c-.4-.68-.41-1.72-1.66-1.56a1.44,1.44,0,0,0-1.42,1.22,1.5,1.5,0,0,0,1,1.82A1.21,1.21,0,0,0,37,68.67l-1.66.5Z"/><path class="cls-1" d="M47.89,39.1c-.54.37-.82.67-1.15.73-.17,0-.42-.35-.63-.55.22-.23.41-.61.66-.66S47.34,38.84,47.89,39.1Z"/><path class="cls-1" d="M34.7,67.42l.64,1.74,1.66-.5a1.21,1.21,0,0,1-1.71.79,1.5,1.5,0,0,1-1-1.82,1.44,1.44,0,0,1,1.42-1.22C37,66.26,37,67.3,37.4,68l-.28.16-.66-1.32Z"/></g></g></svg>