<svg xmlns="http://www.w3.org/2000/svg" viewBox="0 0 344.02 341.99"><title>Asset 7</title><g id="Layer_2" data-name="Layer 2"><g id="Layer_1-2" data-name="Layer 1"><path d="M171.85,342C77.61,340.83-.58,267.88,0,170,.58,72.58,78.59-.62,173.08,0,269.68.64,345.44,77.41,344,173.34,342.56,270.14,264.26,341.34,171.85,342Zm-2.25-165.08a20.62,20.62,0,0,0-4,1.05c-3.65,1.77-4.74,4.73-3,8.36,1.64,3.37,4.57,4.56,7.89,2.72,3.55-2,4-5.28,2.17-8.7-.71-1.34-2.09-2.34-3.16-3.49l9.87-9.92c-8-5.11-8-5.11-9.8-4.51Zm42-13.28c-.17-.71-.33-2-.51-2-5.37,0-10.75-.06-16.12.21-.75,0-2,1.62-2,2.43s1.31,1.9,2.27,2.22c6,2,11.34.33,16.41-2.9l-3.34,4.1c14,4.22,26.11,1.59,35.26-7.88C232.62,160.78,221.67,157.9,211.65,163.63Zm9.53-66a86.43,86.43,0,0,1,5.35-7.15c10.3-11.24,20.75-22.33,31.06-33.56,4.46-4.86,4.31-6.11-1.25-9.66s-11.25-6.79-18.26-11l-23.3,65.55,4.56-2.3c-7.71,8.76-10.82,19.52-13,31L285.45,72,265,53.1c-2.64,2.16-4.85,3.58-6.59,5.45-6.44,6.88-12.61,14-19.09,20.83C233.42,85.6,227.24,91.56,221.18,97.63Zm-9.5,97.23,6.18,4.8c6.49,6.25,12.94,12.54,19.5,18.71a12.76,12.76,0,0,0,4.48,2.9q30,9.93,60,19.54c1.5.48,4.58,0,5.08-1,3.46-6.86,6.43-14,9.86-21.7-4-1.18-6.82-2.29-9.71-2.8-25.46-4.46-50.95-8.77-76.41-13.25-2.49-.44-4.84-1.71-7.25-2.6,16.8,2.66,33.61,5.23,50.38,8,12,2,24.06,4.25,36.07,6.44,5.09.93,8.53-.1,9.22-6.09a108.06,108.06,0,0,1,2.72-14.13c1.24-4.89-1-6.29-5.37-6.93-23.55-3.47-47.08-7.16-70.63-10.67-7.1-1.06-14.6-3.5-21.3-2.18-8,1.57-15.27,6.51-23.45,10.26L211.76,195c-3.37-2.44-6.65-5-10.14-7.26-1.49-1-3.41-1.25-5.14-1.85l-.77,1.93c10.22,12.8,16.68,30.17,37.22,29.79a73.82,73.82,0,0,0-26.11-20.37Zm38.65-59q-10.85,8.47-21.7,16.94c-2.06,1.6-4.15,3.17-6.22,4.75l.84,1.57c13.18-2.09,27.16,1.06,39.42-7.3,3.94-2.68,8.59-4.31,12.91-6.44,11.51-5.67,23.1-11.22,34.46-17.18,2-1,4.61-4.4,4.16-5.74-2.54-7.49-5.95-14.68-9.37-22.73-3.36,2-5.78,3.34-8,4.87Q275.1,119.25,253.48,134a40.49,40.49,0,0,1,4.28-4.09c12.88-9.21,25.84-18.32,38.73-27.52,2.21-1.58,4.22-3.45,6.66-5.46C299,91,295,85.72,291.59,80.09c-3.16-5.24-6.18-5.31-10.91-1.81-22.72,16.83-45.2,34-68.64,49.81-11.52,7.76-12.14,19.76-17.76,30.82,4.43,0,7.62-.25,10.76,0,8.21.79,15-1.59,21.58-6.81C234.09,146.17,242.4,141.24,250.34,135.85ZM90.07,44.44l-1.62,1.42C79.21,48.88,73.13,56,66,62.14c2.36,3.82,4.18,7.16,6.35,10.25Q97,107.26,121.68,142c.8,1.13,1.62,2.6,2.77,3.06,8.85,3.51,17.79,6.81,26.85,10.23,2.75-18.14-1.5-33.26-15.18-45.51l2.07-.89,11.93,15c.22-10,.06-18-3.61-25.71-9.33-19.51-18.47-39.11-27.75-58.64-1.33-2.81-3-5.44-5.13-9.17Zm82.85,104.22c3.93-4.29,6.64-7.82,9.93-10.69,5.44-4.74,7.92-10.41,8.84-17.62,2.11-16.66,5.08-33.21,7.69-49.81,2-12.85,3.91-25.72,6.08-38.54.87-5.14-.44-8-6.06-8.41a76.64,76.64,0,0,1-13.62-2c-6.61-1.72-8.3,1.69-9.18,7.2C172,57.86,167.19,86.9,162.52,116c-.47,2.93-1.48,6.33-.51,8.83C165,132.56,168.89,140,172.93,148.65Zm-30.85,24.05c-7.34-6.28-13.6-11.68-19.93-17-.53-.45-1.53-.36-2.32-.46C88.67,151.1,57.51,147,26.37,142.73c-3.21-.44-4.48.51-4.74,3.54-.48,5.58-.79,11.2-1.63,16.73-.67,4.37.78,5.91,5.13,6.69,28.58,5.1,57.11,10.51,85.67,15.74a9.27,9.27,0,0,0,5.17-.28C124,181.51,131.88,177.6,142.08,172.71Zm-83,100.11a39.93,39.93,0,0,0,4.81-2.34q33.85-23,67.63-46.08a8.44,8.44,0,0,0,3.22-3.43c3.24-8.56,6.23-17.2,9.31-25.84-9.62-3-20.89-1.88-26.49,2.29Q83.81,222.6,50.07,247.81a80.69,80.69,0,0,0-6,5.61ZM161.78,207c-6.16,6.89-13.74,11.52-14.52,21.21-.38,4.78-1.39,9.5-2,14.27q-5.18,38-10.35,76.1a3.9,3.9,0,0,1-1.21,2.4c-3.9,3-1.49,4.34,1.55,6.21,2.65-7.71,7.39-4.78,12.26-3.12,7.7,2.61,12-.08,13.31-7.85,4-23.47,8.15-46.93,12-70.43.74-4.47,2.08-9.56.7-13.51C170.6,223.79,166.07,215.92,161.78,207ZM149.84,83h-1.42l-4-60.65-27.51,7.47,31.66,67.45.77-6.54,8.24,28.16,2.64-.36,15.3-98.31c-7.73.52-13.88.86-20,1.36-8,.65-8.12.75-7.77,9,.62,14.41,1.43,28.81,2.09,43.21C150,76.89,149.84,80,149.84,83Zm35.44,121.45c1.44,10-.07,18.33,6.21,25.92,8.93,10.77,16.59,22.6,24.81,34,8.35,11.52,16.61,23.1,25.2,34.43,1.35,1.78,5.12,3.93,6.29,3.27,6.51-3.68,12.57-8.16,19-12.5-1.67-2.86-2.63-4.85-3.9-6.6C248.4,263,233.24,243.52,219.59,223,211.23,210.47,197.83,210.65,185.28,204.48Zm7.84-79c10.8-8.56,17.24-17.35,21.14-28.51q9.22-26.38,18.41-52.78c1-2.76,1.72-5.6,2.71-8.88-6.57-2.56-12.46-5-18.48-7.15-7.27-2.57-8.52-1.73-9.77,6-3.25,20.15-6.51,40.31-9.64,60.48C195.93,104.66,194.64,114.73,193.12,125.45Zm37.26,46.1c2,.28,3.95.54,5.92.83,26.95,4,53.91,7.86,80.83,12,4.31.67,6.06-.52,6-4.71,0-4.81-.21-9.63,0-14.43.21-6.07-2.8-7.95-8.48-7.71-17.23.73-34.47,1.78-51.7,1.6C250.31,159,240.66,165.62,230.38,171.55Zm13.08,133.84L188,228.55l-1.6.48c.78,9-.6,19,2.75,26.89,8.09,19.13,18.33,37.37,27.94,55.84.71,1.37,3.66,2.91,4.9,2.47C228.71,311.84,235.24,308.85,243.47,305.39ZM22.39,139.56l95,13.3.83-2.15c-5.37-3.65-10.32-8.35-16.2-10.74-16.87-6.82-34.11-12.75-51.24-18.93-6.51-2.35-13.12-4.44-20.44-6.91ZM216.72,216c3.31,4.61,5.84,8.17,8.42,11.7q19.71,27,39.46,53.88c4.24,5.77,4.88,5.79,10.15.89q4.19-3.89,8.16-8c5.57-5.78,5.46-5.9-.29-11.2-10.47-9.65-21.53-18.79-31.05-29.31C242.36,223.74,230.87,219.38,216.72,216Zm-71.08,10.72-1.5-.66c-4.68,5.37-11.22,10-13.69,16.25-8.09,20.47-14.76,41.51-21.77,62.41-.47,1.39.37,4.44,1.41,4.91,6.51,2.92,13.24,5.32,21.31,8.43ZM46.72,84.46a25.65,25.65,0,0,0,2,2.45c18.95,17,37.79,34.07,57,50.75,3.2,2.78,8,3.77,12,5.59l1.2-1.64L63.51,63.89ZM117.35,195c-11.6-1.27-20.85,1.57-30.06,6.14-16.67,8.27-33.75,15.69-50.56,23.7-2,.94-5,4-4.62,4.89,2.83,6.89,6.37,13.49,10,20.87Zm59.82,44.41c-.56.28-.86.34-.88.46q-6.73,39.32-13.42,78.65c-.56,3.29.84,4.92,4.28,4.78,5-.21,10-.42,15-.45,4.51,0,5.63-2.27,5.47-6.48-.66-17-1.22-34-1.46-51C186,255.55,182.28,247.31,177.17,239.41ZM21.66,196.58a53,53,0,0,0,5.75.42c23-1.14,46-2.14,69-3.69,4-.27,7.91-2.92,11.85-4.47l-.29-1.77L19.47,171.21Zm111.73,31.66-2-1.17-69.8,48.3L80.69,292.7c1.89-2.37,3.16-4.17,4.65-5.77,12.76-13.82,25.85-27.35,38.18-41.53C127.76,240.51,130.15,234,133.39,228.25ZM31.27,111.39,98,136l.79-1.39L44.56,87.25Zm58.22,86.09L89.14,196c-8.49.49-17,1-25.46,1.47-12.19.75-24.38,1.54-36.57,2.3-2.72.17-5,.86-3.91,4.31,2,6.64,4.11,13.24,6.52,21ZM259.08,156l.36,1.4,63.19-2.32-6-27.29Zm46.22,88.69L247.1,225.4l-.79,1.26c14.63,12.93,27.9,27.39,44,39.71ZM125,249.48l-1.53-.9L82.38,294l22.25,13.62Zm65.78,72.65c6.85-1.36,12.15-2.3,17.39-3.49,8-1.82,8.13-2.12,4.7-9.3-2.59-5.42-5.11-10.89-7.82-16.25-5.31-10.47-10.73-20.88-16.11-31.32l-1,.31Zm-6.69-126.37c1.25,2.75,1.73,6.49,3.54,7.31,6.55,3,13.55,5,21.23,7.61C202.5,197.72,196.7,194.17,184.12,195.75Zm-9.24,33.2c5.69-11.15,1.58-19-7.2-26.8-1.19,2-3.65,4.47-3.15,5.65C167.53,214.85,171.2,221.62,174.88,228.95Zm-40.64-71.46-1,1.42c2.92,3.71,5.52,7.78,8.95,10.93,1.18,1.09,5.09.74,6.6-.44a11.06,11.06,0,0,0,3.51-6.81c.14-1-2.68-3.21-4.42-3.57C143.38,158.13,138.78,158,134.24,157.49Zm56.69-16.81c12.58-4.26,13.33-15.3,15.86-25.26C201.26,123.55,189.65,127.78,190.93,140.68Zm2.66,38.44c3.18,1,6.09,3,8,2.3,6.12-2.19,11.87-5.4,18.58-8.61C210.14,169.81,201.44,168.46,193.59,179.12Zm-8.23,69.11c-.84-10.61.91-20.06-4.37-29.42C175.27,229.91,178.47,238.58,185.36,248.24ZM159.07,139.85c-1.13,5.26-2.25,9.24-2.71,13.29-.17,1.52,1.09,4.5,1.91,4.58a12.69,12.69,0,0,0,7.37-1.32c1.18-.71,2-4.1,1.33-5.39C165.06,147.39,162.27,144.23,159.07,139.85Zm-15.73,38.51-13,9.58.88,2.75c4.81-.52,10.34.23,14.21-1.95C148.94,186.79,147.55,182.05,143.34,178.36Zm5.37,17.45-2.2-.91-8.62,24.57C147.53,213.94,151,205.43,148.71,195.81Zm50.89-56.64c-9.13,3-11.46,9.07-11.45,16.52,0,1.31.9,2.62,1.38,3.93,1.19-.81,3-1.36,3.45-2.47C195.28,151.51,197.23,145.74,199.6,139.17Zm-44.61,57-2.69.48-2.11,13.5,1.65,1c2.58-2.45,6.17-4.51,7.33-7.51C159.83,201.94,156.51,198.69,155,196.14Zm32.39-49.19c-3.35,2.39-6,3.85-8,5.86-1.39,1.35-2,3.47-3,5.25,1.44.69,3.11,2.21,4.26,1.89,2-.55,4.37-1.89,5.18-3.57C186.94,154,186.79,151,187.37,146.94Zm.6-11.39L174,151l1.27,1.07C188.38,145.07,190.19,142.36,188,135.55Zm-31.09-2.72c4.41-9.08-1.55-14.95-4.69-21.49C154.32,118.11,150.06,126.19,156.88,132.83Zm-15.83,43-23,10.9C130.27,190.33,134.31,180.38,141.05,175.86Zm6.1,43.43-1.34-1.22c-7.66,2.66-11.88,8-12.6,17.29Zm22.23-69,1.54-.74-10-21.45C156.85,139.32,166,143.49,169.38,150.25Zm16.21,42.11,12.59,2.26-8.61-10.74c-.54.46-1,.66-1.1,1C187.59,187,186.78,189.22,185.59,192.36Zm-14.76,137.8c-8.62-5-10.78-4.46-13,3ZM129,149.54l-.9,1.7c5,6.72,13.43,3.81,20.28,5.34Zm48.52,61.16,2-.32c-.13-2.56.61-5.74-.65-7.51s-4.46-1.9-6.81-2.76l-.94,1.62ZM302.9,255.1l-3.5,11.39C306.52,261.45,307.14,259.51,302.9,255.1ZM199.79,171.82l-.57-3.14c-2.9.56-5.82,1-8.64,1.86-.22.06.32,2.7.51,4.14Zm-85.46-26.16,10.8,8.78C124.93,147,119.68,146.28,114.33,145.66Zm203.76,85.07,3.37.18.52-11-2.48-.18Zm-209-40.62.23,1.62h12.56l-.12-2.36ZM317.53,233l-1.9-.25c-1.72,3.28-4.24,6.47-1.85,10.24l2.29.29Zm13.53-61-2.33.26.57,9.51,1.77-.13ZM183.55,218.64V205.36C182.15,209.38,179,213.38,183.55,218.64ZM154.22,148c1.33-4.93,4.46-9.89-.86-15.1Z"/><path d="M90.07,44.44l42.08,56.14-1.57,1.2L88.45,45.85Z"/></g></g></svg>