<svg xmlns="http://www.w3.org/2000/svg" viewBox="0 0 226.66 86.96"><defs><style>.cls-1,.cls-3{fill:#fff;}.cls-2,.cls-3{stroke:#000;stroke-miterlimit:10;stroke-width:2px;}</style></defs><title>Asset 16</title><g id="Layer_2" data-name="Layer 2"><g id="Layer_1-2" data-name="Layer 1"><path d="M45.61,80.92a13.19,13.19,0,0,1,.93,2.38c.06.31-.43.94-.8,1.1-1.42.59-2.9,1-4.35,1.56-.65.24-1.29.53-1.94.77a2,2,0,0,1-1,.22,20.05,20.05,0,0,1-4.32-1.26A37.47,37.47,0,0,0,23.68,82,4.84,4.84,0,0,1,21,80.91a6.11,6.11,0,0,1-.93-2.82c-.15-.78.47-1.1,1.12-1.35a14.8,14.8,0,0,0,7.59-6.58c2.47-4.22,5.11-8.35,7.57-12.58,1.7-2.92,3.22-5.95,4.83-8.92a8.64,8.64,0,0,1,.76-1L40.35,51a27.8,27.8,0,0,0,2.32-3.51c.16-.28.05-.7.07-1.06l.51-1.63-2.17-2a19,19,0,0,0-.35,2.36,1.73,1.73,0,0,1-1,1.82,2.19,2.19,0,0,0-.64.53,1.78,1.78,0,0,1-2.4,0A2.17,2.17,0,0,0,36,47c-1-.39-1.07-1.16-1-2,.19-1.78,0-2-1.72-2.21-.85-.11-1.7-.3-2.55-.4s-1.49-.41-1.65-1.38c0-.22-.39-.44-.65-.55-.62-.27-1.27-.48-1.9-.71-.91-2-1-2-2.5-1.53.07.77.55,1.09,1.27,1.2a10.79,10.79,0,0,1,1.23.33c-.16.31-.25.78-.5.9a2.9,2.9,0,0,1-3.23-.69c-.42-.44-.88-.63-1.23,0a3.26,3.26,0,0,1-3.3,1.58,4.07,4.07,0,0,0-1.29.07.9.9,0,0,0-.52.65.78.78,0,0,0,.53.57c1.1,0,1.13.75,1.13,1.57s-.64.94-1.32,1a1.07,1.07,0,0,0-.66.49c-.48.75-1,.9-1.61.22-.81-1-1.9-.77-2.88-.73-1.66.06-3.31.41-5,.44-1.47,0-1.7-.35-1.72-1.82,0-.32-.07-.65-.05-1,.06-1.24.43-1.61,1.65-1.58,1.54,0,3.11-.13,4.45,1,.24.2.89-.1,1.48-.19.53.71,1.59.64,2.2-.43s.92-2,1.47-3.23c-1.18,0-2.23,0-3.28,0-2.33-.09-4.66-.17-7-.36a1,1,0,0,1-.87-1.5,5.94,5.94,0,0,0,.19-4.06,3.78,3.78,0,0,1,.24-2.42c1.19-2.41.77-4.93.63-7.41a23.38,23.38,0,0,0-.85-4.44,7.49,7.49,0,0,0-.94-1.59A2.28,2.28,0,0,1,4.16,16a6.91,6.91,0,0,0-.62-2.05l.08.9a4,4,0,0,1,1.06-4.5c2.7-2.22,5.59-4.21,9.11-5a8.37,8.37,0,0,1,8.59,3.93,1.72,1.72,0,0,1,0,1.56,3.13,3.13,0,0,1-1.88,1,17,17,0,0,1-3.1-.34c-.46-.06-.94,0-1.4-.14-1.64-.32-2.55.73-3.36,1.84s.14,2.76,1.56,3.09c1.61.38,3.26.55,4.89.84a6,6,0,0,1,1.24.34,1.08,1.08,0,0,1,.53.5,4,4,0,0,1-.82,2.82,6.66,6.66,0,0,1-1.75,1c-1.56.46-1.93,1.69-2.21,3-.14.66.14,1,.81.85,1.13-.29,2.24-.64,3.35-1A2.5,2.5,0,0,1,23,25a4.28,4.28,0,0,0,3.34,1.08c3-.06,6,0,9.07,0a1.53,1.53,0,0,0,1.55-.94,20.06,20.06,0,0,1,3.25-4.26c1.28-1.22,3.1-1,4.75-.85a16.18,16.18,0,0,1,9.46,4.31c1.08.92,2.22,1.79,3.37,2.62a5.74,5.74,0,0,1,2.67,5.73,14.51,14.51,0,0,0-.25,3.11c.12,1.44-.74,2.23-1.57,3.14a44.18,44.18,0,0,0-3.36,3.91A5.51,5.51,0,0,0,54,47.38c.06.26-.25.61-.4.92a.28.28,0,0,1-.18.11c-3.18.71-4.43,3.45-6.05,5.78-2,2.86-3.94,5.77-5.9,8.66a5.37,5.37,0,0,0-.27.5,7.58,7.58,0,0,1,.66.83c1,1.61,1.32,1.78,3.13,1.44a2,2,0,0,1,2.2,1.91,2.41,2.41,0,0,0,1.88,3c.91.29,1.19,2,.56,2.78-1.32,1.53-1.33,1.67-.28,3.46a2.21,2.21,0,0,1-1.24,2.69c-.68.16-1.34.39-2.15.63l-.77-1.52-1.3-3.69-.38.59c0-.36,0-.53,0-.71s0-.37,0-.36c-1.89,1.83-1.08,3.84-.14,5.89.57,1.25.32,1.76-1,2.25a8.45,8.45,0,0,1-8.12-1,6.4,6.4,0,0,1-2.68-3.36l.86.74a9.72,9.72,0,0,1-1.17-6.88l-.46,2a8.28,8.28,0,0,1,4.89-7.69c1.34-.48,2.47-.13,2.9,1.2.51,1.59,1.73,1.56,3,1.76l-1.21-4.64-.29,1.23a5,5,0,0,1,.86-3.65q5.12-7.49,10.27-14.95l3.22-4.66a3.7,3.7,0,0,0-.61-.13c-2,.05-4,.07-6,.2-.68,0-1.4,0-1.89.88-1.44,2.6-3,5.13-4.58,7.66C37.4,57.63,33.44,64,29.53,70.36c-1.91,3.12-4.24,5.71-7.8,7a1,1,0,0,0-.19,1.82,6.52,6.52,0,0,0,2.09.66c1.89.36,3.84.5,5.68,1a19.41,19.41,0,0,1,3.56,1.83c1.1-.93,1.18-.93,2-.24l-1.14.65,1,.47c.06,0,.11.09.17.11a14.7,14.7,0,0,0,3.51,1,15.07,15.07,0,0,0,4.48-.58,7.07,7.07,0,0,0,2.66-1.57C45.82,82.3,45.6,81.48,45.61,80.92Zm-2.8-47.73H22.41c6.48.15,13,.16,19.44.15a5.69,5.69,0,0,0,.95-.16c.66-.09.89-.51.88-1.13,0-1.22,0-2.43,0-3.65a2.65,2.65,0,0,0-.31-.81l-.3.08c0,.89,0,1.77,0,2.66S42.89,32.24,42.81,33.19ZM9.94,22.5c1.41.12,3.13.24,4.84.43.93.1,1.69.09,2.21-.92.26-.5.89-.81,1.37-1.18s1-.68,1.46-1.1c.75-.71.6-1.34-.4-1.67s-1.85-.71-2.09.56l-2-1.26-.46,1.16-.27-.09L14.66,17l-3-.71a2.55,2.55,0,0,0-.41-.64A2.78,2.78,0,0,1,11,11.81a3.44,3.44,0,0,1,1.79-1.13,17.77,17.77,0,0,1,3.15,0l-.16-.47,1.45.1.34-.86.24.08v.85a12,12,0,0,0,1.87.25,13.5,13.5,0,0,0,1.93-.3A5.1,5.1,0,0,0,21,8.81a7,7,0,0,0-5.24-2.6c-3.48-.15-6.15,1.71-8.85,3.51-.12.08-.12.36-.12.38.61,0,1.22-.11,1.55.13a1.25,1.25,0,0,1,.54,1.57L7.74,10.58l-.42.3.79,1.39-.75,1.42.23.15,2.19-1.43C9.45,15,7.81,16,5.14,15c0,.14-.11.29-.07.4C5.6,17.21,6.12,19,6.71,20.77a1.16,1.16,0,0,0,.75.66c1.23.22,2.47.36,3.72.5s2.43.23,3.65.34l0,.22Zm45,3.35a16.58,16.58,0,0,0-10-5.2c-3.54-.44-5.54,1.35-7,4.14-.25.46-.58,1.14.25,1.29a17.94,17.94,0,0,0,2.9,0c-.91-1.1-.32-1.75.41-2.29a3.43,3.43,0,0,1,1.36-.61,9,9,0,0,1,7.06,1.6C51.46,26,53.14,25.86,54.91,25.85ZM42.68,73.06c.57-1-.3-1.44-1-1.86a5.79,5.79,0,0,0-2.29-1,3.24,3.24,0,0,0-3.25,3.34,3.09,3.09,0,0,0,3.35,3.25A3.21,3.21,0,0,0,42.68,73.06Zm2.49-45.68-.28-.11c-1,1.14-.76,2.63-.73,4,0,.84-.13,1.88,1,2.37Zm4-1.69A8.58,8.58,0,0,0,43.68,24a2.22,2.22,0,0,0-2.19,1.43c.58-.37,1-.81,1.43-.86.84-.1,2.13-.33,2.49.11C46.5,26,47.89,25.46,49.16,25.69Zm-11.55,20c.86,0,1.46-.2,1.44-1.2,0-.83-.56-1-1.21-1.06s-1.3.25-1.29,1.19S36.88,45.81,37.61,45.73ZM7.1,27.44a17.64,17.64,0,0,1,2.38-1.11,19.49,19.49,0,0,1,2.69-.45,16.66,16.66,0,0,0-3.48-.2C7.16,25.72,7,25.89,7.1,27.44ZM6,10.68a1.68,1.68,0,0,0-1,1.88c.07.62.3,1.15,1.47,1.25-1.09-1.09-.7-2.05-.34-3C6.15,10.78,6.1,10.75,6,10.68ZM36.43,31.5a8.75,8.75,0,0,0,1.33-1,.88.88,0,0,0,0-.84,1.32,1.32,0,0,0-.86-.43c-.12,0-.37.37-.41.6A15.21,15.21,0,0,0,36.43,31.5ZM59.16,32.9a3.21,3.21,0,0,0-.45-3.95ZM35.31,31.41l0-.15c-.28-.11-.78-.19-.81-.35a6.11,6.11,0,0,1,0-1.44l.87.08a2,2,0,0,0-1.17-.27,4.58,4.58,0,0,0-.08,1.82C34.19,31.27,34.9,31.31,35.31,31.41Zm-5.72-2.29c-1.22.47-.46,1.46-.64,2.25.43-.51.73-1.26,1.54-.21C30.42,30.26,28.43,30.38,29.59,29.12ZM21.3,32.48l.14,0V27.74H21.3ZM11.5,15c.8-1.17.75-1.48-.35-2.06ZM26.16,31.29c.49-.76-.3-2,1.19-2C26,29.05,25.81,29.29,26.16,31.29ZM37.75,42.19l-.06.43,2.68.28,0-.26Z"/><path class="cls-1" d="M45.61,80.92c0,.56.21,1.38-.07,1.63a7.07,7.07,0,0,1-2.66,1.57,15.07,15.07,0,0,1-4.48.58,14.7,14.7,0,0,1-3.51-1c-.06,0-.11-.09-.17-.11l-1-.47,1.14-.65c-.79-.69-.87-.69-2,.24a19.41,19.41,0,0,0-3.56-1.83c-1.84-.52-3.79-.67-5.68-1a6.52,6.52,0,0,1-2.09-.66,1,1,0,0,1,.19-1.82c3.56-1.27,5.89-3.85,7.8-7,3.9-6.39,7.87-12.73,11.8-19.11,1.56-2.53,3.14-5.06,4.58-7.66.49-.89,1.22-.83,1.89-.88,2-.13,4-.15,6-.2a3.7,3.7,0,0,1,.61.13L51.2,47.31q-5.14,7.47-10.27,14.95a5,5,0,0,0-.86,3.65l.29-1.23,1.21,4.64c-1.27-.2-2.48-.17-3-1.76-.43-1.33-1.55-1.67-2.9-1.2a8.28,8.28,0,0,0-4.89,7.69l.46-2a9.72,9.72,0,0,0,1.17,6.88l-.86-.74a6.4,6.4,0,0,0,2.68,3.36,8.45,8.45,0,0,0,8.12,1c1.27-.5,1.53-1,1-2.25-.94-2.06-1.75-4.06.14-5.89,0,0,0,.17,0,.36s0,.36,0,.71l.38-.59,1.3,3.69ZM51.88,45.3c0-1.33-.69-2.2-1.82-2.22a2,2,0,1,0-.1,4A1.8,1.8,0,0,0,51.88,45.3Z"/><path class="cls-1" d="M42.74,46.4c0,.36.09.78-.07,1.06A27.8,27.8,0,0,1,40.35,51L42,47.62Z"/><path class="cls-1" d="M9.94,22.5h4.87l0-.22c-1.22-.11-2.44-.21-3.65-.34s-2.49-.28-3.72-.5a1.16,1.16,0,0,1-.75-.66C6.12,19,5.6,17.21,5.07,15.42c0-.11,0-.26.07-.4,2.67,1,4.31,0,4.65-2.6L7.6,13.84l-.23-.15.75-1.42-.79-1.39.42-.3L8.88,11.8a1.25,1.25,0,0,0-.54-1.57C8,10,7.41,10.14,6.8,10.11c0,0,0-.3.12-.38,2.7-1.8,5.37-3.66,8.85-3.51A7,7,0,0,1,21,8.81a5.1,5.1,0,0,1,.59,1.48,13.5,13.5,0,0,1-1.93.3,12,12,0,0,1-1.87-.25V9.5l-.24-.08-.34.86-1.45-.1.16.47a17.77,17.77,0,0,0-3.15,0A3.44,3.44,0,0,0,11,11.81a2.78,2.78,0,0,0,.26,3.82,2.55,2.55,0,0,1,.41.64l3,.71-.09,1.45.27.09.46-1.16,2,1.26c.24-1.27,1.22-.84,2.09-.56s1.14,1,.4,1.67c-.44.42-1,.72-1.46,1.1S17.24,21.51,17,22c-.52,1-1.27,1-2.21.92C13.06,22.74,11.35,22.62,9.94,22.5Z"/><path class="cls-1" d="M54.91,25.85c-1.77,0-3.45.11-5-1a9,9,0,0,0-7.06-1.6,3.43,3.43,0,0,0-1.36.61c-.73.54-1.31,1.19-.41,2.29a17.94,17.94,0,0,1-2.9,0c-.83-.14-.5-.82-.25-1.29,1.51-2.79,3.51-4.59,7-4.14A16.58,16.58,0,0,1,54.91,25.85Z"/><path class="cls-1" d="M42.68,73.06a3.21,3.21,0,0,1-3.22,3.74,3.09,3.09,0,0,1-3.35-3.25,3.24,3.24,0,0,1,3.25-3.34,5.79,5.79,0,0,1,2.29,1C42.38,71.63,43.26,72.07,42.68,73.06Zm-1.57.61a7.92,7.92,0,0,0-.42-1.82,1.59,1.59,0,0,0-1-.82c-1.65-.12-2.45.58-2.82,2.24C36.66,74.15,38.11,76,39,76c1.83-.08,2.64-.94,2.72-3Z"/><path class="cls-1" d="M45.18,27.38v6.27c-1.15-.49-1-1.52-1-2.37,0-1.38-.31-2.87.73-4Z"/><path class="cls-1" d="M49.16,25.69c-1.27-.23-2.66.27-3.74-1-.36-.44-1.65-.21-2.49-.11-.45.05-.84.49-1.43.86A2.22,2.22,0,0,1,43.68,24,8.58,8.58,0,0,1,49.16,25.69Z"/><path class="cls-1" d="M37.61,45.73c-.73.07-1.05-.26-1.06-1.06s.53-1.21,1.29-1.19,1.2.22,1.21,1.06C39.07,45.54,38.47,45.75,37.61,45.73Z"/><path class="cls-1" d="M42.8,33.18a5.69,5.69,0,0,1-.95.16c-6.48,0-13,0-19.44-.15H42.8Z"/><path class="cls-1" d="M7.1,27.44c-.08-1.54.06-1.72,1.59-1.77a16.66,16.66,0,0,1,3.48.2,19.49,19.49,0,0,0-2.69.45A17.64,17.64,0,0,0,7.1,27.44Z"/><path class="cls-1" d="M42.81,33.19c.08-1,.19-1.9.23-2.85s0-1.77,0-2.66l.3-.08a2.65,2.65,0,0,1,.31.81c0,1.21,0,2.43,0,3.65,0,.62-.22,1-.88,1.13Z"/><path class="cls-1" d="M26.6,39.67a10.79,10.79,0,0,0-1.23-.33c-.72-.11-1.2-.42-1.27-1.2,1.51-.47,1.59-.42,2.5,1.53Z"/><path class="cls-1" d="M6,10.68c.1.07.15.1.15.11-.36,1-.75,1.94.34,3-1.16-.1-1.4-.63-1.47-1.25A1.68,1.68,0,0,1,6,10.68Z"/><path class="cls-1" d="M36.43,31.5a15.21,15.21,0,0,1,.11-1.69c0-.23.3-.62.41-.6a1.32,1.32,0,0,1,.86.43.88.88,0,0,1,0,.84A8.75,8.75,0,0,1,36.43,31.5Z"/><path class="cls-1" d="M59.16,32.9l-.45-3.95A3.21,3.21,0,0,1,59.16,32.9Z"/><path class="cls-1" d="M35.31,31.41c-.4-.1-1.12-.14-1.15-.32a4.58,4.58,0,0,1,.08-1.82,2,2,0,0,1,1.17.27l-.87-.08a6.11,6.11,0,0,0,0,1.44c0,.16.52.24.81.35Z"/><path class="cls-1" d="M29.59,29.12c-1.16,1.26.83,1.14.91,2-.81-1-1.11-.3-1.54.21C29.13,30.58,28.37,29.59,29.59,29.12Z"/><path class="cls-1" d="M21.3,32.48V27.73h.14V32.5Z"/><path class="cls-1" d="M11.5,15l-.35-2.06C12.25,13.49,12.31,13.8,11.5,15Z"/><path class="cls-1" d="M26.16,31.29c-.34-2-.2-2.24,1.19-2C25.86,29.27,26.65,30.54,26.16,31.29Z"/><path class="cls-1" d="M37.75,42.19l2.66.45,0,.26-2.68-.28Z"/><path d="M51.88,45.3A1.8,1.8,0,0,1,50,47.06a2,2,0,1,1,.1-4C51.18,43.1,51.9,44,51.88,45.3Zm-.62-1c-.55-.25-.87-.53-1.12-.48s-.44.42-.66.66c.21.2.46.58.63.55C50.43,45,50.71,44.7,51.26,44.33Z"/><path d="M41.11,73.68l.57-.71C41.6,75,40.79,75.88,39,76c-.85,0-2.3-1.81-2.11-2.69.36-1.66,1.16-2.36,2.82-2.24a1.59,1.59,0,0,1,1,.82A7.92,7.92,0,0,1,41.11,73.68Zm-3-1L39.82,72l.66,1.32.28-.16c-.4-.68-.41-1.72-1.66-1.56a1.44,1.44,0,0,0-1.42,1.22,1.5,1.5,0,0,0,1,1.82,1.21,1.21,0,0,0,1.71-.79l-1.66.5Z"/><path class="cls-1" d="M51.26,44.33c-.54.37-.82.67-1.15.73-.17,0-.42-.35-.63-.55.22-.23.41-.61.66-.66S50.71,44.08,51.26,44.33Z"/><path class="cls-1" d="M38.06,72.66l.64,1.74,1.66-.5a1.21,1.21,0,0,1-1.71.79,1.5,1.5,0,0,1-1-1.82,1.44,1.44,0,0,1,1.42-1.22c1.25-.16,1.26.88,1.66,1.56l-.28.16L39.82,72Z"/><path d="M5.45,13.59c1.41.42,2.41.14,3-.78s.46-2-.65-3.15L9.42,7.72a2.4,2.4,0,0,0,1.86.73,2.25,2.25,0,0,0,1.36-.61,2.3,2.3,0,0,0,.25-3l2.3-1.32a2.42,2.42,0,0,0,1.5,1.29,2.28,2.28,0,0,0,1.46-.09c1-.39,1.44-1.29,1.32-2.73l2.59-.44a2.45,2.45,0,0,0,1,1.69,2.18,2.18,0,0,0,1.32.38c1.08,0,1.78-.66,2.21-2L29.15,2c0,1.56.47,2.33,1.46,2.67s1.93,0,2.8-1.08c.36.2.74.39,1.1.6s.77.47,1.18.73a2.13,2.13,0,0,0-.22,2,3,3,0,0,0,.74,1,2.21,2.21,0,0,0,2.92-.11l1.67,2a2.39,2.39,0,0,0-.93,1.64,2.25,2.25,0,0,0,.32,1.39c.56.91,1.47,1.21,2.87.89l.9,2.42a2.25,2.25,0,0,0-1.58,2.57c.19,1.16.92,1.71,2.36,1.91v2.62c-1.57.3-2.23.91-2.36,2.13A2.3,2.3,0,0,0,44,27.72l-.87,2.43a2.26,2.26,0,0,0-3,1.12c-.48.95-.25,1.83.69,2.81-.26.34-.52.69-.8,1s-.58.67-.89,1a2.26,2.26,0,0,0-1.86-.67,2.13,2.13,0,0,0-1.23.52c-.86.74-1,1.71-.36,3.08-.29.19-.59.39-.89.57s-.9.51-1.36.77A2.42,2.42,0,0,0,32,39.1a2.12,2.12,0,0,0-1.37,0c-1.12.45-1.56,1.29-1.43,2.82l-2.62.48a2.36,2.36,0,0,0-1-1.84,2.19,2.19,0,0,0-1.35-.37c-1.11.06-1.76.7-2.17,2.22L19.39,42c.23-1.47-.31-2.5-1.44-2.87a2.28,2.28,0,0,0-2.82,1.32l-2.28-1.31a2.31,2.31,0,0,0,.41-1.91A2.17,2.17,0,0,0,12.48,36a2.29,2.29,0,0,0-3.09.24L7.63,34.17a2.29,2.29,0,0,0,.76-3c-.57-1-1.64-1.37-3-.93l-.88-2.43c1.47-.66,2-1.46,1.81-2.63s-1-1.76-2.57-1.88V20.61a2.28,2.28,0,0,0,1.94-.67,2.21,2.21,0,0,0,.62-1.33A2.31,2.31,0,0,0,4.5,16.14Zm18.79,2.27A6.15,6.15,0,1,0,30.38,22,6.13,6.13,0,0,0,24.24,15.86Z"/><path d="M140.57,43.89c.51-.47.81-.7,1-1a1,1,0,0,0-.29-1.71c-1.27-.79-1.27-.79-.35-1.86a1,1,0,0,0-.3-1.61c-.4-.23-.79-.47-1.38-.83.46-.33.73-.56,1-.73,1.06-.58,1.12-1.13.18-1.88-.76-.61-.68-1.29.22-1.72.63-.3.8-.67.45-1.3-.74-1.34-.69-1.31.42-2.25.25-.21.24-.81.22-1.23,0-.22-.36-.4-.49-.64s-.38-.66-.29-.86a1.18,1.18,0,0,1,.82-.43c1.17-.17,1.45-.66.89-1.65-.77-1.36-.75-1.4.77-1.49a.87.87,0,0,0,.82-1.35,8.06,8.06,0,0,1-.4-.83c-.15-.53-.06-.86.64-.78,1.53.16,1.95-.38,1.51-1.81a4.92,4.92,0,0,1-.09-1.09l.26,0,.2.5c2-.19,2.28-1.48,1.59-3.32l.44.18.3.59,1.08-.27c.87-.23,1.29-.73,1-1.67-.15-.5-.21-1,.58-1.23l-.26,1c.63-.15,1.15-.24,1.66-.39s.79-.64.71-1.28.18-1.25,1.24-1.15l-.64.5c1.53.4,2.23-.05,2.48-1.5a4.49,4.49,0,0,1,.4-.95l.24.08-.35.9a7.35,7.35,0,0,0,2-.17,2.12,2.12,0,0,0,1.06-1.08c.32-.75.65-1,1.37-.54,1.21.69,1.32.65,1.9-.68.29-.66.83-.76,1.37-.25a1.29,1.29,0,0,0,2.3-.48c.36-.79.66-.82,1.21-.11.88,1.15,1.37,1.11,2.08-.13a1.2,1.2,0,0,1,.75-.57c.18,0,.5.31.63.55.63,1.16,1.23,1.26,2.07.31.57-.64,1.08-.57,1.51.19.55,1,1.11,1.1,1.91.36.62-.57,1-.35,1.38.28.69,1.21.86,1.25,2,.49.73-.47,1.15-.32,1.35.49.29,1.14.7,1.34,1.74.84,1.2-.58,1.3-.52,1.47.76s.5,1.32,1.58.83a4.93,4.93,0,0,1,1.15-.22,5.24,5.24,0,0,1,.15,1.13c-.09,1,.26,1.37,1.33,1.18,1.24-.23,1.47,0,1.33,1.19-.09.81.34,1.24,1.15,1.14.17,0,.34-.13.5-.12.33,0,.77,0,.94.18s.09.64,0,.93c-.43,1.16-.12,1.58,1.11,1.53a5.24,5.24,0,0,1,1.16.22,6.54,6.54,0,0,1-.33,1.06c-.44.86-.1,1.48.87,1.55,1.47.09,1.57.26.93,1.53-.42.82-.18,1.3.72,1.47,1.44.28,1.54.52.64,1.6a1,1,0,0,0,.56,1.73c1,.3,1.14.76.52,1.53-.77,1-.67,1.32.43,1.84a4.88,4.88,0,0,1,.91.74,6.29,6.29,0,0,1-.72.79c-.72.57-.74,1.15,0,1.77.89.78.86,1.08-.11,1.82a.88.88,0,0,0-.14,1.42c1,1.19.94,1.14-.15,2.11a1.34,1.34,0,0,0-.21,1.29A6.86,6.86,0,0,0,202,41.6c4.78,1.91,9.5,4,14.26,5.93a5.17,5.17,0,0,1,2.69,6.93,5,5,0,0,1-6.39,2.8c-3-1.1-5.85-2.37-8.76-3.59-2.38-1-4.71-2.1-7.14-2.93a4.75,4.75,0,0,0-2.7.38c-.21.07-.31,1-.21,1.43.26,1.23.13,1.42-1.1,1.17-1-.2-1.45.21-1.39,1.19.08,1.35-.09,1.49-1.43,1.24-.73-.14-1.28.39-1.26,1.22,0,1.33-.21,1.5-1.43,1-.75-.31-1.29,0-1.5.88-.34,1.43-.34,1.42-1.76.91-.71-.26-1.12.08-1.31.75-.08.3-.05.62-.14.91-.21.67-.72.79-1.2.32-1-1-1.7-.85-2.19.54-.11.33-.37.76-.63.83s-.64-.28-.88-.53c-.71-.77-1.23-.75-1.77.12-.11.17-.18.37-.28.55-.45.82-.89.85-1.43.1s-1.35-.84-2,0c-.75,1.08-1,1.08-1.77,0a1,1,0,0,0-1.66-.08c-.18.2-.28.48-.46.68-.49.55-.92.48-1.22-.2-.6-1.35-1.26-1.45-2.28-.4a3.59,3.59,0,0,1-.93.51,6.17,6.17,0,0,1-.42-.87c-.34-1.11-.73-1.27-1.71-.67-.15.09-.28.2-.43.29-.83.49-1.15.34-1.35-.6-.25-1.2-.76-1.39-1.79-.71-.32.21-.81.43-1.08.32s-.35-.66-.39-1c-.11-1.07-.56-1.36-1.6-1s-1.48.13-1.47-1c0-.93-.45-1-1.18-.86-.17,0-.33.11-.49.15-.9.2-1.28-.15-1.15-1.08.15-1.09-.24-1.46-1.32-1.29-1.37.21-1.48.1-1.18-1.19.23-1-.17-1.39-1.2-1.35a6.39,6.39,0,0,1-1.24-.18,7.7,7.7,0,0,1,.29-1.11,1,1,0,0,0-.73-1.46,7.5,7.5,0,0,1-1-.3c-.59-.23-.67-.56-.31-1.11.61-.93.36-1.43-.74-1.6s-1.36-.57-.69-1.52.32-1.45-.67-1.78Zm30.7,9.43c.89-.06,1.78-.1,2.67-.19a4.37,4.37,0,0,0,1.09-.3,1.54,1.54,0,0,0,.76-2.61c-.67-.92-1.32-1.84-1.95-2.78a6.16,6.16,0,0,0-8.3-1.86,28.89,28.89,0,0,0-4.08,3.55,1.68,1.68,0,0,0,.54,2.53A15.38,15.38,0,0,0,171.27,53.32ZM151.69,36.45a17.86,17.86,0,0,0,.48,2.85c.67,1.9,1.43,3.76,2.22,5.61.24.56.77.9,1.28.24a57.5,57.5,0,0,0,4.24-5.8,4.73,4.73,0,0,0-2.73-6.71,19.64,19.64,0,0,1-2.42-1.12c-1.34-.7-2.53-.24-2.79,1.25A32.4,32.4,0,0,0,151.69,36.45Zm30.62-8c1.28-.21,2.74-.41,4.17-.73a1.2,1.2,0,0,0,.69-.92,2.49,2.49,0,0,0-.52-1.51,45.56,45.56,0,0,0-4.71-5,17.53,17.53,0,0,0-4.5-2.42c-1.22-.51-2,.09-2.11,1.4-.07.75.06,1.52,0,2.26C174.71,25.58,178.36,28.7,182.3,28.45ZM162.35,26.7a5.52,5.52,0,0,0,5.16-3.7,42.32,42.32,0,0,0,1-4.42c.25-1.5-.11-1.78-1.6-1.49a18.49,18.49,0,0,0-7.61,3.49,27.43,27.43,0,0,0-3.15,2.95c-.5.52-.68,1.24.18,1.6A16.06,16.06,0,0,0,162.35,26.7Zm7.28-18.1-.06-.21c-1.22.17-2.44.33-3.65.51a25.28,25.28,0,0,0-12.83,5.92c-1.82,1.54-3.85,3.05-3.92,5.83a2.09,2.09,0,0,1-.32.75c-.41.85-.87,1.68-1.24,2.55-.79,1.89-1.53,3.8-2.28,5.71-.38,1-.72,1.94-1.08,2.9l-.24-.06.05-1.68a.75.75,0,0,0-.28.53,38,38,0,0,0-.17,5.54c.15,1.5-.18,3.27,1.26,4.36-.21-1.75-.49-3.54-.62-5.34a8.35,8.35,0,0,1,1.51-5.65c.73-1,1.24-2.17,1.89-3.25s.92-2.59,2.09-3.59a3.78,3.78,0,0,0,1.07-2.54,6.44,6.44,0,0,1,2.1-4.86,24.52,24.52,0,0,1,11.16-5.92c2.56-.57,5.35.16,6.25,3.5.14.51.19,1.05.28,1.58a9.69,9.69,0,0,0-.05-2.27,1.74,1.74,0,0,1,.24-1.11c.87-1.07.78-1.45-.56-1.91l-2-.73.06-.33ZM167.7,29.37c-.46-.2-.72-.34-1-.43-3.08-1-6.16-1.9-9.23-2.88-.88-.28-1.26.09-1.55.84s-.63,1.37-.89,2.07a.63.63,0,0,0,.2.57c1.43.71,2.88,1.39,4.39,2.11V30.43a5.88,5.88,0,0,1-1-1.09c-.05-.1.4-.58.7-.74a1.18,1.18,0,0,1,.86,0c1.4.51,2.76,1.12,4.17,1.57A4,4,0,0,0,167.7,29.37Zm46.48,21.41a1.64,1.64,0,0,0-1.62,1.63,1.54,1.54,0,0,0,1.71,1.5,1.58,1.58,0,1,0-.09-3.13ZM185,46.44l-.11-.35c-1-.26-2-.57-3-.75-.77-.13-1,.47-1,1.1a1.74,1.74,0,0,0,2.66,1.44A11.06,11.06,0,0,0,185,46.44ZM151.16,23.29l.16-.31c.35.74-1.1,1.52.17,2.24a13.47,13.47,0,0,0,2.41,1.31c.63.2,1.66.69,1.92-.71-.82-.36-1.66-.66-2.43-1.08S151.9,23.77,151.16,23.29Zm39.11,1.44-.3.21a5.22,5.22,0,0,0,.68,1.18,7.17,7.17,0,0,0,1.41,1c.2.12.66.2.69.14a8.73,8.73,0,0,0,.65-1.66c0-.11-.31-.44-.51-.48C192,25,191.15,24.85,190.28,24.72Zm-1.14,11.42a1.69,1.69,0,0,0-1.22-2,1.35,1.35,0,0,0-1.81.69Zm-4-6.83c-1.14.51-1.63,1.32-1.35,2s.87.53,1.28.26C186.12,30.85,184.94,30.13,185.1,29.32Zm-30.24-9.88c.68.63,1.3.75,1.89.15s.38-1.08-.15-1.71Zm5-3.28-.35-.18-1.87,1.2c.71.89,1.4.77,1.92.27C159.84,17.18,159.78,16.6,159.87,16.16Zm2.54-1.86-1.22,1.33c.26.22.71.66.76.61A5.87,5.87,0,0,0,163,15.07C163.05,15,162.73,14.7,162.41,14.3ZM148.56,38.88c.38-.35.77-.56.92-.9a1.08,1.08,0,0,0-.14-1c-.2-.22-.65-.21-1-.31a3,3,0,0,0-.2.92A6.7,6.7,0,0,0,148.56,38.88Zm22-9.47.32-.38c-.53-.55-1-1.13-1.61-1.63-.16-.13-.53,0-.8,0,.05.25,0,.6.18.72C169.24,28.58,169.91,29,170.55,29.41Zm-20.67,19.2,1.24.31.46-2.23-.56-.35Zm16.65-34.42-.18-.52-2.21.37-.1.31c.47.25.93.69,1.4.69S166.17,14.5,166.53,14.19Zm-18.68,20.1.75.89c.3-.32.82-.64.82-1s-.49-.69-.77-1Zm1.51,8c.33-.33.66-.51.7-.73a1.85,1.85,0,0,0-.17-1.16c-.12-.19-.59-.18-.9-.25a5.33,5.33,0,0,0-.07,1.1A4.76,4.76,0,0,0,149.36,42.27Zm33.77-24.91,0-.51-1.68-1-.34.22c.19.48.25,1.13.6,1.39S182.66,17.39,183.13,17.35Zm1.26.33c-.44.74-.7,1.28,0,1.76s1,.12,1.56-.32ZM149.85,43.35c.21.74.14,1.53,1,1.59.18,0,.61-.52.57-.76C151.35,43.35,150.69,43.3,149.85,43.35ZM187.13,20c-.71.74-1.06,1.27-.36,1.76.27.19.78.05,1.17.07Zm-8.37-5.58-.66.77a4.08,4.08,0,0,0,1.07.74c.17.05.49-.39.74-.61Zm-25.56,7.78.35.27c.33-.23.86-.41.93-.7a3.88,3.88,0,0,0-.23-1.43h-.41Zm35.64.45c-.16.42-.33.65-.32.86a2.41,2.41,0,0,0,.29,1.06c.09.14.48.1.73.14a5.44,5.44,0,0,0-.06-1A5.17,5.17,0,0,0,188.83,22.68ZM162.28,55.26l1.67.31c0-.24,0-.58-.1-.7C163.39,54.44,162.91,54.47,162.28,55.26Zm3.43.88,2,.23C166.91,55.2,166.56,55.17,165.71,56.15ZM153.64,28.72l.22-.43-1.3-.8c0,.32-.07.73.08.86A3,3,0,0,0,153.64,28.72Zm17.28,27.79.06-.39c-.43-.57-.91-.59-1.45.24Zm-22.51-24.8c1.33-.11,1.5-.28,1.42-1.34Zm24.47,24,.1.51,1.49-.26-.08-.5ZM169.78,26h.14l-.27-4h-.14Z"/><rect x="209.17" y="38.55" width="10.84" height="29.82" rx="2.83" ry="2.83" transform="translate(73.3 -116.67) rotate(36.3)"/><path class="cls-2" d="M201.41,34a26.6,26.6,0,0,0-1.87-10.37c-4.6-11.45-17.76-18.87-29.88-16.55,4.2-.8,10.07,1.69,13.63,3.67a26.49,26.49,0,0,1,10.25,9.9c4.94,8.61,4.82,19.79-1,27.93-5.19,7.2-13.41,12-21.88,14.25a3.47,3.47,0,0,1,2-2.12c-6.12,1.91-12.46,2.87-18.71,4.26q-10,2.21-20,4.2c-13.36,2.64-26.8,4.93-40.31,6.66Q65,79.48,36.12,80.56a14.46,14.46,0,0,1-5.7-.56A5,5,0,0,1,27,75.79a7,7,0,0,1,1.3-3.62A61.17,61.17,0,0,1,39.46,58.53c3.22-2.93,7.09-6.26,6.77-10.61-.27-3.7-3.72-6.49-7.31-7.45s-7.37-.54-11.09-.53c-5.43,0-11-.95-15.64-3.79S4,28.37,3.83,22.93c-.26-8,6.83-14.76,14.55-17s15.94-1,23.9.13a550.89,550.89,0,0,0,81.49,5c10-.13,20-.31,29.9-1.36a200.48,200.48,0,0,1,30.82-.87c-7.22-4.06-16-3.35-24.3-2.71a566.88,566.88,0,0,1-123.8-4c-7.25-1-14.86-2.18-21.71.4A21.68,21.68,0,0,0,1,23.41,21.68,21.68,0,0,0,16.77,42.72c6.3,1.64,13,.3,19.46.61,2.73.13,6,1,6.8,3.58s-1.17,5-3,6.93L29.46,64.94c-2,2.14-4.13,4.35-5.32,7.06s-1.32,6.09.43,8.48c2.14,2.92,6.23,3.47,9.85,3.59a176,176,0,0,0,18-.6A705.56,705.56,0,0,0,133,73c10.65-2,21.18-4.5,31.75-6.8,9-2,18-4.38,25.55-9.73C197.36,51.47,201.27,42.45,201.41,34ZM164.24,7a1.15,1.15,0,0,1,1.1-.7c.43,0,.86.07,1.28,0,.85-.07,1.7-.19,2.54-.3l.09,0a.63.63,0,0,1,.61-.34.66.66,0,0,1,.17,0,.68.68,0,0,1,.92.11,1.84,1.84,0,0,1,.29.6c.45,0,.45,0,.36.57l-.32-.35a2.83,2.83,0,0,1,0,.6.68.68,0,0,1-.51.65c0,.07,0,.13,0,.2l-.53.09.05-.32a.68.68,0,0,1-.41-.7v0l-.12,0a.63.63,0,0,1-.56-.39c-.33.42-.17.64.43,1.34a1.65,1.65,0,0,1-.44.16,17.18,17.18,0,0,0-3.47.34,1.13,1.13,0,0,1-1.3-.35A1.22,1.22,0,0,1,164.24,7ZM162,6.74c1.15,0,1.35-.33,1.62,1.3,0,.16.06.33.11.58l-1.65.08-.16-1.92S162,6.74,162,6.74ZM155.91,7c.86,0,1.71,0,2.57,0,.54,0,1.08-.16,1.63-.23a1.1,1.1,0,0,1,1.22.58,1.21,1.21,0,0,1-.92,1.78,2.68,2.68,0,0,1-.57,0,11,11,0,0,0-3.34.2,4.38,4.38,0,0,1-.53.06,1.19,1.19,0,0,1-1.24-1.2A1.21,1.21,0,0,1,155.91,7Zm-1.7.31c0,.37-.06.67-.05,1s.08.58.14,1l-1.66.13-.07-2Zm-7.77.19c.33,0,.66.05,1,0,1,0,1.94-.11,2.91-.18a6.06,6.06,0,0,1,.64-.07A1.09,1.09,0,0,1,152,8.32a1.16,1.16,0,0,1-1,1.26,3,3,0,0,1-.71,0,11.19,11.19,0,0,0-3.19.16,5.73,5.73,0,0,1-.6.06,1.18,1.18,0,0,1-.12-2.35Zm-1.65.27,0,2-1.55.09-.12-1.94Zm-8.09.18a3.18,3.18,0,0,1,.61-.12,11,11,0,0,0,3.5,0,3.62,3.62,0,0,1,.78,0,1.12,1.12,0,0,1,1.08,1.16A1.23,1.23,0,0,1,141.57,10a2.67,2.67,0,0,1-.5,0,12.91,12.91,0,0,0-3.63.11,1.78,1.78,0,0,1-.43,0,1.23,1.23,0,0,1-1.11-1.09A1.14,1.14,0,0,1,136.7,7.9Zm-1.3.18,0,1.93-1.58.08,0-1.86A3.92,3.92,0,0,1,135.4,8.08Zm-7.69,0A19.77,19.77,0,0,0,132,8a1.1,1.1,0,0,1,1.19,1.11,1.13,1.13,0,0,1-1.09,1.22c-.4,0-.81,0-1.21-.06-.71,0-.71,0-1.06-.82l-.39.78c-.56.08-1.14.19-1.73.24a1.15,1.15,0,0,1-1.23-1.15A1.09,1.09,0,0,1,127.72,8.08ZM126,8.35l0,1.85-1.57.07-.06-2Zm-7.6-.23c.45,0,.9.05,1.35.08v.11l2.55-.18c.14,0,.28,0,.43,0a1.16,1.16,0,0,1,1.15,1.17,1.13,1.13,0,0,1-1.15,1.18,22.5,22.5,0,0,0-4.41,0,1.07,1.07,0,0,1-1.17-1.19A1.17,1.17,0,0,1,118.35,8.13Zm-1.79.28v1.78a2.88,2.88,0,0,1-1.59.07V8.31Zm-7.77-.35a2.09,2.09,0,0,1,.64,0,10.64,10.64,0,0,0,3.12.08c.24,0,.47-.06.71-.05a1.17,1.17,0,0,1,1.17,1.23,1.21,1.21,0,0,1-1.22,1.11l-.6,0a9.9,9.9,0,0,0-3.38,0,2.44,2.44,0,0,1-.5,0,1.13,1.13,0,0,1-1.06-1.17A1.25,1.25,0,0,1,108.79,8.06Zm-1.63.22v1.94l-1.6-.1,0-1.94Zm-8.78.31a1.07,1.07,0,0,1,1.09-.69c.4,0,.8.09,1.21.1.9,0,1.8,0,2.71,0A5.52,5.52,0,0,1,104,8,1.12,1.12,0,0,1,105,9.2a1.15,1.15,0,0,1-1.09,1.16,4.56,4.56,0,0,1-.54,0,11.92,11.92,0,0,0-3.72-.08A1.18,1.18,0,0,1,98.39,8.59ZM97.84,8l-.12,2-1.57-.09,0-1.85Zm-8.91.49a1.15,1.15,0,0,1,1.4-.94,12.11,12.11,0,0,0,3.54.19,3.43,3.43,0,0,1,.85,0,1.06,1.06,0,0,1,.87,1A1.17,1.17,0,0,1,94.9,10a3.84,3.84,0,0,1-.69.13V10c-.92-.06-1.84-.13-2.77-.16-.52,0-1,.07-1.56,0A1,1,0,0,1,88.93,8.5Zm-2.15-.87,1.61.1-.11,1.84H86.67Zm-6.05-.55.35,0a15.45,15.45,0,0,0,3.83.21,1.09,1.09,0,0,1,1.28,1.15A1.12,1.12,0,0,1,85,9.68c-.5,0-1-.16-1.48-.19-.76,0-1.51,0-2.27-.06-.21,0-.43,0-.64,0a1.13,1.13,0,0,1-1.1-1.2A1.15,1.15,0,0,1,80.73,7.09Zm-3.36.13a2.69,2.69,0,0,1,1.64,0L78.9,9.13,77.27,9Zm-6.1-.72.28,0v0c.85.08,1.7.19,2.55.24.52,0,1,0,1.56,0A1.1,1.1,0,0,1,76.79,8a1.12,1.12,0,0,1-1.13,1.18c-.26,0-.52-.08-.77-.1l-3.26-.2a4.88,4.88,0,0,1-.57,0,1.16,1.16,0,0,1-1-1.28A1.12,1.12,0,0,1,71.28,6.51ZM68,6.47l1.62.1L69.5,8.34a2.33,2.33,0,0,1-1.62-.06Zm-7.06-.23a1.15,1.15,0,0,1,1.26-.49,11.66,11.66,0,0,0,3.75.33,2,2,0,0,1,.43,0,1.22,1.22,0,0,1,1.07,1.27,1.16,1.16,0,0,1-1.18,1.07l-.36,0V8.37c-.87-.09-1.75-.21-2.62-.27a10.9,10.9,0,0,0-1.28,0,1.19,1.19,0,0,1-1.17-.69A1.07,1.07,0,0,1,60.93,6.24ZM58.68,5.7l1.57.09-.11,1.9-1.66-.1Zm-6-.86a6.91,6.91,0,0,1,.91.2,10.16,10.16,0,0,0,3.12.23A1.19,1.19,0,0,1,57.94,6a1.08,1.08,0,0,1-.11,1.2,1.2,1.2,0,0,1-1.33.46c-.88-.19-1.78-.31-2.67-.46v.11c-.47,0-1,0-1.42-.09a1.11,1.11,0,0,1-1.05-1.25A1.23,1.23,0,0,1,52.68,4.85Zm-3.34,0c.53-.22,1.07.05,1.59,0l-.21,2-1.6-.22Zm-6.16-1a1.44,1.44,0,0,1,.42.07,13.78,13.78,0,0,0,3.6.45c.14,0,.29,0,.43,0a1.18,1.18,0,1,1-.23,2.34c-.45-.05-.88-.19-1.33-.27s-1.17-.17-1.76-.25v.07L43,6.16a1.12,1.12,0,0,1-1-1.27A1.2,1.2,0,0,1,43.18,3.82ZM40,3.66l1.57.18-.2,1.93-1.61-.17Zm-7.24-.29a1.19,1.19,0,0,1,1.3-.69c.56.11,1.11.29,1.67.36s1.41.1,2.12.14l.36,0a1.19,1.19,0,0,1,1.13,1.34c-.07.69-.57,1.07-1.49,1a10.29,10.29,0,0,0-1.1-.24c-.94-.12-1.89-.18-2.83-.3a1.83,1.83,0,0,1-.8-.24A1.14,1.14,0,0,1,32.75,3.38Zm-2.09-.82a2.36,2.36,0,0,1,1.57.2L32,4.52l-1.62-.1Zm-7.28-.33a1.15,1.15,0,0,1,1.35-.81c.84.16,1.67.35,2.51.5A10.3,10.3,0,0,0,28.39,2,5.06,5.06,0,0,1,29,2a1.21,1.21,0,0,1,1,1.34,1.1,1.1,0,0,1-1.3.95C27.87,4.18,27,4,26.18,3.89c-.44-.06-.89-.05-1.34-.09a2.73,2.73,0,0,1-.76-.13A1.15,1.15,0,0,1,23.38,2.23Zm-.52-.61-.11,1.84a2.17,2.17,0,0,1-1.52.06l-.09-1.89Zm-8,1.21a3.47,3.47,0,0,1,.76-.18,11.26,11.26,0,0,0,3.09-.91,6.76,6.76,0,0,1,.72-.25,1.17,1.17,0,0,1,1.23,1,1.19,1.19,0,0,1-.71,1.26,2.17,2.17,0,0,1-.49.12A14.05,14.05,0,0,0,15.81,5a1.51,1.51,0,0,1-.55.13A1.1,1.1,0,0,1,14.1,4.2,1.19,1.19,0,0,1,14.84,2.83ZM13.27,3.92l1,1.74-1.11.66-.93-1.78ZM7.09,8.72a1.42,1.42,0,0,1,.26-.25,15,15,0,0,0,2.91-2.86,1.28,1.28,0,0,1,1-.54,1.22,1.22,0,0,1,1,.74A1.28,1.28,0,0,1,12,7.18c-.28.26-.62.47-.9.74-.69.69-1.36,1.4-2,2.1a3.58,3.58,0,0,1-.46.46,1.12,1.12,0,0,1-1.49-.18A1.27,1.27,0,0,1,7.09,8.72Zm-.81,1.56a2.21,2.21,0,0,0,1.63,1.1l-.75,1.25L5.53,11.52ZM2.91,17.52c.24-.65.55-1.28.78-1.93s.35-1.25.52-1.87a4.69,4.69,0,0,1,.19-.64,1.09,1.09,0,0,1,1.43-.64,1.17,1.17,0,0,1,.68,1.46,2,2,0,0,1-.13.35,16.24,16.24,0,0,0-1.28,3.81c-.16.78-.63,1.15-1.23,1.11A1.17,1.17,0,0,1,2.91,17.52Zm1.86,2.26-.21,1.3L2.69,21l.14-1.31Zm-1.69,8a2.69,2.69,0,0,1-.1-.74,13.5,13.5,0,0,0-.41-3.25c-.05-.22-.11-.43-.15-.65-.14-.84.23-1.47.92-1.57s1.19.38,1.27,1.18c0,.44,0,.9.08,1.34.12.86.28,1.71.43,2.57,0,.27.12.53.15.71a1.32,1.32,0,0,1-1,1.23A1.15,1.15,0,0,1,3.07,27.79Zm.84,1.64,1.73-.79.46,1.17-1.78.82Zm4.72,7.4c-.58.1-.93-.25-1.22-.72-.49-.8-1-1.6-1.49-2.37-.29-.43-.66-.79-1-1.2a1.08,1.08,0,0,1-.09-1.26,1.23,1.23,0,0,1,1-.67,1.23,1.23,0,0,1,1,.64A18.48,18.48,0,0,0,9.3,34.83,1.18,1.18,0,0,1,8.63,36.83Zm1.5,1.6-1-.9L10.37,36l1.06.88a6.89,6.89,0,0,0-.77.68A6.42,6.42,0,0,0,10.13,38.44Zm5.47,3.46a2.81,2.81,0,0,1-.56-.32A13,13,0,0,0,11.92,40a2.19,2.19,0,0,1-.73-.43,1.1,1.1,0,0,1-.24-1.3,1,1,0,0,1,1.1-.65,1.7,1.7,0,0,1,.73.26,13.88,13.88,0,0,0,3.44,1.75,1.2,1.2,0,0,1,.89,1.28A1.14,1.14,0,0,1,15.6,41.89Zm3,.53-1.21-.28.42-2,1.23.25ZM25,43c-.52,0-1-.05-1.56-.08V42.8c-.9.06-1.8.1-2.7.18a1.23,1.23,0,0,1-1.05-.32,1.09,1.09,0,0,1-.33-1.15,1.06,1.06,0,0,1,1-.86,3.6,3.6,0,0,1,.78,0,12.17,12.17,0,0,0,3.27,0,2.55,2.55,0,0,1,.78,0A1.17,1.17,0,0,1,26,41.93,1.08,1.08,0,0,1,25,43Zm1.64-.37-.05-1.66,1.16,0c0,.57,0,1.06,0,1.62Zm7.33.15a2.42,2.42,0,0,1-.43,0,13.06,13.06,0,0,0-3.62.08,2.07,2.07,0,0,1-.36,0,1.17,1.17,0,0,1-1.25-1.2,1.23,1.23,0,0,1,1.27-1.15c.43,0,.85.07,1.28.06.81,0,1.61-.06,2.42-.1a6.38,6.38,0,0,1,.71,0,1.14,1.14,0,0,1,1.09,1.15A1.25,1.25,0,0,1,34,42.74Zm1.62-.41,0-1.63,1.13-.08,0,1.67Zm10.13,2.88c.7,0,1.15.59,1.08,1.45s-.19,1.89-.26,2.83a8.13,8.13,0,0,0,0,.9c0,.2,0,.4,0,.6a1.22,1.22,0,0,1-1.2,1.31,1.11,1.11,0,0,1-.94-1.43c.06-1,.13-2,.17-3,0-.45,0-.9,0-1.35C44.58,45.72,45,45.2,45.72,45.21Zm-2.94-1.54a4.38,4.38,0,0,1-.61-.15,14,14,0,0,0-3.73-.89,1.2,1.2,0,0,1-1.11-1,1.18,1.18,0,0,1,1.23-1.38,1.47,1.47,0,0,1,.41.1,13.85,13.85,0,0,0,3.87.92,1.12,1.12,0,0,1,1,.87,1.09,1.09,0,0,1-.38,1.21A2.93,2.93,0,0,1,42.78,43.67Zm1.29,1.84-.83-1.14,1.2-1,.8,1.16ZM43.76,52,45,53l-.9,1.12L42.93,53ZM38.3,57.16c.38-.34.82-.6,1.2-.95.57-.52,1.11-1.09,1.67-1.64a7.5,7.5,0,0,1,.57-.57,1,1,0,0,1,1.52.15,1.1,1.1,0,0,1-.06,1.6A26.93,26.93,0,0,0,39.7,59a1.38,1.38,0,0,1-.55.26A1.12,1.12,0,0,1,38,58.44,1.15,1.15,0,0,1,38.3,57.16ZM37.24,58.6l-.08.21,1,1.13-.66.53-.89-1.11Zm-5.61,5.49a2.07,2.07,0,0,1,.48-.55,12.87,12.87,0,0,0,2.41-2.76,2.65,2.65,0,0,1,.37-.46,1.07,1.07,0,0,1,1.54,0,1.17,1.17,0,0,1,0,1.62c-.34.38-.76.69-1.1,1.08-.59.69-1.15,1.41-1.69,2.13a1.38,1.38,0,0,1-1.15.7A1.19,1.19,0,0,1,31.63,64.09Zm-.82,1.24,1.12,1.2L31.7,67l-1.22-1.26Zm-4.74,5.31a3.12,3.12,0,0,1,.52-.62,14.32,14.32,0,0,0,2.08-2.66,2.74,2.74,0,0,1,.71-.81,1,1,0,0,1,1.25.13A1.1,1.1,0,0,1,30.89,68a2.61,2.61,0,0,1-.53.78,13.69,13.69,0,0,0-2.16,2.78,2.37,2.37,0,0,1-.51.62,2.46,2.46,0,0,1-.57.29A1.21,1.21,0,0,1,26.07,70.63Zm-.44,2,1.8.58L27,74.74a6.56,6.56,0,0,0-.89-.44,5.4,5.4,0,0,0-.92-.12Zm2.18,8.83A1.1,1.1,0,0,1,26.43,81a1.6,1.6,0,0,1-.18-.4,16.73,16.73,0,0,0-1.58-3.91,1.17,1.17,0,0,1,.5-1.76,2.44,2.44,0,0,1,.47-.12,1.14,1.14,0,0,1,1,.73c.1.25.14.53.24.78.4,1,.8,2,1.21,2.94a5.53,5.53,0,0,1,.36.89A1.13,1.13,0,0,1,27.81,81.46Zm2.06,1.28-1.47-.69.89-1.78L30.7,81Zm6.35.94h-.28a15.3,15.3,0,0,0-4,.14,1.1,1.1,0,0,1-1.29-1.2,1,1,0,0,1,1.1-1.1c.57,0,1.14,0,1.71,0,.78,0,1.56-.12,2.34-.18l.38,0a1.14,1.14,0,0,1,1.18,1.17A1.16,1.16,0,0,1,36.22,83.68Zm1.71-.32,0-1.9,1.53-.08.11,1.89A3.8,3.8,0,0,1,37.93,83.36Zm7.83-.13c-.28,0-.57,0-.85,0l-3,.17c-.21,0-.42.07-.64.08A1.18,1.18,0,0,1,40,82.33a1.26,1.26,0,0,1,1.11-1.25,1.65,1.65,0,0,1,.36,0,13.64,13.64,0,0,0,3.83-.17,1.16,1.16,0,0,1,1.45,1c0,.1,0,.2,0,.25A1.2,1.2,0,0,1,45.76,83.23ZM47.35,83l-.06-2,1.58-.11.08,1.93Zm8-.37a1.43,1.43,0,0,1-.56.08,12.85,12.85,0,0,0-3.75.22,2.54,2.54,0,0,1-.42,0,1.12,1.12,0,0,1-1.19-1.11,1.17,1.17,0,0,1,1-1.24c.21,0,.43,0,.64,0l3.19-.19a6.73,6.73,0,0,1,.85-.05,1.09,1.09,0,0,1,1,1A1.17,1.17,0,0,1,55.39,82.61Zm1.39-.26-.14-2,1.6-.08.16,2Zm7.57-.4a15.93,15.93,0,0,0-3.89.31,2.55,2.55,0,0,1-.42,0,1.13,1.13,0,0,1-1.19-1.19A1.18,1.18,0,0,1,60,80a16.32,16.32,0,0,0,4.24-.33,1.08,1.08,0,0,1,1.27,1.08A1.11,1.11,0,0,1,64.35,82Zm1.82-.32L66,79.68l1.6-.16.18,2Zm7.7-.51c-.47,0-1,0-1.42,0-.85.09-1.7.22-2.54.34a4.93,4.93,0,0,1-.49.08,1.17,1.17,0,0,1-1.16-1A1.15,1.15,0,0,1,69,79.26a1.8,1.8,0,0,1,.7-.09,12.85,12.85,0,0,0,3.61-.32,2.08,2.08,0,0,1,.77,0,1.17,1.17,0,0,1-.22,2.3Zm1.71-.35-.22-2,1.63-.1.2,1.91Zm8-.69a1.58,1.58,0,0,1-.56.09,15.33,15.33,0,0,0-3.82.4,1.71,1.71,0,0,1-.89-.05,1.15,1.15,0,0,1,.16-2.18,2.49,2.49,0,0,1,.77-.09,11.37,11.37,0,0,0,3.46-.37c.18,0,.37-.07.52-.09a1.24,1.24,0,0,1,1.14,1.1A1.21,1.21,0,0,1,83.55,80.07Zm1.35-.31-.16-2,1.62-.19.17,2ZM93,78.9a1.59,1.59,0,0,1-.69.16,13.7,13.7,0,0,0-3.81.46c-.16,0-.33.06-.42.07a1.18,1.18,0,0,1-.17-2.34c.37-.06.76,0,1.14-.08q1.38-.17,2.75-.37c.42-.06.83-.24,1.25,0a1.06,1.06,0,0,1,.59,1A1.1,1.1,0,0,1,93,78.9Zm1.3-.3-.24-1.93,1.59-.22.25,2Zm7.66-.82a2.31,2.31,0,0,1-.5,0,11.23,11.23,0,0,0-3,.38c-.34.09-.7.14-.89.18a1.2,1.2,0,0,1-1.24-1.17A1.23,1.23,0,0,1,97.41,76c.43,0,.86,0,1.28,0,1-.15,1.92-.33,2.88-.52a1.13,1.13,0,0,1,1.42.87A1.19,1.19,0,0,1,102,77.78Zm1.69-.45-.25-1.95,1.58-.23.29,2Zm7.9-1a2,2,0,0,1-.63.11,11.91,11.91,0,0,0-3.37.51,7.38,7.38,0,0,1-.72.15A1.2,1.2,0,0,1,105.66,76a1.17,1.17,0,0,1,.86-1.22,2.5,2.5,0,0,1,.7-.09,11,11,0,0,0,3.57-.57,1.14,1.14,0,0,1,1,.07,1.2,1.2,0,0,1,.6,1.18A1.11,1.11,0,0,1,111.57,76.31Zm1.44-.38-.26-2,1.59-.27.27,2Zm8-1.19a2.16,2.16,0,0,1-.76.14,13.86,13.86,0,0,0-3.44.59,4,4,0,0,1-.58.12,1.21,1.21,0,0,1-1.25-1.19,1.28,1.28,0,0,1,1.19-1.18c1-.11,1.93-.22,2.89-.36.37-.05.73-.21,1.11-.28a1.21,1.21,0,0,1,1.09.19A1.19,1.19,0,0,1,121,74.74Zm1.34-.36L122,72.5a2.77,2.77,0,0,1,1.56-.27l.3,1.83ZM130,73.19c-.3.05-.62,0-.92.08-1,.18-2,.38-2.93.58l-.66.16a1.19,1.19,0,0,1-.31-2.33,4.19,4.19,0,0,1,.92-.11A10.82,10.82,0,0,0,129,71a3.23,3.23,0,0,1,.76-.17,1.1,1.1,0,0,1,1.15,1A1.17,1.17,0,0,1,130,73.19Zm1.65-.54-.32-1.93,1.54-.27.39,1.92Zm7.81-1.33a2.42,2.42,0,0,1-.7.13,11.44,11.44,0,0,0-3.29.63,3.56,3.56,0,0,1-.62.17,1.12,1.12,0,0,1-1.24-1,1.15,1.15,0,0,1,.86-1.35c.37-.08.76-.05,1.13-.13.89-.18,1.77-.38,2.65-.58A6.74,6.74,0,0,1,139,69a1.1,1.1,0,0,1,1.21,1.23A1.11,1.11,0,0,1,139.42,71.32Zm1.49-.48-.39-1.93,1.58-.33.4,1.92Zm7.92-1.53a1.38,1.38,0,0,1-.54.17,14.91,14.91,0,0,0-4,.84,1.29,1.29,0,0,1-.76,0,1.2,1.2,0,0,1,.07-2.23c.44-.1.9-.11,1.34-.2.86-.18,1.71-.4,2.57-.61l.67-.17a1.15,1.15,0,0,1,1.2.87A1.19,1.19,0,0,1,148.83,69.31Zm1.34-.45-.42-1.9,1.58-.36.38,1.92Zm7.78-1.57a5.61,5.61,0,0,1-.77.16l-3.13.71c-.23.05-.45.16-.69.2a1.15,1.15,0,0,1-1.31-.88,1.21,1.21,0,0,1,.78-1.41,1.83,1.83,0,0,1,.49-.1,12,12,0,0,0,3.55-.8c.22-.08.45-.14.57-.17a1.15,1.15,0,0,1,1.19,1A1.14,1.14,0,0,1,157.95,67.29Zm1.37-.51L159,64.85l1.57-.37.37,1.94ZM167,65.15c-.25.07-.52.07-.77.13-.93.22-1.85.44-2.77.67-.3.08-.58.23-.89.29a1.1,1.1,0,0,1-1.27-.82,1.17,1.17,0,0,1,.79-1.47,24.78,24.78,0,0,0,4.44-1.08,1.1,1.1,0,0,1,1.34,1.22A1.22,1.22,0,0,1,167,65.15Zm1.57-.58-.43-1.93,1.56-.38.44,1.88Zm20.53-52.06-1-.69,1.08-1.67,1,.69Zm4.49,4.28a3.11,3.11,0,0,1-.39-.43,15.28,15.28,0,0,0-2.63-2.6,2,2,0,0,1-.62-.87,1.14,1.14,0,0,1,.51-1.28,1.08,1.08,0,0,1,1.37.19c.32.33.56.75.88,1.06.67.66,1.38,1.28,2.08,1.91a1.42,1.42,0,0,1,.6,1.31,1.09,1.09,0,0,1-.67.86A1.06,1.06,0,0,1,193.56,16.79Zm1.72,2.29-.83-1.22L196,16.69l.8,1C196.17,18,195.54,18.26,195.28,19.08ZM198,24.54a2.85,2.85,0,0,1-.26-.61,14.36,14.36,0,0,0-1.5-3.21,4,4,0,0,1-.32-.58,1.23,1.23,0,0,1,1.25-1.68,6.32,6.32,0,0,1,.7.56,1.33,1.33,0,0,1,.24.54A15.29,15.29,0,0,0,199.7,23a2.21,2.21,0,0,1,.33.89,1.07,1.07,0,0,1-.8,1.17A1,1,0,0,1,198,24.54Zm.48,1.33,1.86-.63.28,1.17-1.79.67ZM177.75,62l-.55-1.74.92-.24.44,1.76Zm6.92-1.76a2.88,2.88,0,0,1-.62.16,13.76,13.76,0,0,0-3.4,1.08,6.29,6.29,0,0,1-.62.23,1.21,1.21,0,0,1-1.15-1,1,1,0,0,1,.66-1.17c.37-.16.76-.26,1.15-.39l2.64-.88a7.15,7.15,0,0,1,.74-.28,1.07,1.07,0,0,1,1.29.78A1.21,1.21,0,0,1,184.68,60.27Zm1.5-.95-.8-1.83,1-.59.83,1.81Zm6.29-4.05a12.87,12.87,0,0,0-1.1.7c-.76.61-1.49,1.25-2.23,1.88a1.14,1.14,0,0,1-1.44.18,1.23,1.23,0,0,1-.16-1.83,2,2,0,0,1,.46-.35,13.8,13.8,0,0,0,2.81-2.18,3,3,0,0,1,.62-.5,1.12,1.12,0,0,1,1.65,1.06A1.26,1.26,0,0,1,192.47,55.27Zm1.33-1.63-1.39-1.38.81-.94,1.4,1.42Zm4.72-6.26a2.25,2.25,0,0,1-.28.43,14.26,14.26,0,0,0-2,3.25,1.36,1.36,0,0,1-.86.84,2.42,2.42,0,0,1-.29.05,1.19,1.19,0,0,1-1-1.77c.12-.22.3-.39.43-.6q.91-1.43,1.81-2.87c.1-.17.16-.36.27-.53a1.06,1.06,0,0,1,1.49-.41A1.2,1.2,0,0,1,198.52,47.38Zm.59-1.78-1.79-.79.48-1.18,1.76.82Zm2.25-7a15,15,0,0,0-.86,3.78,1.73,1.73,0,0,1-.14.57,1.16,1.16,0,0,1-1.39.63,1.23,1.23,0,0,1-.69-1.43c0-.1.08-.32.15-.53a14.88,14.88,0,0,0,.81-3.56,3,3,0,0,1,.08-.52,1.14,1.14,0,0,1,1.28-.82,1.12,1.12,0,0,1,.9,1.17A2.31,2.31,0,0,1,201.36,38.59Zm-1.77-2.54.08-1.27,1.77.11a2.22,2.22,0,0,1,0,1.28Zm1.15-1.79a1.07,1.07,0,0,1-1.17-1c0-.42,0-.85,0-1.27-.11-.94-.25-1.87-.39-2.81,0-.17-.07-.34-.08-.52a1.21,1.21,0,0,1,1.08-1.4,1.26,1.26,0,0,1,1.16,1.34c0,1,.11,1.94.19,2.91,0,.39.17.78.24,1.17a3.51,3.51,0,0,1,0,.45A1.13,1.13,0,0,1,200.74,34.27Z"/><path class="cls-3" d="M34,80.58a3.37,3.37,0,0,1-1.42-.18,19.64,19.64,0,0,1-2-.41,4,4,0,0,1-2.61-4,3.6,3.6,0,0,1,.92-3.56A4,4,0,0,1,30,70.59v0c-.43-.09-.49,0-.83.5a5.27,5.27,0,0,0-.31.67,7.6,7.6,0,0,1-.45.93,5.2,5.2,0,0,0-.55,4.83A4.83,4.83,0,0,0,29,79.15a5.5,5.5,0,0,0,2.47,1.39,7.44,7.44,0,0,0,1.16.3,3.51,3.51,0,0,0,1.26.07.73.73,0,0,0,.36-.3l-.14,0Z"/><path class="cls-3" d="M5.87,30.63a1.23,1.23,0,0,1,1,.64A18.48,18.48,0,0,0,9.3,34.83a1.18,1.18,0,0,1-.66,2c-.58.1-.93-.25-1.22-.72-.49-.8-1-1.6-1.49-2.37-.29-.43-.66-.79-1-1.2a1.08,1.08,0,0,1-.09-1.26A1.23,1.23,0,0,1,5.87,30.63Zm0,.46a.73.73,0,0,0-.73.74.7.7,0,0,0,.64.74.67.67,0,0,0,.72-.64A.77.77,0,0,0,5.89,31.09Zm2.68,3.85a.67.67,0,0,0-.74.63.68.68,0,0,0,.54.82.72.72,0,0,0,.8-.67A.68.68,0,0,0,8.57,34.94Z"/><path class="cls-3" d="M83.2,77.77a1.24,1.24,0,0,1,1.14,1.1,1.21,1.21,0,0,1-.79,1.2,1.58,1.58,0,0,1-.56.09,15.33,15.33,0,0,0-3.82.4,1.71,1.71,0,0,1-.89-.05,1.15,1.15,0,0,1,.16-2.18,2.49,2.49,0,0,1,.77-.09,11.37,11.37,0,0,0,3.46-.37C82.87,77.82,83.06,77.8,83.2,77.77Zm-3.8,1.67a.67.67,0,0,0-.65-.72.73.73,0,0,0-.73.66.7.7,0,1,0,1.39.06ZM83.87,79a.67.67,0,1,0-1.34-.12.74.74,0,0,0,.65.82A.67.67,0,0,0,83.87,79Z"/><path class="cls-3" d="M29.55,42.84a1.17,1.17,0,0,1-1.25-1.2,1.23,1.23,0,0,1,1.27-1.15c.43,0,.85.07,1.28.06.81,0,1.61-.06,2.42-.1a6.38,6.38,0,0,1,.71,0,1.14,1.14,0,0,1,1.09,1.15A1.25,1.25,0,0,1,34,42.74a2.42,2.42,0,0,1-.43,0,13.06,13.06,0,0,0-3.62.08A2.07,2.07,0,0,1,29.55,42.84Zm.57-1.14a.74.74,0,0,0-.71-.77.77.77,0,0,0-.69.72.73.73,0,0,0,.71.76A.75.75,0,0,0,30.12,41.7Zm4.49-.12a.71.71,0,0,0-.64-.75.73.73,0,0,0,0,1.46A.68.68,0,0,0,34.62,41.58Z"/><path class="cls-3" d="M11.26,5.06a1.22,1.22,0,0,1,1,.74A1.28,1.28,0,0,1,12,7.18c-.28.26-.62.47-.9.74-.69.69-1.36,1.4-2,2.1a3.58,3.58,0,0,1-.46.46,1.12,1.12,0,0,1-1.49-.18,1.27,1.27,0,0,1,0-1.58,1.42,1.42,0,0,1,.26-.25,15,15,0,0,0,2.91-2.86A1.28,1.28,0,0,1,11.26,5.06ZM7.88,10.26a.71.71,0,0,0,.73-.67.69.69,0,1,0-1.37-.16A.72.72,0,0,0,7.88,10.26Zm4-3.93a.71.71,0,0,0-.68-.78.69.69,0,0,0-.72.66.75.75,0,0,0,.69.78A.68.68,0,0,0,11.92,6.33Z"/><path class="cls-3" d="M23.43,42.8c-.9.06-1.8.1-2.7.18a1.23,1.23,0,0,1-1.05-.32,1.09,1.09,0,0,1-.33-1.15,1.06,1.06,0,0,1,1-.86,3.6,3.6,0,0,1,.78,0,12.17,12.17,0,0,0,3.27,0,2.55,2.55,0,0,1,.78,0A1.17,1.17,0,0,1,26,41.93a1.08,1.08,0,0,1-1,1c-.52,0-1-.05-1.56-.08Zm1.45-.27a.72.72,0,1,0-.65-.76A.75.75,0,0,0,24.88,42.53Zm-4.41-1.46a.7.7,0,0,0-.71.68.68.68,0,0,0,.59.78.73.73,0,0,0,.76-.71A.71.71,0,0,0,20.47,41.07Z"/><path class="cls-3" d="M137.3,7.79a11,11,0,0,0,3.5,0,3.62,3.62,0,0,1,.78,0,1.12,1.12,0,0,1,1.08,1.16A1.23,1.23,0,0,1,141.57,10a2.66,2.66,0,0,1-.5,0,12.91,12.91,0,0,0-3.63.11,1.78,1.78,0,0,1-.43,0,1.23,1.23,0,0,1-1.11-1.09,1.14,1.14,0,0,1,.79-1.2A3.18,3.18,0,0,1,137.3,7.79Zm4.94,1.12a.7.7,0,0,0-.68-.78.71.71,0,0,0-.72.67.76.76,0,0,0,.68.8A.72.72,0,0,0,142.24,8.9Zm-5.18-.64a.68.68,0,0,0-.71.68.7.7,0,0,0,.7.77.68.68,0,0,0,.67-.72A.7.7,0,0,0,137.06,8.27Z"/><path class="cls-3" d="M32.53,65.88a1.19,1.19,0,0,1-.9-1.79,2.07,2.07,0,0,1,.48-.55,12.87,12.87,0,0,0,2.41-2.76,2.64,2.64,0,0,1,.37-.46,1.07,1.07,0,0,1,1.54,0,1.17,1.17,0,0,1,0,1.62c-.34.38-.76.69-1.1,1.08-.59.69-1.15,1.41-1.69,2.13A1.38,1.38,0,0,1,32.53,65.88Zm3-4a.66.66,0,0,0,.75-.62.69.69,0,0,0-.59-.79.71.71,0,0,0-.8.66A.7.7,0,0,0,35.57,61.9Zm-2.3,2.84a.69.69,0,0,0-.62-.76.7.7,0,0,0-.75.71.68.68,0,0,0,.66.72A.69.69,0,0,0,33.27,64.74Z"/><path class="cls-3" d="M27.12,72.45a1.21,1.21,0,0,1-1-1.81,3.12,3.12,0,0,1,.52-.62,14.32,14.32,0,0,0,2.08-2.66,2.74,2.74,0,0,1,.71-.81,1,1,0,0,1,1.25.13A1.1,1.1,0,0,1,30.89,68a2.61,2.61,0,0,1-.53.78,13.69,13.69,0,0,0-2.16,2.78,2.37,2.37,0,0,1-.51.62A2.46,2.46,0,0,1,27.12,72.45Zm2.79-5.6a.74.74,0,1,0,.67.8A.75.75,0,0,0,29.91,66.85Zm-2.2,4.44a.76.76,0,0,0-.69-.78.74.74,0,1,0,.69.78Z"/><path class="cls-3" d="M25.65,74.84a1.14,1.14,0,0,1,1,.73c.1.25.14.53.24.78.4,1,.8,2,1.21,2.94a5.53,5.53,0,0,1,.36.89,1.13,1.13,0,0,1-.65,1.28A1.1,1.1,0,0,1,26.43,81a1.6,1.6,0,0,1-.18-.4,16.73,16.73,0,0,0-1.58-3.91,1.17,1.17,0,0,1,.5-1.76A2.44,2.44,0,0,1,25.65,74.84Zm.65,1.24a.69.69,0,1,0-.72.66A.69.69,0,0,0,26.3,76.08Zm1,5a.71.71,0,0,0,.73-.67.68.68,0,0,0-.59-.79.71.71,0,0,0-.78.69A.73.73,0,0,0,27.31,81.11Z"/><path class="cls-3" d="M195,51.95a1.19,1.19,0,0,1-1-1.77c.12-.22.3-.39.43-.6q.91-1.43,1.81-2.87c.1-.17.16-.36.27-.53a1.06,1.06,0,0,1,1.49-.41,1.2,1.2,0,0,1,.44,1.61,2.25,2.25,0,0,1-.28.43,14.26,14.26,0,0,0-2,3.25,1.36,1.36,0,0,1-.86.84A2.41,2.41,0,0,1,195,51.95Zm0-.45a.74.74,0,0,0,.12-1.47A.74.74,0,0,0,195,51.5Zm3.23-4.63a.68.68,0,0,0-.6-.77.74.74,0,0,0-.8.67.75.75,0,0,0,.67.74A.67.67,0,0,0,198.23,46.87Z"/><path class="cls-3" d="M103.38,10.33a11.92,11.92,0,0,0-3.72-.08,1.18,1.18,0,0,1-1.28-1.66,1.07,1.07,0,0,1,1.09-.69c.4,0,.8.09,1.21.1.9,0,1.8,0,2.71,0A5.52,5.52,0,0,1,104,8,1.12,1.12,0,0,1,105,9.2a1.15,1.15,0,0,1-1.09,1.16A4.55,4.55,0,0,1,103.38,10.33Zm.51-.41a.68.68,0,0,0,.7-.68.69.69,0,1,0-1.36-.1A.7.7,0,0,0,103.89,9.91ZM98.74,9a.68.68,0,0,0,.57.8.67.67,0,0,0,.77-.68.75.75,0,0,0-.61-.78A.69.69,0,0,0,98.74,9Z"/><path class="cls-3" d="M44.3,6.24,43,6.16a1.12,1.12,0,0,1-1-1.27,1.2,1.2,0,0,1,1.19-1.07,1.44,1.44,0,0,1,.42.07,13.78,13.78,0,0,0,3.6.45c.14,0,.29,0,.43,0a1.18,1.18,0,1,1-.23,2.34c-.45-.05-.88-.19-1.33-.27s-1.17-.17-1.76-.25Zm4-.69a.75.75,0,0,0-.65-.76.71.71,0,0,0-.72.75.69.69,0,0,0,.67.72A.71.71,0,0,0,48.27,5.54ZM43.78,5a.67.67,0,1,0-1.34-.09.68.68,0,0,0,.66.79A.67.67,0,0,0,43.78,5Z"/><path class="cls-3" d="M46.81,82.12a1.2,1.2,0,0,1-1,1.11c-.28,0-.57,0-.85,0l-3,.17c-.21,0-.42.07-.64.08A1.18,1.18,0,0,1,40,82.33a1.26,1.26,0,0,1,1.11-1.25,1.65,1.65,0,0,1,.36,0,13.64,13.64,0,0,0,3.83-.17,1.16,1.16,0,0,1,1.45,1C46.79,82,46.8,82.07,46.81,82.12Zm-1.2.69a.73.73,0,0,0,.73-.66.71.71,0,0,0-.63-.82A.67.67,0,0,0,45,82,.76.76,0,0,0,45.61,82.81Zm-3.75-.46a.7.7,0,0,0-.63-.76.67.67,0,0,0-.76.61.7.7,0,1,0,1.39.14Z"/><path class="cls-3" d="M193.09,54.24a1.26,1.26,0,0,1-.62,1,12.88,12.88,0,0,0-1.1.7c-.76.61-1.49,1.25-2.23,1.88a1.14,1.14,0,0,1-1.44.18,1.23,1.23,0,0,1-.16-1.83,2,2,0,0,1,.46-.35,13.8,13.8,0,0,0,2.81-2.18,3,3,0,0,1,.62-.5A1.12,1.12,0,0,1,193.09,54.24Zm-4.78,3.54a.75.75,0,0,0,.72-.69.73.73,0,0,0-.67-.79.78.78,0,0,0-.72.69A.75.75,0,0,0,188.31,57.78Zm4.33-3.51a.72.72,0,0,0-.62-.77.73.73,0,0,0-.77.71.76.76,0,0,0,.67.74A.69.69,0,0,0,192.64,54.27Z"/><path class="cls-3" d="M119.71,8.32l2.55-.18c.14,0,.28,0,.43,0a1.16,1.16,0,0,1,1.15,1.17,1.13,1.13,0,0,1-1.15,1.18,22.5,22.5,0,0,0-4.41,0,1.07,1.07,0,0,1-1.17-1.19,1.17,1.17,0,0,1,1.24-1.15c.45,0,.9.05,1.35.08Zm3.69,1a.66.66,0,0,0-.57-.79.72.72,0,0,0-.16,1.44A.67.67,0,0,0,123.39,9.36Zm-5.14-.77a.72.72,0,1,0,.64.73A.68.68,0,0,0,118.26,8.6Z"/><path class="cls-3" d="M39.15,59.22A1.12,1.12,0,0,1,38,58.44a1.15,1.15,0,0,1,.34-1.29c.38-.34.82-.6,1.2-.95.57-.52,1.11-1.09,1.67-1.64a7.5,7.5,0,0,1,.57-.57,1,1,0,0,1,1.52.15,1.1,1.1,0,0,1-.06,1.6A26.92,26.92,0,0,0,39.7,59,1.38,1.38,0,0,1,39.15,59.22Zm.56-1.09a.76.76,0,0,0-.61-.8.73.73,0,1,0,.61.8Zm2-3.27a.67.67,0,1,0,1.34.16.69.69,0,0,0-.62-.83A.68.68,0,0,0,41.74,54.86Z"/><path class="cls-3" d="M106.84,77.08A1.2,1.2,0,0,1,105.66,76a1.17,1.17,0,0,1,.86-1.22,2.5,2.5,0,0,1,.7-.09,11,11,0,0,0,3.57-.57,1.14,1.14,0,0,1,1,.07,1.2,1.2,0,0,1,.6,1.18,1.11,1.11,0,0,1-.78,1,2,2,0,0,1-.63.11,11.91,11.91,0,0,0-3.37.51A7.38,7.38,0,0,1,106.84,77.08Zm.62-1.09a.77.77,0,0,0-.65-.83.8.8,0,0,0-.76.65.78.78,0,0,0,.66.82A.74.74,0,0,0,107.46,76Zm3.86-1.48a.68.68,0,0,0-.78.59.7.7,0,0,0,.64.81.68.68,0,0,0,.74-.64A.69.69,0,0,0,111.32,74.5Z"/><path class="cls-3" d="M94.21,10c-.92-.06-1.84-.13-2.77-.16-.52,0-1,.07-1.56,0a1,1,0,0,1-1-1.36,1.15,1.15,0,0,1,1.4-.94,12.11,12.11,0,0,0,3.54.19,3.43,3.43,0,0,1,.85,0,1.06,1.06,0,0,1,.87,1A1.17,1.17,0,0,1,94.9,10a3.84,3.84,0,0,1-.69.13Zm1-1a.71.71,0,0,0-.62-.78.77.77,0,0,0-.76.65A.7.7,0,1,0,95.19,9Zm-4.51-.21A.65.65,0,0,0,90,8a.69.69,0,0,0-.71.74.67.67,0,0,0,.7.68A.71.71,0,0,0,90.68,8.74Z"/><path class="cls-3" d="M88.1,79.59a1.18,1.18,0,0,1-.17-2.34c.37-.06.76,0,1.14-.08q1.38-.17,2.75-.37c.42-.06.83-.24,1.25,0a1.06,1.06,0,0,1,.59,1A1.1,1.1,0,0,1,93,78.9a1.59,1.59,0,0,1-.69.16,13.7,13.7,0,0,0-3.81.46C88.35,79.55,88.19,79.57,88.1,79.59Zm.67-1.12a.71.71,0,0,0-.58-.79.75.75,0,0,0-.8.66.74.74,0,0,0,.6.79A.69.69,0,0,0,88.76,78.47Zm4.47-.55a.67.67,0,0,0-.59-.77.72.72,0,0,0-.78.59.73.73,0,0,0,.64.82A.67.67,0,0,0,93.23,77.92Z"/><path class="cls-3" d="M53.82,7.26c-.47,0-1,0-1.42-.09a1.11,1.11,0,0,1-1.05-1.25,1.23,1.23,0,0,1,1.34-1.08,6.91,6.91,0,0,1,.91.2,10.16,10.16,0,0,0,3.12.23A1.19,1.19,0,0,1,57.94,6a1.08,1.08,0,0,1-.11,1.2,1.2,1.2,0,0,1-1.33.46c-.88-.19-1.78-.31-2.67-.46Zm3.06-.08a.68.68,0,0,0,.76-.63A.67.67,0,0,0,57,5.77a.7.7,0,0,0-.8.66A.68.68,0,0,0,56.88,7.18Zm-4.49-.42a.72.72,0,0,0,.76-.64A.7.7,0,1,0,51.76,6,.75.75,0,0,0,52.39,6.75Z"/><path class="cls-3" d="M156,9.31a1.19,1.19,0,0,1-1.24-1.2A1.21,1.21,0,0,1,155.91,7c.86,0,1.71,0,2.57,0,.54,0,1.08-.16,1.63-.23a1.1,1.1,0,0,1,1.22.58,1.21,1.21,0,0,1-.92,1.78,2.69,2.69,0,0,1-.57,0,11,11,0,0,0-3.34.2A4.38,4.38,0,0,1,156,9.31Zm.57-1.11a.69.69,0,0,0-.58-.79.74.74,0,0,0-.8.66.76.76,0,0,0,.68.81A.68.68,0,0,0,156.53,8.21Zm3.82.35a.67.67,0,0,0,.71-.68.7.7,0,1,0-1.4,0A.67.67,0,0,0,160.34,8.55Z"/><path class="cls-3" d="M197.15,18.46a6.32,6.32,0,0,1,.7.56,1.33,1.33,0,0,1,.24.54A15.29,15.29,0,0,0,199.7,23a2.21,2.21,0,0,1,.33.89,1.07,1.07,0,0,1-.8,1.17,1,1,0,0,1-1.24-.48,2.86,2.86,0,0,1-.26-.61,14.36,14.36,0,0,0-1.5-3.21,4,4,0,0,1-.32-.58A1.23,1.23,0,0,1,197.15,18.46Zm1.67,6.17a.76.76,0,0,0,.8-.69.69.69,0,0,0-.59-.79.76.76,0,0,0-.81.67A.78.78,0,0,0,198.82,24.63Zm-1.2-4.91A.71.71,0,0,0,197,19a.71.71,0,0,0-.11,1.42A.74.74,0,0,0,197.62,19.72Z"/><path class="cls-3" d="M5.28,27.38a1.32,1.32,0,0,1-1,1.23,1.15,1.15,0,0,1-1.21-.81,2.69,2.69,0,0,1-.1-.74,13.5,13.5,0,0,0-.41-3.25c-.05-.22-.11-.43-.15-.65-.14-.84.23-1.47.92-1.57s1.19.38,1.27,1.18c0,.44,0,.9.08,1.34.12.86.28,1.71.43,2.57C5.18,26.94,5.24,27.2,5.28,27.38ZM3.57,22a.77.77,0,0,0-.78.7.7.7,0,0,0,.61.77.76.76,0,0,0,.79-.69A.8.8,0,0,0,3.57,22Zm1.27,5.48a.75.75,0,0,0-.69-.78.71.71,0,0,0-.7.69.72.72,0,0,0,.61.78A.72.72,0,0,0,4.84,27.48Z"/><path class="cls-3" d="M65.91,8.37c-.87-.09-1.75-.21-2.62-.27a10.9,10.9,0,0,0-1.28,0,1.19,1.19,0,0,1-1.17-.69,1.07,1.07,0,0,1,.1-1.2,1.15,1.15,0,0,1,1.26-.49,11.66,11.66,0,0,0,3.75.33,2,2,0,0,1,.43,0,1.22,1.22,0,0,1,1.07,1.27,1.16,1.16,0,0,1-1.18,1.07l-.36,0ZM61.8,7.62a.71.71,0,1,0,0-1.42.67.67,0,0,0-.68.7A.67.67,0,0,0,61.8,7.62Zm4.49.4A.72.72,0,0,0,67,7.33a.71.71,0,0,0-.62-.77.72.72,0,0,0-.75.73A.7.7,0,0,0,66.29,8Z"/><path class="cls-3" d="M157.44,65a1.15,1.15,0,0,1,1.19,1,1.14,1.14,0,0,1-.68,1.26,5.61,5.61,0,0,1-.77.16l-3.13.71c-.23.05-.45.16-.69.2a1.15,1.15,0,0,1-1.31-.88,1.21,1.21,0,0,1,.78-1.41,1.83,1.83,0,0,1,.49-.1,12,12,0,0,0,3.55-.8C157.1,65.1,157.33,65,157.44,65Zm.76,1.3a.7.7,0,0,0-.54-.83.68.68,0,0,0-.79.58.71.71,0,0,0,.58.87A.66.66,0,0,0,158.2,66.31Zm-5.12,1.63a.73.73,0,0,0,.75-.63.7.7,0,1,0-1.4-.11A.72.72,0,0,0,153.08,67.93Z"/><path class="cls-3" d="M97.55,78.37a1.2,1.2,0,0,1-1.24-1.17A1.23,1.23,0,0,1,97.4,76c.43,0,.86,0,1.28,0,1-.15,1.92-.33,2.88-.52a1.13,1.13,0,0,1,1.42.87,1.19,1.19,0,0,1-1,1.45,2.31,2.31,0,0,1-.5,0,11.23,11.23,0,0,0-3,.38C98.1,78.28,97.75,78.33,97.55,78.37Zm0-1.89a.75.75,0,0,0-.78.71.76.76,0,0,0,.67.74.75.75,0,0,0,.73-.68A.73.73,0,0,0,97.52,76.49Zm5.09.16a.69.69,0,0,0-.64-.75.67.67,0,0,0-.75.62.69.69,0,0,0,.67.79A.71.71,0,0,0,102.6,76.65Z"/><path class="cls-3" d="M3.85,19.16a1.17,1.17,0,0,1-.94-1.64c.24-.65.55-1.28.78-1.93s.35-1.25.52-1.87a4.69,4.69,0,0,1,.19-.64,1.09,1.09,0,0,1,1.43-.64,1.17,1.17,0,0,1,.68,1.46,2,2,0,0,1-.13.35,16.24,16.24,0,0,0-1.28,3.81C4.92,18.84,4.45,19.21,3.85,19.16Zm1.66-6.38a.74.74,0,0,0-.76.71.75.75,0,0,0,.62.77.74.74,0,0,0,.76-.63A.78.78,0,0,0,5.51,12.78ZM4,17.27a.74.74,0,0,0-.09,1.47.74.74,0,0,0,.74-.65A.76.76,0,0,0,4,17.27Z"/><path class="cls-3" d="M201.81,33.1a1.13,1.13,0,0,1-1.07,1.16,1.07,1.07,0,0,1-1.17-1c0-.42,0-.85,0-1.27-.11-.94-.25-1.87-.39-2.81,0-.17-.07-.34-.08-.52a1.21,1.21,0,0,1,1.08-1.4,1.26,1.26,0,0,1,1.16,1.34c0,1,.11,1.94.19,2.91,0,.39.17.78.24,1.17A3.5,3.5,0,0,1,201.81,33.1Zm-.41.08a.76.76,0,0,0-.69-.8.75.75,0,0,0-.71.71.76.76,0,0,0,.66.75A.73.73,0,0,0,201.39,33.18Zm-.52-4.72a.72.72,0,0,0-.62-.77.73.73,0,0,0-.08,1.46A.72.72,0,0,0,200.88,28.46Z"/><path class="cls-3" d="M140.18,70.26a1.11,1.11,0,0,1-.76,1.07,2.42,2.42,0,0,1-.7.13,11.44,11.44,0,0,0-3.29.63,3.56,3.56,0,0,1-.62.17,1.12,1.12,0,0,1-1.24-1,1.15,1.15,0,0,1,.86-1.35c.37-.08.76-.05,1.13-.13.89-.18,1.77-.38,2.65-.58A6.75,6.75,0,0,1,139,69,1.1,1.1,0,0,1,140.18,70.26Zm-5.6,1.56a.74.74,0,0,0,.77-.62.76.76,0,0,0-.61-.85.74.74,0,0,0-.15,1.46Zm5.2-1.56a.75.75,0,0,0-.68-.79.72.72,0,0,0-.7.69.69.69,0,1,0,1.38.1Z"/><path class="cls-3" d="M112.62,10.44a9.9,9.9,0,0,0-3.38,0,2.44,2.44,0,0,1-.5,0,1.13,1.13,0,0,1-1.06-1.17,1.25,1.25,0,0,1,1.12-1.17,2.09,2.09,0,0,1,.64,0,10.64,10.64,0,0,0,3.12.08c.24,0,.47-.06.71-.05a1.17,1.17,0,0,1,1.17,1.23,1.21,1.21,0,0,1-1.22,1.11ZM114,9.35a.75.75,0,0,0-.6-.78.73.73,0,0,0-.8.66.77.77,0,0,0,.6.79A.75.75,0,0,0,114,9.35Zm-4.51-.08a.7.7,0,1,0-1.4,0,.7.7,0,1,0,1.4,0Z"/><path class="cls-3" d="M50.66,82.94a1.12,1.12,0,0,1-1.19-1.11,1.17,1.17,0,0,1,1-1.24c.21,0,.43,0,.64,0l3.19-.19a6.72,6.72,0,0,1,.85-.05,1.09,1.09,0,0,1,1,1,1.17,1.17,0,0,1-.77,1.27,1.43,1.43,0,0,1-.56.08,12.85,12.85,0,0,0-3.75.22A2.54,2.54,0,0,1,50.66,82.94Zm5.08-1.37a.68.68,0,1,0-.73.66A.7.7,0,0,0,55.74,81.57Zm-5.11-.52a.75.75,0,0,0-.76.72.74.74,0,0,0,.64.74.76.76,0,0,0,.75-.64A.72.72,0,0,0,50.63,81.05Z"/><path class="cls-3" d="M195.37,16.09a1.09,1.09,0,0,1-.67.86,1.06,1.06,0,0,1-1.14-.16,3.11,3.11,0,0,1-.39-.43,15.27,15.27,0,0,0-2.63-2.6,2,2,0,0,1-.62-.87,1.14,1.14,0,0,1,.51-1.28,1.08,1.08,0,0,1,1.37.19c.32.33.56.75.88,1.06.67.66,1.38,1.28,2.08,1.91A1.42,1.42,0,0,1,195.37,16.09Zm-1.16.52a.69.69,0,0,0,.74-.72.74.74,0,0,0-.65-.75.73.73,0,0,0-.09,1.47Zm-3.35-3.28a.64.64,0,0,0,.79-.54.69.69,0,0,0-.53-.88.73.73,0,0,0-.83.62A.69.69,0,0,0,190.86,13.32Z"/><path class="cls-3" d="M28.71,4.32C27.87,4.18,27,4,26.18,3.89c-.44-.06-.89-.05-1.34-.09a2.73,2.73,0,0,1-.76-.13,1.15,1.15,0,0,1-.7-1.44,1.15,1.15,0,0,1,1.35-.81c.84.16,1.67.35,2.51.5A10.3,10.3,0,0,0,28.39,2,5.06,5.06,0,0,1,29,2a1.21,1.21,0,0,1,1,1.34A1.1,1.1,0,0,1,28.71,4.32ZM25.15,2.59a.72.72,0,0,0-.66-.73.67.67,0,0,0-.73.64.67.67,0,0,0,.67.77A.73.73,0,0,0,25.15,2.59Zm3.8-.12a.71.71,0,0,0-.71.68.67.67,0,0,0,.66.78.68.68,0,0,0,.68-.7A.7.7,0,0,0,28.94,2.47Z"/><path class="cls-3" d="M116.2,75.58a1.21,1.21,0,0,1-1.25-1.19,1.28,1.28,0,0,1,1.19-1.18c1-.11,1.93-.22,2.89-.36.37-.05.73-.21,1.11-.28a1.21,1.21,0,0,1,1.09.19,1.19,1.19,0,0,1-.24,2,2.16,2.16,0,0,1-.76.14,13.86,13.86,0,0,0-3.44.59A4,4,0,0,1,116.2,75.58Zm4.25-1.17a.73.73,0,0,0,.17-1.45.73.73,0,0,0-.17,1.45Zm-4.29-.71a.69.69,0,0,0-.77.61.73.73,0,0,0,.64.83.71.71,0,0,0,.73-.66A.72.72,0,0,0,116.16,73.7Z"/><path class="cls-3" d="M19.41,1.49a1.17,1.17,0,0,1,1.23,1,1.19,1.19,0,0,1-.71,1.26,2.17,2.17,0,0,1-.49.12A14.05,14.05,0,0,0,15.81,5a1.51,1.51,0,0,1-.55.13A1.1,1.1,0,0,1,14.1,4.2a1.19,1.19,0,0,1,.75-1.37,3.47,3.47,0,0,1,.76-.18,11.26,11.26,0,0,0,3.09-.91A6.78,6.78,0,0,1,19.41,1.49ZM15.87,4a.67.67,0,0,0-.61-.76.7.7,0,0,0-.76.7.69.69,0,0,0,.61.76A.69.69,0,0,0,15.87,4Zm3.7-2a.76.76,0,0,0-.73.75.79.79,0,0,0,.67.74.75.75,0,0,0,.72-.76A.7.7,0,0,0,19.57,1.94Z"/><path class="cls-3" d="M81.08,7.13a15.45,15.45,0,0,0,3.83.21,1.09,1.09,0,0,1,1.28,1.15A1.12,1.12,0,0,1,85,9.68c-.5,0-1-.16-1.48-.19-.76,0-1.51,0-2.27-.06-.21,0-.43,0-.64,0a1.13,1.13,0,0,1-1.1-1.2,1.15,1.15,0,0,1,1.23-1.16Zm-.42.42A.72.72,0,0,0,80.55,9a.68.68,0,0,0,.75-.62A.7.7,0,0,0,80.66,7.55Zm5.13,1a.7.7,0,1,0-1.39,0,.73.73,0,0,0,.67.73A.76.76,0,0,0,85.79,8.54Z"/><path class="cls-3" d="M148.21,67.11a1.15,1.15,0,0,1,1.2.87,1.19,1.19,0,0,1-.58,1.33,1.38,1.38,0,0,1-.54.17,14.91,14.91,0,0,0-4,.84,1.29,1.29,0,0,1-.76,0,1.2,1.2,0,0,1,.07-2.23c.44-.1.9-.11,1.34-.2.86-.18,1.71-.4,2.57-.61Zm.79,1.24a.7.7,0,0,0-.63-.81.68.68,0,0,0-.73.65.7.7,0,0,0,.63.81A.68.68,0,0,0,149,68.35ZM143.9,70a.7.7,0,0,0,.69-.69.71.71,0,0,0-.67-.78.7.7,0,0,0-.7.69A.74.74,0,0,0,143.9,70Z"/><path class="cls-3" d="M36.19,81.33a1.14,1.14,0,0,1,1.18,1.17,1.16,1.16,0,0,1-1.15,1.18h-.28a15.3,15.3,0,0,0-4,.14,1.1,1.1,0,0,1-1.29-1.2,1,1,0,0,1,1.1-1.1c.57,0,1.14,0,1.71,0,.78,0,1.56-.12,2.34-.18Zm0,1.92a.75.75,0,0,0,.17-1.48.68.68,0,0,0-.76.62A.72.72,0,0,0,36.17,83.24Zm-4.46.1a.68.68,0,0,0,.75-.62.75.75,0,0,0-.61-.79.69.69,0,0,0-.79.67A.68.68,0,0,0,31.71,83.35Z"/><path class="cls-3" d="M75,80a1.16,1.16,0,0,1-1.08,1.1c-.47,0-1,0-1.42,0-.85.09-1.7.22-2.54.34a4.93,4.93,0,0,1-.49.08,1.17,1.17,0,0,1-1.16-1A1.15,1.15,0,0,1,69,79.26a1.8,1.8,0,0,1,.7-.09,12.85,12.85,0,0,0,3.61-.32,2.08,2.08,0,0,1,.77,0A1.16,1.16,0,0,1,75,80ZM70,80.45a.75.75,0,0,0-.64-.83.73.73,0,0,0-.75.65.71.71,0,0,0,.64.81A.68.68,0,0,0,70,80.45ZM74.51,80a.7.7,0,0,0-.58-.8.74.74,0,0,0-.76.72.67.67,0,1,0,1.34.08Z"/><path class="cls-3" d="M198.28,42.13c0-.1.08-.32.15-.53a14.88,14.88,0,0,0,.81-3.56,3,3,0,0,1,.08-.52,1.14,1.14,0,0,1,1.28-.82,1.12,1.12,0,0,1,.9,1.17,2.31,2.31,0,0,1-.15.73,15,15,0,0,0-.86,3.78,1.73,1.73,0,0,1-.14.57,1.16,1.16,0,0,1-1.39.63A1.23,1.23,0,0,1,198.28,42.13Zm1,1a.73.73,0,0,0,.74-.65.7.7,0,1,0-1.39-.17A.77.77,0,0,0,199.31,43.17Zm1.14-6.07a.74.74,0,0,0-.73.68.72.72,0,0,0,.62.78.74.74,0,0,0,.78-.71A.8.8,0,0,0,200.45,37.11Z"/><path class="cls-3" d="M17.1,40.87a1.14,1.14,0,0,1-1.51,1,2.81,2.81,0,0,1-.56-.32A13,13,0,0,0,11.92,40a2.19,2.19,0,0,1-.73-.43,1.1,1.1,0,0,1-.24-1.3,1,1,0,0,1,1.1-.65,1.7,1.7,0,0,1,.73.26,13.87,13.87,0,0,0,3.44,1.75A1.2,1.2,0,0,1,17.1,40.87ZM11.9,39.41a.65.65,0,0,0,.74-.61.68.68,0,1,0-1.36-.13A.66.66,0,0,0,11.9,39.41Zm4,2.1a.69.69,0,0,0,.75-.64.72.72,0,0,0-.65-.82.71.71,0,0,0-.71.68A.7.7,0,0,0,15.92,41.51Z"/><path class="cls-3" d="M44.44,50.87c.06-1,.13-2,.17-3,0-.45,0-.9,0-1.35,0-.82.47-1.34,1.15-1.33s1.15.59,1.08,1.45-.18,1.89-.26,2.83a8.13,8.13,0,0,0,0,.9c0,.2,0,.4,0,.6a1.22,1.22,0,0,1-1.2,1.31A1.11,1.11,0,0,1,44.44,50.87Zm1.72.24a.74.74,0,0,0-.75-.72.68.68,0,0,0-.65.73.71.71,0,0,0,.65.73A.75.75,0,0,0,46.15,51.11Zm-.49-4a.76.76,0,0,0,.73-.75.7.7,0,0,0-.66-.72.75.75,0,0,0-.73.66A.77.77,0,0,0,45.66,47.12Z"/><path class="cls-3" d="M167.85,64.08a1.22,1.22,0,0,1-.87,1.07c-.25.07-.52.07-.77.13-.93.22-1.85.44-2.77.67-.3.08-.58.23-.89.29a1.1,1.1,0,0,1-1.27-.82,1.17,1.17,0,0,1,.79-1.47,24.78,24.78,0,0,0,4.44-1.08A1.1,1.1,0,0,1,167.85,64.08Zm-.42-.07a.7.7,0,0,0-.64-.74.71.71,0,0,0-.76.7.77.77,0,0,0,.73.75A.7.7,0,0,0,167.43,64ZM163,65.14a.73.73,0,0,0-.65-.82.75.75,0,0,0-.71.71.72.72,0,0,0,.63.77A.69.69,0,0,0,163,65.14Z"/><path class="cls-3" d="M175.76,60.51l-.6.13c-.93.29-1.86.56-2.8.82-.34.09-.71.09-1.05.18a1.08,1.08,0,0,0-.87,1,1.14,1.14,0,0,0,1.36,1.34,1.5,1.5,0,0,0,.27-.09,14.3,14.3,0,0,1,3.79-1A1.3,1.3,0,0,0,177,61.55a2.77,2.77,0,0,0-.29-.63A1,1,0,0,0,175.76,60.51Zm-4.3,3a.7.7,0,0,1-.64-.82.69.69,0,0,1,.77-.61.74.74,0,0,1,.61.78A.69.69,0,0,1,171.46,63.5Zm4.37-1.11a.76.76,0,0,1-.65-.82.7.7,0,1,1,1.39.16A.73.73,0,0,1,175.83,62.39Z"/><path class="cls-3" d="M42.78,43.67a4.37,4.37,0,0,1-.61-.15,14,14,0,0,0-3.73-.89,1.2,1.2,0,0,1-1.11-1,1.18,1.18,0,0,1,1.23-1.38,1.47,1.47,0,0,1,.41.1,13.85,13.85,0,0,0,3.87.92,1.12,1.12,0,0,1,1,.87,1.09,1.09,0,0,1-.38,1.21A2.93,2.93,0,0,1,42.78,43.67Zm.74-1.14a.73.73,0,0,0-.62-.78.73.73,0,0,0-.18,1.46A.74.74,0,0,0,43.52,42.53Zm-5.12-.35a.77.77,0,0,0,.71-.79.69.69,0,0,0-.7-.69.71.71,0,0,0-.67.73A.76.76,0,0,0,38.4,42.18Z"/><path class="cls-3" d="M180,61.74a1.21,1.21,0,0,1-1.15-1,1,1,0,0,1,.66-1.17c.37-.16.76-.26,1.15-.39l2.64-.88a7.14,7.14,0,0,1,.74-.28,1.07,1.07,0,0,1,1.29.78,1.21,1.21,0,0,1-.67,1.47,2.88,2.88,0,0,1-.62.16,13.76,13.76,0,0,0-3.4,1.08A6.29,6.29,0,0,1,180,61.74Zm-.08-.48a.73.73,0,0,0,.71-.76.69.69,0,0,0-.68-.7.74.74,0,0,0-.72.67A.75.75,0,0,0,180,61.26Zm5-2.09a.65.65,0,0,0-.64-.73.72.72,0,0,0-.71.76.66.66,0,0,0,.68.69A.68.68,0,0,0,185,59.17Z"/><path class="cls-3" d="M146.56,9.8a1.18,1.18,0,0,1-.12-2.35c.33,0,.66.05,1,0,1,0,1.94-.11,2.91-.18a6.06,6.06,0,0,1,.64-.07A1.09,1.09,0,0,1,152,8.32a1.16,1.16,0,0,1-1,1.26,3,3,0,0,1-.71,0,11.19,11.19,0,0,0-3.19.16A5.71,5.71,0,0,1,146.56,9.8Zm.58-1.1a.73.73,0,0,0-.58-.79.74.74,0,1,0,.58.79Zm3.84-1a.71.71,0,0,0-.73.66.68.68,0,0,0,.66.78.68.68,0,0,0,.73-.65A.7.7,0,0,0,151,7.69Z"/><path class="cls-3" d="M37.84,5.55a10.29,10.29,0,0,0-1.1-.24c-.94-.12-1.89-.18-2.83-.3a1.83,1.83,0,0,1-.8-.24,1.14,1.14,0,0,1-.36-1.39,1.19,1.19,0,0,1,1.3-.69c.56.11,1.11.29,1.67.36s1.41.1,2.12.14l.36,0a1.19,1.19,0,0,1,1.13,1.34C39.26,5.24,38.75,5.62,37.84,5.55Zm.35-.4a.74.74,0,0,0,.74-.73.7.7,0,1,0-1.4,0A.66.66,0,0,0,38.19,5.15ZM34.47,3.92a.7.7,0,1,0-1.4-.14.74.74,0,0,0,.67.8A.72.72,0,0,0,34.47,3.92Z"/><path class="cls-3" d="M125.45,74a1.19,1.19,0,0,1-.31-2.33,4.2,4.2,0,0,1,.92-.11A10.82,10.82,0,0,0,129,71a3.22,3.22,0,0,1,.76-.17,1.1,1.1,0,0,1,1.15,1,1.17,1.17,0,0,1-.95,1.36c-.3.05-.62,0-.92.08-1,.18-2,.38-2.93.58Zm.63-1.16a.73.73,0,0,0-.65-.75.7.7,0,0,0-.74.73.69.69,0,1,0,1.39,0Zm3.79-1.59a.77.77,0,0,0-.74.74.69.69,0,1,0,1.39,0A.74.74,0,0,0,129.87,71.26Z"/><path class="cls-3" d="M60,82.3a1.13,1.13,0,0,1-1.19-1.19A1.18,1.18,0,0,1,60,80a16.32,16.32,0,0,0,4.24-.33,1.08,1.08,0,0,1,1.27,1.08A1.11,1.11,0,0,1,64.35,82a15.93,15.93,0,0,0-3.89.31A2.55,2.55,0,0,1,60,82.3Zm.62-1.1a.74.74,0,0,0-.6-.79.76.76,0,0,0-.79.68.68.68,0,0,0,.59.77A.73.73,0,0,0,60.66,81.2Zm4.48-.39a.7.7,0,0,0-.62-.76.73.73,0,0,0-.77.63.7.7,0,1,0,1.39.14Z"/><path class="cls-3" d="M71.56,6.57c.85.08,1.7.19,2.55.24.52,0,1,0,1.56,0A1.1,1.1,0,0,1,76.79,8a1.12,1.12,0,0,1-1.13,1.18c-.26,0-.52-.08-.77-.1l-3.26-.2a4.89,4.89,0,0,1-.57,0,1.16,1.16,0,0,1-1-1.28,1.12,1.12,0,0,1,1.17-1.06l.28,0Zm4.1,2.13A.68.68,0,0,0,76.38,8a.72.72,0,0,0-.64-.82.78.78,0,0,0-.74.67A.73.73,0,0,0,75.66,8.7ZM71.28,6.92a.72.72,0,0,0-.77.7.7.7,0,1,0,1.4.06A.69.69,0,0,0,71.28,6.92Z"/><path class="cls-3" d="M129.88,9.41l-.39.78c-.56.08-1.14.19-1.73.24a1.15,1.15,0,0,1-1.23-1.15,1.09,1.09,0,0,1,1.19-1.18A19.77,19.77,0,0,0,132,8a1.1,1.1,0,0,1,1.19,1.11,1.13,1.13,0,0,1-1.09,1.22c-.4,0-.81,0-1.21-.06C130.23,10.18,130.23,10.18,129.88,9.41Zm-1.54-.17a.76.76,0,0,0-.73-.74.72.72,0,0,0-.67.72.7.7,0,1,0,1.4,0Zm4.5-.08a.7.7,0,1,0-1.39-.09.76.76,0,0,0,.69.8A.74.74,0,0,0,132.83,9.16Z"/><path class="cls-3" d="M169.21,6.8a.86.86,0,0,1,0-.77l-.09,0c-.85.11-1.69.23-2.54.3-.42,0-.85,0-1.28,0a1.15,1.15,0,0,0-1.1.7,1.22,1.22,0,0,0,.19,1.26,1.13,1.13,0,0,0,1.3.35,17.18,17.18,0,0,1,3.47-.34,1.64,1.64,0,0,0,.44-.16C169,7.44,168.88,7.21,169.21,6.8Zm-4.06,1.43a.75.75,0,0,1-.61-.78.7.7,0,1,1,1.4.1A.76.76,0,0,1,165.15,8.23Z"/><path class="cls-3" d="M185.11,7.93a.73.73,0,0,1-.12.43c-.16.21-.32.42-.48.63a.76.76,0,0,1-.24.28.7.7,0,0,1-.77.2h0c.33.14.59.27.85.35s.36.11.47,0l.2-.13a.67.67,0,0,1,.31-1l.09,0a.66.66,0,0,1,.69.08,3.46,3.46,0,0,0,.22-.28Z"/><path class="cls-3" d="M105.56,10.12l0-1.94,1.62.1v1.94Z"/><path class="cls-3" d="M77.27,9l.11-1.82a2.69,2.69,0,0,1,1.64,0L78.9,9.13Z"/><path class="cls-3" d="M58.48,7.59l.2-1.89,1.57.09-.11,1.9Z"/><path class="cls-3" d="M86.36,77.61l.17,2-1.63.2-.16-2Z"/><path class="cls-3" d="M160.91,66.42l-1.59.36L159,64.85l1.57-.37Z"/><path class="cls-3" d="M77,78.68l.2,1.91-1.61.18-.22-2Z"/><path class="cls-3" d="M112.75,74l1.59-.27.27,2-1.6.26Z"/><path class="cls-3" d="M66.17,81.63,66,79.68l1.6-.16.18,2Z"/><path class="cls-3" d="M142.1,68.58l.4,1.92-1.58.34-.39-1.93Z"/><path class="cls-3" d="M126,10.2l-1.57.07-.06-2,1.62.1Z"/><path class="cls-3" d="M187.85,9.05a1,1,0,0,0-1.24,0l-.22.18a.65.65,0,0,1-.34.87l-.09,0a.66.66,0,0,1-.63,0l-.13.11c.53.32.92.59,1.35.79a1.88,1.88,0,0,0,.82.18,1,1,0,0,0,.94-.87A1.28,1.28,0,0,0,187.85,9.05Zm-.69,1.7a.71.71,0,0,1-.59-.86.68.68,0,0,1,.77-.6.74.74,0,0,1-.18,1.46Z"/><path class="cls-3" d="M115,8.31l1.61.1v1.78a2.88,2.88,0,0,1-1.59.07Z"/><path class="cls-3" d="M32,4.52l-1.62-.1.27-1.87a2.36,2.36,0,0,1,1.57.2Z"/><path class="cls-3" d="M168.54,64.57l-.43-1.93,1.56-.38.44,1.88Z"/><path class="cls-3" d="M123.6,72.23l.3,1.83-1.58.32L122,72.5A2.77,2.77,0,0,1,123.6,72.23Z"/><path class="cls-3" d="M154.29,9.19l-1.66.13-.07-2,1.64-.1c0,.37-.06.67-.05,1S154.23,8.8,154.29,9.19Z"/><path class="cls-3" d="M56.78,82.35l-.14-2,1.6-.08.16,2Z"/><path class="cls-3" d="M105.29,77.11l-1.62.22-.25-1.95,1.58-.23Z"/><path class="cls-3" d="M131.3,70.72l1.54-.27.39,1.92-1.62.28Z"/><path class="cls-3" d="M94.32,78.59l-.24-1.93,1.59-.22.25,2Z"/><path class="cls-3" d="M21.23,3.51l-.09-1.89h1.72l-.11,1.84A2.17,2.17,0,0,1,21.23,3.51Z"/><path class="cls-3" d="M28.4,82.05l.89-1.78L30.7,81l-.83,1.75Z"/><path class="cls-3" d="M48.94,82.82,47.35,83l-.06-2,1.58-.11Z"/><path class="cls-3" d="M133.8,10.09l0-1.86a3.92,3.92,0,0,1,1.61-.14l0,1.93Z"/><path class="cls-3" d="M144.79,7.72l0,2-1.55.09-.12-1.94Z"/><path class="cls-3" d="M41.56,3.85l-.2,1.93-1.61-.17L40,3.66Z"/><path class="cls-3" d="M96.15,9.88l0-1.85,1.66,0-.12,2Z"/><path class="cls-3" d="M50.93,4.89l-.21,2-1.6-.22.22-1.79C49.87,4.63,50.41,4.9,50.93,4.89Z"/><path class="cls-3" d="M151.7,68.52l-1.53.34-.42-1.9,1.58-.36Z"/><path class="cls-3" d="M37.93,83.36l0-1.9,1.53-.08.11,1.89A3.8,3.8,0,0,1,37.93,83.36Z"/><path class="cls-3" d="M86.67,9.58l.12-1.95,1.61.1-.11,1.84Z"/><path class="cls-3" d="M67.88,8.29,68,6.47l1.62.1L69.5,8.34A2.33,2.33,0,0,1,67.88,8.29Z"/><path class="cls-3" d="M163.73,8.62l-1.65.08-.16-1.92s0-.05.07-.05c1.15,0,1.35-.33,1.62,1.3C163.64,8.2,163.68,8.37,163.73,8.62Z"/><path class="cls-3" d="M27,74.74a6.55,6.55,0,0,0-.89-.44,5.4,5.4,0,0,0-.92-.12l.46-1.54,1.8.58Z"/><path class="cls-3" d="M5.53,11.52l.75-1.23a2.21,2.21,0,0,0,1.63,1.1l-.75,1.25Z"/><path class="cls-3" d="M19,40.44l-.44,2-1.21-.28.42-2Z"/><path class="cls-3" d="M12.21,4.54l1.06-.62,1,1.74-1.11.66Z"/><path class="cls-3" d="M9.15,37.54,10.37,36l1.06.88a6.9,6.9,0,0,0-.77.68,6.43,6.43,0,0,0-.52.87Z"/><path class="cls-3" d="M201.45,36.17l-1.86-.11.08-1.27,1.77.11A2.22,2.22,0,0,1,201.45,36.17Z"/><path class="cls-3" d="M194.61,52.72l-.82.91-1.39-1.38.81-.94Z"/><path class="cls-3" d="M189.16,10.15l1,.69-1.09,1.67-1-.69Z"/><path class="cls-3" d="M2.83,19.67l1.94.12-.21,1.3L2.69,21Z"/><path class="cls-3" d="M194.45,17.86,196,16.69l.8,1c-.63.29-1.27.52-1.52,1.34Z"/><path class="cls-3" d="M198.47,25.87l1.86-.63.28,1.17-1.79.67Z"/><path class="cls-3" d="M4.33,30.63l-.42-1.2,1.73-.79.46,1.17Z"/><path class="cls-3" d="M186.42,56.9l.83,1.81-1.07.61-.8-1.83Z"/><path class="cls-3" d="M197.32,44.81l.48-1.18,1.76.82-.45,1.15Z"/><path class="cls-3" d="M45.24,44.51l-1.16,1-.83-1.14,1.2-1Z"/><path class="cls-3" d="M42.93,53,43.76,52,45,53l-.9,1.12Z"/><path class="cls-3" d="M35.59,42.33l0-1.63,1.13-.08,0,1.67Z"/><path class="cls-3" d="M37.49,60.47l-.93-1.16-.1.22.78-.93-.08.21,1,1.13Z"/><path class="cls-3" d="M26.64,42.6l-.05-1.66,1.16,0v1.62Z"/><path class="cls-3" d="M178.12,60l.44,1.76-.81.22-.55-1.74Z"/><path class="cls-3" d="M30.81,65.33l1.12,1.2L31.7,67l-1.22-1.26Z"/><path class="cls-2" d="M181,5.9a.58.58,0,0,0,0-.12,2.65,2.65,0,0,1-.5,0A8.68,8.68,0,0,1,177.38,5l-.93-.19h0a.39.39,0,0,0,.37.51c.16,0,.4,0,.46.13.3.47.73.39,1.15.34a1.26,1.26,0,0,1,1.47.87,1.39,1.39,0,0,0,.26.33,1.22,1.22,0,0,0,.11-.55c0-.16.05-.32.09-.54.43.66,1,.82,1.5.44-.2-.08-.37-.14-.54-.22S181,6,181,5.9Z"/><path class="cls-2" d="M180.15,7.22c.27.8-.51,1-.46,1.55-.6.37-1.16.12-1.7.06a.71.71,0,0,1-.66-.56,3.59,3.59,0,0,1,.48-.05,2.06,2.06,0,0,1,.35.08c1,.21,1.12.16,1.7-.74A4.18,4.18,0,0,1,180.15,7.22Z"/><path class="cls-2" d="M181.26,9.16a1.67,1.67,0,0,1-1.35-.34A1,1,0,0,1,181.26,9.16Z"/><path class="cls-2" d="M176.19,4.83c0,.07,0,.18,0,.21a1.1,1.1,0,0,1-1.29-.29c.45-.22.87.05,1.3,0Z"/><path class="cls-2" d="M178.45,6.87c0-.22,0-.41.24-.42a.57.57,0,0,1,.6.4c.09.23,0,.38-.23.41l-.06,0-.51-.3Z"/><path class="cls-2" d="M179.06,7.26c0,.21,0,.42-.27.44a.53.53,0,0,1-.61-.4.3.3,0,0,1,.26-.43l0,.05c.05.31.2.45.51.3Z"/><path class="cls-2" d="M5.89,31.09a.77.77,0,0,1,.64.83.67.67,0,0,1-.72.64.7.7,0,0,1-.64-.74A.73.73,0,0,1,5.89,31.09Z"/><path class="cls-2" d="M8.57,34.94a.68.68,0,0,1,.6.78.72.72,0,0,1-.8.67.68.68,0,0,1-.54-.82A.67.67,0,0,1,8.57,34.94Z"/><path class="cls-2" d="M79.4,79.45A.7.7,0,1,1,78,79.39a.73.73,0,0,1,.73-.66A.67.67,0,0,1,79.4,79.45Z"/><path class="cls-2" d="M83.87,79a.67.67,0,0,1-.68.69.74.74,0,0,1-.65-.82.67.67,0,1,1,1.34.12Z"/><path class="cls-2" d="M30.12,41.7a.75.75,0,0,1-.69.71.73.73,0,0,1-.71-.76.77.77,0,0,1,.69-.72A.74.74,0,0,1,30.12,41.7Z"/><path class="cls-2" d="M34.62,41.58a.68.68,0,0,1-.69.7.73.73,0,0,1,0-1.46A.71.71,0,0,1,34.62,41.58Z"/><path class="cls-2" d="M7.88,10.26a.72.72,0,0,1-.64-.82.69.69,0,1,1,1.37.16A.71.71,0,0,1,7.88,10.26Z"/><path class="cls-2" d="M11.92,6.33a.68.68,0,0,1-.71.67.75.75,0,0,1-.69-.78.69.69,0,0,1,.72-.66A.71.71,0,0,1,11.92,6.33Z"/><path class="cls-2" d="M24.88,42.53a.75.75,0,0,1-.65-.76.7.7,0,1,1,.65.76Z"/><path class="cls-2" d="M20.47,41.07a.71.71,0,0,1,.64.75.73.73,0,0,1-.76.71.68.68,0,0,1-.59-.78A.7.7,0,0,1,20.47,41.07Z"/><path class="cls-2" d="M142.24,8.9a.72.72,0,0,1-.72.68.76.76,0,0,1-.68-.8.71.71,0,0,1,.72-.67A.7.7,0,0,1,142.24,8.9Z"/><path class="cls-2" d="M137.06,8.27a.7.7,0,0,1,.66.73.68.68,0,0,1-.67.72.7.7,0,0,1-.7-.77A.68.68,0,0,1,137.06,8.27Z"/><path class="cls-2" d="M35.57,61.9a.7.7,0,0,1-.64-.75.71.71,0,0,1,.8-.66.69.69,0,0,1,.59.79A.66.66,0,0,1,35.57,61.9Z"/><path class="cls-2" d="M33.27,64.74a.69.69,0,0,1-.71.67.68.68,0,0,1-.66-.72.7.7,0,0,1,.75-.71A.69.69,0,0,1,33.27,64.74Z"/><path class="cls-2" d="M29.91,66.85a.74.74,0,0,1-.06,1.47.74.74,0,0,1,.06-1.47Z"/><path class="cls-2" d="M27.71,71.29a.7.7,0,1,1-.69-.78A.76.76,0,0,1,27.71,71.29Z"/><path class="cls-2" d="M26.3,76.08a.69.69,0,0,1-.72.66.69.69,0,0,1-.64-.81.69.69,0,1,1,1.36.15Z"/><path class="cls-2" d="M27.31,81.11a.73.73,0,0,1-.64-.76.71.71,0,0,1,.78-.69.68.68,0,0,1,.59.79A.71.71,0,0,1,27.31,81.11Z"/><path class="cls-2" d="M195,51.5a.74.74,0,1,1,.77-.71A.76.76,0,0,1,195,51.5Z"/><path class="cls-2" d="M198.23,46.87a.67.67,0,0,1-.74.64.75.75,0,0,1-.67-.74.74.74,0,0,1,.8-.67A.68.68,0,0,1,198.23,46.87Z"/><path class="cls-2" d="M103.89,9.91a.7.7,0,0,1-.67-.78.69.69,0,1,1,1.36.1A.68.68,0,0,1,103.89,9.91Z"/><path class="cls-2" d="M98.74,9a.69.69,0,0,1,.73-.66.75.75,0,0,1,.61.78.67.67,0,0,1-.77.68A.68.68,0,0,1,98.74,9Z"/><path class="cls-2" d="M48.27,5.54a.71.71,0,0,1-.69.71.69.69,0,0,1-.67-.72.71.71,0,0,1,.72-.75A.75.75,0,0,1,48.27,5.54Z"/><path class="cls-2" d="M43.78,5a.67.67,0,0,1-.68.7.68.68,0,0,1-.66-.79A.67.67,0,1,1,43.78,5Z"/><path class="cls-2" d="M45.61,82.81A.76.76,0,0,1,45,82a.67.67,0,0,1,.73-.64.71.71,0,0,1,.63.82A.73.73,0,0,1,45.61,82.81Z"/><path class="cls-2" d="M41.86,82.35a.7.7,0,1,1-1.39-.14.67.67,0,0,1,.76-.61A.7.7,0,0,1,41.86,82.35Z"/><path class="cls-2" d="M188.31,57.78a.75.75,0,0,1-.68-.79.78.78,0,0,1,.72-.69.73.73,0,0,1,.67.79A.75.75,0,0,1,188.31,57.78Z"/><path class="cls-2" d="M192.64,54.27a.69.69,0,0,1-.72.67.76.76,0,0,1-.67-.74.73.73,0,0,1,.77-.71A.72.72,0,0,1,192.64,54.27Z"/><path class="cls-2" d="M123.39,9.36a.67.67,0,0,1-.73.64.72.72,0,0,1,.16-1.44A.66.66,0,0,1,123.39,9.36Z"/><path class="cls-2" d="M118.26,8.6a.68.68,0,0,1,.64.73.69.69,0,0,1-.68.7.72.72,0,0,1,0-1.44Z"/><path class="cls-2" d="M39.72,58.13a.7.7,0,1,1-.61-.8A.76.76,0,0,1,39.72,58.13Z"/><path class="cls-2" d="M41.74,54.86a.68.68,0,0,1,.72-.67.73.73,0,0,1-.13,1.46A.68.68,0,0,1,41.74,54.86Z"/><path class="cls-2" d="M107.46,76a.74.74,0,0,1-.74.65.78.78,0,0,1-.66-.82.8.8,0,0,1,.76-.65A.77.77,0,0,1,107.46,76Z"/><path class="cls-2" d="M111.32,74.5a.69.69,0,0,1,.61.77.68.68,0,0,1-.74.64.7.7,0,0,1-.64-.81A.68.68,0,0,1,111.32,74.5Z"/><path class="cls-2" d="M95.19,9a.7.7,0,1,1-1.38-.12.77.77,0,0,1,.76-.65A.71.71,0,0,1,95.19,9Z"/><path class="cls-2" d="M90.68,8.74a.71.71,0,0,1-.68.71.67.67,0,0,1-.7-.68A.69.69,0,0,1,90,8,.65.65,0,0,1,90.68,8.74Z"/><path class="cls-2" d="M88.76,78.47a.69.69,0,0,1-.79.66.74.74,0,0,1-.6-.79.75.75,0,0,1,.8-.66A.71.71,0,0,1,88.76,78.47Z"/><path class="cls-2" d="M93.23,77.92a.67.67,0,0,1-.73.64.73.73,0,0,1-.64-.82.72.72,0,0,1,.78-.59A.67.67,0,0,1,93.23,77.92Z"/><path class="cls-2" d="M56.88,7.18a.68.68,0,0,1-.64-.75.7.7,0,0,1,.8-.66.67.67,0,0,1,.59.78A.68.68,0,0,1,56.88,7.18Z"/><path class="cls-2" d="M52.39,6.75A.75.75,0,0,1,51.76,6a.7.7,0,1,1,1.39.13A.72.72,0,0,1,52.39,6.75Z"/><path class="cls-2" d="M156.53,8.21a.68.68,0,0,1-.71.68.76.76,0,0,1-.68-.81.74.74,0,0,1,.8-.66A.69.69,0,0,1,156.53,8.21Z"/><path class="cls-2" d="M160.34,8.55a.67.67,0,0,1-.69-.69.7.7,0,1,1,1.4,0A.67.67,0,0,1,160.34,8.55Z"/><path class="cls-2" d="M174.73,7.4a.67.67,0,0,1-.69-.69.7.7,0,1,1,1.4,0A.67.67,0,0,1,174.73,7.4Z"/><path class="cls-2" d="M198.82,24.63a.78.78,0,0,1-.61-.8.76.76,0,0,1,.81-.67.69.69,0,0,1,.59.79A.76.76,0,0,1,198.82,24.63Z"/><path class="cls-2" d="M197.62,19.72a.74.74,0,0,1-.74.66A.71.71,0,0,1,197,19,.71.71,0,0,1,197.62,19.72Z"/><path class="cls-2" d="M3.57,22a.8.8,0,0,1,.62.78.76.76,0,0,1-.79.69.7.7,0,0,1-.61-.77A.77.77,0,0,1,3.57,22Z"/><path class="cls-2" d="M4.84,27.48a.72.72,0,0,1-.78.69.72.72,0,0,1-.61-.78.71.71,0,0,1,.7-.69A.75.75,0,0,1,4.84,27.48Z"/><path class="cls-2" d="M61.8,7.62a.67.67,0,0,1-.66-.72.67.67,0,0,1,.68-.7.71.71,0,1,1,0,1.42Z"/><path class="cls-2" d="M66.29,8a.7.7,0,0,1-.66-.74.72.72,0,0,1,.75-.73.71.71,0,0,1,.62.77A.72.72,0,0,1,66.29,8Z"/><path class="cls-2" d="M158.2,66.31a.66.66,0,0,1-.75.62.71.71,0,0,1-.58-.87.68.68,0,0,1,.79-.58A.7.7,0,0,1,158.2,66.31Z"/><path class="cls-2" d="M153.08,67.93a.72.72,0,0,1-.64-.74.7.7,0,1,1,1.4.11A.73.73,0,0,1,153.08,67.93Z"/><path class="cls-2" d="M97.52,76.49a.73.73,0,0,1,.62.78.75.75,0,0,1-.73.68.76.76,0,0,1-.67-.74A.75.75,0,0,1,97.52,76.49Z"/><path class="cls-2" d="M102.6,76.65a.71.71,0,0,1-.73.67.69.69,0,0,1-.67-.79.67.67,0,0,1,.75-.62A.69.69,0,0,1,102.6,76.65Z"/><path class="cls-2" d="M5.51,12.78a.78.78,0,0,1,.62.85.74.74,0,0,1-.76.63.75.75,0,0,1-.62-.77A.74.74,0,0,1,5.51,12.78Z"/><path class="cls-2" d="M4,17.27a.76.76,0,0,1,.65.82.74.74,0,0,1-.74.65A.74.74,0,0,1,4,17.27Z"/><path class="cls-2" d="M201.39,33.18a.73.73,0,0,1-.74.67.76.76,0,0,1-.66-.75.75.75,0,0,1,.71-.71A.76.76,0,0,1,201.39,33.18Z"/><path class="cls-2" d="M200.88,28.46a.72.72,0,0,1-.71.69.73.73,0,0,1,.08-1.46A.72.72,0,0,1,200.88,28.46Z"/><path class="cls-2" d="M134.58,71.82a.74.74,0,0,1,.15-1.46.76.76,0,0,1,.61.85A.74.74,0,0,1,134.58,71.82Z"/><path class="cls-2" d="M139.78,70.26a.69.69,0,1,1-1.38-.1.72.72,0,0,1,.7-.69A.75.75,0,0,1,139.78,70.26Z"/><path class="cls-2" d="M114,9.35a.75.75,0,0,1-.8.67.77.77,0,0,1-.6-.79.73.73,0,0,1,.8-.66A.75.75,0,0,1,114,9.35Z"/><path class="cls-2" d="M109.51,9.27a.7.7,0,1,1-1.4,0,.7.7,0,1,1,1.4,0Z"/><path class="cls-2" d="M55.74,81.57a.69.69,0,1,1-.59-.79A.7.7,0,0,1,55.74,81.57Z"/><path class="cls-2" d="M50.63,81.05a.72.72,0,0,1,.64.81.76.76,0,0,1-.75.64.74.74,0,0,1-.64-.74A.75.75,0,0,1,50.63,81.05Z"/><path class="cls-2" d="M194.2,16.6a.73.73,0,0,1,.09-1.47.74.74,0,0,1,.65.75A.69.69,0,0,1,194.2,16.6Z"/><path class="cls-2" d="M190.86,13.32a.69.69,0,0,1-.57-.8.73.73,0,0,1,.83-.62.69.69,0,0,1,.53.88A.64.64,0,0,1,190.86,13.32Z"/><path class="cls-2" d="M25.15,2.59a.73.73,0,0,1-.71.68.67.67,0,0,1-.67-.77.67.67,0,0,1,.73-.64A.72.72,0,0,1,25.15,2.59Z"/><path class="cls-2" d="M28.94,2.47a.7.7,0,0,1,.63.75.68.68,0,0,1-.68.7.67.67,0,0,1-.66-.78A.71.71,0,0,1,28.94,2.47Z"/><path class="cls-2" d="M120.45,74.41a.73.73,0,0,1,.17-1.45.73.73,0,0,1-.17,1.45Z"/><path class="cls-2" d="M116.16,73.7a.72.72,0,0,1,.61.79.71.71,0,0,1-.73.66.73.73,0,0,1-.64-.83A.69.69,0,0,1,116.16,73.7Z"/><path class="cls-2" d="M15.87,4a.69.69,0,0,1-.75.7.69.69,0,0,1-.61-.76.7.7,0,0,1,.76-.7A.67.67,0,0,1,15.87,4Z"/><path class="cls-2" d="M19.57,1.94a.7.7,0,0,1,.66.73.75.75,0,0,1-.72.76.79.79,0,0,1-.67-.74A.76.76,0,0,1,19.57,1.94Z"/><path class="cls-2" d="M80.66,7.55a.7.7,0,0,1,.64.81.68.68,0,0,1-.75.62.72.72,0,0,1,.1-1.43Z"/><path class="cls-2" d="M85.79,8.54a.76.76,0,0,1-.72.7.73.73,0,0,1-.67-.73.7.7,0,1,1,1.39,0Z"/><path class="cls-2" d="M149,68.35a.68.68,0,0,1-.73.65.7.7,0,0,1-.63-.81.68.68,0,0,1,.73-.65A.7.7,0,0,1,149,68.35Z"/><path class="cls-2" d="M143.9,70a.74.74,0,0,1-.67-.79.7.7,0,0,1,.7-.69.71.71,0,0,1,.67.78A.7.7,0,0,1,143.9,70Z"/><path class="cls-2" d="M36.17,83.24a.72.72,0,0,1-.59-.86.68.68,0,0,1,.76-.62.75.75,0,0,1-.17,1.48Z"/><path class="cls-2" d="M31.71,83.35a.68.68,0,0,1-.64-.74.69.69,0,0,1,.79-.67.75.75,0,0,1,.61.79A.68.68,0,0,1,31.71,83.35Z"/><path class="cls-2" d="M70,80.45a.68.68,0,0,1-.74.63.71.71,0,0,1-.64-.81.73.73,0,0,1,.75-.65A.75.75,0,0,1,70,80.45Z"/><path class="cls-2" d="M74.51,80a.67.67,0,1,1-1.34-.08.74.74,0,0,1,.76-.72A.7.7,0,0,1,74.51,80Z"/><path class="cls-2" d="M199.31,43.17a.77.77,0,0,1-.65-.82.7.7,0,1,1,1.39.17A.73.73,0,0,1,199.31,43.17Z"/><path class="cls-2" d="M200.45,37.11a.8.8,0,0,1,.67.76.74.74,0,0,1-.78.71.72.72,0,0,1-.62-.78A.74.74,0,0,1,200.45,37.11Z"/><path class="cls-2" d="M11.9,39.41a.66.66,0,0,1-.62-.74.68.68,0,1,1,1.36.13A.65.65,0,0,1,11.9,39.41Z"/><path class="cls-2" d="M15.92,41.51a.7.7,0,0,1-.61-.77.71.71,0,0,1,.71-.68.72.72,0,0,1,.65.82A.69.69,0,0,1,15.92,41.51Z"/><path class="cls-2" d="M46.15,51.11a.75.75,0,0,1-.74.73.71.71,0,0,1-.65-.73.68.68,0,0,1,.65-.73A.74.74,0,0,1,46.15,51.11Z"/><path class="cls-2" d="M45.66,47.12a.77.77,0,0,1-.67-.81.75.75,0,0,1,.73-.66.7.7,0,0,1,.66.72A.76.76,0,0,1,45.66,47.12Z"/><path class="cls-2" d="M167.43,64a.7.7,0,0,1-.68.71A.77.77,0,0,1,166,64a.71.71,0,0,1,.76-.7A.7.7,0,0,1,167.43,64Z"/><path class="cls-2" d="M163,65.14a.69.69,0,0,1-.73.65.72.72,0,0,1-.63-.77.75.75,0,0,1,.71-.71A.73.73,0,0,1,163,65.14Z"/><path class="cls-2" d="M172.2,62.85a.69.69,0,0,1-.74.65.7.7,0,0,1-.64-.82.69.69,0,0,1,.77-.61A.74.74,0,0,1,172.2,62.85Z"/><path class="cls-2" d="M176.57,61.74a.73.73,0,0,1-.73.66.76.76,0,0,1-.65-.82.7.7,0,1,1,1.39.16Z"/><path class="cls-2" d="M43.52,42.53a.74.74,0,0,1-.8.68.73.73,0,0,1,.18-1.46A.73.73,0,0,1,43.52,42.53Z"/><path class="cls-2" d="M38.4,42.18a.76.76,0,0,1-.66-.75.71.71,0,0,1,.67-.73.69.69,0,0,1,.7.69A.77.77,0,0,1,38.4,42.18Z"/><path class="cls-2" d="M180,61.26a.75.75,0,0,1-.68-.79.74.74,0,0,1,.72-.67.69.69,0,0,1,.68.7A.73.73,0,0,1,180,61.26Z"/><path class="cls-2" d="M185,59.17a.68.68,0,0,1-.67.72.66.66,0,0,1-.68-.69.72.72,0,0,1,.71-.76A.65.65,0,0,1,185,59.17Z"/><path class="cls-2" d="M147.13,8.71a.69.69,0,0,1-.78.66.74.74,0,0,1,.2-1.46A.73.73,0,0,1,147.13,8.71Z"/><path class="cls-2" d="M151,7.69a.7.7,0,0,1,.66.79.68.68,0,0,1-.73.65.68.68,0,0,1-.66-.78A.71.71,0,0,1,151,7.69Z"/><path class="cls-2" d="M38.19,5.15a.66.66,0,0,1-.66-.71.7.7,0,1,1,1.4,0A.74.74,0,0,1,38.19,5.15Z"/><path class="cls-2" d="M34.47,3.92a.72.72,0,0,1-.73.66.74.74,0,0,1-.67-.8.7.7,0,1,1,1.4.14Z"/><path class="cls-2" d="M126.08,72.85a.69.69,0,1,1-1.39,0,.7.7,0,0,1,.74-.73A.73.73,0,0,1,126.08,72.85Z"/><path class="cls-2" d="M129.87,71.26a.74.74,0,0,1,.64.75.69.69,0,1,1-1.39,0A.77.77,0,0,1,129.87,71.26Z"/><path class="cls-2" d="M60.66,81.2a.73.73,0,0,1-.79.67.68.68,0,0,1-.59-.77.76.76,0,0,1,.79-.68A.74.74,0,0,1,60.66,81.2Z"/><path class="cls-2" d="M65.15,80.82a.7.7,0,1,1-1.39-.14.73.73,0,0,1,.77-.63A.7.7,0,0,1,65.15,80.82Z"/><path class="cls-2" d="M75.66,8.7A.73.73,0,0,1,75,7.89a.78.78,0,0,1,.74-.67.72.72,0,0,1,.64.82A.68.68,0,0,1,75.66,8.7Z"/><path class="cls-2" d="M71.28,6.92a.69.69,0,0,1,.62.76.7.7,0,1,1-1.4-.06A.72.72,0,0,1,71.28,6.92Z"/><path class="cls-2" d="M128.34,9.24a.7.7,0,1,1-1.4,0,.72.72,0,0,1,.67-.72A.76.76,0,0,1,128.34,9.24Z"/><path class="cls-2" d="M132.83,9.16a.74.74,0,0,1-.7.71.76.76,0,0,1-.69-.8.7.7,0,1,1,1.39.09Z"/><path class="cls-2" d="M165.94,7.56a.7.7,0,1,1-1.4-.1.7.7,0,1,1,1.4.1Z"/><path class="cls-2" d="M187.9,10.1a.69.69,0,0,1-.74.65.71.71,0,0,1-.59-.86.68.68,0,0,1,.77-.6A.69.69,0,0,1,187.9,10.1Z"/><path class="cls-3" d="M179,7.22c-.3.15-.45,0-.51-.3Z"/></g></g></svg>