<svg xmlns="http://www.w3.org/2000/svg" viewBox="0 0 757.87 390.96"><defs><style>.cls-1{fill:#1d1d1b;}</style></defs><title>Asset 2</title><g id="Layer_2" data-name="Layer 2"><g id="Layer_1-2" data-name="Layer 1"><path class="cls-1" d="M323.15,360.34a13.07,13.07,0,0,1-9.58-4.55c-4.44-4.92-3.56-12.65-.25-16.45A13.14,13.14,0,0,1,323.2,335a12.42,12.42,0,0,1,6.19,1.6c3.42,2,5.83,6.15,5.11,9.23-1.07,4.57-4.45,8.47-9,9.4a15,15,0,0,1-3,.32c-4.55,0-8.17-2.32-11.14-6.24,1.87,5.81,4.8,8.52,9,8.52h.3a17.85,17.85,0,0,0,12.23-4.93c.25,3.16-2,4.59-3.92,5.8a11,11,0,0,1-5.84,1.69m-16.82-32.18a5.88,5.88,0,0,1-1.85-.37q-9.27-3.18-18.47-6.57c-52.82-19.54-106-38-159.79-54.78-16.43-5.11-32.77-10.5-49.09-15.94a87.32,87.32,0,0,1-12.23-5.31,13.79,13.79,0,0,1-1.53-23.75,4.9,4.9,0,0,1,2-.83c12.26-1.92,24.57-3.56,36.79-5.75,29.61-5.31,59.19-10.84,88.76-16.35,15.08-2.81,30.09-6.07,45.22-8.59,18.23-3,36.54-5.53,54.82-8.25.36-.05.73-.07,1.32-.13a2.8,2.8,0,0,1,.61-.07c1.31,0,1.39,1.27,1.51,2.56q1.71,18.15,3.45,36.3,2.9,30.24,5.83,60.48c1.46,14.94,3,29.87,4.43,44.8.17,1.68-.41,2.56-1.77,2.56m28.39-9.53h-.15c-2,0-2.81-1-3-2.83-.76-7.42-1.57-14.83-2.32-22.25q-2.73-27.34-5.41-54.69c-.77-7.88-1.43-15.77-2.27-23.64-.09-.82-1-1.55-1.57-2.32-.3-.42-.82-.82-.86-1.27-.42-4.79-.77-9.58-1.13-14.38l.26,0c-.3-2.71-.71-5.41-.85-8.12,0-.9.64-1.81.89-2.75a8.77,8.77,0,0,0,.5-2.71c-.3-5.24-1-4.55,4.23-5.21,12.79-1.59,25.55-3.41,38.32-5.12,2.37-.32,4.75-.59,7.13-.84a10.85,10.85,0,0,1,1.13-.06c4.1,0,5.78,2.67,4.42,7.15-4.16,13.73-8.65,27.37-12.4,41.21-7.86,28.95-15.35,58-22.91,87a46.2,46.2,0,0,0-1.05,7.92c-.16,2-1,2.92-3,2.92M318.08,162.75c-.53-5.58-1.89-11.13-1.24-16.44A41.39,41.39,0,0,0,317,137c-.5-5.18,2.81-8.81,8.12-9.47,17.72-2.21,35.44-4.39,53.15-6.65a10.42,10.42,0,0,1,1.32-.09,10.76,10.76,0,0,1,6.63,2.5c-4.8,1.45-4.85,1.45-4.34,6.33s1.2,9.5,1.66,14.26c.51,5.33-3.15,10.66-8.32,11.49-11.44,1.84-22.92,3.43-34.41,5-6.38.86-12.81,1.43-19.21,2.11-1,.11-2,.14-3.53.24m2.22-59.15a7,7,0,0,1-6.56-6c-.13-1.37-.25-2.75-.41-4.12-.64-5.43,2.07-8.44,7.57-9.06,10.88-1.22,21.72-2.69,32.58-4.06l20.66-2.6q.59,0,1.14,0c4.72,0,6.78,1.92,7.28,6,.19,1.55.34,3.11.46,4.67.41,5.23-1.61,7.6-7.05,8.29l-21.36,2.67c-11.23,1.4-22.45,2.81-33.68,4.17a5.16,5.16,0,0,1-.62,0M403,93.33a7.31,7.31,0,0,1-7.3-6.24q-.26-2.47-.48-5c-.37-4.24,2-7.42,6.22-7.9,17.38-2,34.75-4.05,52.16-5.77,16.4-1.62,32.82-3.11,49.26-4.17,20-1.29,40.1-2.1,60.16-3,9.48-.44,19-.67,28.45-1q29.7-.85,59.4-1.67h.24a7.73,7.73,0,0,1,7.8,7c.3,2.28.55,4.57.87,6.85A6.25,6.25,0,0,1,654,79.34c-13,.34-26,.5-39,.93-37.75,1.27-75.53,1.91-113.22,4.18-32.8,2-65.48,5.8-98.21,8.85q-.33,0-.66,0M275.79,48.18h-.16a2.8,2.8,0,0,1-2.88-3.29c.11-1.85,1.6-3.27,4.2-3.27h.42c.42.59,1.63,1.58,1.86,2.76.33,1.74-1.74,3.8-3.43,3.8m106-2.44a40.53,40.53,0,0,1,.56-5c.17-.7,1-1.26,1.48-1.88a13,13,0,0,1,.8,2.11,12.94,12.94,0,0,1,0,2.33l5.37.84v.33l-8.25,1.25M385,30.34l-.11,0a7.34,7.34,0,0,1-3.63-3c-.3-.51,1.16-2.07,1.71-3l4.08,4.18c-.35.3-1.46,1.77-2.06,1.77M298.66,0l-.49,0L280,1.66c-2.18.19-3,1.26-2.73,3.5.6,5.58,1,11.19,1.5,16.78s1,11.16,1.46,17l-2.88.49c-7.54,1.28-7.25-1-6.26,8,.33,3,.45,3.78,2.19,3.78a22.91,22.91,0,0,0,2.3-.19,4.71,4.71,0,0,1,.53,0c1.94,0,2.65,1.37,2.81,3.1.64,7,1.11,14,1.74,20.92q2.84,31,5.75,61.9c.23,2.44.07,4.94.57,7.32.38,1.79,2,3.34,2.24,5.12.82,5.43,1.27,10.92,1.87,16.53-1.07.22-1.86.45-2.66.55-8.95,1.13-17.94,2-26.84,3.4-22.28,3.49-44.59,6.87-66.77,10.9-45,8.16-89.95,16.7-134.91,25.14-7,1.32-14,2.79-20.5,6a162.76,162.76,0,0,1-17.94,7.7c-4.83,1.69-10,2.51-15,3.54-2.6.53-3.52,2.45-3.75,4.53-.25,2.24,1.93,2.31,3.49,2.67,3.23.75,6.48,1.4,9.7,2.15,4,.93,8,1.91,11.94,2.87l-.15.67c-2.11-.4-4.22-.76-6.31-1.21a15.55,15.55,0,0,0-3-.42c-2.22,0-2.45,1.35-1.84,5.21,0,.12-.18.27-.37.53-4.16-.94-8.35-2-12.58-2.82a6.32,6.32,0,0,0-1.25-.14c-1.69,0-2.37,1-2.36,3.19,0,1.91.68,3.39,2.68,4,2.19.71,4.38,1.43,6.53,2.24,11.78,4.48,23.7,8.65,34.28,15.78a19.79,19.79,0,0,0,5.83,2.39c3.15.86,6.49,1.12,9.57,2.17,13.34,4.52,26.71,9,39.9,13.93,40.37,15.12,81.41,28.24,122.4,41.51,26,8.42,52.12,16.51,78.15,24.88a17.42,17.42,0,0,1,6.2,3.8c2.46,2.27,4.42,5.06,6.7,7.53a13.56,13.56,0,0,0,10.26,4.66,17.77,17.77,0,0,0,5.15-.81c5.85-1.78,9.28-6,10.47-12,.89-4.56,1.42-9.31,3.07-13.59,6.85-17.7,14.13-35.24,21.1-52.89,1.36-3.43,1.76-7.24,3.06-10.7,4.06-10.78,8.38-21.46,12.49-32.22.66-1.73.56-3.74,1.14-5.51,5.69-17.51,11.46-35,17.17-52.51,3.77-11.54,7.52-23.09,11.14-34.67.36-1.15-.12-2.63-.41-3.91s-1.12-2.71-1.32-4.11c-.68-4.83-1.23-9.69-1.74-14.54-.21-2-.44-3.9-3-3.9a6.43,6.43,0,0,0-.89.07c1.48-2.54,2.93-4.18,5.82-4.47,22.08-2.22,44.12-4.95,66.23-6.77,23-1.9,46.13-3.45,69.22-4.28,38.39-1.38,76.81-2.05,115.22-3.07h.22a7.78,7.78,0,0,1,4.92,1.89c2.69,2,3.38,4.6,3.7,7.49l3.53.38c.54,3.61,1.91,7.2,1.35,10.47a30,30,0,0,0,.71,12.49c5.07,20.45,9.82,41,15.58,61.26,6.43,22.63,13.78,45,20.79,67.46,9.91,31.76,20,63.45,29.69,95.28,1.84,6,3.26,12.42,2.09,19-.38,2.16.53,4.56.86,6.84l1,0a60.94,60.94,0,0,1,4.63-5.79,8,8,0,0,1,3.78-1.71l.17,0a2.7,2.7,0,0,1,1.8,1.1c.24.36-.2,1.35-.57,1.89-1.39,2.06-2.88,4-4.34,6.06-1.31,1.8-.16,2.89,1.3,3.34a3.67,3.67,0,0,0,1.09.15,5.48,5.48,0,0,0,2.32-.53c6.68-3.28,8.44-8,5.2-14.73a129.38,129.38,0,0,1-10.43-30.28c-4.05-20-8.32-40-12.4-59.94-4.23-20.72-8-41.54-12.58-62.16-5.84-26-12.28-51.88-18.65-77.76-2.25-9.16-3.71-18.65-9.07-26.8a4.06,4.06,0,0,1-.35-2.12c0-3.92.49-7.89,0-11.75-1.8-15-3.86-30-5.89-44.93-1.56-11.49-3.24-23-4.78-34.46-.2-1.52-.75-2.29-2.06-2.29a4.26,4.26,0,0,0-.6,0c-8,1.13-16,2.22-24,3.45a2.64,2.64,0,0,0-1.78,1.64c-.76,4.16-2.68,6-6.76,6.18-1,0-2,.1-3,.13-39,1.34-78.1,2.43-117.12,4.09-42.36,1.8-84.52,6-126.59,11.23a13.84,13.84,0,0,1-1.7.11c-4.56,0-7-2.66-7.2-7.84a6.84,6.84,0,0,0-.48-3c-1.11-2-1-3.48.52-5.35,2-2.51,1.95-6.67.31-8.2a11.08,11.08,0,0,0-7.62-3.1,11.67,11.67,0,0,0-6.62,2.13c-1.12.77-2.49,1.16-3.58,2s-1.9,2-3,2.81a12,12,0,0,1-3.39,2.15,3.58,3.58,0,0,1-1.17.16l-.66,0-.66,0a3.59,3.59,0,0,0-1.16.16c-4.51,1.54-8.93,3.33-13.42,4.92-2,.72-4.13,1.2-5.48,1.58-1.06-.09-1.8-.24-2.44-.24a2.93,2.93,0,0,0-.57.05c-.45.09-.78.78-1.16,1.2a10.48,10.48,0,0,0,2.08.86,6.69,6.69,0,0,0,1.24.11,9.3,9.3,0,0,0,1.23-.09c7-.94,13.71-2.49,20-6,2.55-1.45,5.68-2,8.61-2.63a3.58,3.58,0,0,1,.76-.08c1.5,0,2.52,1.08,3.24,2.69a9.73,9.73,0,0,1,.72,6.75c-.38,1.51.68,3.32.6,5-.21,4.73-2.77,7-8,7.63q-25.77,3.2-51.53,6.49a22.86,22.86,0,0,1-2.84.25,6.15,6.15,0,0,1-4.38-1.61,7,7,0,0,1-2.72-4.72c-.54-4.11-1.62-8.16-2.52-12.22-.33-1.49-.33-3.65-1.27-4.25-1.42-.9-1.46-1.88-1.58-3.12-1-10.54-2-21.08-3-31.63-.17-1.93-1-2.85-2.67-2.85"/></g></g></svg>