<svg xmlns="http://www.w3.org/2000/svg" xmlns:xlink="http://www.w3.org/1999/xlink" viewBox="0 0 483.37 315.74"><defs><style>.cls-1{fill:none;}.cls-2{clip-path:url(#clip-path);}.cls-3{fill:#1d1d1b;}</style><clipPath id="clip-path"><polyline class="cls-1" points="489.15 319.26 -2.88 319.26 -2.88 -3.48 489.15 -3.48 489.15 319.26"/></clipPath></defs><title>Asset 1</title><g id="Layer_2" data-name="Layer 2"><g id="Layer_1-2" data-name="Layer 1"><g class="cls-2"><path class="cls-3" d="M203.31,315.56c-12.2-3.13-14-5.49-14.7-8.2-1-4.12,1.11-8.18,4.32-11.29,1.29-1.25,2.77-3.14,4.23-3.21l1.25,0a18.57,18.57,0,0,1,7.59,1.42c5.69,2.61,7.84,7.42,5.74,13-1.29,3.41-7.67,7.81-8.43,8.33M3.84,289.74c-.93-1.12-1.79-1.79-2-2.62-.09-.35,1.21-1.52,1.68-1.52h.07a4.41,4.41,0,0,1,2.08,2c.13.22-.93,1.12-1.82,2.15m159.85-4.43c-6.17,0-12.25-.74-18.68-1.18L113.43,282c-15.14,0-30.59-2.1-45.7-3.13a429.54,429.54,0,0,1-44.45-5.61c-4.51-.78-6.63-7.05-5.63-10.94.74-2.88,2.53-5.36,4.29-7.76,6-8.24,12.25-16.35,18.1-24.71,6-8.57,10.93-18,17.21-26.32C67,189.15,78,175.65,89.06,162.31c10.36-12.43,21.6-24.12,32.52-36.08a43.13,43.13,0,0,1,5.44-4.79,7.82,7.82,0,0,1,4.75-1.85c2.63,0,4.88,1.81,6,5.18,7.3,22.61,14.46,45.26,21.7,67.89l3.11,9.58c5.48,17.48,11,35,16.4,52.46,1.38,4.46,3.51,8.82,4.26,13.5.69,4.32.18,9-2.32,12.59a9.36,9.36,0,0,1-1.41,1.62,6.37,6.37,0,0,1-1.15.82,10.56,10.56,0,0,1-3.08,1,58,58,0,0,1-11.55,1.07M210.39,268c-7.83,0-15.43-6.42-18.17-14.62-4.87-14.53-7.74-29.61-11.4-44.47-3.7-15-8.95-29.6-13.47-44.4q-7-23-14.15-45.94c-2.16-6.93.18-12.46,6.75-15.46,15.3-7,31.31-11.86,47.62-15.82A566.55,566.55,0,0,1,341.93,71.16l5.19,0q7.52.07,15,.4c7.13.3,12.68,4.67,13.75,11.7.73,4.74-1.36,9.06-4.66,12.63-5.41,5.86-10.9,11.64-16.2,17.59-35.56,39.82-70,80.83-106.46,119.82-9,9.66-17.91,19.46-26.82,29.23A15.18,15.18,0,0,1,210.39,268M115.66,0a57.22,57.22,0,0,0-13.39,4.35c.37.95.71,1.91,1,2.91,5,16.83,10.26,33.58,15.4,50.36,1.17,3.82,2.3,7.66,3.43,11.43-5.43,2.64-5.52,2.78-4,6.12l3.85-.81.12.48-1.29.57,1.57,3.89a3.46,3.46,0,0,1,2.22,1.93c1.13,3.77,1.89,7.66,3.11,11.39,2.66,8.1,1,15.09-5.26,20.79-10.56,9.61-19.91,20.3-29.08,31.22a1090.6,1090.6,0,0,0-89.28,123A18.83,18.83,0,0,0,1,277.19c-.19,5-.64,9.89-1,14.88a11.18,11.18,0,0,0,1.18.07,5.79,5.79,0,0,0,5.72-3.44c1.45-3.05,2.9-6.19,1.43-9.75a7.58,7.58,0,0,1-.49-3.16c0-.77.56-2.14.9-2.15h.12a4.18,4.18,0,0,1,2.67.9,4.86,4.86,0,0,1,1.11,2.68c.33,2,1.61,2.84,3.41,3.27,8.87,2.12,17.76,4.16,26.59,6.44,4.6,1.19,9.4,1.18,13.93,3.21,3,1.33,6.65.94,10,1.48,13.53,2.18,27.08,4.27,40.57,6.67,17.37,3.09,34.7,6.43,52,9.71,11.12,2.11,38.93,7.75,43.92,7.75a2.51,2.51,0,0,0,.61-.05c3.25-.22,13.14-11.67,15.54-14.16,29.11-30.2,56.48-62,84.61-93,16.68-18.44,33.49-36.75,50.06-55.28q11.29-12.62,22.51-25.31c2.88-3.25,6.84-6.77,11-8.3a9.83,9.83,0,0,1,3.39-.63,6.88,6.88,0,0,1,3.86,1.09c.11.07.21.16.31.24,1.49,1.14,3.43,1.24,4.94,2.78a20.86,20.86,0,0,1,3.79,5.69c3.74,8.12,5.5,16.92,8.41,25.36,3,8.76,6.6,17.32,10.44,25.76,7.72,17,16.47,33.45,24,50.51A370.17,370.17,0,0,0,470,275.53c.78,1.25,2.63,6.12,4.39,6.12h.09c1.65-.16.77-3.75,1-5.13.15-.77,1.37-1.34,2.11-2a7.4,7.4,0,0,1,1.11,2.07c.27,1.61.31,3.26.44,5,3.17-.76,4.56-2.71,4.09-5.57a21.58,21.58,0,0,0-1.27-4.38q-16.79-42.36-33.65-84.69c-7.14-17.89-14.54-35.66-20.15-54.13-2-6.7-5.42-13-8.18-19.48a8.21,8.21,0,0,1-.64-2c-1-7-1.88-14.1-3.11-21.09a26.65,26.65,0,0,0-2.67-6.65c-2.91-6-6-12-8.79-18.05a5.23,5.23,0,0,1,.35-3.95,4,4,0,0,0,0-4.24c-2.32-4-4.48-8.15-6.84-12.15A3.35,3.35,0,0,0,396,43.67h-.25a2.44,2.44,0,0,1-1.55-.44c-4.77,2.4-9.61,4.72-14.86,5.83h-.05a2.42,2.42,0,0,0-.61,1.66c.37,2.86-1.72,3.89-3.66,4.55a17.67,17.67,0,0,1-5.62.88h-.67q-10.55-.36-21.09-.37a527.42,527.42,0,0,0-68,4.25C237.39,65.51,196,74.48,156.11,89.95a11.92,11.92,0,0,1-4.3.86,8.79,8.79,0,0,1-5.67-2c-4.52-3.67-5.63-9-6.55-14.44a44.86,44.86,0,0,0-2.76-8.45c-.41-1.05-1.65-1.81-2-2.87q-7.27-23.49-14.37-47c-1.6-5.33-3.16-10.68-4.83-16"/></g></g></g></svg>