<svg xmlns="http://www.w3.org/2000/svg" viewBox="0 0 304.99 158.42"><defs><style>.cls-1{fill:#1d1d1b;}</style></defs><title>Asset 6</title><g id="Layer_2" data-name="Layer 2"><g id="Layer_1-2" data-name="Layer 1"><path class="cls-1" d="M244.62,99.6a5.75,5.75,0,0,0,5.74,5.71,5.65,5.65,0,0,0,5.84-5.73,5.76,5.76,0,0,0-5.77-5.85A5.89,5.89,0,0,0,244.62,99.6Z"/><path class="cls-1" d="M38.67,137.6c.74-.11,1-.65,1.09-1.31s.19-1.44.3-2.16a1.06,1.06,0,0,0-1.2-1.3c-3.88.27-6.67,3-7,7.28a7.69,7.69,0,0,0,3.8,6.64,1.35,1.35,0,0,0,2.12-1c.14-.66.22-1.32.38-2a1.51,1.51,0,0,0-.53-1.62C35.89,140.57,36.47,137.93,38.67,137.6Z"/><path class="cls-1" d="M30.67,139.28v-.17A1.18,1.18,0,0,0,29,138c-1,.29-1.58,1.2-1.58,2.67a4.86,4.86,0,0,0,2.54,4.24,1.44,1.44,0,0,0,1.29,0,1.42,1.42,0,0,0,.16-1.27A10.64,10.64,0,0,1,30.67,139.28Z"/><path class="cls-1" d="M39.46,138.17a2.11,2.11,0,0,0-2,2.1,2,2,0,1,0,3.91,0A2.1,2.1,0,0,0,39.46,138.17Z"/><path class="cls-1" d="M303,101.78a3.48,3.48,0,0,1,1.21-.29c.61-.05.78-.34.75-.93-.07-1.48,0-1.48-1.43-1.9l-.16,0a2.06,2.06,0,0,1-1.57-1.86A2.16,2.16,0,0,1,303.51,95l.94-.27c-.08-.52-.17-.93-.21-1.34,0-.61-.32-.84-1-.84a2.43,2.43,0,0,1-2.48-1.85c-.17-1.15.36-1.88,1.72-2.43.19-.08.43-.3.44-.47a1.1,1.1,0,0,0-1.26-1.29,2.34,2.34,0,0,1-2.5-1.69A2.39,2.39,0,0,1,300.34,82c.18-.12.5-.32.48-.4a7.56,7.56,0,0,0-.62-1.72c-.06-.12-.59,0-.9,0s-.62,0-.92,0a1.75,1.75,0,0,1-1.69-1.17,1.61,1.61,0,0,1,.58-1.88c.35-.3.75-.56,1.14-.85-.21-.45-.42-.85-.58-1.27s-.43-.67-1-.45a4.42,4.42,0,0,1-1.72.22,1.49,1.49,0,0,1-1.38-2,11.15,11.15,0,0,1,1-1.61c.12-.2.24-.53.15-.69a17.8,17.8,0,0,0-1.05-1.55c-1.27.67-2.57,1.1-3.58-.14s-.1-2.38,1-3.57a4.85,4.85,0,0,1-1-.66c-.46-.52-.85-.67-1.48-.22a4.57,4.57,0,0,1-1.41.43l-.12-.26.74-.86a2.64,2.64,0,0,1-.36-.1l-.32.38c-.24.28-.81.63-1,.54a2.05,2.05,0,0,1-.94-1.15,2.92,2.92,0,0,1,.44-1.46l.06-.1a2,2,0,0,1,0-1l-1.3-1.5c-1.12.95-2.25,1.75-3.64.74-.88-.63-.81-1.39.18-3.34a6.57,6.57,0,0,0-1.62-.95c-.26-.07-.67.49-1,.73a3.61,3.61,0,0,1-.89.46,1.59,1.59,0,0,1-2.2-1.69,2.32,2.32,0,0,1,.2-1c.36-.65.2-1-.48-1.27a2.85,2.85,0,0,1-.54-.27,2.55,2.55,0,0,1-1.17,0l-.09.1a2,2,0,0,1-1.86.9l1.1-1.32a2.09,2.09,0,0,1-.28-.2l-1,1.17a2.94,2.94,0,0,1-.77.48,3.12,3.12,0,0,1,0-.92q2.22-8.7,4.47-17.39a92.17,92.17,0,0,1,4.4-13.31l4.36,1.22a5,5,0,0,0,6.13-3.45l1.66-5.94A5,5,0,0,0,288,7.63L261.32.18a5,5,0,0,0-6.13,3.45l-1.66,5.94A5,5,0,0,0,257,15.71l5.36,1.5q-.17,1.3-.34,2.6c-.37,2.83-.56,5.69-1.14,8.48-1.1,5.22-2.42,10.4-3.66,15.6-.22.92-.49,1.82-.74,2.72-.94-.22-.94-.22-1.41.62a2.21,2.21,0,0,1-2.34,1.41A2.25,2.25,0,0,1,251,46.77c-.09-.42-.08-.92-.69-.83s-1.61-.37-2,.76-.92,2-2.12,2-1.72-.88-2.15-1.85a.93.93,0,0,0-.62-.52,19.57,19.57,0,0,0-2.07.15c-.09.58-.14,1.11-.27,1.61a2.2,2.2,0,0,1-1.8,1.67c-.68,0-1.3-.61-1.61-1.61,0-.16,0-.36-.14-.48s-.36-.41-.52-.39c-.68.07-1.35.23-2,.36v.71a.32.32,0,0,1,0,.44v.51l-.22,0c0-.13-.06-.26-.1-.39a.43.43,0,0,1-.38-.17l-.05-.07q.18.53.34,1.06a1.23,1.23,0,0,1-.3,1,1.71,1.71,0,0,1-2,.24,1.42,1.42,0,0,1-.89-1.52A6.64,6.64,0,0,1,233,45.43v-.17a.37.37,0,0,1,.33-.39,4.63,4.63,0,0,1,.09-1.9c.15-.57.09-1.15-.62-1.22a.86.86,0,0,1-.74-.44l-.36,0,.09.27c-.79.39-1.33.42-1.51-.46l0-.16a4.72,4.72,0,0,0-1.57-.15c-.5.11-1.33-.29-1.46.58s-.54.81-1.11.85c-.86.07-1.73.15-2.58.29a.88.88,0,0,1-1.09-.52c-.63-1.48-1.25-3-1.91-4.58A2.42,2.42,0,0,1,219.4,36a15.06,15.06,0,0,0-2.53-5.84c-.5-.64-1-1.27-1.47-1.92a6,6,0,0,1,.28.59q1.92,4.7,3.82,9.42a1.18,1.18,0,0,1-.81,1.81c-1.29.45-2.6.87-3.88,1.36-.61.23-.85,0-1-.55-.52-1.92-1.13-3.81-1.62-5.73a3.58,3.58,0,0,0-1.74-2.44,2.12,2.12,0,0,1-1-1.94,11.25,11.25,0,0,1,.52-1.56,2.63,2.63,0,0,0,0-2.4c-.4-.86-.66-1.78-1-2.66a.79.79,0,0,1,.3-1.08c1.46-1.13,1.46-1.14,2.56.32s2.11,2.76,3.15,4.15a8.1,8.1,0,0,1-1.12-2.72,9,9,0,0,1-.13-1c-.71.11-.92-.15-1.69-1.19-.5-.67-.92-1.52-2.06-.9l-.43-1.25-.37-.13.3.86a.87.87,0,0,1-.41,1.24,4.06,4.06,0,0,0-.83.9,4.38,4.38,0,0,1-.82.94c-1.63,1-1.69,1.07-1.24,2.92a11.1,11.1,0,0,0,.37,1.11,1.13,1.13,0,0,0,1.35.85c.43-.06.87-.09,1.38-.14a6.39,6.39,0,0,1-.22.81,2.82,2.82,0,0,0,.5,2.91,3.83,3.83,0,0,1,.61,1.32c0,.19.08.39.12.58,3.61,2.75,3.93,8.69,3.17,12.8l.15.52a1.61,1.61,0,0,1-.34,1.84c-2.5,2.37-5,4.79-7.45,7.18a7.61,7.61,0,0,1-1.14.73l0-.45a.48.48,0,0,1-.32-.18h0c.05.59-.18.88-.73.79a12.74,12.74,0,0,1-2.33-.55,3.15,3.15,0,0,0-2.82-.16,3,3,0,0,1-3.89-.22.88.88,0,0,0-.44-.24c-.6-.07-.71-.47-.77-1a2.54,2.54,0,0,0-.19.26l-.12.13c-.05.3-.26.47-.69.56a22.31,22.31,0,0,0-2.24.72c-.72-.26-1.42-.46-2.08-.75a3.08,3.08,0,0,0-3.26.11c-.62.43-1,.33-1.19-.21l-.32.05,0,.3a1.81,1.81,0,0,1-1.88-.41,2.32,2.32,0,0,0-2.81-.38,4.47,4.47,0,0,1-4.11-.17,2.84,2.84,0,0,0-3,.05,3,3,0,0,1-3.27-.35,2.49,2.49,0,0,0-2.77-.28,4.39,4.39,0,0,1-4.1-.18,2.81,2.81,0,0,0-3.09.13,3,3,0,0,1-3.27-.33,2.45,2.45,0,0,0-2.77-.3,4.36,4.36,0,0,1-4.1-.19,2.78,2.78,0,0,0-3.09.17,2.91,2.91,0,0,1-3.27-.31,2.5,2.5,0,0,0-2.84-.28,4.29,4.29,0,0,1-3.95-.16,2.88,2.88,0,0,0-3.17.07,3,3,0,0,1-3.34-.35,2.51,2.51,0,0,0-2.78-.26,4.31,4.31,0,0,1-4-.17,2.83,2.83,0,0,0-3.1.07,3.59,3.59,0,0,1-3.3-.32,2.38,2.38,0,0,0-2.75-.35,4.51,4.51,0,0,1-4.25-.2,2.7,2.7,0,0,0-3,.17,3.6,3.6,0,0,1-3.37-.3,2.39,2.39,0,0,0-2.75-.35,4.51,4.51,0,0,1-4.26-.2,2.67,2.67,0,0,0-3.07.23,3.47,3.47,0,0,1-3.13-.32,2.37,2.37,0,0,0-2.74-.39,4.54,4.54,0,0,1-4.33-.2,3.1,3.1,0,0,0-2.89.07,3,3,0,0,1-3.51-.34,2.4,2.4,0,0,0-2.77-.23,4.27,4.27,0,0,1-3.95-.17,2.88,2.88,0,0,0-3.17.08,3.23,3.23,0,0,1-3.43-.33A2.55,2.55,0,0,0,59,49.88,4.24,4.24,0,0,1,55,49.7a3.23,3.23,0,0,0-3.12,0,8,8,0,0,1-2.52.34l-.15-.28.14-.19A.44.44,0,0,1,49,49.5l-.17.21a2.64,2.64,0,0,0-3.26-.58A4.46,4.46,0,0,1,41,48.57l.25-.42h0a.37.37,0,0,1-.32-.16,1.87,1.87,0,0,1-1.49.62c-.18,0-.36.14-.55.19a3.73,3.73,0,0,1-3.37-.42,2.6,2.6,0,0,0-3.31-.32,4.34,4.34,0,0,1-4.09.32,3,3,0,0,0-3.06.5,4.53,4.53,0,0,1-3.54,1c-1.76-.36-2.45-.22-3.51,1.25a3.53,3.53,0,0,1-2.66,1.55c-.36,0-.72.09-1.08.15a2.54,2.54,0,0,0-2.25,2A4.67,4.67,0,0,1,8.86,58c-1.18.51-2,1.15-2,2.43a4.47,4.47,0,0,1-2,3.76,3.09,3.09,0,0,0-1.17,3.1,4.32,4.32,0,0,1-1,2.83c-1.13,1.38-1.42,2-.65,3.59a4.17,4.17,0,0,1,0,3.57,8.19,8.19,0,0,0-.42,1.27,2.16,2.16,0,0,0,.65,2.15A3.13,3.13,0,0,1,3.21,84,2.55,2.55,0,0,0,4,86.92,4.78,4.78,0,0,1,5.72,91a2.7,2.7,0,0,0,1.72,2.64,14,14,0,0,1,2.38,1.7.87.87,0,0,1,.36.54,2.31,2.31,0,0,0,1.73,2.24c-.4,1.3-.81,2.54-1.15,3.8s-.6,2.62-.94,3.91c-.16.6-.06,1.4-1,1.58-.08,0-.13.23-.16.36-.14.51-.3,1-.39,1.54a.75.75,0,0,0,.17.56c.41.46.33.8-.23,1-.2.07-.47.22-.53.4-.22.66-.36,1.34-.49,1.84.35.38.71.6.78.89.28,1.13.44,2.29.68,3.42.13.64-.23,1.52-.74,1.53-1,0-2,0-3,0,0-.85-.53-.94-1.23-.85s-1.18.05-1.75.17A2.19,2.19,0,0,0,0,120v2.36a4.68,4.68,0,0,0,3.74,1.35c.23,0,.63-.25.64-.41,0-.59.41-.6.81-.57,1.35.1,2.68.09,4,.26a29.83,29.83,0,0,0,5.86-.26.71.71,0,0,0,.46-.45,22.67,22.67,0,0,0,.58-2.61c.07-.5.27-.63.74-.68.71-.08,1.4-.29,2.1-.43a2.39,2.39,0,0,1,1.12-.12c.21.07.34.56.38.87.24,1.8.42,3.6.68,5.39a1.57,1.57,0,0,0,1.58,1.38c1,.08,2,.12,2.52-.91a25.4,25.4,0,0,0,1.17-2.86,2.15,2.15,0,0,1,2.36-1.17c1.89.7,3.77,1.44,5.67,2.11a1.29,1.29,0,0,1,1.06,1.3c0,.64.35.94,1,.89s1.11,0,1.67,0l.1.35a5.07,5.07,0,0,0-.48.33l-10.88,9.29c-3.44,2.95-3.06,2.29-3.08,6.58,0,.88.51,1.26,1.32.93.24-.1.41-.4.71-.72.18.65.35,1.19.49,1.74a4.62,4.62,0,0,0,2.14,3c2,1.25,4,2.65,5.91,4a5.06,5.06,0,0,0,4.54.71,5.81,5.81,0,0,1,4.15.15,4.05,4.05,0,0,0,3-.15,5,5,0,0,1,3.13,0,3.76,3.76,0,0,0,2.73.26,5.41,5.41,0,0,1,4.16.08,3.65,3.65,0,0,0,2.7,0,17.91,17.91,0,0,1,2.64-.61.74.74,0,0,1,.6.2,2.61,2.61,0,0,0,3.3.56,4.81,4.81,0,0,1,3.75-.06,3.64,3.64,0,0,0,3.36-.29,2.64,2.64,0,0,1,2.93-.15,2.7,2.7,0,0,0,2.89.46,5.46,5.46,0,0,1,4.31-.08,3.41,3.41,0,0,0,3-.31,3.26,3.26,0,0,1,3.36-.23,3,3,0,0,0,3,.38,5.12,5.12,0,0,1,4.07-.07,3.43,3.43,0,0,0,3.2-.34,2.28,2.28,0,0,1,2.6-.16,2.77,2.77,0,0,0,2.92.39,5.31,5.31,0,0,1,4.16-.06,3.34,3.34,0,0,0,3.12-.35,3.06,3.06,0,0,1,3-.2,3.1,3.1,0,0,0,2.88.26,5.18,5.18,0,0,1,4.08-.06,3.33,3.33,0,0,0,3.12-.32,2.83,2.83,0,0,1,3-.22,2.85,2.85,0,0,0,2.84.37,5.53,5.53,0,0,1,4.32-.07,3.49,3.49,0,0,0,3-.33,3.69,3.69,0,0,1,3.47-.22,2.82,2.82,0,0,0,2.51.14,5.6,5.6,0,0,1,4.33-.07,3.39,3.39,0,0,0,3-.33,3.6,3.6,0,0,1,3.31-.27,3.23,3.23,0,0,0,2.9.06c1.79-.83,3.42-.11,5.23.43l-.18.29.32.11c1.11-1.31,3.39-1.92,4.52-1.43a4.85,4.85,0,0,0,3.79-.09,3.79,3.79,0,0,1,3.18.32l-.22.39.26.16a.91.91,0,0,1,.86-.49,14.15,14.15,0,0,0,2.14-.44c.95-.16,2-.63,2.82-.31a4.34,4.34,0,0,0,3.62-.12,3.48,3.48,0,0,1,3.07,0l-.28.56.15,0,.14,0a.76.76,0,0,1,.92-.5,4.26,4.26,0,0,0,2.63-.58,3.84,3.84,0,0,1,2.69-.29,3.42,3.42,0,0,0,2.73.14,5.57,5.57,0,0,1,4.4-.25,3.18,3.18,0,0,0,2.87-.46,3.59,3.59,0,0,1,3.3-.41,4.41,4.41,0,0,0,3.08,0,6.37,6.37,0,0,1,2.54-.27,32.48,32.48,0,0,1,3.77,1c.89-.93,1.94-1.94,3.41-1s.72,2.19.25,3.46a10.11,10.11,0,0,0,2.19,1c.25.06.67-.72,1-1.09a1.47,1.47,0,0,1,1.67-.47,1.44,1.44,0,0,1,.86,1.51c0,.66-.16,1.31-.25,2.08l2.53,1a11.79,11.79,0,0,1,.83-1.33,1.71,1.71,0,0,1,1.92-.73,1.81,1.81,0,0,1,1.21,1.76c0,.42,0,.85,0,1.26,0,.21.17.51.34.57a3.45,3.45,0,0,0,1.54.29c.25,0,.4-.66.59-1l.08-.15a1.79,1.79,0,0,1,2.07-1.07,1.94,1.94,0,0,1,1.25,1.91c0,.49-.07,1-.12,1.56a7.78,7.78,0,0,0,2.17.23c.31-.05.49-.81.77-1.22a2.16,2.16,0,0,1,2.36-1.06,2.19,2.19,0,0,1,1.55,2.16c0,.24,0,.56.18.68a1.58,1.58,0,0,0,2.08-.7c.34-1.25,1.07-2,1.92-1.9s1.38.87,1.55,2.13c0,.23.15.63.25.64a8,8,0,0,0,2.17,0c.19,0,.28-.74.36-1.15a2.41,2.41,0,0,1,1.63-2,1.89,1.89,0,0,1,2.08.93c.23.38.34.83.56,1.22.1.18.32.44.47.43a5.08,5.08,0,0,0,2-.37c.25-.13.14-.92.19-1.41v-.17a2.34,2.34,0,0,1,1.93-2,2,2,0,0,1,1.93,1.47c.13.33.23.67.34,1,1.79-.33,1.79-.33,1.83-1.89a2.1,2.1,0,0,1,1.47-2.11,2,2,0,0,1,2.48,1.09c.49.86,1,.37,1.57.24s.32-.57.25-.94a2.5,2.5,0,0,1,1.42-2.92,2.34,2.34,0,0,1,2.92,1c.12.15.25.29.43.51a6.87,6.87,0,0,0,1.54-1.16c.17-.22-.17-.82-.25-1.25a2.26,2.26,0,0,1,1.83-2.9,2.85,2.85,0,0,1,2.28.86c.19.16.55.4.67.32a4.12,4.12,0,0,0,1.28-1.06c.13-.18-.2-.68-.32-1-.06-.16-.13-.31-.18-.47-.44-1.49.23-2.74,1.69-2.81a6.63,6.63,0,0,1,2.09.67c.23.08.57.22.7.12a18.54,18.54,0,0,0,1.43-1.28c-.73-1.18-1.62-2.34-.52-3.58s2.34-.34,3.5.25l1.27-1.56c-1.46-1.56-1.81-2.49-1.14-3.42,1.13-1.58,2.5-.84,3.91-.19a9.6,9.6,0,0,0,.9-2.08c.06-.29-.54-.71-.83-1.07a1.91,1.91,0,0,1-.29-2.06,1.83,1.83,0,0,1,1.71-1,9.47,9.47,0,0,1,1.24.14c.19,0,.5.07.54,0a8.3,8.3,0,0,0,.76-1.85c0-.17-.48-.5-.78-.71a2.22,2.22,0,0,1-1-2.32,2.14,2.14,0,0,1,1.93-1.63,7.92,7.92,0,0,1,1.56.23c.8-1.38.75-1.72-.4-2.62l-.26-.21a1.86,1.86,0,0,1-.64-2.31,2.27,2.27,0,0,1,2.5-1.11l.71.16a7.74,7.74,0,0,1,.16-.94c.27-.87.23-1.48-.82-1.88a2.26,2.26,0,0,1-1.54-2.36,2,2,0,0,1,2.42-1.47h.17c.19-.15.47-.27.54-.47a4.84,4.84,0,0,0,.18-1.07c.06-.43-.11-.6-.54-.76a5,5,0,0,1-1.78-1A1.57,1.57,0,0,1,303,101.78ZM209.15,28.37a4.25,4.25,0,0,1-1.08.17l-1-3.33,1.32-.75c.42,1.16.83,2.21,1.17,3.3C209.63,27.9,209.35,28.29,209.15,28.37ZM274,65.26c.12-.77.58-1,1.2-.56,2.27,1.61,4.5,3.29,6.87,5l0,0a2.28,2.28,0,0,1,1.12,1.37c.94,1.15,1.86,2.24,2.64,3.41,1.26,1.88,2.34,3.88,3.48,5.84a2.51,2.51,0,0,1,.31.94c.12,1-.3,1.4-1.31,1.15-.46-.12-.91-.27-1.38-.36A2,2,0,0,1,285,80.65c-.11-.42-.64-.74-1-1.07-.64-.57-1.32-1.09-1.93-1.68a1.07,1.07,0,0,1-.28-.82,2.44,2.44,0,0,0-1.26-2.61,2.21,2.21,0,0,1-1.66-1l0,.05a14.08,14.08,0,0,1-1.05-1.79c-.57-1.43-1.28-2.6-3.05-2.66a.88.88,0,0,1-.87-1C273.93,67.09,273.88,66.16,274,65.26ZM260.17,34.62a117.2,117.2,0,0,0,2.3-13.73c.14-1.17.29-2.34.46-3.51l15.76,4.4a105.75,105.75,0,0,0-4.75,14.61c-2.87,10.57-5.47,21.2-7.49,32-.81,4.32-1.49,8.66-2.19,13a2.78,2.78,0,0,0,.17,1.31,1.13,1.13,0,0,0,2.12.32c.5-.64,1-1.32,1.43-2,0,0,.1,0,.24-.1a19.87,19.87,0,0,1,4.37,4.76c.13.22-.09.79-.31,1.06-2.59,3.14-5.21,6.24-7.81,9.37A23,23,0,0,0,262,99.25a10.44,10.44,0,0,0-1.13,3.37,2.93,2.93,0,0,0,1.24,2.71,69.47,69.47,0,0,0,12.09,8c.69.37.78.71.41,1.35-.92,1.57-1.8,3.16-2.69,4.75-.36.64-.74.62-1.36.27-3.91-2.19-7.87-4.3-11.78-6.49a5.43,5.43,0,0,0-7.73,3.33c-1.33,4.72-2.8,9.4-4.15,14.11-.26.89-.67,1.11-1.54,1.07a16.94,16.94,0,0,1-6.09-1.48c-.57-.24-.71-.54-.54-1.16,1.21-4.52,2.38-9,3.56-13.57a4.74,4.74,0,0,0-2-5.56,5.73,5.73,0,0,0-4-1.08c-.2,0-.39.05-.59.06-4.79.12-9.58.21-14.37.36-.83,0-1.19-.25-1.22-1.06q-.09-2.93-.19-5.86c0-.55.27-.68.78-.72q7.16-.56,14.31-1.18c1-.08,2-.16,2.92-.33a4,4,0,0,0,3.33-4.53,14.34,14.34,0,0,0-.92-3.47c-1.87-4.53-3.82-9-5.77-13.54a.85.85,0,0,1,.34-1.25A18,18,0,0,1,240.54,75c.51-.14.67.16.91.51a18.81,18.81,0,0,0,2,2.65A2.68,2.68,0,0,0,248.18,77C252.39,62.92,256.77,48.91,260.17,34.62Zm8.28,27a6.93,6.93,0,0,1,1.41,3.44C267.47,64.49,267.75,64.57,268.45,61.65Zm-.05,17.18c-.75,1.31-1.57,2.57-2.4,3.83-.32.49-.75.36-1-.11a1.93,1.93,0,0,1-.2-1c.32-2.15.68-4.29,1-6.43l.24-.18c.71.65,1.46,1.26,2.1,2A1.66,1.66,0,0,1,268.4,78.84Zm-54.82.91a3.45,3.45,0,0,1,1.33,2.6A1.53,1.53,0,0,1,213,83.9a21,21,0,0,1-2.11-.71l-.89,1.9c.42.29.79.53,1.14.81,1.08.86,1.44,1.83,1.06,2.76a2.79,2.79,0,0,1-2.85,1.51c-.54-.07-1-.33-1.41.41-.2.4-.77.13-.9-.47a10.57,10.57,0,0,1,.31-5.79A27,27,0,0,1,213,74.67a7.55,7.55,0,0,1,4.48-2.43,23.92,23.92,0,0,1,6.19.15c-.55,1.7-2.19,1.61-4.65-.19l-1.58,1.67c.25.29.52.6.78.92.81,1,1,2.14.39,2.84a2.5,2.5,0,0,1-3.08.38c-.34-.18-.66-.41-1.05-.65a15,15,0,0,0-1.12,1.6A.9.9,0,0,0,213.58,79.75Zm-5.9,32.09,2.5-.23c-.06.4-.07.66-.13.91a19.25,19.25,0,0,1-2.78,5.89,2.82,2.82,0,0,1-.32.39c-.65.68-1.08.62-1.39-.28a46.32,46.32,0,0,1-2.38-10.26c-.07-.71-.13-1.43-.21-2.28l-.13-.09a.42.42,0,0,1,.19-.69,1.05,1.05,0,0,1-.13-.59c0-1.34,0-2.69.16-4s.34-2.61.59-3.91c.06-.34.32-.84.58-.91a1.26,1.26,0,0,1,1.09.35c1.27,1.66,2.49,3.37,3.68,5.1a.75.75,0,0,1-.23.69,4.87,4.87,0,0,1-1.52.39c-.58,0-.82.27-.76.83a3,3,0,0,1,0,.59c-.08.78.21,1.08,1,1.06a2.55,2.55,0,0,1,2.74,1.78l-.56-.08a.49.49,0,0,1,0,.34l.71.11c-.16,1.48-.45,1.72-3.22,2.83ZM201.1,75.1l2.08-2.68a1.65,1.65,0,0,1,.21,2A2,2,0,0,1,201.1,75.1Zm4.72-5.74,2-2.13A1.66,1.66,0,0,1,205.82,69.37Zm4.5,25.86-.36,0-2-2.93c1.18.22,2.23.61,2.64,1.78C210.68,94.39,210.41,94.84,210.32,95.23ZM217.17,99c.22-2,.62-3.91.92-5.87a.86.86,0,0,1,.24-.52l-.16-.05c-.5-.17-.29-1,.22-.8l.2.07a1.06,1.06,0,0,1,.08-.68,26.89,26.89,0,0,1,9.6-13.16c.12-.09.25-.17.42-.27a.41.41,0,0,1,.58-.22l.08.05a.88.88,0,0,1,.52-.67c1.78-1.08,2.87-.72,3.78,1.39,1.61,3.72,3.19,7.46,4.79,11.19.47,1.11,1,2.19,1.4,3.33a10.76,10.76,0,0,1,.74,3c.1,2.39-1,3.78-3.71,4-5.07.43-10.15.82-15.22,1.21a21.39,21.39,0,0,1-2.51.14C217.76,101.05,217,100.31,217.17,99Zm1.3,11.92a6.39,6.39,0,0,1,3.06-1c4.2,0,8.4-.21,12.6-.33,1.12,0,2.24-.05,3.36,0a5,5,0,0,1,4.34,3.55,3.07,3.07,0,0,1,0,1.48Q240,122,238,129.38a2,2,0,0,1-2.53,1.46,16.75,16.75,0,0,1-7.37-3.83c-4.78-4-7.78-9.26-10-15A.79.79,0,0,1,218.47,110.88Zm34.9-53.42L252.94,59c-1,.32-1.89.55-2.73.87a2.36,2.36,0,0,1-2.76-.49A8.51,8.51,0,0,1,253.36,57.46Zm-4.09,12.78.2.29-1.08,3.59a26.47,26.47,0,0,1-.87,2.79,3.29,3.29,0,0,1-1.12,1.39,1.27,1.27,0,0,1-2-.76l0,0a.44.44,0,0,1-.29.11l.09.27c-2.12-1.27-3.64-5-2-5.77l.11.31a.45.45,0,0,1,.41-.41c0-.17.12-.32.19-.34C245,71.16,247.16,70.71,249.28,70.24Zm-12.42-12a.83.83,0,0,1,.47.1h0a2.67,2.67,0,0,0,.63-.13c.06-.16.17-.33.27-.35,1.16-.28,2.33-.54,3.52-.72a1,1,0,0,1,1.2.79,1.44,1.44,0,0,1-2.09,1.46,16,16,0,0,0-2.14-.43.37.37,0,0,1-.35.2h-.82a.67.67,0,0,1-.16.37c-.58.57-2.4.27-3-.54C235.26,58.71,236,58.42,236.86,58.23Zm-2.14,4.58a14.89,14.89,0,0,1,.15,2.58,1.64,1.64,0,0,1-2.57,1.14,5.76,5.76,0,0,1-1.43-1.6c-.31-.47-.56-.56-1-.27-.12.08-.24.14-.37.2-1.13.6-1.13.6-.8,1.85a3.82,3.82,0,0,1,.13.57c.13,1.26,0,1.41-1.27,1.38-1,0-1.21.07-1.4-.24a2.69,2.69,0,0,1-.54.07l-.07.1a29.25,29.25,0,0,1-3.54-.74,1.07,1.07,0,0,1-.33-1.9,19.07,19.07,0,0,1,2-1.56,2.18,2.18,0,0,1,1.26-.8,1.21,1.21,0,0,1,.25-.14c1.85-.8,3.71-1.4,5.72-.52C232.32,63.54,233,63.52,234.72,62.8Zm-25.59-8.32c1.5-1.47,3.07-2.88,4.61-4.31a3.85,3.85,0,0,0,1.17-4.82c-.28-.76-.53-1.53-.82-2.29-.2-.51,0-.77.48-.94,1.15-.37,2.29-.75,3.42-1.17s2.19-.48,2.58-1.85l1.11,2.69c.54,1.29.84,1.45,2.24,1.25.72-.1,1.45-.16,2.17-.21s1.41-.18,1.72-1c.2-.55,1.69-.66,2-.16a1.4,1.4,0,0,0,1.76.74,2.1,2.1,0,0,1,.92,0,.58.58,0,0,1,.36.43c-.15,2-.7,3.78-2.49,4.89a16,16,0,0,1-2.52,1.16,67.39,67.39,0,0,0-16.31,8.94,68.93,68.93,0,0,0-15.88,17.79c-.47.73-.89,1.49-1.4,2.2a.82.82,0,0,1-.72.28c-.7-.26-1.36-.63-2.1-1,.24-.39.43-.7.62-1A125.32,125.32,0,0,1,209.13,54.49ZM41.53,53.06c-.33.63-.82.89-1.85.77a1.69,1.69,0,0,1-1.51-1Zm-6.8,51.57c3.65-.55,7.31-.78,10.9.35a12.59,12.59,0,0,1,5.83,4.25c-2.14-.74-3.86.05-5.41.65a8.92,8.92,0,0,0-.89-2,3.85,3.85,0,0,0-3-1.3c-1.45-.07-2.91-.06-4.37,0a1.18,1.18,0,0,0-1.14,1.79,21.47,21.47,0,0,0,1.1,2,5.51,5.51,0,0,1-4.22-3.45A1.56,1.56,0,0,1,34.73,104.63ZM26,104.16a4.69,4.69,0,0,1,4.3.46,2.7,2.7,0,0,0,3,0c-1.15,1.52-.33,2.71.73,4a6.21,6.21,0,0,1-.73-.18,67.51,67.51,0,0,0-11.52-4.07.8.8,0,0,1-.51-.53c-.06-.73,0-1.47,0-2.28.82.11,1.31.25,1.53.89C23.35,104.1,24.41,104.73,26,104.16Zm-6.3-13.69a3.8,3.8,0,1,1-4,3.74A3.9,3.9,0,0,1,19.71,90.46Zm5.33,34c-1.08,0-2,0-2.93,0a.8.8,0,0,1-.6-.45c-.18-1-.3-2-.38-3.07a1,1,0,0,1,.32-.71,3.71,3.71,0,0,1,4.25-.12c.19.14.45.39.42.56A10,10,0,0,1,25,124.42ZM37.52,117c-4.78-1.9-9.54-3.87-14.36-5.7a20.5,20.5,0,0,0-7.47-1.38c-.78,0-1.11-.31-1-1.06a19.51,19.51,0,0,1,.73-3.4,2.21,2.21,0,0,1,2.71-1.28,78.26,78.26,0,0,1,16,5.35c1.79.81,3.6,1.54,5.39,2.36.31.14.71.5.74.79a10.11,10.11,0,0,1-.58,5.14C38.91,117.52,38.21,117.27,37.52,117Zm4.77,20.94a1.79,1.79,0,0,0,.09,1,3.33,3.33,0,0,1-1.17,3.83,2.47,2.47,0,0,0-.68,1.18C40,145.94,39.46,148,39,150c-.17.75-.52.93-1.26,1a5.46,5.46,0,0,1-3.88-1.19c-1.76-1.34-3.66-2.49-5.46-3.79a3.44,3.44,0,0,1-1.08-1.32,9.1,9.1,0,0,1-.63-5.75,2,2,0,0,1,.56-1c4.39-4,8.78-8,13.23-12a3.51,3.51,0,0,1,1.87-.52c1.31-.14,2.63-.11,3.94-.27a11.13,11.13,0,0,0,4.84-1.81,4.22,4.22,0,0,1,.5-.25l.15.16a8.37,8.37,0,0,1-1,.92,10.07,10.07,0,0,1-1.67,1,7.92,7.92,0,0,0-4.2,4.91C44,132.72,43.14,135.33,42.29,137.94Zm168,5.16-.18.24-1-.31a2.56,2.56,0,0,0-2.78.65,3,3,0,0,1-3.12.18,2.41,2.41,0,0,0-2.91,0,4.29,4.29,0,0,1-4.08.32,3.06,3.06,0,0,0-3.2.57c-.54.41-1.56.26-2.36.22-.32,0-.63-.42-1-.69l.19-.44h-.35c-.07.16-.16.31-.25.32-1.53.19-2.73,1.54-4.37,1.26a19.35,19.35,0,0,1-2-.52,2.44,2.44,0,0,0-2.54.67,2.73,2.73,0,0,1-2.43.22c-.36-.24-.54-.48-.5-.83a3.13,3.13,0,0,1-.42-.15,1.27,1.27,0,0,1-1.11.31,2.48,2.48,0,0,0-1.34.41,3.81,3.81,0,0,1-3.47.16c-1.34-.56-2.55-.68-3.71.48-.31.31-1,.24-1.79.39l.41-.78-.31-.11-.09.17a7.35,7.35,0,0,1-.47.67c-1.3-1.35-2.63-1-4-.31a3.45,3.45,0,0,1-2.94,0,3.37,3.37,0,0,0-3.82.4,2.94,2.94,0,0,1-2.65,0,3.08,3.08,0,0,0-3.16-.19,4.41,4.41,0,0,1-4,.13,2.77,2.77,0,0,0-3.26.47,3,3,0,0,1-3.06,0,2.36,2.36,0,0,0-2.76-.25,4.9,4.9,0,0,1-4.51.13,2.63,2.63,0,0,0-2.77.39,2.87,2.87,0,0,1-3.13-.07,2.44,2.44,0,0,0-2.85-.12,4.34,4.34,0,0,1-4.1.15,2.81,2.81,0,0,0-3.14.41,2.83,2.83,0,0,1-3.06-.09,2.46,2.46,0,0,0-2.92-.11,4.24,4.24,0,0,1-4,.13,2.86,2.86,0,0,0-3,.28,2.64,2.64,0,0,1-2.89-.11,2.41,2.41,0,0,0-2.84-.13,4.47,4.47,0,0,1-4.18.13,3.59,3.59,0,0,0-2.82.18c-1.22.48-2.57,1-3.86-.08a2.26,2.26,0,0,0-2.62,0,4.56,4.56,0,0,1-4.26.13,3.45,3.45,0,0,0-2.75.17c-1.16.47-2.4.9-3.61-.14a2.21,2.21,0,0,0-2.62,0,4.39,4.39,0,0,1-4.18.14,3.42,3.42,0,0,0-2.68.08c-1.16.44-2.38.78-3.54-.24a2.34,2.34,0,0,0-2.71-.11,4.32,4.32,0,0,1-4.1,0,3.16,3.16,0,0,0-3,.19,6.11,6.11,0,0,1-2.43.35c-.08,0-.34-.62-.25-.71A2.17,2.17,0,0,0,47,145.6c-.23-1.55,1-2.44,3-2.18.12-.66.27-1.33.33-2,0-.16-.24-.41-.43-.53-1.52-1-1.75-2.34-.49-3.64.68-.7.11-1.26-.08-1.82-.08-.23-.58-.44-.9-.45-1.35-.08-1.8-.5-1.79-1.86a2.35,2.35,0,0,1,0-.67,1,1,0,0,0-.7-1.35c-.55-.2-.59-.52-.36-1,.75-1.7,1.64-3.28,3.45-4.05a2.58,2.58,0,0,1,1.18-.2,6.3,6.3,0,0,1,1.72.37,1.71,1.71,0,0,0,2.33-.76,18.81,18.81,0,0,1,1.34-1.62,1.74,1.74,0,0,0-.06-2.55,1.25,1.25,0,0,1-.27-1.7c1.26-2.95,1.3-5.82-1.09-8.33-1.29-1.36-2.53-2.78-3.89-4.07a24,24,0,0,0-2.71-2c-.16-.11-.39-.17-.49-.32A2.9,2.9,0,0,0,44,103.64a5,5,0,0,1-3.54-1,3.2,3.2,0,0,0-3.31-.58c-.32.13-.79-.09-1.19-.15a3.73,3.73,0,0,1,.28-1.23,2,2,0,0,1,3.28-.19c.6.9,1.12.77,1.83.32.19-.12.38-.22.63-.36-.41-1.31-.56-2.58.91-3.35.94-.48,1.67-.21,2.88,1l1.48-1.2c-.8-1.11-1.22-2.25-.12-3.29s2.17-.5,3.25.27l1.22-1.51A2.56,2.56,0,0,1,50.51,90a2,2,0,0,1,2.56-1.82c.87.32,1.23.06,1.48-.71.08-.26.2-.51.3-.74l-1.29-1.16.11-.28c.87.07,1.74.12,2.6.22h.1l.09-.26-1.59-.19h-.56A.38.38,0,0,1,54,85H54c-.69-.08-.83-.43-.69-1a2.06,2.06,0,0,1,2.12-1.67h1c.08-.37.16-.71.23-1.07.1-.55,0-.9-.67-1.05a1.88,1.88,0,0,1-1.42-2l1,.08-.15-.37-1-.1c.25-1.06.8-1.67,1.62-1.76s1-.61.86-1.32c-.05-.3-.11-.6-.18-1-.28,0-.55,0-.82-.06a2.2,2.2,0,0,1-1.93-1.83,2,2,0,0,1,1.14-2.3,1.51,1.51,0,0,0,.23-2.27c-.11-.1-.36-.07-.54,0A2.28,2.28,0,0,1,52.18,66,2.12,2.12,0,0,1,53,63.33c.39-.3.51-.53.18-.95s-.53-.78-.82-1.22c-1.31.61-2.6.84-3.51-.55-.69-1-.31-2,.56-3L47.68,56a2.77,2.77,0,0,1-.65.48,4.16,4.16,0,0,1-1.65.42,1.4,1.4,0,0,1-.91-.3.41.41,0,0,1-.37-.29c0-.1-.06-.21-.09-.31a1.39,1.39,0,0,1-.43-1.7c.38-.8.43-1.4-.53-1.83l2.52.85.17,0a.41.41,0,0,1,.1.81l.06.08a3.18,3.18,0,0,1,1.52-.82,10.13,10.13,0,0,1,3.26-.49,2.17,2.17,0,0,1,1.06.39,2.39,2.39,0,0,0,2.28.5,6,6,0,0,1,4.8.27A3.11,3.11,0,0,0,61.57,54a3.66,3.66,0,0,1,3.75.17,2.39,2.39,0,0,0,2.24.34,5.6,5.6,0,0,1,4.55.27,3.31,3.31,0,0,0,2.9-.11,3.3,3.3,0,0,1,3.63.25,2.55,2.55,0,0,0,2.49.29,5.42,5.42,0,0,1,4.15.27,3.6,3.6,0,0,0,3.07-.06,3.54,3.54,0,0,1,3.59.2,2.7,2.7,0,0,0,2.5.23,5.17,5.17,0,0,1,4,.26,3.7,3.7,0,0,0,3.22,0,3.65,3.65,0,0,1,3.6.21,2.73,2.73,0,0,0,2.5.28,5.33,5.33,0,0,1,4.15.26,3.69,3.69,0,0,0,3.14-.08,3.3,3.3,0,0,1,3.48.26,2.56,2.56,0,0,0,2.56.29,5.11,5.11,0,0,1,4,.24,3.65,3.65,0,0,0,3.22-.06,3.59,3.59,0,0,1,3.53.21A2.93,2.93,0,0,0,134,58a6.29,6.29,0,0,1,4.72.31,3.19,3.19,0,0,0,2.82-.14,3.54,3.54,0,0,1,3.6.16,2.75,2.75,0,0,0,2.57.26,5,5,0,0,1,3.91.24,3.6,3.6,0,0,0,3.14,0,3.41,3.41,0,0,1,3.65.25,2.54,2.54,0,0,0,2.5.22,5,5,0,0,1,3.91.23,3.71,3.71,0,0,0,3.29-.05,3,3,0,0,1,3.39.31,2.38,2.38,0,0,0,2.41.29,5.33,5.33,0,0,1,4.22.27,3.31,3.31,0,0,0,3.06-.07,4.43,4.43,0,0,1,2-.22.43.43,0,0,1,.48.27,2,2,0,0,0,.33.56c0-.26,0-.54,0-.89a3.26,3.26,0,0,1,.67.32,2.63,2.63,0,0,0,2.7.44,5.27,5.27,0,0,1,3.95.18,2.74,2.74,0,0,1,1.44.39.72.72,0,0,1,.75.39l.47,0c.13-.6.55-.93,1.32-1a4.6,4.6,0,0,1,3.13.53c.52.36,1.44.19,2.17.15a8.72,8.72,0,0,0,1.57-.37l-7.81,10.4a3.44,3.44,0,0,1-.08-.42l0-.58,0,.06a1.52,1.52,0,0,1-.31.47c0,.11,0,.22,0,.33a3.49,3.49,0,0,1-.49,1.63c-.4.74-.92,1.4-1.39,2.1-.31.46-.55.9-1.24,1-.35,0-.65.6-1,1,1.23.59,2.31,1.15,3.43,1.64a1,1,0,0,1,.73,1,2.76,2.76,0,0,1,.27.47c0-.1,0-.2,0-.3,0-.7.33-.86.94-.8a6.22,6.22,0,0,0,1.09,0c1.6-.11,1.6-.12,3.33-1.65a2.51,2.51,0,0,1,.75,2.72,2.31,2.31,0,0,1-2.53,1.07c-.5-.07-1-.26-1.18.49s-.74,1.29.32,1.75a2.35,2.35,0,0,1,.92.94,2.07,2.07,0,0,1,.11,2.3,1.86,1.86,0,0,1-2.15.78c-1-.25-1.2.14-1.27.94a1.06,1.06,0,0,1-.14.48c-.09.14-.31.35-.38.32l-.13-.08-.07.49a1.66,1.66,0,0,1,.62.25,8.72,8.72,0,0,1,1.23.71,1.67,1.67,0,0,1-.15,2.92,4.3,4.3,0,0,1-1.65.55.73.73,0,0,0-.5.22c0,.52-.06,1-.1,1.56a1.25,1.25,0,0,0,.94.88,2.24,2.24,0,0,1,.8.6,1.61,1.61,0,0,1-.54,2.82,13.21,13.21,0,0,1-1.73.46c0,.39,0,.75,0,1.11,0,1.29,0,1.26,1.28,1.58a5.71,5.71,0,0,1,1.2.63l-.1.33-.26,0a.46.46,0,0,1,0,.34c.76.17,1.06.7.59,1.37a3.35,3.35,0,0,1-1.66,1.24c-.78.23-1,.52-.85,1.27s.31,1.3,1.31,1.25a2.08,2.08,0,0,1,2,1.63,2,2,0,0,1-1.41,2.06c-.33.15-.88.41-.86.6a9.93,9.93,0,0,0,.45,2.1c0,.08.35.09.54.1a7.53,7.53,0,0,1,1.09.05,1.7,1.7,0,0,1,1.45,1.44,2,2,0,0,1-.92,2c-.29.22-.84.52-.81.69a7.18,7.18,0,0,0,.72,2c.05.1.35.07.7,0l.12-.13a.41.41,0,0,1,.69.3c.23-.38.51-.38,1.12-.07a1.88,1.88,0,0,1,.66,2.75,3.61,3.61,0,0,1-.63.78,1.27,1.27,0,0,0,0,2,.77.77,0,0,0,.52.1,3.27,3.27,0,0,0,.56-.16,2.08,2.08,0,0,1,2.46.76,2.29,2.29,0,0,1-.54,2.54c-.27.29-.79.68-.73.89a5.18,5.18,0,0,0,.91,1.49c.07.1.35.12.51.08a6.37,6.37,0,0,0,.69-.29A2.09,2.09,0,0,1,206,134a2.61,2.61,0,0,1-.09,2.77c-.21.31-.65.76-.56.93a8,8,0,0,0,1.22,1.59c.06.07.36,0,.51-.1.32-.17.6-.43.92-.58a1.55,1.55,0,0,1,1.88.15,1.59,1.59,0,0,1,.35,1.86,13.9,13.9,0,0,1-1,1.75Zm12.39-4.48a7.58,7.58,0,0,1-5.42-1.88,34.38,34.38,0,0,1-6.39-7.32,7.86,7.86,0,0,1-1-4.61,15.27,15.27,0,0,1,2.39-7.4,1.82,1.82,0,0,1,1.09,2.78,5.43,5.43,0,0,1-1.3,1.51c-.42.36-.57.63-.23,1.1s.46.76.64,1.08a11.27,11.27,0,0,1,2.33-.77,1.63,1.63,0,0,1,1.75,2.45,16,16,0,0,1-1.47,2.25l1.33,1.59c.53-.37,1-.72,1.45-1a1.94,1.94,0,0,1,2.15-.06,1.63,1.63,0,0,1,.4,2,7.61,7.61,0,0,1-.31.86c-.64,1.44-.63,1.49.73,2.45a13.39,13.39,0,0,1,1.63-1.26,1.93,1.93,0,0,1,2.92,2.26,4.71,4.71,0,0,1-.52,1.32c-.3.5-.24.82.3,1a1.83,1.83,0,0,1,.44.25c.62.5,1.06.46,1.56-.25a2.64,2.64,0,0,1,2.39-1.32,6.77,6.77,0,0,1,1.48.53,3.62,3.62,0,0,1-.5.42A21.06,21.06,0,0,1,222.7,138.62Zm6.6,3.4c-.21-.12-.45-.19-.81-.35a13.27,13.27,0,0,1,5.22-1.91c.8-.13,1.61-.23,2.42-.27.25,0,.72.14.75.28a6.54,6.54,0,0,1,0,1.71,2,2,0,0,1-.87.07,15.75,15.75,0,0,0-2-.34,2.42,2.42,0,0,0-1.37.5A2.47,2.47,0,0,1,229.3,142Zm19.65,6.21a43.94,43.94,0,0,1-5,0,46.06,46.06,0,0,1-11.75-2.65l-.46-.19,0-.18a2.28,2.28,0,0,1,.89.15,2.55,2.55,0,0,0,2.71.13,5.38,5.38,0,0,1,4.22-.26,3.52,3.52,0,0,0,3-.46,2.6,2.6,0,0,1,3.11-.16,2,2,0,0,0,2.09.12.73.73,0,0,1,1,.3c.36.5.77,1,1.1,1.49C250.49,147.49,250.13,148.19,248.95,148.23Zm3.13-15c-1,.15-1.95.19-2.92.27v0h-.59c-1.56,0-1.81-.22-1.37-1.74q2.23-7.69,4.56-15.35a4.67,4.67,0,0,1,6.5-2.67q6.15,3.36,12.29,6.74a1.29,1.29,0,0,1,.32,2.18C265.43,127.64,259.68,132.09,252.08,133.23Zm19.65,7.92a34.07,34.07,0,0,1-10.76,5c-2.84.84-5.35-.4-7.73-2a40.45,40.45,0,0,1,3.72-1.68,4.8,4.8,0,0,1,2.13,0,2.85,2.85,0,0,0,2.55-.78,5.45,5.45,0,0,1,4-1.6,3,3,0,0,0,2.71-1.67,3.5,3.5,0,0,1,2.81-1.77,2.94,2.94,0,0,0,2.54-1.88,10.28,10.28,0,0,1,1.26-1.89C275.33,136.2,274.52,139.09,271.73,141.15Zm6-31.64c-.13.6-.3,1.19-.43,1.79a2.71,2.71,0,0,1-1.67,1.87,1,1,0,0,1-.77-.11,71.12,71.12,0,0,1-12.46-8.24,2.63,2.63,0,0,1-.9-3,11.6,11.6,0,0,1,1.77-3.38c3.06-3.8,6.23-7.5,9.37-11.24a5.33,5.33,0,0,1,.5-.57c1-.88,1.8-.71,2.32.47a42.35,42.35,0,0,1,3.41,10.16c.19,1.15.25,2.33.38,3.5C279.3,103.78,278.4,106.63,277.76,109.52Zm14.14,6.2c-.62,1.83-1.26,3.65-2,5.42A46.38,46.38,0,0,1,282,133.28a4.86,4.86,0,0,1-1.13,1c-.81.48-1.46.16-1.58-.76-.16-1.28-.25-2.56-.37-3.84a2.06,2.06,0,0,1,.82-2,1.08,1.08,0,0,1,.58-.25,2.38,2.38,0,0,0,2.62-2.27,5.47,5.47,0,0,1,2.07-3.7,3.61,3.61,0,0,0,1.26-2.87,3.65,3.65,0,0,1,1.85-3.21,10.22,10.22,0,0,1,2.64-1C291.88,114.11,292.28,114.59,291.9,115.72Zm2.59-15.26a19.83,19.83,0,0,1-1.5,6.68,5.2,5.2,0,0,1-1.7,1.9,9.16,9.16,0,0,1-2.62,1.29c.21-.39.41-.79.64-1.17a3.58,3.58,0,0,0,.33-3.64,3.4,3.4,0,0,1,.23-3.52,2.44,2.44,0,0,0,.08-2.57,5.47,5.47,0,0,1-.31-4.23,3.16,3.16,0,0,0-1-3.47,5.11,5.11,0,0,1-.93-2.67,11.31,11.31,0,0,1,.1-2.39c2.32,1.06,4.57,2.34,5.38,5.29A27.55,27.55,0,0,1,294.49,100.46Z"/></g></g></svg>