<svg xmlns="http://www.w3.org/2000/svg" viewBox="0 0 316.79 187.97"><title>Asset 7</title><g id="Layer_2" data-name="Layer 2"><g id="Layer_1-2" data-name="Layer 1"><path d="M313.67,41.89q-5.83-2.21-11.77-4.14c-3.28-1.07-6.61-2-10-3,.17-1.22.22-1.87.36-2.49,2.32-9.78-1.13-14.5-11.16-15.42-4.31-.39-8.59-1.3-12.9-1.48-8.65-.35-17-3.63-26-1.22-5,1.35-10.81,1.18-16,.37-9.28-1.44-16.62,1.86-23.46,7.42-1.68,1.37-3.36,2.74-5,4.14-4,3.4-8.38,3.59-13.1,1.8a41.74,41.74,0,0,0-6.15-1.9c-2.73-.57-4.54-1.49-4.46-4.84.07-3.11-1.43-4.74-4.81-3a56,56,0,0,1-5.89,2.55c-1.33.49-3,1.3-4.14.92-7.68-2.58-15.53-4.89-22.8-8.37-9.81-4.7-18.92-10.13-30.77-6.91-5.4,1.47-12.35,1.8-17.24-.38C78.43,1.52,68.41,1.89,58.19,1.6,43.37,1.19,28.56.37,13.75,0,10.56-.07,6.92.34,4.26,1.86.18,4.19-1,12.3.91,18c1.86,5.37,4.41,7,11.16,7,10.66.08,21.33.17,32,.22,8.3,0,16.6,0,24.89,0l.11,2.13c-1.23.15-2.6,0-3.65.52-1.58.77-4,1.9-4.13,3.08-.21,2,.59,5.36,1.9,5.91A194.47,194.47,0,0,0,83,43.59c1.22.36,3-.33,4.25-1a80.52,80.52,0,0,0,9.4-6.06,14,14,0,0,1,14.67-1.55c6.11,2.68,11.63,1.72,17.48.23,1.58-.4,3.54-1.24,4.78-.68,4.46,2,8.68,4.54,13.29,7-4.59,5-8,10.52-16,9.39-3-.43-6.47,1.16-9.61,2.2-2.84.94-5.33,2.16-5.61,6.08-.14,2-2,5-3.71,5.46-6.22,1.58-3.07,3.9-1,6.32,1.08,1.24,2.23,2.42,2.86,3.1-1,1.7-2.67,3.53-2.29,4.27C113.4,82,116,85,120.68,83.78c1.38,5.43,3,10.51,3.91,15.71a97.34,97.34,0,0,1,1.16,13.24c.14,3.38-.67,6.88-.09,10.16.74,4.24.85,6.29-.71,7.9,6.5,6.9,10.5,17.25,14,25.06a170.49,170.49,0,0,0,18.62,32.07c6.85.51,14.06-2.74,20.67-5.15A74.67,74.67,0,0,1,191,179.72c5.43-2,11-4.11,17-6.36,0,.44,0,.87,0,1.31,1.3-.57,2.61-1.11,3.95-1.55,1.09-3.64,3.53-6.45,8.62-8,2-.61,3.6-2.37,5.28-3.73,14.58-11.74,22.48-27.6,26.41-45.34a148.18,148.18,0,0,0-1.36-70.28c-1.46-5.59-.61-6.74,5.09-5.8,4.42.72,8.74,2.11,13.16,2.86,1.83.31,4.76.48,5.54-.54,2.33-3.06,4.82-1.68,7.17-1q14.3,4.39,28.49,9.15c3,1,4.9.25,6-2.54S316.48,43,313.67,41.89Zm-97.86-11.5a21.3,21.3,0,0,1,14.87-.61c4.19,1.51.83,5.49-.87,8.13a4.73,4.73,0,0,1-1.14.05c-3-.73-6.06-1.48-9.09-2.23-.33,3.38-1.13,6.8-.86,10.14.24,2.95,2.33,3.49,5.16,2.11,2.16-1.05,4.74-1.22,7-2.06A23,23,0,0,0,235,43.47c2-1.3,4.07-2.64,7-4.53-.72,6-1.46,10.85-1.85,15.71-1.43,18.24-2.36,36.53-4.23,54.72a104,104,0,0,1-11.71,38.92c14.78-41.45,1.38-75.42-27.45-104.92C203.05,38.94,208.94,33.62,215.81,30.39Zm-74-10.9,16.43,5C152.57,28.27,147,26.35,141.83,19.49ZM199.9,170.55l-.83.12a16.52,16.52,0,0,1-9.1,3.83,29.77,29.77,0,0,1-16.53,1.55c-4-.82-5-4.81-3.8-7.92-1.32-3.41-3.73-6.39-4.06-10.5-.66-8-3.67-15.86-5.16-23.86-1.15-6.19-1.1-12.61-2.36-18.77-.65-3.19-3-6-4.58-9-1.32-2.45-3.13-4.73-4-7.32A183.28,183.28,0,0,1,143.91,78c-.38-2,1.27-5.36,3-6.53,7.43-5,15.19-9.45,23-13.88,3.4-1.94,7.11-3.34,11.06-5.15,10.65,13,16.23,28.05,20,43.88,5.19,21.49,6.08,43.45,6.91,65.4C208.12,167.16,203.85,169.89,199.9,170.55ZM213,160.25l-1.56-.55c-.3-5.07-.66-10.13-.89-15.21-.9-20-2.58-40-9.29-58.92-4-11.32-10.11-22-15.9-32.56-1.69-3.1-2.76-5.28,0-7.65s5.91-2.78,8.46.14c6.76,7.73,14.48,14.94,19.74,23.61,15,24.71,18.49,51,7.07,78.28C218.77,152,215.6,156,213,160.25Zm28.23-22.56a56.05,56.05,0,0,1-19,22.21c9.25-14.28,14.2-30.14,16.55-46.68,2-13.82,2.63-27.83,3.71-41.77.53-6.81.53-13.65,1.05-20.46.24-3.08,1.18-6.11,2-10.34,1.09,1.69,1.68,2.25,1.85,2.91C255.28,75.59,256,107.18,241.25,137.7Z"/></g></g></svg>