<svg xmlns="http://www.w3.org/2000/svg" viewBox="0 0 258.51 166.96"><defs><style>.cls-1{fill:#1d1d1b;}</style></defs><title>Asset 4</title><g id="Layer_2" data-name="Layer 2"><g id="Layer_1-2" data-name="Layer 1"><polygon class="cls-1" points="5.63 65.55 5.65 65.57 5.63 65.61 5.63 65.55"/><path class="cls-1" d="M5.7,54.45a54.48,54.48,0,0,0,16.13,1.62A38.05,38.05,0,0,0,7.1,63.88a7,7,0,0,0-1.45,1.68h0c.36.32.69.8,1.11.9,1.64.41,3.31.75,5,1,.73.12,1.36.22,1.7,1.15a5.23,5.23,0,0,1-1.25.1c-1.44-.25-2.88-.51-4.3-.87-1.61-.4-2.34-1.19-2.28-2.26a2.32,2.32,0,0,0-.1,2.65,3.62,3.62,0,0,0,2,1.07l7.81,2.13c-2.76.1-4.24,3.8-3,6.29,3,6.2,11.78,2.59,14.68,8.59,1.49,3.08.65,7.54,1.13,10.87a84.64,84.64,0,0,0,2.14,10.94,15.06,15.06,0,0,1,.6,7.47c-1.26,5.27-6.31,5.26-10.7,5.85a5,5,0,0,1-.95,0,7.12,7.12,0,0,0-2,.84c-3.34,2.23.65,6.16.53,9a1.32,1.32,0,0,0,.17.81,3.53,3.53,0,0,1,.45,2.42c0,1,.39,2,.5,3,.08.7-.06,1.42-.06,2.13,0,.55-.11,1.24.17,1.62a3.69,3.69,0,0,1,.44,2.94,2.71,2.71,0,0,0,.28,1.84c.62.82.38,1.63.41,2.49a18.25,18.25,0,0,0,.45,2.62c0,.15.19.31.16.43-.32,1.37.55,1.86,1.61,2.22l.63.24-.24.44-2.25-.84a2.48,2.48,0,0,0,1.12,2.7,15.15,15.15,0,0,1,5.23,3.87c.74.93,2.59,1,4,1.38a8.35,8.35,0,0,0,1.43.12c2.57.27,2.57.27,3.21,2.7.45,1.7,1.3,2.61,3,2.48a40,40,0,0,0,7.29-1.17c2.17-.58,2.52-1.26,2.29-3.52-.14-1.43.32-1.92,1.67-2.22,7.45-1.67,14.32-4.44,12.71-13.4-.52-2.9-1.64-5.66-2.12-8.57a5.94,5.94,0,0,1,.68-4.57c.57-.75,1.44-1.25,2-2s.68-2,1.26-2.83c1.6-2.37,5.31-1.36,8-2.4,3.39-1.32,4.38-5.71,3.91-9.32s-1.86-7.18-1.31-10.77c1.72-11.08,21.08-10.48,29.25-9.6q5.75,28.93,12.2,57.7c2.11,9.42,2,9.64,10.91,8.23l11.4-1.8c-1.37.22-11.55-54.75-12.53-60.63a4.58,4.58,0,0,1,.21-3.1c.7-1.17,2.23-1.46,3.57-1.64q24.41-3.3,48.48-8.7,12-2.7,23.91-5.91c3.12-.84,6-1.52,8.77-3.13,1.72-1,2.12-3.12,4.43-3.36,5.21-.52,10.4-1.17,15.62-1.65a32.4,32.4,0,0,1,4,.36,22.58,22.58,0,0,0,13-3.25c4.09-2.59,8.82-8.22,10.1-13a14.28,14.28,0,0,0,.39-3.52c.11-7.11-2.18-14.71-6.86-20.15a17.85,17.85,0,0,0-8.74-5.74c-4.58-1.24-8.56.4-13.1.71-3.19.22-6.22.25-9.24-1-.41-.16-.8-.35-1.19-.55,3.33,0,6.73.47,9.66.53,1.28,0,3-.3,3.08-1.57a2.49,2.49,0,0,0-.45-1.42c-9-15.77-27.87-20.85-44.84-21.67-21.46-1-42.95,2.6-64.4,3C85.27,6,48.48-2.66,11.3.83a13,13,0,0,0-5.77,1.5C3.16,3.81,2,6.55,1,9.19H1c0,.14-.06.28-.09.42l0,.09A21.72,21.72,0,0,1,.28,12c-1.46,4.83,3.12,6.69,6.82,7.72C4.26,21,3.35,24.89,6.28,26.84,8.5,28.31,11.41,28,14,27.57A23.51,23.51,0,0,0,1.36,36.2a2.37,2.37,0,0,0-.64,2c.25.79,1.17,1.1,2,1.28A64.88,64.88,0,0,0,18,41.16,61.41,61.41,0,0,0,5.89,46.4c-2.29,1.3-4.82,3.88-3.48,6.15A5,5,0,0,0,5.7,54.45ZM15.12,37.4,9.37,37c-1.18-.08-1.79.54-3,.64A3.3,3.3,0,0,1,4,37.18l-.64-1.45a70.22,70.22,0,0,0,7.41-3.31A9.37,9.37,0,0,0,15.12,37.4ZM42.28,29c-2.13,1.16-5.59,1-4.48,4.67L18,32.32A66.22,66.22,0,0,1,42.28,29Zm-.48,9.44.41-1.91,15.71,3.66-12.2,1.16C45.67,38.87,45.27,38.59,41.79,38.47Zm179.14-7.54c-4.06,2.67-9.83-.55-14.16-1.18-3.23-.48-7.68-.33-10.78-1.94,6.06-1.67,17.34-1.89,23.39,1.94A10.74,10.74,0,0,1,220.93,30.93Zm6.31,7.33c-4,3.13-6.16,6.94-6.29,11.76s2.45,8.59,5.45,12.1c-1.34.21-2.63.45-3.92.59a1.64,1.64,0,0,1-1.09-.38A12.58,12.58,0,0,1,217,56a18.18,18.18,0,0,1,4-17.66,2,2,0,0,1,2-.81C224.28,37.79,225.57,38,227.24,38.26Zm-1.19,19,1.63,2.25-.34.28-1.61-2.29Zm24.66-11.74a51.85,51.85,0,0,0-4.45-5.86,15.57,15.57,0,0,0-5.11-3.42,67.67,67.67,0,0,0-8.25-2.36c-1.22-.32-2.47-.5-3.7-.74l0-.46c1.38-.22,2.81-.79,4.12-.58a50.73,50.73,0,0,1,7.28,1.9C246.33,35.82,249.31,40.08,250.72,45.53ZM240.29,69.2a25.24,25.24,0,0,0,9.29-6.63c2.6-2.82,3.7-6.29,4.66-9.87C255,59.12,248.31,69,240.29,69.2Zm3.11-8.35,4.51-6C247.57,57.56,245.38,60.54,243.4,60.84Zm-11.89,5.9,7.73-1.22,0,.3A22.15,22.15,0,0,1,231.51,66.74ZM225.7,52.87a24.11,24.11,0,0,1,.23-3.67c.87-4.14,3.54-6.76,7.38-8.27,3.36-1.32,8.92.08,11,2.83a9.42,9.42,0,0,1,1.7,6.79,10.93,10.93,0,0,1-10.06,9.61A9.19,9.19,0,0,1,225.7,52.87Zm-10.79-.06c.91,1.82.65,3.81,1.79,5.41s1.78,3.7,3,5.25a20.36,20.36,0,0,0,4.5,3.85,54,54,0,0,0,5.16,2.77C222.76,69.2,214.37,60.77,214.91,52.82Zm0,16.19c.3-.3.57-.8.92-.87a14.89,14.89,0,0,1,3.08-.3,11.31,11.31,0,0,1,2.14.43l-.06.64c-1.68.17-3.36.37-5,.5C215.64,69.42,215.29,69.15,214.94,69ZM40.21,45.79q8.58-1.57,17.24-2.65c2-.24,14.67-2.91,7.15-4.65L41.3,33.07c1.77.41,6.51-1.88,8.84-1.87a34.16,34.16,0,0,1,9.38,1.64c6.49,1.9,12.7,4.93,19,7.47,12.68,5.14,25.77,9.44,39.47,10.63,24.67,2.14,43.6-9.76,65.16-19.47a3.78,3.78,0,0,1,2.46-.49c1.61.43,3.28,8.84,6.12,5.39.71-.86.66-2.28,1.6-2.88a2.9,2.9,0,0,1,2-.17c6.78,1.05,13.56,2.14,20.34,3.14-3.6,5.43-6.16,20.48-.49,25.83-6-5.67-15.48-4.62-23.65-3.4-20.36,3-40.94,3.32-61.28,6-3.36.44-12.18,2.62-14.57-1-.7-1.07-.91-2.55-2-3.18a3.78,3.78,0,0,0-2.19-.28,50.48,50.48,0,0,0-10.79,2.07c-1.14.35-2.43.9-2.76,2.05a12.89,12.89,0,0,1-.29,1.66,2.94,2.94,0,0,1-1.88,1.32c-6.58,2.34-13,5.14-19.72,7.11-3.16.93-6.16,2.42-8.47.45-1.2-1-.14-3.69-2-5a5.78,5.78,0,0,0-4.77-.64c-1.3.35-3,.88-3.7-.28A2.59,2.59,0,0,1,56.84,68l-.23-4.11c0-.66,0-1.46.58-1.78s1.32.07,1.94-.12c1.17-.36.9-2.13.15-3.1s-1.8-2-1.42-3.2l6-.41a2,2,0,0,0,1.49-.52c.85-1-.76-2.28-2-2.6-1.83-.46-3.7-.83-5.57-1.19C51.64,49.79,45.52,48.83,40.21,45.79ZM38.06,112.6Q36,97.81,34,83a.91.91,0,0,1,.85-1.17c.86-.17,1.71-.39,2.56-.6,1.15-.28.94-1.21,1-2s-.42-1.2-1.24-1.3c-.29,0-.79-.41-.78-.62a2.55,2.55,0,0,0-1.66-2.66,2.06,2.06,0,0,1,1.14-.48c2,0,3.92,0,5.87,0A2.51,2.51,0,0,0,44.23,72c.07-1.18-.58-1.95-2.24-2.14-2.7-.31-5.43-.44-8.16-.65,2.1-.87,4.2-1.84,6.37-2.6,2.52-.88,5.11-1.57,7.67-2.36.9-.28,1.26.06,1.3,1s.15,1.83.2,2.75c.23,4.43.45,8.86.68,13.29,0,.85-.3,1.11-1.17,1.25a45.93,45.93,0,0,0-5.78,1.35A1.89,1.89,0,0,0,42,85.24,24.75,24.75,0,0,0,42.41,89c0,.26.27.55.2.75-.37,1.06-.81,2.1-1.24,3.19a.76.76,0,0,0-.26,0,5.19,5.19,0,0,0-2.11.31c-.31.19-.22,1.15-.16,1.75.15,1.5.32,3,2.09,3.76l-.3.32L39,98.47A4.64,4.64,0,0,0,41.62,103l-.3.38-2.15-.57a4.25,4.25,0,0,0,2.77,4.29l-.27.26-2.45-.87a10.08,10.08,0,0,0,.8,2.9,9.21,9.21,0,0,0,2.22,1.82l-.18.3-2.6-1.25.88,3.86C38.39,114.51,38.32,114.48,38.06,112.6ZM15.75,74.29c-.21,0-.32-.22-.4-.51Zm1,1.13c.2,0,.65.75.6,1.09-.16,1,.06,1.46,1.09,1.59A8,8,0,0,1,20,78.7a3.47,3.47,0,0,1-4.15.26,10,10,0,0,1-3-3.27C14.19,75.58,15.46,75.46,16.72,75.43ZM16.88,59c-.34.71-1.13,1.13-1.65,1.68a3.77,3.77,0,0,0-1.38,2.79c.79-.35.1-.32.79-.35.35,0,.35,1.45.77,2,2.78,2.1,6.23,2.45,8.92,4.27l-.09.43c-.82-.12-1.64-.22-2.45-.36a9.4,9.4,0,0,0-1.27-.31c-2.8-.06-5.15-1.3-7.42-2.77-2-1.31-3-3.58-.67-5C12.81,61.11,15.39,60,16.88,59Zm15.05-.72c1.7-.18,3.4-.41,5.11-.48,2.31-.1,4.62-.08,6.93-.09a5,5,0,0,1,1.7.18,1.13,1.13,0,0,1,.58.93,1.21,1.21,0,0,1-.81.79c-2.59.46-5.2.85-7.8,1.26v.44c-.31-.12-.61-.25-.92-.35-.73-.23-1.22.14-1.67.76-1.24,1.66-6.11.61-6.86.65S19.62,61,19.5,60.23,31.27,58.39,31.94,58.32Zm-14.48-11,0-.17c.21-.08.42-.18.65-.25,3.79-1.09,7.61-2.11,11.38-3.28s7.61-2,11.64-1c-.54.25-1,.47-1.54.72a16.36,16.36,0,0,0-1.48.78,2.14,2.14,0,0,0-.44,3.6l1,1Z"/></g></g></svg>