<svg xmlns="http://www.w3.org/2000/svg" viewBox="0 0 591.11 372.02"><defs><style>.cls-1{fill:#1d1d1b;}</style></defs><title>Asset 7 1</title><g id="Layer_2" data-name="Layer 2"><g id="Layer_1-2" data-name="Layer 1"><path class="cls-1" d="M588.54,315.77a136.45,136.45,0,0,1-13.84-25.87q-6-15-12-29.94l-.46.38q-6.27-15.57-12.52-31.15c-7.26-18.21-14.16-36.6-21.7-54.66-9.52-22.77-19.47-45.3-29.36-67.87-4.9-11.17-12.22-21.48-14.76-33.46a19,19,0,0,1-.58-7,39.71,39.71,0,0,0,9-6.38,26.12,26.12,0,0,0,7.25-11.58c2.37-8.41-1.64-14.21-4.5-21.71-2.4-6.28-4-13.05-8-18.55-5.42-7.37-14.77-4.28-22.37-2l-.53.16c-1.44.38-2.89.82-4.35,1.29C409.1,24,356.62,34.42,306,51.46c-18.68,6.29-37.15,13.15-55.51,20.32a9.06,9.06,0,0,1-1.27.4,6.33,6.33,0,0,1-1.41.17c-2.71,0-4.59-2-5.59-6.08a7.51,7.51,0,0,0-.95-2.63,4.48,4.48,0,0,1-.65-5c1.06-2.65.18-6.44-1.36-7.55a8.24,8.24,0,0,0-4.83-1.68,7,7,0,0,0-1.56.18,8.22,8.22,0,0,0-4.61,3.1c-.7.89-1.66,1.5-2.34,2.41s-1.06,2.12-1.7,3.08a9.48,9.48,0,0,1-2.16,2.56,2.37,2.37,0,0,1-.86.35l-.51.1-.51.1a2.38,2.38,0,0,0-.85.35c-3.12,2.2-6.13,4.59-9.23,6.83-1.4,1-2.9,1.81-3.86,2.4-.82.1-1.42.09-1.9.2a1.92,1.92,0,0,0-.42.14c-.32.16-.44.85-.65,1.3a7.36,7.36,0,0,0,1.75.43,4.35,4.35,0,0,0,1-.12,6.09,6.09,0,0,0,.92-.29c5.11-2.07,9.93-4.66,14-9,1.65-1.77,3.92-2.81,6-3.9a2.38,2.38,0,0,1,.56-.21,1.89,1.89,0,0,1,.42,0c1,0,1.81.77,2.56,1.95a10.72,10.72,0,0,1,1.87,6c0,1.45,1.16,2.92,1.43,4.45.76,4.36-.74,6.86-4.61,8.37q-19,7.41-37.88,14.9a15,15,0,0,1-2.11.72,5,5,0,0,1-1.12.14,4.32,4.32,0,0,1-2.52-.84,6.78,6.78,0,0,1-3-3.84c-1.21-3.67-2.83-7.18-4.3-10.73-.54-1.3-1-3.28-1.8-3.67-1.25-.58-1.48-1.47-1.81-2.58-2.82-9.47-5.67-18.93-8.44-28.41C165.72,44.15,153.81,0,152.44,0c-.12,0-4.19,1.4-4.32,1.43a96.4,96.4,0,0,0-9.4,2.86c-1.62.56,9.1,45.86,9.72,47.86,1.55,5,3,10.05,4.42,15.09s2.91,10,4.42,15.25l-2.09,1c-5.48,2.48-5.7.36-3.19,8.45.72,2.32,1,3.14,1.89,3.14a2.29,2.29,0,0,0,.51-.07,15,15,0,0,0,1.71-.58l.4-.12a2.25,2.25,0,0,1,.5-.06c1.16,0,1.83,1,2.24,2.4,1.85,6.26,3.56,12.57,5.41,18.83,8,27,16.13,53.61,25,80.26l.17.52c-5.25,2.72-10.53,5.38-15.66,8.33-15.4,8.86-30.85,17.63-46,26.94C97.34,250.39,66.71,269.59,36,288.71c-4.79,3-9.49,6.09-13.36,10.62a120.25,120.25,0,0,1-11,11.47c-3.07,2.75-6.62,4.81-10,7-1.76,1.15-1.88,3.08-1.45,5a1.75,1.75,0,0,0,1.92,1.58c.48,0,1-.08,1.42-.11,2.6-.17,5.18-.43,7.77-.6,3.21-.21,6.42-.36,9.63-.54l.09.63c-1.67.19-3.33.41-5,.56a10.18,10.18,0,0,0-2.33.4c-1.63.57-1.41,1.83.15,5.1,0,.1-.06.29-.12.57-3.34.24-6.72.43-10.09.76a4.14,4.14,0,0,0-1,.2c-1.24.44-1.45,1.52-.81,3.44.56,1.69,1.49,2.83,3.15,2.89,1.82.06,3.64.13,5.46.3,10,.93,20,1.54,29.84,5.12a12.66,12.66,0,0,0,4.32.62h.66c2.34,0,4.64-.57,7-.57l.71,0c11.14.56,22.29,1.06,33.44,2,34.14,3,68.19,4,102.25,5.15,15.86.54,31.7.92,47.55,1.35.15,1.4.24,2.81.35,4.18.51,6.66,2.69,9.48,7.4,13.43a10.31,10.31,0,0,0,6.68,2.71,9.05,9.05,0,0,0,2-.23,11.84,11.84,0,0,0,3.76-1.64c4.1-2.64,5.88-7.08,5.6-12.83-.21-4.33-.74-8.76-.32-13,1.74-17.38,3.85-34.68,5.69-52,.36-3.38-.08-6.93.24-10.32,1-10.56,2.17-21.08,3.19-31.64.16-1.7-.3-3.52-.21-5.24.9-17,1.86-34,2.78-51,.61-11.21,1.2-22.42,1.69-33.65A9,9,0,0,0,274,157c-.52-1.22-1.38-2.28-1.81-3.53-1.46-4.3-2.82-8.64-4.16-13-.5-1.61-1-3.13-2.43-3.13a2.58,2.58,0,0,0-.58.07,4.2,4.2,0,0,0-.66.21c.63-2.58,1.41-4.33,3.55-5.1,16.34-5.87,32.55-12.2,49-17.71,17.13-5.74,34.37-11.18,51.75-16,16.94-4.65,33.94-9.09,50.94-13.5l25.5-6.61c3.68-1,7.55-2.77,11.43-2.48,2.44.18,3.56,1.33,5.17,2.94s3.82,3,5.42,4.69a6.53,6.53,0,0,1,1.29,2.68c3.6,11.81,7.56,23.45,12.31,34.86,4.94,11.87,11.51,23.29,16,35.29,9.3,19.58,19.26,38.76,29,58.08q13,25.89,26.08,51.76l-.15.06q9.6,19.06,19.1,38.19c2.58,5.21,4.91,10.79,5.3,17,.13,2,1.3,4.07,2,6.11l.8-.14a57.63,57.63,0,0,1,2.39-6.1,6,6,0,0,1,2.54-2.23l.12,0,.16,0a2.23,2.23,0,0,1,1.42.71c.25.29.11,1.27-.06,1.83-.66,2.12-1.39,4.2-2.12,6.29-.65,1.87.44,2.67,1.64,2.83l.27,0a2.62,2.62,0,0,0,.58-.07,3.74,3.74,0,0,0,1.66-.88C591.9,326,592.33,321.39,588.54,315.77Zm-432.86-224-.12,0-.43,0c-1.27,0-2.13-.84-2.4-2.53a3.12,3.12,0,0,1,2.55-3.72l.32-.06c.44.47,1.55,1.16,1.95,2.2C158.14,89.23,157,91.48,155.68,91.77Zm93.05,48.38a6,6,0,0,1,1.35-.15,8.47,8.47,0,0,1,4.17,1.28c-3.37,2.16-3.4,2.17-2.06,6.54s2.77,8.48,4,12.75c1.43,4.79-.31,10.29-4.08,12-8.33,3.67-16.74,7.13-25.17,10.54-4.68,1.9-9.45,3.53-14.18,5.27-.74.27-1.49.48-2.63.84-1.49-5-3.61-9.85-4.15-14.82a46.43,46.43,0,0,0-1.68-8.51c-1.39-4.65.42-8.54,4.32-10.07,13-5.1,26.06-10.18,39.08-15.32A6.82,6.82,0,0,1,248.73,140.16ZM237.41,68.41l4.24-.17.07.3-6,2.57a45.35,45.35,0,0,1-.55-4.65,5.63,5.63,0,0,1,.76-2,13.59,13.59,0,0,1,1,1.79A14.52,14.52,0,0,1,237.41,68.41Zm-5.66-14c-.33-.42.47-2.09.72-3l3.92,3.11c-.21.34-.76,1.87-1.22,2h-.08A6,6,0,0,1,231.75,54.39ZM197,117.1c8-3,16-6.24,24-9.38l15.19-6q.44-.13.86-.23a8.23,8.23,0,0,1,1.83-.23c2.45,0,3.92,1.47,4.88,4.44.45,1.39.86,2.79,1.26,4.19,1.34,4.71.27,7.23-3.74,8.81l-15.71,6.15c-8.26,3.23-16.51,6.48-24.77,9.67a3.37,3.37,0,0,1-.46.14,3.62,3.62,0,0,1-.81.09,6.1,6.1,0,0,1-5.34-4.4c-.37-1.23-.73-2.47-1.12-3.69C191.51,121.85,193,118.62,197,117.1ZM102.48,325.3c-13.59-.28-27.2-.83-40.8-1.44a61.38,61.38,0,0,1-10.56-1.55c-8.38-1.87-12.66-13-8-20.67a3.61,3.61,0,0,1,1.21-1.24c8.48-4.88,17.07-9.51,25.43-14.62,20.28-12.37,40.46-24.92,60.65-37.46,10.3-6.4,20.41-13.17,30.82-19.32,10.9-6.44,22-12.54,33-18.71,2.9,11.53,6.88,24.79,11.84,35.07q8.11,27.15,16.24,54.29,4.89,16.29,9.82,32.57C188.86,328.73,145.64,326.19,102.48,325.3Zm127-67.52c-2.12-7.07-4.17-14.17-6.34-21.22-.23-.73-1.08-1.24-1.65-1.84-.31-.33-.78-.61-.9-1-1.26-4.31-2.46-8.63-3.67-13l.19-.08c-.76-2.42-1.6-4.82-2.23-7.28a11,11,0,0,1,.14-2.67,9.75,9.75,0,0,0-.15-2.56c-1.26-4.74-1.67-4,2.2-5.5,9.4-3.67,18.74-7.56,28.11-11.35,1.74-.7,3.49-1.36,5.25-2a7.12,7.12,0,0,1,.85-.25,5,5,0,0,1,1.12-.13c2.42,0,3.78,2.12,3.64,5.9-.48,13.28-1.22,26.54-1.37,39.84-.31,27.84-.33,55.7-.41,83.56a51.67,51.67,0,0,0,.75,7.43c.27,1.85-.16,2.83-1.68,3.18l-.11,0a3.21,3.21,0,0,1-.63.07c-1.11,0-1.77-.73-2.2-2.14-2-6.65-4.09-13.29-6.11-19.94Q236.82,282.32,229.44,257.78Zm27.31,108.66a7.65,7.65,0,0,1-4.11,2.56,7.39,7.39,0,0,1-1.65.18,10.15,10.15,0,0,1-6.51-2.68c-4.34-3.73-5.18-10.95-3.4-15a9.73,9.73,0,0,1,6.64-5.72,8.49,8.49,0,0,1,1.89-.22,8.33,8.33,0,0,1,3.12.61c3,1.2,5.63,4.61,5.69,7.55.08,4.36-1.73,8.52-5,10.17a9.91,9.91,0,0,1-2.22.81,8.15,8.15,0,0,1-1.82.21c-2.77,0-5.37-1.46-7.86-4,2.21,4.31,4.57,6.37,7.25,6.37a5.75,5.75,0,0,0,1.29-.15l.23-.06a13,13,0,0,0,8.33-6.64C259.41,363.3,258,365,256.75,366.43ZM334.49,85.63c-24.53,7.51-48.61,16.7-72.88,25.17a4.62,4.62,0,0,1-.5.14,4.78,4.78,0,0,1-1.07.12,6.22,6.22,0,0,1-5.7-4.56q-.68-2.22-1.33-4.44c-1.11-3.81.08-7.13,3.19-8.31C269,88.92,281.8,84,294.69,79.41,306.83,75.08,319,70.86,331.3,67c15-4.66,30.05-8.9,45.11-13.24,7.11-2.05,14.28-3.91,21.42-5.86q21.25-5.64,42.5-11.25l0,0c.19-.2.4-.38.6-.57l4.56-1.22a10.58,10.58,0,0,1,4.64-.52c3.8.72,5.53,5.07,6.6,8.79.84,2.91,1.47,6.57-.84,8.53a8,8,0,0,1-3.22,1.39L395.55,68.19l.18.34C375.25,74,354.77,79.42,334.49,85.63Z"/></g></g></svg>