<svg xmlns="http://www.w3.org/2000/svg" viewBox="0 0 861.53 511.57"><defs><style>.cls-1{fill:#1d1d1b;}</style></defs><title>Asset 23 2</title><g id="Layer_2" data-name="Layer 2"><g id="Layer_1-2" data-name="Layer 1"><path class="cls-1" d="M854.21,449.92c-1.13-4,.41-8.59-3-12.17-.78.55-1.56,1.08-2.31,1.64a3.29,3.29,0,0,0-1.4,2.89c0,1.83,0,3.67,0,5.5a2.23,2.23,0,0,1-1.32,2.35,2.4,2.4,0,0,1-2.76-1,23.37,23.37,0,0,1-2.36-3.31Q833.67,433,826.35,420c-11.93-21.2-22.26-43.18-32.21-65.37-7-15.6-14.44-31-21.85-46.42-10.53-21.9-21.12-43.77-30.22-66.32A445.82,445.82,0,0,1,727,196.67a125.26,125.26,0,0,0-7.69-21.16A71.68,71.68,0,0,0,714,167a13,13,0,0,0-5.87-4.4,36.61,36.61,0,0,1-4.84-2.6,13.28,13.28,0,0,0-10.4-1.47,28.94,28.94,0,0,0-12.21,6.42,94.46,94.46,0,0,0-9.73,9.22q-41.7,46.71-83.26,93.53c-19.65,22-39.52,43.83-59.17,65.83-28.92,32.39-57.59,65-86.63,97.27-16.84,18.72-34.19,37-51.33,55.44-5.22,5.62-10.45,11.25-15.83,16.72a96.51,96.51,0,0,1-7.81,6.72,7.92,7.92,0,0,1-6.27,1.83c-5.15-.7-10.32-1.22-15.42-2.18-28.74-5.41-57.45-11-86.19-16.38-25-4.71-49.93-9.44-74.95-13.91-16.91-3-33.9-5.63-50.85-8.41-5.13-.84-10.25-1.73-15.39-2.45-3-.42-6.06-.46-9.07-.85a28.83,28.83,0,0,1-7-1.43,62.73,62.73,0,0,0-15-4c-7.71-1-15.15-3.23-22.68-5.05q-17-4.11-34-8.2c-.85-.21-1.72-.4-2.56-.65a6.83,6.83,0,0,1-5.17-5.7,14.87,14.87,0,0,0-.64-2.55A5.61,5.61,0,0,0,16.41,436a1.73,1.73,0,0,0-1.76,1.3,11.21,11.21,0,0,0-.34,6.14,6.37,6.37,0,0,0,.46,1.61c1.86,4.32,1.41,8.59-.21,12.84-.6,1.57-1.27,3.11-2,4.62-2.46,5.21-6.44,7.3-12.56,6.45.12-2.24.21-4.52.36-6.8.43-6.86.9-13.72,1.32-20.58a34.4,34.4,0,0,1,5.49-16.42c4.64-7.38,9.25-14.78,13.94-22.12Q61.75,339.4,107,279c24.76-32.93,50.41-65.16,77.49-96.22a455.81,455.81,0,0,1,34.35-35.49,32,32,0,0,0,10.61-19.9,34.88,34.88,0,0,0-1.06-13.54c-2-7.33-4-14.64-5.93-22A6.69,6.69,0,0,0,219,87.22a3.34,3.34,0,0,1-1.4-1.49c-.85-1.88-1.56-3.83-2.36-5.82l2-1.31-.16-.5-6.48,1.2a17.07,17.07,0,0,1-.89-1.61c-1.43-3.36-1-4.58,2.18-6.49.89-.53,1.83-1,2.75-1.47l2.83-1.48C210.91,45.49,203.73,22.92,196.84,0h25.92c.36,1,.72,1.85,1,2.74q8,26.37,16,52.76a12.4,12.4,0,0,0,2.69,5,10.39,10.39,0,0,1,1.7,2.85,79.52,79.52,0,0,1,5.69,19.75A36.6,36.6,0,0,0,254,95.57a33.54,33.54,0,0,0,4.13,5.86c5.28,5.87,11.78,7.35,19.17,4.7,5.11-1.83,10.16-3.87,15.25-5.75A844.67,844.67,0,0,1,407.65,67.46c19.54-4.19,39.17-7.87,58.93-10.84,16-2.4,32-4.49,48-6.47,19.44-2.4,39-3.72,58.55-4.68,19.81-1,39.64-1.17,59.47-1,8.87.08,17.74.37,26.62.53a26.32,26.32,0,0,0,11-2.23c3.18-1.36,5-3.57,4.65-7.26a3,3,0,0,1,2.25-3.45A89.08,89.08,0,0,0,700,23c2.4-1.29,4.46-.5,6.63-.16,1.83.28,3,1.73,3.87,3.33q5.88,10.59,11.79,21.16a7.28,7.28,0,0,1,.39,6.47c-.32.82-.7,1.62-1,2.45a8.49,8.49,0,0,0,.39,6.74c4.26,8.68,8.43,17.41,12.64,26.11,1.5,3.09,2.94,6.22,4.53,9.26,2.58,4.93,3.25,10.34,4,15.71,1.36,9.33,2.57,18.69,4,28a27.57,27.57,0,0,0,1.9,6.64c3.08,7.2,6.34,14.32,9.53,21.48,3.1,7,5.09,14.3,7.4,21.52,6.79,21.25,14.81,42.06,23,62.8Q819.77,332.28,850.44,410c2.93,7.43,5.92,14.85,8.75,22.32a40.87,40.87,0,0,1,2.17,7.82C862.24,445.48,859.75,448.76,854.21,449.92Zm-566.27,7v-.15c2,0,4,0,6,0a99.08,99.08,0,0,0,20.2-2.35,12.89,12.89,0,0,0,7.62-5,24.48,24.48,0,0,0,4.37-9.77,38.42,38.42,0,0,0-1.24-19.88c-1.89-5.94-4.15-11.76-6-17.7-9.74-31.19-19.29-62.44-29.1-93.6Q269.22,243,248.36,177.74c-1.18-3.73-2.33-7.48-3.74-11.12a10.85,10.85,0,0,0-7.56-7.11c-3.65-.94-6.81.32-9.69,2.37a69.5,69.5,0,0,0-11.15,9.8c-5.38,5.92-10.73,11.85-16.19,17.69q-38.69,41.4-73.15,86.38c-14.49,18.92-28.53,38.19-40.88,58.6-8.71,14.38-18.15,28.25-28.14,41.76-7,9.45-14,18.91-20.79,28.48a41.53,41.53,0,0,0-4.83,8.79c-2.57,6.53-1,12.57,3.13,18a9.82,9.82,0,0,0,6.49,3.76c13.43,2.08,26.83,4.28,40.29,6.16,17.11,2.4,34.34,3.51,51.55,4.9,8,.65,16.08,1.48,24.13,2.11,10,.79,20.08,1.55,30.13,2.14,6.78.4,13.59.35,20.37.75,10.93.64,21.85,1.49,32.77,2.25,7.5.52,15,1,22.48,1.59C271.7,455.63,279.82,456.29,287.95,456.93Zm-.84-254.59c.17.79.27,1.41.45,2q9.49,30.81,19,61.62c4.51,14.74,9.35,29.41,13.28,44.3,4.77,18.07,8.73,36.36,13.09,54.54,2.76,11.5,5.83,22.92,9.59,34.15,3.42,10.2,9.69,18.13,19.24,23.24a26.43,26.43,0,0,0,18.09,2.92,27,27,0,0,0,14.84-8.72c14.12-15.48,28.07-31.11,42.3-46.48q42.29-45.69,83.18-92.63Q577,212.21,633.68,147.06c.39-.45.71-1,1.27-1.72-4.41-.11-8.45-.3-12.5-.31-8.48,0-17,0-25.43.17-12.15.26-24.3.44-36.43,1.1-14.6.8-29.19,1.91-43.76,3.21-12.18,1.09-24.35,2.36-36.46,4.06q-24,3.35-47.84,7.5c-25.13,4.34-50,9.91-74.66,16.44a441.72,441.72,0,0,0-66.57,22.92C289.92,201,288.56,201.68,287.11,202.34Zm-7.4-23.64c1-.35,1.78-.58,2.52-.87a799.65,799.65,0,0,1,95.46-30.15c17.28-4.34,34.66-8.26,52.19-11.49q21.21-3.91,42.52-7.3c10.49-1.68,21-3.11,31.57-4.45q14-1.79,28.12-3.11,13.6-1.28,27.25-2.09c12.2-.7,24.42-1.36,36.64-1.68,11.9-.31,23.82-.18,35.73-.21,4.48,0,9,.06,13.43.16s8.95.25,13.42.4a3.16,3.16,0,0,0,2.77-1,40.91,40.91,0,0,0,6.41-9.22,24,24,0,0,0-7.94-30.23,27.84,27.84,0,0,0-14.7-4.56c-9-.32-18.06-.57-27.09-.65-21.27-.19-42.53.16-63.76,1.48-12,.75-24.1,1.47-36.11,2.6q-20.4,1.93-40.73,4.62-21.14,2.83-42.18,6.44c-19.93,3.39-39.7,7.59-59.37,12.29-20.68,4.94-41.21,10.45-61.16,17.85-10,3.72-19.91,7.89-29.74,12.12-6.46,2.78-11.19,7.38-12.8,14.55a23.27,23.27,0,0,0,.52,11.62c1,3.38,2,6.73,3.06,10.09C277,170.07,278.35,174.27,279.71,178.7Zm74.76,291.75c-3.19-.69-6.09.83-8.51,3.64-1.1,1.27-2.35,2.4-3.48,3.64-3.17,3.48-5.66,7.37-6.47,12.1-.94,5.48.39,10.74,6,13.93,1,.55,2,1.09,3,1.57a90.4,90.4,0,0,0,16.09,5.45,2.68,2.68,0,0,0,2-.23c4.57-3.25,9-6.65,12.41-11.2a16.76,16.76,0,0,0-2.65-22.71C367.71,472.26,361.63,470.67,354.47,470.45ZM10.26,460.9a39.5,39.5,0,0,0-3.16-3c-1.22-.93-2,.15-2.88.86s-1.15,1.54-.36,2.48c.91,1.1,1.85,2.17,2.92,3.42Z"/></g></g></svg>