<svg xmlns="http://www.w3.org/2000/svg" viewBox="0 0 1011.15 574"><defs><style>.cls-1{fill:#1d1d1b;}</style></defs><title>Asset 24 2</title><g id="Layer_2" data-name="Layer 2"><g id="Layer_1-2" data-name="Layer 1"><path class="cls-1" d="M1006.58,515.81C993.06,482.37,981.65,447,963,416.2c-1.23-2-2.35-4.16-3.38-6.32l-.16.13-5.41-13.62c-10.84-6.36-10.53-23.9-12.31-34.6-7.12-42.8-12.06-87-22.12-129.19-1.89-10.9-7.4-24.6-17.45-25.49a12.39,12.39,0,0,0-3,.11A62.91,62.91,0,0,1,898,242.4c1.63-4.93-8.4-22.83-10.31-28L876.53,184,854.19,123.3c-9-24.41-12.15-64.84-21-89.3C825,11.69,815.07,13.69,788,14c-87.64.93-166.43,32.83-241.69,75.29C529.85,98.57,513.9,108.78,498,119c-34.29,21.95-68.59,43.66-103.84,64-24.27,14-65.6,34.39-87,3.74-4.58-6.57-6.71-14.5-8.75-22.24C288.47,126.85,276.54,51.82,263.15,0L223.44,4l-7.2,2.72c12.34,49.62,41.9,151.57,44,158,10.19,30.78,20.51,61.51,30.64,92.31,3.65,11.1,7.54,22.17,10.82,33.39.9,3.07,3,6.9,3.09,10.11s2.87,7.44,1.58,10.7c-1.52,3.85-14.34,6.9-14.62,10.38a31,31,0,0,1-1.41,7.15l.36.82c-4.32,4.95-10,8.85-15.5,12.57A2713,2713,0,0,0,22.88,535C11.82,544.59-.08,556.12,0,570.73L268.47,574a222.46,222.46,0,0,0,23.11-.6c11.51-1.07,22.61-3.8,31.92-10.44,8.7-6.21,14.71-15.07,20.65-24.07-.64-1.12-1.32-2.23-2-3.33,1.1,1.5,2.18,3,3.2,4.59A95.92,95.92,0,0,1,356,526.43a62.44,62.44,0,0,1,38.21-18.2,60.64,60.64,0,0,1,27.75,3.42c10,3.8,20.84,10.26,30.81,9.21a18.29,18.29,0,0,0,6.62-2c5.5-2.87,9-8.46,12.11-13.81,47.4-80.72,77.31-171.71,126.28-251,21.41-34.68,57.14-55,88.16-79.86,34.71-27.84,66.67-59.2,106.76-79.49,62.82,109.84,99.37,231.74,138.1,352.6l1.28-.94c9.81,24.72,19.77,49.35,30.15,73.76,4.18,9.83,8.8,20.11,17.45,26.37A24.68,24.68,0,0,0,993.3,551c5.91.13,11.63-2,14.95-6.82C1013.84,536,1010.29,525,1006.58,515.81Zm-715-5.11c-5.65,1.29-11.26,2.75-16.92,4a72.61,72.61,0,0,1-8.36,1.29l-1.19.1c-8.46.62-16.93,1.07-25.39,1.56l-.36,0-.69.07-.69.08a3.82,3.82,0,0,1-2.19-.25,8.36,8.36,0,0,0-5.08-1.14c-2.35.22-4.58,1.33-6.86,2.35a18.09,18.09,0,0,1-4.83,1.86c-9.34,1.19-18.68,2.61-28,3.48q-3.31.31-6.63.51c-17.26,1-34.57,1.51-51.87,1.67-8.75.09-17.52-.88-26.26-1.64-4.77-.41-9.32-1.77-11.78-6.5a6.63,6.63,0,0,1-.93-4.05c1.18-5.11,3.42-9.56,8.06-12.67a113.18,113.18,0,0,0,12.84-9.87c13-11.75,25.79-23.74,38.72-35.58,2-1.82,4-4.05,6.4-4.9,7.39-2.58,12.36-8.1,17.65-13.31,5.48-5.39,10.74-11,16.53-16.07,3.94-3.43,8.57-6.1,13-8.94,3.74-2.4,7.62-4.56,11.45-6.82,3.25-1.92,6.69-3.58,9.71-5.8,7-5.12,13.7-10.56,20.61-15.77q11.33-8.55,22.8-16.9a15.22,15.22,0,0,1,7.85-2.64c1.3-.12,2.62-.16,3.93-.2s2.63-.08,3.93-.2l.75-.08c2.29-.28,4.89-.75,6.64-2.07,2.36-1.77,4.63-3.66,6.88-5.59.32,1.06.63,2.12.91,3.18l.32-.28c13.8,21.72,19.36,44.55,12,69.54-1.52,5.19-2.8,10.48-4.69,15.53-3.45,9.22-2.34,18.37-.3,27.58.59,2.64,1.27,5.26,1.9,7.89.67,2.82,1.13,5.25-2.27,7.17-2.38,1.34-1.57,4.21,1.58,4.94,3.63.84,4.6,3,5.18,6.25.53,2.93,1.74,5.74,2.32,8.66-.66-.68-1.31-1.36-2-2C308.09,507,299.84,508.82,291.61,510.7Zm180.1-136.12c-6.19,12.78-12.09,25.73-19,38.1-4.95,8.85-11.39,16.89-21,21.43a16.61,16.61,0,0,1-5.35,1.5A14.82,14.82,0,0,1,413.76,431c-1.72-1.88-2.25-4.85-3.53-7.8a85.56,85.56,0,0,0,41.12-26.95c9-10.69,16.45-22.76,24.36-34.37,2.76-4,4.84-8.56,7.72-12.58C479.54,357.75,475.76,366.23,471.71,374.58Zm-19.19,13.36c-10.59,13.46-23.67,24.1-40.16,29.93a16.85,16.85,0,0,1-3.82.94,8.56,8.56,0,0,1-6.78-2.16c-3.35-2.82-7.45-4.76-10.69-7.68-3.5-3.15-5.49-7.22-4.55-12.31.83-4.48-1.66-7.95-3.82-11.62-3.4-5.78-7-11.61-9.24-17.87a45.19,45.19,0,0,1-2.2-15.38c0-3.23-1.9-6.56-3.34-9.67-1.16-2.52-2.9-4.76-5-8.18a48,48,0,0,1,4.79.51c12.25,2.83,24.48,5.78,36.75,8.56,12.67,2.88,25.42,4.31,38.38,2.95q1.55-.16,3.11-.38c16.45-2.3,30.65-9.31,43.21-20l2-1.65C480,347.16,467.79,368.54,452.52,387.94Zm58.14-103c-4.07,7.84-7.5,16.15-12.56,23.3-12.58,17.75-29.79,28.64-51.48,32.37q-2.45.42-4.89.68c-13.87,1.46-27.39-.91-40.9-4-12.53-2.83-25-5.75-37.58-8.6-2.1-.48-7-6-6.48-8a4.46,4.46,0,0,1,2.72-2.49c9-2.81,18.14-5.45,27.22-8.13,3.37-1,6.7-2.31,10.14-2.75l.15,0c2.25-.24,4.65.7,7,1.13.59.11,1.22.58,1.74.52h.09c11.12-2.55,22.3-4.9,33.32-7.83,12.94-3.45,25.71-7.49,38.62-11.07a8.82,8.82,0,0,1,1.42-.26,6.79,6.79,0,0,1,4.34.77,7.88,7.88,0,0,0,5.69,1.5,16,16,0,0,0,2.75-.58c3.51-1,7.2-1.55,10.53-2.95,2.17-.91,4-2.89,5.72-4.59a14.85,14.85,0,0,0,2-3.27l1.21.48A13.62,13.62,0,0,1,510.66,285Zm189-224.72c-4,16.45-29,26.66-40.78,37.16-20.3,18.08-40.34,36.47-60.51,54.7-27,24.42-42.94,46.38-59.73,77.62-16.29,30.32-38.75,20.78-43.79-10.11-.89-5.47-6.89-9.28-12.48-8.87l-.34,0c-2.54.27-4.09,1.42-5.71,3.79-2.07,3-5.2,6.09-8.55,7.37-8.15,3.12-16.68,5.24-25.06,7.73-6,1.77-11.95,3.42-17.89,5.24-5.59,1.71-7.63,5.23-6.13,10.85a83.91,83.91,0,0,0,3.67,10.76c1.51,3.61,3.91,5.33,7.3,5a10.71,10.71,0,0,0,1.84-.37c12.33-3.55,24.57-7.42,36.87-11.09a8.19,8.19,0,0,1,1.49-.28c.88-.09,1.81-.1,2.74-.2.19,4.3-2.31,5.78-5.31,6.66-9.49,2.77-19,5.43-28.51,8.18-9.88,2.86-19.79,5.64-29.59,8.75-4.29,1.36-8.35,3.45-12.51,5.22-.24.1-.64.24-.67.4-1.09,6.66-7.26,6.08-11.5,7.43-12.44,3.95-25.1,7.22-37.68,10.72l-10.45-45.57a53.69,53.69,0,0,1,8.3-1.73,154.84,154.84,0,0,1,16-13.14c26.87-18.73,53.77-37.51,81.64-54.69,35.48-21.88,71.79-42.43,108-63.11,13.81-7.89,27.74-15.55,41.73-23.12,0-.57-.1-1.13-.14-1.7,0-.19,0-.39,0-.58,18.42-8.07,37-15.86,55.55-23.55,14.61-6,29.31-12.11,45.08-14.71,3-.49,5.19-.67,7.67,1.18A16.44,16.44,0,0,1,699.69,60.26Z"/></g></g></svg>