<svg xmlns="http://www.w3.org/2000/svg" viewBox="0 0 146.65 113.14"><defs><style>.cls-1{fill:#010101;}</style></defs><title>Asset 10</title><g id="Layer_2" data-name="Layer 2"><g id="Layer_1-2" data-name="Layer 1"><path class="cls-1" d="M146.65,70.59c-10.38-5.93-9.6-16.07-11.35-25.26-.83-4.36-2.94-8.53-3.43-12.9a82.7,82.7,0,0,1,0-16c.45-5.51,1.6-11,2.45-16.43-6.48.07-13,0-19.45.33-1.82.1-3.51,1.76-5.38,2.21C103,4.09,100.85,8.27,100,14.62a16.17,16.17,0,0,1-5.93,10c-8.32,6-18,5.6-27.78,4.13-3.1-.47-7.21-.88-9.44.69C48.94,35,40.44,36.28,31,36.2c-4.31,0-8.65,3.44-12,4.89v0L3.9,45.85a5.57,5.57,0,0,0-3.64,7L6.66,73.2,11,87c.46,1.46.47,3.92,1.93,4.83a3.43,3.43,0,0,0,3.32-.15c1.21-.55,2.4-1.41,3.34-1.86,4-1.9,15.86-.82,14-7.16C32.32,78.32,30.9,74,29.52,69.6c-1.83-5.74-3.74-11.45-5.59-17.19,4-1.63,9.54-1.42,14.67-.81l.18-.06a5.38,5.38,0,0,1,.94,0,.71.71,0,0,1,.64-.06c7.22-.37,13.37-.45,19.47-1.07C64.21,50,68.52,48.82,73,48c.86,14-6.69,23-19.56,29A4.06,4.06,0,0,1,51.54,78a8.74,8.74,0,0,0-1.31.49,33.21,33.21,0,0,1-6.1,10.4c-.47,1.46-.88,3-1.28,4.45a.85.85,0,0,1,.2.2.6.6,0,0,1,.2,0l.21.07a.84.84,0,0,1,.42,1.27A1.79,1.79,0,0,1,43.51,96a.68.68,0,0,1-.25.47,5.46,5.46,0,0,1-.33.47,8,8,0,0,1-.54,1.64,4.12,4.12,0,0,1-.5,1.42c1.57,4.38,3.68,8.61,5.14,13,5.51.69,11-2.24,15.83-4.52h.06l.18-.09a.88.88,0,0,1,.62-.49c5.78-2.79,10.7-4.71,15.13-7.43,19.85-12.18,36.63-26.24,31.62-53.37-.42-2.29,2-5.11,3.13-7.68,1.92,7.23.06,14.69,2.42,20.39,2.57,6.21,8,12.34,17.66,12.82L125.3,59.84C134,63.64,136.67,73,146.65,70.59ZM58.34,88.76A.78.78,0,0,1,58,89a18,18,0,0,1-2,.66.77.77,0,0,1-.49.23l-.21.12a.88.88,0,0,1-.7.19.83.83,0,0,1-.42.17,6.13,6.13,0,0,1-1.35.68,4.72,4.72,0,0,1-1.77.54c-1,.47-2,1-3,1.52a.77.77,0,0,1-.35.1,1.22,1.22,0,0,1-1,.16,2,2,0,0,1-1.55-.73.8.8,0,0,1-.48-.74.79.79,0,0,1-.07-.47.7.7,0,0,1,0-.38c.67-2,2.27-3.39,3.08-5.31a.86.86,0,0,1,.3-.36,4,4,0,0,1,1.75-2.2,55.67,55.67,0,0,0,6.72-4.51c3.33-4,11-5.42,12.27-11.52C73.05,81.34,70.72,85.94,58.34,88.76Zm13.82-7.31,5.17-35.71C93.13,51.16,93.93,65.73,72.16,81.45Z"/></g></g></svg>