<svg xmlns="http://www.w3.org/2000/svg" viewBox="0 0 363.81 361.29"><defs><style>.cls-1{fill:#1d1d1b;}</style></defs><title>Asset 23</title><g id="Layer_2" data-name="Layer 2"><g id="Layer_1-2" data-name="Layer 1"><path class="cls-1" d="M237.43,351.17c-26.66,8.78-56.81,12.92-84.67,8-32-5.6-65.72-25.83-90.42-46.5a168.29,168.29,0,0,1-44.17-56.78C-4.36,208.61-6.1,160,13.86,111.54,45.12,35.6,119.33-4,191.3.32c86.11,5.14,154.22,67.6,169.2,147.09,8.4,44.55.8,86.6-22.65,125.44C315.45,309.94,278.63,337.6,237.43,351.17ZM181.7,50.74c-13.85.32-13.89.53-13,11.27,1.15,13.59,2,27.21,2.8,40.83,1.12,18.6,2,37.22,3.22,55.82a20.49,20.49,0,0,0,2,6.64c1.34,3.08,3.44,3.14,5.08.35s3.44-5.8,4.13-8.94c3.42-15.61,6.44-31.3,9.71-46.95,3.43-16.46,6.9-32.92,10.53-49.33,1-4.65.3-7.19-5.14-7.5C194.55,52.54,188.13,51.49,181.7,50.74Zm-5,146.33-2.93-7.51c-2.41,1.83-4.86,3.6-7.2,5.51a7.32,7.32,0,0,0-1.25,2.14l-35.92,63.41q-6.4,11.29-12.79,22.59c-2,3.54-2.9,6.72,2.12,8.74,7.4,3,14.59,6.48,22.06,9.25,7.93,2.93,8.27,2.54,10.43-5.74q11.71-44.92,23.4-89.84C175.24,203.06,175.83,200.48,176.67,197.08ZM248,69.69c-2.29,2.93-3.94,4.76-5.28,6.81Q216,117.2,189.38,158a15.39,15.39,0,0,0-2.62,5.82c-.29,2,.53,4.16.86,6.25,2.13-.73,4.74-.9,6.3-2.27q30.55-26.86,60.83-54c7.15-6.38,14.2-12.87,22.33-20.26ZM178.57,199.38c.12,1.1.19,1.77.27,2.43q4.41,35.65,8.83,71.3c1.22,9.74,2.56,19.46,3.84,29.19.45,3.42,2,5,5.74,4.1,8.7-2.18,17.42-4.26,26.19-6.17,4.57-1,5-3.55,3.49-7.28-2.28-5.54-4.58-11.08-6.82-16.63-10.88-27-21.72-54.06-32.71-81-.68-1.67-2.64-2.81-4-4.2a42.9,42.9,0,0,0-4.06,4.86C178.67,197,178.74,198.49,178.57,199.38Zm-4.91-35.07c-.91-2.36-1.53-4.24-2.34-6-7-15.64-14.16-31.25-21.19-46.89-6.55-14.58-13-29.21-19.57-43.79-2.65-5.89-3.22-6.19-8.9-3-6.82,3.81-13.54,7.85-20,12.23-7.11,4.82-7,5.11-1.53,11.61,12.69,15,25.47,29.93,38.2,44.9,9.28,10.91,18.46,21.9,27.87,32.7a6.67,6.67,0,0,0,4.93,1.82C172.05,167.78,172.83,165.55,173.66,164.31Zm125.63-33.48c-2.88.86-5.47,1.44-7.91,2.4q-48.12,18.92-96.16,38c-1.25.5-2,2.38-2.92,3.62,1.51.85,3.09,2.55,4.53,2.44,30.52-2.4,61-5,91.53-7.57,5.3-.45,10.64-.71,15.86-1.64,1.51-.27,3.89-2.66,3.79-3.91A97.86,97.86,0,0,0,299.29,130.83ZM168.19,188.49c.12-3.78-2.77-5.12-6.15-3.62q-24.89,11-49.74,22.06c-15.2,6.77-30.36,13.63-45.58,20.37-3.79,1.68-5.79,3.69-3.12,7.9,4.19,6.59,8,13.43,12.42,19.88s4.78,6.47,11.05,1.37Q125.6,225.09,164,193.59C165.87,192.07,167.12,189.83,168.19,188.49Zm121.52,59.08c-2.38-1.77-4.4-3.49-6.61-4.87-5.08-3.17-10.29-6.14-15.41-9.26q-36-22-72-44.1c-2.89-1.77-5.61-3.23-8,1.35,2.36,2.72,4.67,5.53,7.14,8.2q23.37,25.32,46.79,50.59c6.67,7.21,13.2,14.55,20,21.62,1.58,1.64,3.41,5.16,6.48,2.38A111.75,111.75,0,0,0,289.71,247.57ZM163.27,174.2l2.22-1.14c-.94-1.19-1.63-2.78-2.85-3.51-12-7.22-24-14.26-36.06-21.41q-25.74-15.32-51.45-30.7c-6.81-4.06-7-4.13-10.54,3.12a185.81,185.81,0,0,0-7.78,18.36c-3.54,9.87-3,10.45,7.37,12.77q32.14,7.19,64.25,14.51C139.79,168.78,151.14,171.41,163.27,174.2Zm30.25,9.38-.6,1.38c1.29.92,2.52,1.93,3.87,2.76q27.73,16.9,55.49,33.75c11.09,6.76,22.11,13.64,33.26,20.3,5.41,3.23,6.63,2.93,9.15-2.66q4.93-10.9,9.07-22.16c2.37-6.45,1.81-7.12-4.88-9-.8-.22-1.61-.41-2.42-.6l-72-16.64Zm-29.61-3.72.17-2.57a44.49,44.49,0,0,0-5.27-1.92q-35-8.07-70.06-16c-9.89-2.26-19.75-4.69-29.68-6.77-2.08-.44-5.7-2.13-6.17,1.72-1.34,10.81-2.13,21.68-3.25,33.82C88.85,185.43,126.4,182.84,163.91,179.85Zm30.73.1.07,1.41c1.39.41,2.77.9,4.18,1.23q28.68,6.68,57.37,13.31c14.42,3.35,28.83,6.75,43.27,10,6.84,1.56,7.17,1.46,7.91-5.27.87-7.92,1.42-15.89,1.74-23.85.22-5.46-1.37-6.61-7-6.1-5.8.52-11.59,1.08-17.39,1.55q-39.28,3.17-78.57,6.32C202.37,178.91,198.51,179.49,194.64,179.95Zm-33.37,2.88a12.8,12.8,0,0,0-2-.32q-33.31,2.4-66.62,4.83c-12.26.9-24.51,1.92-36.78,2.8-3,.22-5,1.34-4.25,4.59,2.33,9.84,4.76,19.67,7.47,29.41.28,1,2.73,2.11,4.07,2,2.07-.17,4.11-1.24,6.07-2.11q23-10.25,46-20.58Zm31.36,16.41-.92.57c.44,1.21.84,2.43,1.32,3.62q10.71,26.61,21.44,53.22c4.8,11.87,9.66,23.72,14.45,35.59,1.53,3.78,3.61,5.22,7.55,2.75,7-4.41,14.39-8.31,21.28-12.94,6.59-4.42,6.48-4.89,1-10.92Q238.43,248.8,218,226.6C209.57,217.44,201.09,208.35,192.64,199.23Zm-28.94-31.67.47-.59c-.77-1-1.51-2.06-2.33-3q-18.78-22.08-37.58-44.14c-8.85-10.41-17.64-20.86-26.5-31.26-4.17-4.89-5.27-5.1-9.4-.47-5.54,6.2-10.65,12.78-16,19.17-2.38,2.86-1.86,5.08,1.27,6.89,1.15.67,2.24,1.45,3.38,2.13q36.74,21.83,73.49,43.64C154.88,162.51,159.3,165,163.69,167.57Zm115-72.19-80.32,71.28.51.81,100.24-39.8ZM81.36,263.6c9.11,7.57,17.19,14.13,25.09,20.9,3.76,3.23,6.15,2,8.23-1.76.49-.87,1-1.73,1.49-2.6q21.24-37.65,42.46-75.3c.82-1.46,1.49-3,2.23-4.53l-1.1-.77ZM188.8,153.22l.83.44q16.68-25.43,33.36-50.87c6.38-9.75,12.7-19.54,19.11-29.27,2.39-3.63,1.8-6-2.37-7.63-7.59-3-15-6.4-22.68-9.12-6.93-2.47-7.51-2.09-9.05,5.13C201.52,92.32,195.19,122.77,188.8,153.22ZM177,205.11c-.66,2.35-1,3.61-1.36,4.87q-9.64,36.94-19.27,73.89c-1.42,5.47-2.66,11-3.95,16.49-.66,2.84.36,4.46,3.42,4.7,8.77.68,17.53,1.66,26.31,2,7,.31,7.6-.76,6.66-7.85-1.64-12.36-3.16-24.74-4.71-37.11C181.79,243.51,179.48,224.87,177,205.11Zm-5.63-51.9.72-.21c0-1.78.09-3.56,0-5.33-1-17.59-2-35.18-3.13-52.76-.79-12.44-1.91-24.85-2.53-37.3-.24-4.92-2.57-6.09-6.73-5.09-7.6,1.81-15.23,3.51-22.71,5.71s-7.36,2.63-4.16,9.71q10.78,23.87,21.54,47.76Q162.86,134.46,171.39,153.2Z"/></g></g></svg>