<svg xmlns="http://www.w3.org/2000/svg" viewBox="0 0 389.39 388.99"><defs><style>.cls-1{fill:#1d1d1b;}</style></defs><title>Asset 22</title><g id="Layer_2" data-name="Layer 2"><g id="Layer_1-2" data-name="Layer 1"><path class="cls-1" d="M389.29,191.7c1,30.88-5.18,61.75-19.34,89-31.42,60.5-81.09,96.76-148.53,106.33A193.53,193.53,0,0,1,10.69,257.54c-35.3-103.38,19.87-212.13,120.37-246,66.28-22.36,128.41-12,184.19,30.1C360.78,76,387.49,133.85,389.29,191.7ZM239.92,375.19c3.08-1.16,6.16-2.35,9.25-3.48s6.19-2.21,9.29-3.31a206.74,206.74,0,0,1-110.07,4.48c13.59,4.34,27.44,7,41.63,6.71,12.45-.28,24.89-1.37,37.33-2.11a16.37,16.37,0,0,1-2.67,1.1C209,382,193.24,380.75,177.47,380c-4.88-.23-9.74-.95-14.61-1.44,26,8.3,80.3,1.8,87.76-5.65Zm-34.81-186.9c.52-1.55,1.37-3.08,1.47-4.66.14-2.25.57-5.5-.65-6.59-2-1.77-4.94-1.22-6.77,1.56-2.08,3.16-3.83,2.51-6.21-.13-1.34-1.49-4.45-2.88-6-2.31-2.63,1-3.35,3.72-1.78,6.68,1.78,3.36.39,5-3.27,5-3.15,0-5.36,1.47-5.19,4.66s2.79,4.44,5.73,4c1.71-.26,3.28-1.38,5.55-2.4.5.82,2.07,2.34,1.76,3-1.84,4.16,2,4.41,3.72,4.67s4.06-1,5.74-2.15a10.75,10.75,0,0,0,3.3-4.17,75,75,0,0,0,2.72-7.43l1.13,9.88c.47,0,1.82.41,2.63-.08,1.87-1.14,4.52-2.44,5-4.16.73-2.84-1.61-4.24-4.55-4.4A22.92,22.92,0,0,1,205.11,188.28Zm37.17-30.47.56,1.37c23-7.94,46.49-12.64,70.93-11.08,8.43.54,16.93.68,25.23,2,6.33,1,12.35,1.49,18.5-.42,3.22-1,4.69-2.57,3.51-6.21C347.73,102.91,323.4,70.85,287.18,48a11.77,11.77,0,0,0-5.62-1.59c-20-.75-37.4,5.87-50.46,20.76-21.26,24.24-28.9,53.39-27.28,85.19.26,5,1.21,10.06,1.86,15.26,27.82-12.22,55.68-20.35,85.36-20.94-8.15,1.44-16.43,2.29-24.5,4.1S250.36,155.44,242.29,157.82Zm-30,58.8c-.68,5.08-1.22,9.17-1.77,13.26-.58,4.28-1,8.6-1.81,12.85-7.28,39.43-24.88,73.79-51,104a30.89,30.89,0,0,0-5.36,9.92c-2.06,5.89-1.76,6.3,4.47,7.61,39.4,8.27,77.4,4.36,113.89-13.1,5.7-2.73,9.83-6.41,12.49-12.14,7.17-15.4,9.51-31.44,4.21-47.62C275.23,254.27,248.49,231.36,212.28,216.61Zm-28.34,3.9c-8,3.38-15.66,7-23.59,9.88-38.25,13.78-77.32,15.85-117.09,8-3.29-.65-6.89-.08-10.31.3-4.67.53-5.73,2.85-4.25,7.55,12.91,40.91,37.83,72.51,73.68,95.7a9.09,9.09,0,0,0,4.64,1.36c24.51.15,44-10.09,57.81-30,18.37-26.4,22.5-56.42,20.26-87.73A35.23,35.23,0,0,0,183.94,220.51Zm134.64,96.12.39.39c6.75-8.79,15.44-15.14,21.16-24.52,7.54-12.36,12.93-26.81,18.85-40,5.27-11.76,10.42-23.92,11.07-36.78,1-18.92-11.54-36.12-27.22-45.72-18.12-11.11-41-12.26-61.68-7.35-15.82,3.76-30.58,10.8-44.71,18.72-8,4.46-12.66,4.86-7.78,12.37,3.28,5,12.81,9.64,17.49,13.76a209,209,0,0,1,51.63,69.1C303.77,289.56,308.46,306.46,318.58,316.63Zm-142-145.23c.27-2,.4-3.29.63-4.57,2.52-13.56,4.17-27.36,7.77-40.64,8.55-31.53,24.53-59.2,46.38-83.45,4.11-4.56,5.85-9.76,6.13-15.81-1.53-.49-2.6-.94-3.72-1.18-41.2-9-80.72-4.46-118.28,15A19,19,0,0,0,108,48.19c-9.46,17.63-11.3,36.15-4.13,54.95,7.6,19.91,20.6,36,37.29,49.11C151.66,160.51,162.92,167.46,176.61,171.4Zm-11.2,26.77c-40.91-28.55-69.36-65.58-84.66-112.5a23.08,23.08,0,0,0-4.67-7.54c-4.63-5.35-5.26-5.28-9.92-.13Q26.86,121.47,21.5,179.84c-.48,5.21-1.14,10.49,2,15.48,10,15.75,23.51,26.91,41.75,31.06,22.14,5,43.68,1.28,64.59-6.77A114.21,114.21,0,0,0,165.41,198.17ZM91.35,236.63l0,1.52c2.51,0,5.09.4,7.5-.07,10.94-2.12,22-3.91,32.7-6.89a156.14,156.14,0,0,0,47.14-22.44c2.75-1.9,4.91-3.8,2.49-7.23s-5.11-2-7.72-.12c-.8.59-1.64,1.14-2.44,1.73a175.91,175.91,0,0,1-71.57,31.64C96.76,235.32,94.06,236,91.35,236.63Zm192.09,26.21,1-.86a15.83,15.83,0,0,0-1.3-3c-12.37-17.6-27.13-32.86-45-44.87-7-4.72-14.38-9-21.7-13.3-2.62-1.54-6-2-7.1,1.48-.49,1.5,1.29,4.51,2.88,5.73a59.72,59.72,0,0,0,10,5.6,170.88,170.88,0,0,1,58.16,46.25A31.75,31.75,0,0,0,283.44,262.84Zm14.45-110.77-.29-1.29a8.29,8.29,0,0,0-2.32-.33c-8.87,1.31-17.85,2.14-26.56,4.14-20.06,4.62-39.11,11.89-55.94,24.07-1.2.87-2.41,3-2.15,4.26a5.45,5.45,0,0,0,3.55,3.36c1.29.3,3.14-.77,4.43-1.68a180.63,180.63,0,0,1,75.89-31.29A18.6,18.6,0,0,0,297.89,152.07ZM106.73,126.47l-1.37,1.12c.69,1.19,1.29,2.45,2.09,3.56a180.51,180.51,0,0,0,56.72,51.61,39.76,39.76,0,0,0,9.06,3.91c1.31.37,4.12-.58,4.4-1.49a6.16,6.16,0,0,0-1.06-5.19c-1.64-1.73-4.06-2.83-6.3-3.86a170.71,170.71,0,0,1-57.18-42.53C111,131.2,108.86,128.84,106.73,126.47ZM209.21,84.22l-1.23-.6c-.89,1.68-1.85,3.34-2.67,5.06-11.51,24.23-15.94,49.95-15.91,76.58,0,2.14-.1,4.55.82,6.34.73,1.42,3.09,3,4.46,2.79s3-2.35,3.56-4,0-3.62-.17-5.44a168.77,168.77,0,0,1,4.32-58C204.3,99.31,206.91,91.8,209.21,84.22ZM179.47,305.08l1.36.52c.9-1.64,1.9-3.24,2.67-4.94a178.35,178.35,0,0,0,16-80c-.11-3.42-.37-6.73-4.88-6.39-4.29.32-3.93,3.53-3.64,6.7,2.5,27.38-.42,54.06-10.43,79.82A34.07,34.07,0,0,0,179.47,305.08ZM97.57,232c-26.43,3.5-52.53,2.2-78.15-5.67C44.91,235.56,70.93,237.84,97.57,232Zm87.57-32.57c-.6,2.8-1.52,5.2-1.41,7.56,0,.91,2.74,2.68,3.65,2.37,2.2-.76,4.07-2.51,6.39-4.08Zm19.25,1.3-7.74,4.5c2,2.46,3,6.87,7.47,4.36C208.32,207.21,205.94,203.93,204.39,200.72Z"/></g></g></svg>