<svg xmlns="http://www.w3.org/2000/svg" viewBox="0 0 168.49 62.51"><title>Asset 15 1</title><g id="Layer_2" data-name="Layer 2"><g id="Layer_1-2" data-name="Layer 1"><path d="M0,27.93c1-1.3,1-2.58,1.81-3.82,2.5-4,5.2-6.42,9.4-7.93a75.86,75.86,0,0,1,16-3.67c32.16-4.06,58.21-8,90.4-12,.42-.05,6.92-.32,7.3-.56h8a53.72,53.72,0,0,1,19.68,7c13.36,7.92,19,19.05,14.21,33C161.42,55.68,140.65,65.35,118,61.77,95.49,58.23,72.69,56,50,53.22c-9-1.12-18-2.32-27.09-3.33C12.27,48.7,4.05,45.14.54,36.65.19,35.8.55,35,0,34.18,0,32.11,0,30,0,27.93Zm165.68,2c.21-8.06-5.46-17.36-19-23.67-9.93-4.63-20.39-3.89-31-2.62C96.7,6,77.69,8.45,58.67,10.86,44.89,12.6,31,14,17.37,16.23,8.06,17.73,2.15,24.07,1.94,31.1c-.2,6.84,5.26,13.12,14.14,15.26,5.19,1.25,10.72,1.68,16.12,2.35C63,52.51,93.76,56.46,124.61,60,145.5,62.37,164.24,49.37,165.68,30Z"/></g></g></svg>