<svg xmlns="http://www.w3.org/2000/svg" viewBox="0 0 81.22 59.82"><title>Asset 18</title><g id="Layer_2" data-name="Layer 2"><g id="Layer_1-2" data-name="Layer 1"><path d="M26.52,59.63l-.24,0c-.35-.56-.59-1.4-1.09-1.6s-1.13.43-1.7.7-1,0-1.16-.59c-.3-1.22-1-1.34-1.92-.68-.78.53-1.3.27-1.47-.6-.22-1.13-.75-1.39-1.77-.84-.66.35-1.28.11-1.37-.61-.16-1.25-.78-1.38-1.82-1-.74.24-1.21-.18-1.15-.92.09-1.31-.54-1.54-1.62-1.22-.71.21-1.07,0-1.09-.79,0-1.68,0-1.68-1.69-1.77a5.43,5.43,0,0,1-.65-.11C8,47.58,8,47.62,6.37,46.86a1.33,1.33,0,0,1-.54-1.17c.31-1.07-.15-1.53-1.09-1.66s-1-.59-.65-1.26c.48-1,0-1.57-1-1.88-.33-.1-.66-.23-1-.36a3.28,3.28,0,0,1,.23-.37c1.27-1.43,1.28-1.45-.31-2.55-.71-.49-.53-1-.09-1.5.69-.8.38-1.38-.39-1.84-.36-.22-.76-.39-1.55-.79a4.29,4.29,0,0,0,.93-.34c1.37-1,1.37-1,.21-2.29-.48-.51-.53-1.06.06-1.41,1-.61.85-1.23.32-2.07a1.32,1.32,0,0,1,.08-1.26c1.06-1,.67-1.81-.21-2.62l.12-1c1.92-.28,2-.42,1.23-2.09-.36-.77-.12-1.07.65-1.24,1.21-.27,1.33-.56.82-1.64s-.44-1.32.86-1.43c.91-.07,1.18-.53,1-1.36-.1-.48-.19-1-.35-1.78,1.12,1,1.81.48,2.12-.3A5.69,5.69,0,0,0,8,10.79a4.92,4.92,0,0,0,1.87-.37c.36-.24.4-1,.53-1.52a5.26,5.26,0,0,0,.12-.83c.57.16.89.36,1.18.31a1.66,1.66,0,0,0,1.45-1.77c0-.31.65-.87.74-.82,1.13.59,1.65.39,2-.84.11-.42.25-.82.48-1.57l.19,1.08A2.57,2.57,0,0,0,19.25,3a.91.91,0,0,1,1.45-.47c.75.44,1.25.1,1.53-.56s.78-1,1.59-.63A1.8,1.8,0,0,0,26.12.77c.17-.22.86-.35,1-.2.94.91,1.61.67,2.31-.3a1,1,0,0,1,1-.16C31.93,1.2,31.91,1.22,33.2,0l1,.12c1,1.49,1.27,1.52,2.38.31l1,.12c.71,1.55.71,1.56,2.19.76.68-.37,1.19-.21,1.41.51.36,1.13,1,1.24,1.87.59s1.22-.26,1.43.62c.33,1.4.35,1.4,1.75.79.83-.36,1.27-.28,1.29.78C47.46,6,47.59,6,49,5.91c.36,0,1.08.35,1.07.5C50,8.09,51,8.19,52.21,8a1.13,1.13,0,0,1,.43.12c.29,2.07.29,2.07,2.55,2.63-.51,1.37-.4,2.45,1.44,2.52.14,0,.44.73.33,1-.45,1.14-.11,1.65,1.07,1.79.9.11,1.23.63.62,1.4-.75.94-.48,1.45.55,1.89a1.3,1.3,0,0,1,.7.94,4,4,0,0,0,1,2.86,1.19,1.19,0,0,1,.16.32,1.08,1.08,0,0,1-.17.31c-.88.8-1.22,1.53,0,2.38.57.4.39,1-.13,1.41a1.07,1.07,0,0,0-.08,1.75,1.18,1.18,0,0,1,0,1.88,1.16,1.16,0,0,0,.23,2,20.08,20.08,0,0,0,3.75,2c4.34,1.59,8.77,3,13.1,4.6a5.16,5.16,0,0,1,3.07,6.77c-.92,2.68-3.15,3.85-6.28,3-2.77-.74-5.47-1.74-8.19-2.66s-5.1-1.86-7.69-2.66c-2-.63-3,.18-2.92,2.21,0,.85-.37,1.2-1.18,1-1.1-.22-1.48.22-1.34,1.3.1.73,0,1.26-1,1.18-1.15-.1-1.72.39-1.55,1.63.11.78-.4,1.23-1.09.95-1.27-.51-1.61.13-1.94,1.16-.1.31-.71.75-1,.68-1.35-.34-1.81.18-1.9,1.48,0,.74-.55,1-1.28.57-1.35-.82-1.45-.82-2.06.59-.37.86-.87,1-1.54.46-1-.81-1.47-.44-1.85.56-.31.8-.78,1.14-1.5.41s-1.38-.65-2,.19-1.12,1-1.81.13-1.16-.69-1.71.15c-.73,1.12-1.05,1.13-1.83.09-.58-.77-1.14-.95-1.86-.2A11,11,0,0,1,26.52,59.63Zm2-11.08c2.28-.23,5-.38,7.65-.8,1.73-.27,2.38-1.56,1.46-2.72a26.2,26.2,0,0,0-4-4.23,5.1,5.1,0,0,0-6.46,0,27.69,27.69,0,0,0-3.57,3.36,1.71,1.71,0,0,0,.61,3A41.15,41.15,0,0,0,28.49,48.55ZM41.87,22.83c1.22-.29,3.18-.72,5.11-1.27.25-.07.49-.83.42-1.21A2.66,2.66,0,0,0,46.63,19,42.71,42.71,0,0,0,42.24,15a21.51,21.51,0,0,0-4.62-2.44c-1.46-.6-2.32.14-2.29,1.71,0,.76.08,1.51.1,2.27C35.51,19.84,37.79,22.36,41.87,22.83ZM21.39,33.77a4.56,4.56,0,0,0-2.15-4.68,33.35,33.35,0,0,0-4.41-1.84c-.67-.24-1.32-.15-1.45.86-.49,3.66-.59,7.25,1.48,10.55a10.78,10.78,0,0,1,.64,1.42c.64,1.46,1.21,1.56,2.14.23,1.16-1.67,2.21-3.41,3.26-5.16A6.13,6.13,0,0,0,21.39,33.77Zm7.17-21.25c-5,1.64-9.41,3.6-12.33,8a9.18,9.18,0,0,0,1.29.63,11.16,11.16,0,0,0,5.49.64,5.05,5.05,0,0,0,3.25-1.43C28.13,18.19,28.21,15.46,28.56,12.52ZM46.37,40.58l-.1-.4a17.36,17.36,0,0,0-2.75-.51c-1.12,0-1.51.85-.93,1.81a1.64,1.64,0,0,0,2.48.47A11.84,11.84,0,0,0,46.37,40.58Zm30.19,2.7a1.7,1.7,0,0,0-2.12,1.31,1.45,1.45,0,0,0,1.2,1.67,1.63,1.63,0,0,0,2-1.28A1.38,1.38,0,0,0,76.57,43.28ZM47.08,28.79c.22.11.42.23.63.32a5.44,5.44,0,0,0,1.11.41,2.47,2.47,0,0,0,.83-.15,2.36,2.36,0,0,0-.29-.8C48.68,27.79,47.85,27.88,47.08,28.79Z"/></g></g></svg>