<svg xmlns="http://www.w3.org/2000/svg" viewBox="0 0 191.4 68.03"><defs><style>.cls-1,.cls-2{fill:#1d1d1b;}.cls-2,.cls-3{stroke:#fff;stroke-miterlimit:10;stroke-width:0.1px;}.cls-3{fill:#fff;}</style></defs><title>Asset 20</title><g id="Layer_2" data-name="Layer 2"><g id="Layer_1-2" data-name="Layer 1"><path class="cls-1" d="M1.89,10.78c1.24.46,3-.11,2.64-1.73a5.37,5.37,0,0,0-.41-.86C4,7.84,3.9,8.06,4,7.73s.39-.4.54-.56.51-.62.81-.6.69.5,1.11.53A1.7,1.7,0,0,0,8.33,5.24c0-.17-.09-.33-.1-.5,0-.47-.2-.18.21-.52A3.53,3.53,0,0,1,9.72,3.6c.34,0,.28.17.54.47a1.76,1.76,0,0,0,2.09.43,1.66,1.66,0,0,0,.87-1.2c.09-.39,0-.6.26-.77a4.94,4.94,0,0,1,1.61-.17c.42.15.53,1.2,1.21,1.52A1.7,1.7,0,0,0,18,3.72a3.24,3.24,0,0,0,.55-.7c.06-.08.11-.38.19-.42a4.25,4.25,0,0,1,.77.19c.22.05,1,.12,1.16.28s0,.93.11,1.18c.46,1.35,1.75,1.15,2.73.61.47-.26.37-.36.91,0a4.18,4.18,0,0,1,.84.58c.35.39.17-.07.13.5,0,.14-.12.3-.15.45a1.67,1.67,0,0,0,.26,1.21,1.64,1.64,0,0,0,1.57.83c.27,0,.78-.41,1-.38s.83,1.05.95,1.28c.27.54.06.34-.28.86a1.73,1.73,0,0,0,.5,2.41,1.88,1.88,0,0,0,.9.24c.54,0,.53-.16.78.33a4.25,4.25,0,0,1,.4,1.34c0,.35-.43.35-.75.64a1.72,1.72,0,0,0,.34,2.77c.36.19.7.13.83.47a4,4,0,0,1-.08,1.21c0,.69-.08.55-.64.72a2,2,0,0,0-.84.42,1.74,1.74,0,0,0-.5,1.35,1.58,1.58,0,0,0,.22.69c.17.3.68.49.8.74s-.17.78-.34,1.17a2.09,2.09,0,0,1-.24.55c-.29.26,0,.06-.37.1-.66.07-1.12-.17-1.69.34a1.69,1.69,0,0,0-.37,2.07c.06.12.26.31.29.43.07.31,0,.23-.22.52a3.7,3.7,0,0,1-.95,1c-.28.11-.64-.33-1.05-.43a1.79,1.79,0,0,0-1.15.1,1.66,1.66,0,0,0-.92,1.86c.1.62.28.64-.34,1-.4.21-1,.64-1.35.48s-.45-.67-.85-.85a1.71,1.71,0,0,0-1.2-.1A1.66,1.66,0,0,0,18.81,33c-.1.4,0,.69-.27.87a6.57,6.57,0,0,1-1.84.21,1.79,1.79,0,0,0-2.06-1.79,1.54,1.54,0,0,0-1,.58c-.17.21-.22.49-.38.69-.3.39-.34.24-.91.1-.23-.06-1.11-.13-1.2-.29s.08-.63.07-.78a1.69,1.69,0,0,0-.58-1.25A1.79,1.79,0,0,0,8,32L6.3,30.84a1.77,1.77,0,0,0-.23-2.52A1.7,1.7,0,0,0,5,28a1.87,1.87,0,0,0-.75.19c-.36.17-.29.27-.59.12s-.46-.62-.63-.85-.46-.5-.37-.79.61-.59.72-1a1.73,1.73,0,0,0-.89-1.93,3.38,3.38,0,0,0-1.2-.13c-.42-.05-.22.11-.43-.32a6.25,6.25,0,0,1-.28-1c-.23-.79.08-.58.63-1a1.67,1.67,0,0,0,.68-.87,1.69,1.69,0,0,0-.57-1.8c-.25-.19-1.14-.28-1.26-.45s.11-1.69.13-2.06a1.76,1.76,0,0,0,2.08-1.93c-.09-.63-.44-.79-.81-1.24A1.86,1.86,0,0,0,1,12.69l.26-.57.6-1.34C2.95,11.17,1.6,11.42,1.89,10.78Zm14.36,2.7a4.74,4.74,0,1,0,4.41,5,4.78,4.78,0,0,0-4.41-5Z"/><circle class="cls-2" cx="15.95" cy="18.45" r="4.97" transform="translate(-5.88 29.32) rotate(-75.64)"/><circle class="cls-3" cx="15.95" cy="18.45" r="1.89" transform="translate(-5.88 29.32) rotate(-75.64)"/><path class="cls-1" d="M190.37,44.54c-1.65-1.38-4.31-4.69-6.74-3.83-1.4.5-2.54,2.42-3.45,3.5L168.73,57.84c-1.12,1.33-2.95,2.87-2.4,4.81.35,1.25,1.72,2.08,2.66,2.88s2,2,3.18,2.38c2.2.68,3.49-1.46,4.68-2.88l5.56-6.61,6.45-7.68C190.27,49.06,192.85,46.62,190.37,44.54Z"/><path d="M129.24,61.45l-.22-.06c-.27-.57-.39-1.4-.84-1.64s-1.12.28-1.69.46-1-.11-1-.69c-.14-1.19-.75-1.38-1.74-.87-.8.41-1.26.1-1.32-.74-.08-1.09-.55-1.4-1.58-1-.67.26-1.22,0-1.23-.74,0-1.2-.57-1.4-1.6-1.21-.73.14-1.12-.31-1-1,.24-1.23-.33-1.52-1.39-1.35-.7.11-1-.15-.94-.87.16-1.59.15-1.59-1.4-1.87a5.17,5.17,0,0,1-.6-.18c.47-1.79.44-1.75-1-2.66a1.27,1.27,0,0,1-.37-1.17c.42-1,0-1.47-.84-1.7s-.83-.67-.46-1.26c.58-.93.19-1.49-.69-1.89-.3-.14-.6-.29-.93-.46a3.13,3.13,0,0,1,.26-.32c1.36-1.2,1.38-1.22,0-2.45-.62-.55-.38-1,.09-1.43.75-.68.52-1.26-.16-1.79-.32-.25-.67-.46-1.37-.93a4.09,4.09,0,0,0,.92-.21c1.42-.81,1.42-.83.47-2.14-.39-.54-.38-1.06.22-1.33,1-.45.95-1.06.55-1.92a1.26,1.26,0,0,1,.22-1.18c1.12-.84.84-1.64.11-2.5l.23-.89c1.85,0,2-.16,1.41-1.84-.25-.77,0-1,.76-1.1,1.17-.12,1.32-.38,1-1.46s-.26-1.3,1-1.25c.87,0,1.17-.36,1.1-1.17,0-.47-.07-.94-.12-1.73,1,1.05,1.66.67,2,0a5.43,5.43,0,0,0,.38-1.79,4.69,4.69,0,0,0,1.81-.13c.37-.19.49-.89.68-1.37a5,5,0,0,0,.21-.77c.52.22.8.44,1.08.43a1.58,1.58,0,0,0,1.58-1.5c.06-.29.71-.75.79-.69,1,.69,1.52.56,2-.57.15-.38.33-.75.63-1.43l0,1A2.45,2.45,0,0,0,129,7a.87.87,0,0,1,1.43-.27.92.92,0,0,0,1.51-.35c.41-.72.85-.84,1.58-.41a1.71,1.71,0,0,0,2.26-.31,1,1,0,0,1,1-.07c.79,1,1.45.82,2.22,0a1,1,0,0,1,.93,0c1.32,1.21,1.3,1.23,2.67.23l.89.23c.79,1.53,1,1.59,2.22.57l.89.23c.49,1.55.49,1.56,2,1,.69-.27,1.15-.06,1.28.65.21,1.11.77,1.29,1.7.78s1.19-.11,1.28.76c.15,1.36.17,1.37,1.56,1,.82-.25,1.23-.12,1.13.88-.14,1.32,0,1.36,1.36,1.42.34,0,1,.46.95.6-.31,1.58.61,1.79,1.81,1.76.13,0,.27.11.39.16,0,2,0,2,2.1,2.79-.65,1.24-.67,2.27,1.07,2.56a1.18,1.18,0,0,1,.2,1c-.56,1-.29,1.55.81,1.82.84.21,1.09.74.42,1.39s-.63,1.32.3,1.85a1.24,1.24,0,0,1,.55,1A3.83,3.83,0,0,0,166,31a1.13,1.13,0,0,1,.11.33,1,1,0,0,1-.19.28c-.92.65-1.33,1.31-.27,2.25.5.44.25,1-.29,1.32a1,1,0,0,0-.28,1.65,1.13,1.13,0,0,1-.18,1.78,1.11,1.11,0,0,0,0,1.93,19.14,19.14,0,0,0,3.31,2.35c3.92,2,8,3.82,11.85,5.89a4.92,4.92,0,0,1,2.11,6.76c-1.19,2.42-3.43,3.27-6.3,2.12-2.53-1-5-2.28-7.44-3.47s-4.61-2.35-7-3.42c-1.83-.83-2.86-.18-3,1.75-.07.81-.49,1.09-1.23.84-1-.34-1.43,0-1.42,1.07,0,.7-.18,1.19-1.08,1-1.07-.23-1.68.17-1.66,1.36,0,.75-.52,1.11-1.14.77-1.14-.63-1.54-.06-2,.87a1.18,1.18,0,0,1-1,.53c-1.24-.48-1.74,0-2,1.17-.13.69-.64.9-1.28.39-1.18-.94-1.27-.95-2,.32-.45.77-.95.87-1.51.26-.82-.88-1.34-.59-1.82.31-.38.72-.87,1-1.47.21s-1.23-.77-1.88,0-1.17.78-1.73-.09-1-.79-1.64-.06c-.82,1-1.13.94-1.74-.12-.46-.79-1-1-1.73-.4A10.44,10.44,0,0,1,129.24,61.45ZM132.4,51.2c2.18.05,4.76.22,7.33.14,1.67-.05,2.43-1.2,1.7-2.4a25,25,0,0,0-3.31-4.47,4.87,4.87,0,0,0-6.12-.72,26.41,26.41,0,0,0-3.77,2.76,1.63,1.63,0,0,0,.22,2.92A39.24,39.24,0,0,0,132.4,51.2Zm15.67-22.78c1.19-.13,3.1-.31,5-.61.25,0,.56-.72.54-1.09a2.53,2.53,0,0,0-.58-1.33A40.72,40.72,0,0,0,149.33,21a20.51,20.51,0,0,0-4.09-2.85c-1.31-.73-2.21-.14-2.37,1.35-.08.72-.1,1.44-.17,2.16C142.39,24.85,144.26,27.49,148.07,28.42Zm-20.66,8a4.34,4.34,0,0,0-1.49-4.68,31.8,31.8,0,0,0-4-2.25c-.6-.3-1.23-.29-1.48.64-.89,3.4-1.41,6.79.16,10.15a10.28,10.28,0,0,1,.44,1.42c.43,1.45,1,1.62,2,.47,1.29-1.44,2.49-3,3.69-4.5A5.85,5.85,0,0,0,127.41,36.38Zm9.27-19.27c-4.94,1-9.32,2.31-12.61,6.17a8.75,8.75,0,0,0,1.14.74,10.64,10.64,0,0,0,5.12,1.25,4.81,4.81,0,0,0,3.24-1C135.61,22.43,136,19.85,136.68,17.11Zm13.57,28.64,0-.39a16.55,16.55,0,0,0-2.54-.81c-1.05-.16-1.53.62-1.09,1.61a1.57,1.57,0,0,0,2.29.74A11.29,11.29,0,0,0,150.25,45.74Zm28.25,6.08a1.63,1.63,0,0,0-2.16,1,1.39,1.39,0,0,0,.94,1.72,1.56,1.56,0,0,0,2-1A1.31,1.31,0,0,0,178.51,51.83ZM152.3,34.67c.19.13.37.27.56.38a5.18,5.18,0,0,0,1,.51,2.36,2.36,0,0,0,.8,0,2.25,2.25,0,0,0-.18-.79C153.93,33.91,153.14,33.9,152.3,34.67Z"/><path d="M.82,12.74C2,11.58,2.17,10.31,3.09,9.17c3-3.66,5.95-5.73,10.3-6.72A75.86,75.86,0,0,1,29.72.78C62.14.69,88.47,0,120.9,0c.42,0,6.91.53,7.32.34l7.94,1a53.72,53.72,0,0,1,18.67,9.39c12.29,9.5,16.52,21.24,10.06,34.48-7.27,14.89-29.07,21.94-51.16,15.6C91.87,54.53,69.52,49.53,47.38,44c-8.82-2.21-17.62-4.52-26.48-6.63C10.45,34.86,2.73,30.32.29,21.46,0,20.57.5,19.8.06,18.94ZM165,35.1c1.2-8-3.29-17.9-15.94-25.82-9.29-5.81-19.75-6.37-30.4-6.39-19.18,0-38.35.05-57.52.11-13.89,0-27.82-.23-41.64.27C10.07,3.6,3.43,9.17,2.36,16.12,1.33,22.88,6,29.78,14.53,33c5,1.88,10.43,3,15.71,4.31,30.09,7.55,60.14,15.24,90.32,22.52C141,64.77,161.2,54.17,165,35.1Z"/></g></g></svg>