<svg xmlns="http://www.w3.org/2000/svg" viewBox="0 0 31.7 31.7"><defs><style>.cls-1,.cls-2{fill:#1d1d1b;}.cls-2,.cls-3{stroke:#fff;stroke-miterlimit:10;stroke-width:0.1px;}.cls-3{fill:#fff;}</style></defs><title>Asset 17</title><g id="Layer_2" data-name="Layer 2"><g id="Layer_1-2" data-name="Layer 1"><path class="cls-1" d="M1,10.21c1.28.3,2.94-.48,2.41-2a5.37,5.37,0,0,0-.51-.81c-.18-.33-.24-.09-.16-.44s.33-.44.47-.62c.25-.33.42-.68.73-.69S4.72,6,5.15,6A1.7,1.7,0,0,0,6.75,3.92c0-.17-.13-.32-.16-.48-.09-.47-.22-.16.14-.54a3.53,3.53,0,0,1,1.2-.78c.34,0,.3.14.6.4a1.76,1.76,0,0,0,2.12.17,1.66,1.66,0,0,0,.71-1.3c0-.4-.1-.59.17-.8A4.94,4.94,0,0,1,13.11.23c.44.1.68,1.12,1.38,1.36a1.7,1.7,0,0,0,1.72-.37,3.24,3.24,0,0,0,.46-.77c.05-.09.07-.39.14-.44A4.25,4.25,0,0,1,17.6.1c.23,0,1,0,1.18.14s.14.92.25,1.16c.62,1.29,1.88.93,2.78.27.44-.32.33-.4.9-.12a4.18,4.18,0,0,1,.91.47c.39.35.16-.09.19.48,0,.14-.09.31-.09.46a1.67,1.67,0,0,0,.41,1.17,1.64,1.64,0,0,0,1.66.63c.27-.06.73-.5.93-.5s1,.94,1.1,1.15c.34.5.1.33-.17.89a1.73,1.73,0,0,0,.79,2.33,1.88,1.88,0,0,0,.92.13c.54,0,.51-.22.81.23a4.25,4.25,0,0,1,.56,1.28c0,.36-.38.4-.66.73a1.72,1.72,0,0,0,.67,2.71c.38.15.71,0,.88.37a4,4,0,0,1,.07,1.21c0,.69,0,.56-.55.79a2,2,0,0,0-.78.52A1.74,1.74,0,0,0,30,18a1.58,1.58,0,0,0,.3.66c.21.27.73.41.88.64s-.07.79-.19,1.2a2.09,2.09,0,0,1-.17.58c-.26.3,0,.06-.35.14-.65.15-1.13,0-1.63.54a1.69,1.69,0,0,0-.11,2.1c.08.11.3.28.34.4.11.3,0,.23-.15.55a3.7,3.7,0,0,1-.82,1.1c-.27.14-.68-.25-1.1-.3a1.79,1.79,0,0,0-1.13.24,1.66,1.66,0,0,0-.69,2c.17.6.35.6-.22,1-.37.26-.95.76-1.28.64s-.53-.6-.95-.74a1.71,1.71,0,0,0-1.2.05,1.66,1.66,0,0,0-1,1.38c-.05.41.11.68-.17.9a6.57,6.57,0,0,1-1.8.44A1.79,1.79,0,0,0,16.33,30a1.54,1.54,0,0,0-.88.7c-.14.23-.16.51-.3.74-.25.42-.31.28-.89.22-.24,0-1.11,0-1.23-.14s0-.63,0-.78a1.69,1.69,0,0,0-.73-1.16,1.79,1.79,0,0,0-2.59.94l-1.81-.91a1.77,1.77,0,0,0-.53-2.47,1.7,1.7,0,0,0-1.12-.24,1.87,1.87,0,0,0-.72.28c-.34.21-.25.31-.57.19s-.53-.56-.73-.76-.52-.44-.46-.74.54-.66.59-1.12a1.73,1.73,0,0,0-1.12-1.8,3.38,3.38,0,0,0-1.21,0c-.42,0-.21.13-.47-.26a6.25,6.25,0,0,1-.39-.92c-.32-.76,0-.58.51-1a1.67,1.67,0,0,0,.57-.94A1.69,1.69,0,0,0,1.45,18c-.27-.16-1.16-.14-1.31-.29S0,16.06,0,15.69a1.76,1.76,0,0,0,1.82-2.17c-.16-.62-.54-.73-1-1.13a1.86,1.86,0,0,0-.46-.18l.18-.6L1,10.21C2.14,10.47.83,10.88,1,10.21Zm14.58.92a4.74,4.74,0,1,0,5,4.45,4.78,4.78,0,0,0-5-4.45Z"/><circle class="cls-2" cx="15.94" cy="16.1" r="4.97" transform="translate(-2.06 29.85) rotate(-82.69)"/><circle class="cls-3" cx="15.94" cy="16.1" r="1.89" transform="translate(-2.06 29.85) rotate(-82.69)"/></g></g></svg>