<svg xmlns="http://www.w3.org/2000/svg" viewBox="0 0 148.91 53.63"><title>Asset 5</title><g id="Layer_2" data-name="Layer 2"><g id="Layer_1-2" data-name="Layer 1"><path d="M139,.56a12.71,12.71,0,0,0-1.38-.32A26.86,26.86,0,0,0,130,.33C93.51,4.43,57.85,14.86,21.21,17.85,14.61,18.39,7,18.79,1.56,23c-3.6,2.79-.24,4.54,2.72,6.5a57.86,57.86,0,0,0,9.94,4.87c7.59,3.13,15.26,6.29,23.36,7.64,5.37.89,10.86,1,16.2,2S64.5,47.31,68,51.52a5.84,5.84,0,0,0,2,1.88,5,5,0,0,0,2.74.07l5.83-1c3-.49,6.32-1.25,8-3.73.27-.44-.67-1.81-.68-2.33A5.91,5.91,0,0,1,87,43c6.92-11,14.85-24.13,29.18-25.66,5.88-.74,11.92,1.14,17.73-.07s10.6-5.38,15-9.38C146.06,4.89,143,1.73,139,.56ZM73,31l18.4-7.45C88.41,31.21,84,36,73,31Zm-20.1,2.16c-6.6,2-15.14-2.43-22.8-3.94,11.59-1.89,22.64-2.9,33.24-5.65s21-7.29,31.46-11l.79,2.13C81.44,21,67.66,28.7,52.92,33.16Z"/></g></g></svg>