<svg xmlns="http://www.w3.org/2000/svg" viewBox="0 0 85.81 142.22"><defs><style>.cls-1{fill:#fff;}</style></defs><title>Asset 19</title><g id="Layer_2" data-name="Layer 2"><g id="Layer_1-2" data-name="Layer 1"><path class="cls-1" d="M39.44,117c1.94,3.65,3.8,7.17,5.68,10.69.87,1.63,1.78,3.23,2.64,4.86,1.13,2.14,2.19,4.31,3.34,6.44a2.06,2.06,0,0,1-.11,2.57,2.09,2.09,0,0,1-2.55.37l-16.15-5.8c-7.08-2.54-14.17-5.06-21.24-7.62-3.18-1.15-6.31-2.46-9.5-3.57A2.08,2.08,0,0,1,0,122.41q1.78-11.74,3.67-23.46,2-12.27,4-24.53c.35-2.17.7-4.33,1.09-6.49.17-1,.58-1.78,1.69-1.93a2.19,2.19,0,0,1,2.33,1.39c3.85,7.24,7.72,14.46,11.5,21.73.55,1.06,1,1.23,2.11.87A54.49,54.49,0,0,0,46.85,78.16,67.57,67.57,0,0,0,56.26,67.5,68.61,68.61,0,0,0,63,55.87a80.53,80.53,0,0,0,5.8-19.33,123.17,123.17,0,0,0,1.56-25.76c-.09-2.88-.45-5.74-.51-8.62a2.55,2.55,0,0,1,1.1-2,1.68,1.68,0,0,1,2.37.8,36.81,36.81,0,0,1,1.64,3.88c2.22,6.72,4.56,13.41,6.51,20.22a102.66,102.66,0,0,1,3.92,21.36,133.76,133.76,0,0,1,.37,15.86,62.86,62.86,0,0,1-4.09,19.28,56.15,56.15,0,0,1-7.93,14.34,55,55,0,0,1-13.15,12.11A64.72,64.72,0,0,1,39.44,117Zm6,19.67c-1.71-3.24-3.27-6.22-4.85-9.19q-2.78-5.22-5.6-10.43c-1.17-2.17.16-3.32,1.47-3.54a56,56,0,0,0,17.89-6.33,50.26,50.26,0,0,0,23-25.46,60.31,60.31,0,0,0,4.24-17.26,92.61,92.61,0,0,0-1.47-27.17c-1-5-2.27-10-3.5-15-.53-2.14-1.27-4.23-1.92-6.35a71.92,71.92,0,0,0-.57,7.66A97.76,97.76,0,0,1,71.89,41a80.39,80.39,0,0,1-6.64,19.28,67.69,67.69,0,0,1-9.15,14A60.94,60.94,0,0,1,37.62,89.39,106.16,106.16,0,0,1,26.2,94.18a13.82,13.82,0,0,1-4.55.65A2.23,2.23,0,0,1,20,93.65a2.47,2.47,0,0,1,.31-2,1.17,1.17,0,0,0,.08-1.39c-2.11-4-4.2-8-6.31-12-.7-1.33-1.46-2.63-2.34-4.21L4.15,121.77Z"/></g></g></svg>