<svg xmlns="http://www.w3.org/2000/svg" viewBox="0 0 1014.56 609.37"><defs><style>.cls-1{fill:#1d1d1b;}</style></defs><title>Asset 25</title><g id="Layer_2" data-name="Layer 2"><g id="Layer_1-2" data-name="Layer 1"><path class="cls-1" d="M797.27,5.12c-2.39.74-5.62,1.67-8.81,2.73-6.15,2-7,3.48-5.18,9.56,3,10.4,6.31,20.74,9.21,31.18a16.57,16.57,0,0,1,.05,7.27c-1.16,6.14-2.89,12.06-1.37,18.53,1.75,7.45.21,10-6.52,13.82q-70.19,39.35-140.42,78.64c-30.54,17.06-61.19,33.93-91.75,50.95q-85.52,47.61-171,95.27c-8.87,4.93-13.11,3.06-15.89-6.69-9.88-34.63-20.23-69.14-29.45-104-4.75-17.93-9.75-35.79-14.63-53.69-4.58-16.82-8.12-33.84-13.09-50.56-.62-2.09-2-4.66-4.12-4.27-.78.14-1.51.69-2.28.53s-1.24-1-1.56-1.79q-15.94-37.8-31.9-75.59l-28,10,30.62,78.21c-2.41.87-5,2.41-3.51,5.28a7.44,7.44,0,0,0,5.66,3.35c.2,0,.38,0,.57,0l2.72,8.65,4.84-1.52c.79,3.21,1.22,6.56,2.48,9.57,3,7.07.74,12.6-3.53,18.43q-25.05,34.24-49.54,68.88-58.2,81.82-116.25,163.74C91.09,414.83,67.72,448.1,44,481.12c-6.38,8.88-12.69,18.31-24.72,21-1,.22-2.52,1.35-2.58,2.14-.37,5.73-5,6.47-9,8-5,1.84-7.09,5.54-6.39,11.35.63,5.28,4.95,4.17,8.21,4.3s4.3,1.7,4.37,4.7-.49,5.31-4.27,5.24a27.51,27.51,0,0,0-3.5.32L5,541.83.35,540.27c-.09,2.38-.06,4.67-.29,6.94-.42,4.18,1.5,6.43,5.64,6.5,16.84.31,33.67.5,50.51.75,11.91.18,24-1,35.7.8,47.48,7.15,94.73,15.83,142.25,22.73,51.18,7.43,102.55,13.52,153.85,20.14,11.05,1.43,22.73.47,31.89,8.67a6.38,6.38,0,0,0,1.83.84c8.66,3.61,18.19,1.58,22.46-6.55,5.27-10,13.27-17.65,20.66-25.74q48.68-53.24,98-105.94c21.12-22.7,42.47-45.19,63.72-67.77q36.88-39.18,73.78-78.34Q756.53,263.66,812.78,204c2.41-2.56,4.5-5.44,7.08-7.82,4.26-3.93,8.76-2.68,10.23,2.83.79,3,.83,6.12,1.39,9.16,1.29,7,1.85,14.27,4.23,20.9,3.41,9.51,8.39,18.45,12.34,27.78C866.7,301,884.74,345.36,904,389.22c16.41,37.44,34.63,74.1,51,111.57,4.86,11.15,12.51,20.33,17.73,31,.58,1.2,1.06,2.45,1.59,3.68l2.09-1.44,2.2-8.76,1.4-.6L995.55,546c.78-3.59,1-5.4,1.58-7.13.74-2.36,1.33-4.91,2.69-6.9a5.79,5.79,0,0,1,4.54-2.11c.93.09,2.11,2.43,2.33,3.88.31,2.09-.18,4.29-.26,6.45s-.08,4.09-.11,6.37c8.1-2.73,10.43-11.59,6.13-19.24-5.06-9-10.41-17.92-14.43-27.38q-40-94.23-79.47-188.7c-7.55-18-15.35-35.93-22.1-54.23-6.69-18.14-17.11-34.71-20.58-54.31-2.36-13.36-8.73-26-13.3-39-.33-.94-.64-1.9-.92-2.86-6.06-20.76-12.22-41.49-18.14-62.29-3.23-11.37-5.86-22.91-9.17-34.26C833,59.69,832,50.37,831,43.37c-1.15-8-.07-12.21-2-20-2-8.24-5.24-15-8-23-.63-1.84-15.15,3.87-16.53,2.28l-1,1.23M380,562.58q-95.8-13.63-191.62-27.16c-31.19-4.35-62.46-8.15-93.67-12.38a93,93,0,0,1-15.23-3.57c-13.1-4.11-18.42-13.95-14.17-26.91a52.74,52.74,0,0,1,7-13.18q79-114.09,158.15-228c17.86-25.68,36.1-51.1,54.09-76.7,2-2.87,4.48-5.23,7.83-3.81,1.94.82,3.64,3.58,4.27,5.8Q344.91,347,392.91,517.36c4.08,14.44,8.37,28.81,12.52,43.23.48,1.67.74,3.41,1.3,6.08C397.21,565.2,388.63,563.8,380,562.58Zm45.95,34a25.39,25.39,0,0,1-4.65-.73c-6.1-1.84-11.29-8.34-10.27-12.6,1.72-7.24,11-13.42,18.68-12.43l.5.08c7.14,1.18,14.45,7.26,14.14,11.75C443.92,589,435,596.3,426,596.57Zm382.28-459a58,58,0,0,1-6.13,7.28q-76.61,80.51-153.22,161C622,334.23,595.63,363,569,391.56q-33.2,35.7-66.35,71.46-29.22,31.51-58.4,63.06c-1,1.11-2.05,2.21-3.11,3.29-6,6.14-11.79,4.88-14.16-3.22-4.12-14.08-8.11-28.2-12.12-42.31q-16.4-57.73-32.76-115.47c-.68-2.4-1.2-4.84-1.51-6.09-.4-8.43,4-12.53,9.7-15.73q23.53-13.22,47.09-26.38,97.22-54,194.46-108,77.11-43,154-86.27c3.52-2,6.95-4.11,10.48-6,5.59-3.06,11.09-1,13.38,4.92A13.31,13.31,0,0,1,808.25,137.59Z"/></g></g></svg>