<svg xmlns="http://www.w3.org/2000/svg" viewBox="0 0 1031.31 637.35"><defs><style>.cls-1{fill:#1d1d1b;}</style></defs><title>Asset 27</title><g id="Layer_2" data-name="Layer 2"><g id="Layer_1-2" data-name="Layer 1"><path class="cls-1" d="M1026.89,500.5a228.28,228.28,0,0,1-24.11-44.24q-10.29-25.59-20.76-51.1c-.27.22-.55.43-.83.64q-10.84-26.58-21.63-53.17c-12.54-31.08-24.43-62.46-37.49-93.28-16.2-38.23-33.15-76.09-50-114-.51-2.49-1-5-1.53-7.17-4.28-18-5.86-37.51-8.58-55.92C859,61.91,856.4,41.5,854.9,21c-.58-7.9-.85-18.5-9.8-20.23-8.66-1.67-17.39,2-25.91,2.85-3.91.37-13-.55-15,4-1.53,3.46-.89,8-.52,11.64,1.22,12,3.19,23.91,5.05,37.18-18.76,0-36.26.64-53.71-.11q-121.5-5.22-243-11.11c-71.28-3.4-142.54-7.27-213.82-10.36-9.29-.4-13.86-4.17-15.92-14-1.52-7.25-3.91-14.26-5.65-20.44-1.15-2.7-42.28,9.32-43.31,13.22-1.11,4.2,7.59,18.28,9.35,22.56q5.14,12.48,10.25,25c11.76,28.74,24.64,57.43,33.12,87.37v0a3.09,3.09,0,0,1,2.2,2.75,73.83,73.83,0,0,0,1.74,8.5Q204.79,270.52,119,380.59,85,424.48,50.8,468.27c-13.78,17.66-29,32.86-49.79,38L.67,519.32,33,529.27l-1.22,5.14L.42,529.14,0,545.5c25.59,12.84,49.87,10.32,75.78-3,93.35-48.13,187.77-114.52,281.58-161.58q.46,2.21.85,4.44a4,4,0,0,1-.81,3.28c1.95,6,3.82,11.85,5.58,17.72C380.13,463.46,397.39,520.56,414,577.9c1.48,5.1.71,13.17-2,17.32-7.85,12-8.68,22.29-.36,33.63,6.65,9.06,20.64,11.49,30,4.31,15.84-12.09,26.89-27.55,26.14-51-.13-4,1.58-8.34,3.19-12.12C494.38,515.3,517.68,460.49,541.51,406c2.58-5.89,8.37-10,12.68-14.92l-4.75-2.87C566.86,347.56,584,306.79,602,266.51c2.94-6.57,8.84-13.08,14.75-16,67.2-33.65,134.67-66.62,202.07-99.75,5.59-2.75,9-4.75,12.4-.67,11.64,26.24,23.15,52.55,35.6,78.32,16.16,33.44,33.48,66.23,50.37,99.25q22.63,44.25,45.35,88.46l-.27.11q16.7,32.58,33.21,65.27c4.48,8.9,8.51,18.43,9.08,29,.18,3.4,2.14,6.81,3.34,10.21l1.49,0c1.44-3.47,2.61-7.14,4.41-10.34a10.48,10.48,0,0,1,4.57-3.72l.22-.07a3.74,3.74,0,0,1,2.8,1.22c.44.5.18,2.15-.15,3.1-1.22,3.59-2.58,7.1-3.91,10.64-1.19,3.17.73,4.54,2.86,4.84a4.49,4.49,0,0,0,1.52-.07,6.76,6.76,0,0,0,3-1.46C1032.65,517.92,1033.5,510.13,1026.89,500.5ZM355.71,69l-40.46,53.3L299.54,69ZM301.12,187.28q-1.32-4.22-2.54-8.47C299.51,181.62,300.38,184.43,301.12,187.28ZM158.52,363l2.59,2.78-62.6,82L95,443.93ZM73.59,495.61c9,4.07,18.54,6.76,29.88,10.67-9.11,4.9-17.51,9.46-25.94,13.94a56.84,56.84,0,0,1-7.81,3.71c-11.34,3.94-21.07-6-18.88-19.21,4.58-27.57,30.58-39.72,53.83-20.65-11.71-1.42-19.77-3-27.86-3.09-3,0-6.09,3.24-9.14,5C69.61,489.32,70.94,494.42,73.59,495.61ZM337,352.64c-55.9,27.27-97,61-153,88-17.33,8.35-32.87,23-50.64,29.91-3.76,1.47-11.08-.4-12.87-3.65-2-3.54-.77-11.46,1.5-15.73a262.75,262.75,0,0,1,19.23-30.3q78-108.18,156.26-216.08l5.68-7.85,35.16,118a3.55,3.55,0,0,1,2.53,2.69c2.41,9.46,5.55,18.7,8.68,27.94C346,347.58,338.51,351.88,337,352.64Zm203.88-11.82c-6.12,13.75-8.13,31.62-27.3,34.45,10.73,10.56,4.26,19.46.8,27.78-16.57,39.81-33.54,79.41-50.42,119.05-5.28,12.39-10.71,24.7-16.08,37l-3.29-.23L386.74,364.83l177.72-87.22C557.89,300.47,549.72,320.85,540.84,340.83ZM594.29,218c-2.29,5.25-8.14,9.5-13.19,12.06-45,22.88-90.28,45.31-135.48,67.81-22.32,11.11-44.69,22.07-67.36,33.26-1.7-3.34-3.06-5.22-3.69-7.37-16-54.52-32.07-109-47.45-163.72-1.31-4.68.88-12.21,3.69-16.53,14-21.56,29-42.32,43.24-63.74,4.82-7.27,10.12-9.87,18.19-9.41C465.13,74.43,538,78.05,610.93,81.9c12.16.64,24.29,1.71,38.08,2.7-1.07,4.63-1.29,7-2.14,9.06C629.49,135.18,612.27,176.79,594.29,218ZM815.12,114.05c-55.15,27.7-110.52,54.84-165.86,82-4.07,2-8.32,3.55-12.48,5.31l-2.35-3.23c15.23-35.66,30.33-71.4,45.93-106.86,1.26-2.86,6-5.47,9-5.34,40.87,1.78,81.75,3.81,122.57,6.61,4.21.29,8.14,5.85,12.19,9C821.17,105.83,819,112.11,815.12,114.05Z"/></g></g></svg>