<svg xmlns="http://www.w3.org/2000/svg" xmlns:xlink="http://www.w3.org/1999/xlink" viewBox="0 0 191.54 119.47"><defs><style>.cls-1,.cls-3{fill:none;}.cls-2{clip-path:url(#clip-path);}.cls-3{stroke:#9d9d9c;stroke-miterlimit:10;stroke-width:3px;}.cls-4{font-size:28px;fill:#1d1d1b;font-family:Avenir-Black, Avenir;}</style><clipPath id="clip-path"><rect class="cls-1" x="3.4" y="-29.84" width="188" height="188"/></clipPath></defs><title>Asset 14</title><g id="Layer_2" data-name="Layer 2"><g id="Layer_1-2" data-name="Layer 1"><g class="cls-2"><path class="cls-3" d="M1.65,106.17a10.91,10.91,0,0,1-.13-1.09,3.18,3.18,0,0,1,.09-1.28,4.32,4.32,0,0,0,.44-2.1,9.16,9.16,0,0,1,0-1.53,4.21,4.21,0,0,1,.37-1.4,32.8,32.8,0,0,1,2-3.52c1.35-2,2.77-4,4.26-5.87Q23,71.27,37.33,53.18q7.49-9.47,15-19c.22-.28.43-.58.65-.86a3.79,3.79,0,0,0,.78-3.63L52,24,46.63,6.33c-.26-.85-.5-1.71-.81-2.55-.21-.57-.13-.92.49-1.11q1.76-.52,3.52-1.1c.64-.21.91.06,1.09.67q1.49,5.06,3,10.12t3,10c.1.34.22.64.34,1,.87,2.16,2.27,3,4.6,2.68,3.44-.53,6.86-1.16,10.29-1.76q11.41-2,22.82-4c5.1-.88,10.21-1.72,15.32-2.49,4.72-.71,9.45-1.35,14.17-2,4.93-.62,9.86-1.18,14.8-1.73,2.81-.31,5.62-.51,8.44-.81a4.41,4.41,0,0,0,2.41-.93,5.92,5.92,0,0,1,3.5-1.23,13.63,13.63,0,0,0,2.27-.67,2.65,2.65,0,0,1,1.26.17,1.14,1.14,0,0,1,.54.53q1.27,2.17,2.5,4.37a1.48,1.48,0,0,1,.25.77,9.33,9.33,0,0,0,.72,3.71l4,13.27c.06.2.11.41.18.61.23.64.28,1.22-.58,1.58.89-.24,1,.31,1.16.9.25,1,.51,2,.85,2.93.27.76.74,1.45,1,2.21a5,5,0,0,1,0,1.4,2.2,2.2,0,0,0,.06.62c.89,2.79,1.69,5.61,2.7,8.35q5.57,15,11.29,30c1.83,4.75,3.86,9.42,5.84,14.12.41,1,1,1.87,1.49,2.8a9.13,9.13,0,0,1,.66,1.37,1.83,1.83,0,0,1-.4,1.8c-.67-1.35-1.27,0-1.89-.11,0,.09-.07.12-.07.16,0,.24,0,.48.06.72-.26,0-.6,0-.76-.14a6.5,6.5,0,0,1-1.57-1.69c-.73-1.41-1.21-2.94-1.9-4.37-2.32-4.82-4.75-9.59-7-14.42q-6.61-14-13.09-28c-1.73-3.74-3.35-7.52-5-11.29-.57-1.3-1.08-2.63-1.56-4a3.68,3.68,0,0,1,0-1.08,2.83,2.83,0,0,0-2.54,1.13c-1.56,1.63-3.08,3.29-4.58,5-11,12.24-22,24.46-33,36.76-6.93,7.79-13.72,15.71-20.58,23.56-3,3.42-6,6.84-9,10.22A17.94,17.94,0,0,1,84,117.16c-1.57,1.08-3.37.87-5.18.55-8.3-1.47-16.38-3.83-24.57-5.79-13.46-3.22-26.89-6.54-40.34-9.82-1.59-.39-3.19-.72-4.78-1.09a.75.75,0,0,0-.79.18,1.18,1.18,0,0,1-1,.22,1.11,1.11,0,0,0-1,.1,1.84,1.84,0,0,1-.66.23c-.85.16-.89.23-1,1.13A12.39,12.39,0,0,1,4.37,105,1.9,1.9,0,0,1,1.65,106.17ZM84.32,104a4.57,4.57,0,0,0,3.26-1.65C89.8,100,92,97.59,94.12,95.12,101.05,87,108,78.81,114.82,70.57c7.42-8.94,14.74-18,22.07-27,3.86-4.74,7.65-9.54,11.47-14.31A11.1,11.1,0,0,0,150.91,23c.12-1.67-.22-2.14-1.92-2.28h-.19c-2.06,0-4.12,0-6.17.1-4.35.2-8.69.38-13,.7-4.72.34-9.43.79-14.13,1.24q-5.4.52-10.8,1.17c-3.79.46-7.57,1-11.34,1.52q-6.41,1-12.8,2.13c-4.07.73-8.13,1.53-12.18,2.36A38.76,38.76,0,0,0,63,31.32c-2.23.8-2.85,2.08-2.26,4.34s1.32,4.47,2,6.7q4.09,13.46,8.22,26.92c1.14,3.71,2.31,7.42,3.46,11.13,1.69,5.47,3.35,10.95,5.06,16.42A21.7,21.7,0,0,0,82,102.51,2.81,2.81,0,0,0,84.3,104Zm-13.13,4.1,0-.2h1.15c.47,0,.93-.07,1.39-.12a1.7,1.7,0,0,0,1.74-1.8,22.42,22.42,0,0,0-1-6.84C72.7,92.92,70.84,86.72,69,80.51l-9.56-32.7c-1-3.44-2.1-6.86-3.17-10.27-.5-1.59-1.25-1.83-2.48-.71a27.67,27.67,0,0,0-3.1,3.2Q35.23,59.45,19.8,78.93C16,83.7,12.28,88.52,8.54,93.33,7.47,94.7,7.82,96,9.42,96.7a12.07,12.07,0,0,0,2,.67c5.44,1.35,10.86,2.76,16.34,4,10,2.16,20,4.08,30.1,5.34C62.28,107.25,66.74,107.63,71.19,108.09Zm12.46,4.69a2.67,2.67,0,0,0-2.06-2.72,2,2,0,0,0-1.37.17,2.73,2.73,0,0,0-.8,3.76A2.6,2.6,0,0,0,82,115.29c.64-.06,1.38-.94,1.58-1.83A6.1,6.1,0,0,0,83.65,112.77Zm-80.58-7.4c.39,0,.66-.34.65-.85a.78.78,0,0,0-.73-.82h0a1,1,0,0,0-.81.91A.94.94,0,0,0,3.08,105.38Zm-.94-1.53c.46-.58,1-.52,1.74-.2a1,1,0,0,0-1.74.2Z"/></g><text class="cls-4" transform="translate(48.46 72.33)">FRAME</text></g></g></svg>