<svg xmlns="http://www.w3.org/2000/svg" viewBox="0 0 645.59 354.17"><defs><style>.cls-1{fill:#1d1d1b;}</style></defs><title>Asset 3</title><g id="Layer_2" data-name="Layer 2"><g id="Layer_1-2" data-name="Layer 1"><path class="cls-1" d="M272.24,267.25a9.11,9.11,0,0,1-7.4-3.61c-.93-1.26-1.06-3.11-1.65-5a52.62,52.62,0,0,0,26.89-13.83c6.21-6,11.53-12.86,17.11-19.45,1.95-2.3,3.51-4.92,5.53-7.2-2.93,4.9-5.79,9.84-8.8,14.69-4.61,7.41-9.05,15-14.08,22.08-3.6,5.1-8.05,9.59-14.23,11.75a10.22,10.22,0,0,1-3.37.58m-84.75-47.17h.47a8.73,8.73,0,0,0,4.18-.89c3.18-2,6.16-4.23,9.27-6.42,7,14.17,9,28.49,2.89,43.31-1.26,3.08-2.39,6.23-3.87,9.2-2.7,5.42-2.62,11.08-2,16.85.19,1.65.44,3.3.65,4.95s.35,3.29-1.85,4.24c-1.54.67-1.23,2.47.65,3.13,2.17.75,2.62,2.16,2.77,4.16s.8,3.93.9,5.91a3.62,3.62,0,0,1-1.26,2.46,5,5,0,0,1-2.56.89c-5.26.73-10.53,1.37-15.79,2.07-3.53.47-7,1-10.59,1.46a44.64,44.64,0,0,1-5.19.32h-.73c-5.21-.1-10.43-.31-15.64-.49h-1.07a2.35,2.35,0,0,1-1.33-.28,5.14,5.14,0,0,0-3-1,13.79,13.79,0,0,0-4.33,1,11.12,11.12,0,0,1-3.07.86c-5.79.19-11.59.54-17.37.54q-2,0-4.09-.06c-10.63-.35-21.26-1-31.86-1.92-5.36-.45-10.68-1.54-16-2.5-2.9-.52-5.61-1.62-6.84-4.65a4.07,4.07,0,0,1-.34-2.54,12,12,0,0,1,5.65-7.3,69.59,69.59,0,0,0,8.42-5.32c8.63-6.46,17.14-13.07,25.73-19.59,1.32-1,2.67-2.26,4.2-2.63,4.67-1.16,8-4.26,11.57-7.15s7.2-6.15,11-8.9a67.15,67.15,0,0,1,8.47-4.73c2.42-1.26,4.93-2.36,7.4-3.53,2.1-1,4.3-1.81,6.28-3,4.56-2.74,9-5.68,13.52-8.48q7.42-4.59,14.92-9.05a9.36,9.36,0,0,1,5-1.17c.8,0,1.61.05,2.42.1s1.62.1,2.42.1m74.95,35.75a5.26,5.26,0,0,1-4-1.76c-1.87-1.94-4.25-3.39-6-5.38a7.86,7.86,0,0,1-2-7.82c.79-2.69-.5-5-1.58-7.35a67.09,67.09,0,0,1-4.5-11.52,27.79,27.79,0,0,1-.35-9.55c.22-2-.74-4.13-1.42-6.13A52.1,52.1,0,0,0,240,201a29.53,29.53,0,0,1,2.89.62c7.31,2.52,14.6,5.11,21.92,7.6a71.87,71.87,0,0,0,23.28,4.28q1,0,1.93,0A51.52,51.52,0,0,0,317.72,204l1.32-.88c-8.3,13.44-17.14,25.74-27.72,36.62-7.35,7.55-16,13.21-26.49,15.72a10.36,10.36,0,0,1-2.4.33m57.48-72.28a9.85,9.85,0,0,0,1.72-.18,58.91,58.91,0,0,0,6.63-1.12,12.73,12.73,0,0,0,3.79-2.44,9.14,9.14,0,0,0,1.43-1.87l.71.37a8.37,8.37,0,0,1-.69,2.24c-3,4.53-5.63,9.4-9.19,13.44a47.27,47.27,0,0,1-33.57,16.48q-1.53.1-3,.1c-8.58,0-16.69-2.32-24.76-5.06-7.48-2.54-14.95-5.13-22.43-7.68-1.25-.43-3.88-4.14-3.45-5.31a2.74,2.74,0,0,1,1.82-1.35c5.71-1.14,11.44-2.17,17.17-3.22a41.42,41.42,0,0,1,6.38-1h.09c1.39,0,2.8.73,4.19,1.14.35.11.71.43,1,.43h.05c7-.84,14-1.56,20.88-2.64,8.13-1.27,16.21-2.92,24.33-4.28a5.43,5.43,0,0,1,.88-.07,4.18,4.18,0,0,1,2.61.75,4.85,4.85,0,0,0,3.38,1.28m-105.13-2.36a15.11,15.11,0,0,1,4.91-8.45c5.41-4.92,10.67-10.15,16.67-14.27,16.6-11.41,33.23-22.84,50.43-33.29,21.91-13.3,44.33-25.79,66.68-38.36C367.83,78.75,382.41,71,397,63.42c8.63-4.49,17.3-9,26.82-11.44a15.67,15.67,0,0,1,3.85-.5H428c.8,0,2.06.46,2.25,1a3.22,3.22,0,0,1-.49,2.72,46.1,46.1,0,0,1-4.08,3.64C418.2,65.67,410,71.92,403.33,79.45c-12.06,13.51-23.7,27.44-33.14,43-2.4,4-5.55,7.5-8.05,11.42-2.9,4.54-5.45,9.31-8.21,13.95a39,39,0,0,1-4.12,6.24,14.2,14.2,0,0,1-4.58,2.88c-2.18,1-4.51,1.73-6.71,2.72a3.16,3.16,0,0,1-1.28.32c-.89,0-1.52-.58-2.21-1.54a35.35,35.35,0,0,1-6.95-18.9c-.19-3.4-3.62-6.12-7.06-6.23h-.21a4.51,4.51,0,0,0-3.74,1.95,12.34,12.34,0,0,1-5.7,4c-5.18,1.38-10.54,2.13-15.82,3.11-3.76.7-7.53,1.32-11.28,2.05-3.53.69-5,2.71-4.45,6.24a51.6,51.6,0,0,0,1.55,6.81c.69,2.3,2,3.51,4.14,3.51a6.58,6.58,0,0,0,1.15-.11c7.77-1.38,15.51-3,23.27-4.41a5,5,0,0,1,.93-.07c.55,0,1.11.05,1.69.05-.16,2.64-1.78,3.39-3.68,3.73-6,1.08-12,2.09-18,3.17-6.23,1.11-12.46,2.17-18.66,3.44-2.71.56-5.33,1.57-8,2.39-.16,0-.41.1-.44.2-1.09,4-4.83,3.25-7.51,3.8-8.15,1.67-16.39,2.88-24.6,4.27-.25,0-.57,0-.72.17-2.11,2-4.52,2.41-7,2.41-.68,0-1.37,0-2.05-.05s-1.37-.05-2.06-.05a16.88,16.88,0,0,0-1.91.1,15.2,15.2,0,0,0-3.18,1.16M481.33,0c-3,0-6.13,1.58-8.86,3.13L257.15,125.73c-8.9,5.07-18.08,10.23-28.23,11.57a33,33,0,0,1-4.31.28c-8.93,0-18.06-3.58-22.6-11.13-3.14-5.22-3.72-11.55-5.94-17.22-2.07-5.28-6.66-10.44-12.15-10.44a8.86,8.86,0,0,0-1.21.08c-5.24.73-8.78,6.18-9.17,11.45s1.61,10.41,3.58,15.32l15.6,39c4,9.95,7.82,21.79,2,30.79-3.06,4.75-8.23,7.63-13.18,10.34A1668.42,1668.42,0,0,0,16,309.55C8.72,314.76.78,321.15,0,330.1l164.21,17.24a136.81,136.81,0,0,0,14.19.95c7.11,0,14.06-1,20.14-4.58,10.29-6,15.68-17.81,24.81-25.45a38.4,38.4,0,0,1,24.54-8.67,37.29,37.29,0,0,1,16.75,3.88c5.9,3,12.08,7.62,18.25,7.62a11.25,11.25,0,0,0,4.18-.79c3.55-1.4,6-4.59,8.3-7.66,30.82-41.75,55.81-87.46,84.89-130.44S443.29,98.26,487.35,70.85c56,80.64,87.48,175.28,127.94,264.76,2.71,6,5.69,12.24,11.1,16a15.17,15.17,0,0,0,8.47,2.59c3.64,0,7.12-1.37,9.1-4.4,3.32-5.1,1-11.83-1.42-17.41-8.78-20.37-16.29-41.93-28.17-60.64-3-4.73-5-10.14-7.14-15.37L602.5,247c-7-3.31-7.74-14.07-9.41-20.53-6.67-25.83-12.08-52.64-20.52-77.95-1.75-6.57-5.86-14.67-12.07-14.67a7.62,7.62,0,0,0-1.83.23,38.69,38.69,0,0,1,1.18,21.62L490.27,8c-1.37-2.91-3-6.05-5.91-7.36a7.39,7.39,0,0,0-3-.62"/></g></g></svg>