<svg xmlns="http://www.w3.org/2000/svg" xmlns:xlink="http://www.w3.org/1999/xlink" viewBox="0 0 589.54 350.12"><defs><style>.cls-1{fill:none;}.cls-2{clip-path:url(#clip-path);}.cls-3{fill:#1d1d1b;}</style><clipPath id="clip-path"><polyline class="cls-1" points="596.6 354.45 -3.51 354.45 -3.51 -42.3 596.6 -42.3 596.6 354.45"/></clipPath></defs><title>Asset 11</title><g id="Layer_2" data-name="Layer 2"><g id="Layer_1-2" data-name="Layer 1"><g class="cls-2"><path class="cls-3" d="M589.43,301.22a26.69,26.69,0,0,0-1.55-5.38q-20.48-52.07-41-104.11c-8.71-22-17.74-43.84-24.58-66.55-2.48-8.24-6.62-16-10-23.95a10.15,10.15,0,0,1-.78-2.43c-1.26-8.65-2.3-17.33-3.79-25.93-.49-2.83-2-5.53-3.26-8.18-3.54-7.41-7.32-14.71-10.72-22.19a6.47,6.47,0,0,1,.42-4.85,4.92,4.92,0,0,0,0-5.21c-2.83-5-5.46-10-8.35-14.94A4.08,4.08,0,0,0,483,15.67h-.31a3,3,0,0,1-1.89-.55c-5.82,2.95-11.72,5.8-18.13,7.17h-.06a3,3,0,0,0-.75,2c.45,3.52-2.09,4.78-4.47,5.6A21.39,21.39,0,0,1,450.5,31h-.81q-12.87-.45-25.73-.45A638.29,638.29,0,0,0,341,35.77C289.53,42.51,239,53.53,190.4,72.56a14.44,14.44,0,0,1-5.24,1.06,10.67,10.67,0,0,1-6.91-2.48c-5.51-4.51-6.86-11.06-8-17.76-.6-3.56-2.07-7-3.37-10.39-.5-1.3-2-2.23-2.41-3.53q-6-19.62-11.95-39.28c-5.95.06-11.88,0-17.81-.19q5,16.41,10,32.82c1.43,4.7,2.8,9.41,4.18,14.05-6.63,3.24-6.73,3.41-4.86,7.52l4.7-1,.15.6-1.58.7,1.92,4.79A4.23,4.23,0,0,1,152,61.85c1.38,4.63,2.3,9.41,3.8,14,3.25,10,1.22,18.55-6.42,25.55-12.88,11.81-24.28,25-35.47,38.37A1340.37,1340.37,0,0,0,5,291,23.27,23.27,0,0,0,1.2,302.73C1,308.82.42,314.89,0,321a13.54,13.54,0,0,0,1.44.08,7.06,7.06,0,0,0,7-4.23c1.76-3.75,3.54-7.6,1.75-12A9.39,9.39,0,0,1,9.57,301c0-.94.68-2.63,1.09-2.64h.15a5.07,5.07,0,0,1,3.26,1.1,6,6,0,0,1,1.36,3.29c.4,2.47,2,3.49,4.16,4,10.82,2.6,21.66,5.12,32.43,7.92,5.61,1.46,11.47,1.45,17,3.94,3.6,1.63,8.11,1.16,12.19,1.82,16.5,2.68,33,5.25,49.48,8.2,21.19,3.8,42.32,7.9,63.47,11.94,13.56,2.59,47.48,9.53,53.57,9.53a3,3,0,0,0,.75-.07c4-.27,16-14.34,19-17.4,35.51-37.13,68.88-76.16,103.19-114.39,20.34-22.66,40.85-45.18,61.06-68q13.77-15.52,27.46-31.11c3.52-4,8.34-8.32,13.38-10.2a11.9,11.9,0,0,1,4.13-.77,8.35,8.35,0,0,1,4.71,1.34c.13.09.25.2.38.29,1.81,1.4,4.18,1.53,6,3.42a25.66,25.66,0,0,1,4.62,7c4.56,10,6.7,20.8,10.25,31.18,3.68,10.77,8.05,21.3,12.73,31.66,9.41,20.86,20.09,41.12,29.28,62.09a456.37,456.37,0,0,0,28.65,55.49c.95,1.54,3.21,7.52,5.36,7.52h.11c2-.19.94-4.61,1.26-6.3.18-1,1.67-1.65,2.57-2.47A9.13,9.13,0,0,1,583.9,302c.33,2,.38,4,.54,6.09C588.31,307.14,590,304.74,589.43,301.22ZM4.68,318.16c-1.13-1.38-2.19-2.2-2.45-3.22-.11-.42,1.47-1.87,2-1.87h.08a5.4,5.4,0,0,1,2.54,2.44C7.06,315.79,5.77,316.89,4.68,318.16Zm215.92-11a11.48,11.48,0,0,1-1.72,2,7.76,7.76,0,0,1-1.4,1,12.81,12.81,0,0,1-3.76,1.21,70.18,70.18,0,0,1-14.08,1.32c-7.53,0-14.94-.91-22.78-1.45l-38.51-2.66c-18.47,0-37.31-2.58-55.74-3.85a520,520,0,0,1-54.21-6.9c-5.51-1-8.09-8.67-6.87-13.45.9-3.54,3.09-6.59,5.23-9.54,7.35-10.12,14.94-20.09,22.07-30.37,7.31-10.54,13.33-22.07,21-32.36,12-17.62,25.26-34.22,38.81-50.62,12.63-15.28,26.34-29.65,39.66-44.35a52.74,52.74,0,0,1,6.64-5.88,9.49,9.49,0,0,1,5.79-2.27c3.2,0,6,2.22,7.27,6.37,8.9,27.79,17.64,55.64,26.47,83.46l3.79,11.78c6.69,21.49,13.41,43,20,64.49,1.68,5.48,4.28,10.84,5.2,16.59C224.28,297,223.66,302.77,220.6,307.18Zm37.65,32.5c-1.57,4.19-9.35,9.6-10.28,10.23-14.88-3.85-17.1-6.75-17.93-10.08-1.26-5.06,1.35-10.06,5.27-13.88,1.58-1.54,3.38-3.86,5.16-3.94.5,0,1,0,1.52,0a22.49,22.49,0,0,1,9.25,1.74C258.19,326.93,260.81,332.84,258.24,339.67ZM452.81,79.88c-6.59,7.2-13.29,14.31-19.76,21.62-43.37,49-85.39,99.36-129.84,147.3-11,11.87-21.84,23.92-32.71,35.93-4.23,4.69-9.1,6.68-13.89,6.68-9.56,0-18.82-7.89-22.17-18-5.94-17.87-9.44-36.41-13.9-54.67-4.51-18.48-10.91-36.39-16.43-54.58q-8.58-28.26-17.26-56.48c-2.63-8.52.22-15.32,8.24-19,18.67-8.59,38.19-14.57,58.08-19.45A685.83,685.83,0,0,1,417,49.46l6.33,0q9.18.08,18.35.49c8.69.37,15.47,5.75,16.78,14.38C459.38,70.19,456.83,75.49,452.81,79.88Z"/></g></g></g></svg>