<svg xmlns="http://www.w3.org/2000/svg" viewBox="0 0 305.04 158.47"><title>Asset 29 1</title><g id="Layer_2" data-name="Layer 2"><g id="Layer_1-2" data-name="Layer 1"><path d="M303.21,101.76a15.84,15.84,0,0,1,1.83-.48V99.36a12.81,12.81,0,0,0-1.35-.69c-.89-.34-1.77-.72-1.79-1.83s.82-1.55,1.75-1.84c.23-.07.45-.17.67-.25.07-1.88.07-1.86-1.74-2.36a2.12,2.12,0,0,1-1.73-1.78,2.08,2.08,0,0,1,1.2-2.14,4.33,4.33,0,0,0,.88-1.18c-.43-.28-.83-.76-1.28-.81a2.43,2.43,0,0,1-2.38-1.66,2.2,2.2,0,0,1,1-2.7c.72-.46.48-1,.29-1.54s-.49-.86-1.15-.72a1.93,1.93,0,0,1-1.18,0c-.56-.29-1.27-.68-1.46-1.19s.21-1.17.51-1.68a4.24,4.24,0,0,1,1.05-.91c-.54-1.86-.54-1.77-2.27-1.67a3.08,3.08,0,0,1-2.12-.64c-.67-.65-.18-1.54.37-2.14,1.08-1.18.33-2-.5-2.92-1.22.47-2.54,1.18-3.6-.31s.27-2.33.9-3.34c-1-1.56-2.26-1.23-3.85-.48l.72-1.37a5.26,5.26,0,0,1-.67.35c-.43.13-1.18.43-1.25.31a2.27,2.27,0,0,1-.46-1.54c.44-1.74.42-2-1.1-3.28-1.1.8-2.26,1.73-3.63.59s0-2.11.15-3.16c-1.22-1.22-1.28-1.22-2.63-.31-.73.49-1.63.94-2.29.23a3.47,3.47,0,0,1-.57-2.12c0-.55.56-1.26-.3-1.49a5.66,5.66,0,0,0-2.23,0c-.41.06-.77.42-1.27.44l.7-1.06-.3-.3-1,1.89-.55-.41a3.85,3.85,0,0,1,0-1q3.46-12.83,7-25.65c.37-1.34,1-2.61,1.47-3.92.22-.6.5-.8,1.16-.58,1.1.37,2.22.65,3.34.95a5,5,0,0,0,6.38-3.52c.57-1.91,1.09-3.84,1.6-5.77a5,5,0,0,0-3.64-6.3C279.38,5.17,271,2.83,262.53.48A11,11,0,0,1,261.36,0h-2.64a6.15,6.15,0,0,0-4,5c-.26,1.37-.73,2.69-1.1,4-1,3.45.42,5.89,3.85,6.87l4.69,1.34c-.57,10.12-3.37,19.63-5.84,29.12a3,3,0,0,0-1.35.92c-.56.8-1.15,1.46-2.23,1.3s-1.46-.95-1.78-1.87a1.52,1.52,0,0,0-2.85.35,2.06,2.06,0,0,1-1.87,1.62,1.86,1.86,0,0,1-1.91-1.36c-.45-1.22-1.36-1-2.27-.94s-.78.81-.92,1.39c-.23.94-.66,1.79-1.71,1.93S238,49,237.77,48.14s-.73-1-1.46-.78l-1.19.28L234.71,49c-.28.59-.3,1.41-.72,1.79a1.73,1.73,0,0,1-1.71,0,2.89,2.89,0,0,1-.72-1.94,7.37,7.37,0,0,1,.65-2.15,33.08,33.08,0,0,0,1.12-3.31c.38-1.68-.31-2.2-2-1.78a1.27,1.27,0,0,1-.93-.44c-.74-.77-2.75-.63-3.26.27-.39.68-3.83,1.3-4.41.76a2.4,2.4,0,0,1-.47-.82c-.53-1.25-.81-2.7-1.64-3.7-1.13-1.38-1.34-3-2-4.52s-1.64-3-2.48-4.45l-.33.17c.11.32.2.65.33,1q1.59,3.94,3.2,7.88c.6,1.47.43,1.83-1.11,2.37L216,40.9c-1.69.6-1.69.6-2.5-1,0-.07-.19-.08-.3-.11.14,1.85.32,3.7.41,5.56a16.63,16.63,0,0,0-.09,2.48,2.22,2.22,0,0,1-.89,2.51c-3,2.19-4.68,5.84-8.43,7.08-.4.13-.82.42-1.19.36-.86-.14-1.68-.54-2.54-.65a9.25,9.25,0,0,0-2.3.15c-.77.1-1.6.55-2.28.37a14.12,14.12,0,0,1-2.86-1.52c-.77.85-3,1.59-4.06.9-2-1.31-4-.07-5.93-.18a3.06,3.06,0,0,1-1.63-.32,2.56,2.56,0,0,0-2.79-.42,4.8,4.8,0,0,1-4.27-.16,2.87,2.87,0,0,0-2.87,0,2.83,2.83,0,0,1-3.35-.3,2.45,2.45,0,0,0-2.6-.34,5.42,5.42,0,0,1-4.5-.16,3.63,3.63,0,0,0-2.59.07,3.65,3.65,0,0,1-3.61-.21,3.68,3.68,0,0,0-2.56-.31,5.33,5.33,0,0,1-4.28-.21,2.88,2.88,0,0,0-3,.1,2.69,2.69,0,0,1-3.24-.18A2.58,2.58,0,0,0,139,54a5.16,5.16,0,0,1-4.27-.13,3.93,3.93,0,0,0-2.72,0,3.37,3.37,0,0,1-3.6-.25,2.43,2.43,0,0,0-2.59-.34,5.15,5.15,0,0,1-4.39-.11,3.77,3.77,0,0,0-2.61,0,4.18,4.18,0,0,1-3.75-.24,3.56,3.56,0,0,0-2.45-.3,5.87,5.87,0,0,1-4.4-.14,3.94,3.94,0,0,0-2.72,0,4.17,4.17,0,0,1-3.86-.25,3.44,3.44,0,0,0-2.46-.26,5.19,5.19,0,0,1-4.39-.21,2.74,2.74,0,0,0-2.85.07,2.87,2.87,0,0,1-3.27-.16,2.89,2.89,0,0,0-3-.3,4,4,0,0,1-3.6-.06,3.85,3.85,0,0,0-3.66-.07,2.78,2.78,0,0,1-3.23-.41,2.24,2.24,0,0,0-2.58-.32,4.7,4.7,0,0,1-4.37-.18,2.75,2.75,0,0,0-2.86.1A2.88,2.88,0,0,1,62,50.19a3,3,0,0,0-3.16-.29,4.05,4.05,0,0,1-3.58-.14,3.66,3.66,0,0,0-3.34-.11,3,3,0,0,1-3-.11,3.77,3.77,0,0,0-3.94-.25,3.4,3.4,0,0,1-4-1.2c-2,.71-4,1.56-6-.09a2.32,2.32,0,0,0-2.81,0,4.22,4.22,0,0,1-3.9.38,3.24,3.24,0,0,0-3.28.46,4.58,4.58,0,0,1-4.06.88,2.23,2.23,0,0,0-2.56.87,4.89,4.89,0,0,1-4,2.18,2.22,2.22,0,0,0-2.21,1.57,5.31,5.31,0,0,1-3.52,3.77,2.5,2.5,0,0,0-1.72,2.37A5.1,5.1,0,0,1,4.91,64.2a4,4,0,0,0-1.21,2.44,7.13,7.13,0,0,1-1.4,4.1A2.82,2.82,0,0,0,1.84,73a6.1,6.1,0,0,1,0,5.09,2.26,2.26,0,0,0,.52,2.64,3.18,3.18,0,0,1,.81,3.31,2.69,2.69,0,0,0,.92,3A4.57,4.57,0,0,1,5.7,90.81a3,3,0,0,0,1.74,2.87c1.29.73,2.7,1.43,3,3.19a1.53,1.53,0,0,0,.77.87c.57.32.61.65.44,1.26-.66,2.3-1.23,4.63-1.84,6.94-.1.38-.16.87-.42,1.09a2.77,2.77,0,0,0-.69,3.46c-.19.13-.49.22-.55.4a5.44,5.44,0,0,0-.69,2.35c.22,1.41.88,2.75,1.21,4.16.21.91-.17,1.56-1.28,1.51a4.48,4.48,0,0,1-2.95-.74c-.92-.72-3.48.28-4.39,1.34v3.12a25.48,25.48,0,0,0,2.51,1c.76.22,1.57.36,2.08-.62.1-.19.63-.22,1-.22,2.83,0,5.66,0,8.49.06a1.53,1.53,0,0,0,1.8-1.58c0-.39.2-.78.23-1.17A1.14,1.14,0,0,1,17.17,119c3.14-.64,3.13-.67,3.52,2.49.12,1,.29,2,.39,3a1.65,1.65,0,0,0,1.55,1.67c1,.14,2,.18,2.61-.91.42-.81.74-1.68,1.09-2.53a2,2,0,0,1,2.87-1.29c1.69.61,3.39,1.21,5,1.9.46.19,1.09.65,1.14,1.06.14,1,.67,1.24,1.56,1.16a11.78,11.78,0,0,1,1.44.06l-3.16,2.72c-3.25,2.78-6.51,5.55-9.76,8.34a5.8,5.8,0,0,0-1.6,5.78c.28.83.89.86,1.91.09,0,0,.14.07.15.12.4,2.72,2.16,4.3,4.43,5.58,1.39.78,2.64,1.8,4,2.71a5.09,5.09,0,0,0,4.55.81,7.46,7.46,0,0,1,4.24.07,10.91,10.91,0,0,0,2.8,0c1.21,0,2.42,0,3.63,0l2.8,0a15.81,15.81,0,0,1,3.4.11,6,6,0,0,0,3.4,0c1.27-.41,2.51-.84,3.8.25.45.38,1.56.21,2.26,0a5.71,5.71,0,0,1,4.09,0,3.44,3.44,0,0,0,3.11-.29,3.1,3.1,0,0,1,3.47,0,3.42,3.42,0,0,0,2.48.17,6.25,6.25,0,0,1,4.1-.07,3.61,3.61,0,0,0,3.12-.23,3.66,3.66,0,0,1,3.85,0,3.41,3.41,0,0,0,2.39.16,7.59,7.59,0,0,1,4.34-.08,5.06,5.06,0,0,0,3-.31,3.16,3.16,0,0,1,3.14,0,3.57,3.57,0,0,0,2.49.13,7.8,7.8,0,0,1,4.23,0,4.79,4.79,0,0,0,2.85-.25,4.14,4.14,0,0,1,3.65-.12,3.62,3.62,0,0,0,2.4.11,7.57,7.57,0,0,1,4.22-.08,5.3,5.3,0,0,0,3-.28,3.87,3.87,0,0,1,3.42-.07,3.71,3.71,0,0,0,2.49.16,8.45,8.45,0,0,1,4.12-.13,6.38,6.38,0,0,0,3.09-.23,5,5,0,0,1,3.81-.12,3.66,3.66,0,0,0,2.3,0,6.12,6.12,0,0,1,4-.09,3.81,3.81,0,0,0,3.24-.25,4.2,4.2,0,0,1,3.57-.22,4.55,4.55,0,0,0,2.54,0,6.59,6.59,0,0,1,5.5.71,5,5,0,0,1,5.31-1.1,5.13,5.13,0,0,0,2.46-.16c1.28-.23,2.61-.93,3.63.54,0,0,.18,0,.27,0,1-.24,1.92-.48,2.88-.73a6.62,6.62,0,0,1,3.63-.1,7.32,7.32,0,0,0,2.68-.29,16.82,16.82,0,0,1,2.22-.28c.31,0,.61.38,1.06.67l.94-.25a23.85,23.85,0,0,1,2.42-.54c1-.13,2.08-.15,3.13-.21l2.67-.13a20,20,0,0,1,3.75-.15,4.56,4.56,0,0,0,3.32-.48,3.77,3.77,0,0,1,3.22-.38,4.57,4.57,0,0,0,2.46.13,8.87,8.87,0,0,1,5.86.34,1.41,1.41,0,0,0,1.7-.33,2,2,0,0,1,2.82-.35,1.78,1.78,0,0,1,.46,2.46c-.27.61-.33,1.07.41,1.32s1.32,1.13,2.08.12a3.84,3.84,0,0,1,.83-.85,1.28,1.28,0,0,1,2.06.92,3.06,3.06,0,0,1,0,.48c0,2.21,0,2.21,2.35,2.92a3.35,3.35,0,0,1,2.6-1.94c1,.05,1.31.92,1.28,1.86s-.06,1.7,1.12,1.9c.65.11,1.09.07,1.32-.63a1.55,1.55,0,0,1,.48-.81c.51-.32,1.15-.78,1.63-.68a2.11,2.11,0,0,1,1.23,1.26,6.2,6.2,0,0,1,0,2c1.85.72,1.9.62,3-.79a3.17,3.17,0,0,1,2.07-1.07c1,0,1.43.83,1.71,1.74a5.84,5.84,0,0,0,.77,1.26l1.66-1.12s0-.08,0-.11c.34-.8.83-1.72,1.76-1.46a2.73,2.73,0,0,1,1.41,1.67c.26.78.54,1.07,1.37,1.1,1,0,1.51-.26,1.67-1.32a2,2,0,0,1,1.85-1.89,1.91,1.91,0,0,1,2,1.55c.32,1,1,1.05,1.86.94s1.05-.7,1.08-1.49a2.29,2.29,0,0,1,1.78-2.28c1.25-.16,1.76.7,2.15,1.68.07.18.13.37.2.55,1.62.1,1.82-.06,1.93-1.62a2.13,2.13,0,0,1,1.4-2.15,2,2,0,0,1,2.45,1,1,1,0,0,0,1.55.31,1.13,1.13,0,0,0,.39-.92c-.14-1.44.27-2.43,1.34-2.91a2.27,2.27,0,0,1,2.85.87c.15.18.32.35.5.53,1.16-.46,1.93-1,1.4-2.47a2,2,0,0,1,.87-2.41,2.37,2.37,0,0,1,2.7.16c.42.26,1,.59,1.41.46.8-.27,1.3-.84.76-1.85a2.17,2.17,0,0,1,.21-2.77,2,2,0,0,1,2.55-.13,1.65,1.65,0,0,0,2.33-.29c.39-.47.55-.78.17-1.33-.65-.95-1-1.95,0-2.92s1.91-.42,2.85.06l.54.26,1.25-1.49c-.62-1.19-2.18-2.08-.95-3.62s2.38-.57,3.59-.11c1.22-1.4,1.17-1.69.24-3.23a2.67,2.67,0,0,1-.17-2c.29-.85,1.16-1,2-.91.63.05,1.33.42,1.71-.54s.53-1.5-.47-2.1a1.84,1.84,0,0,1-.75-2.51,2.06,2.06,0,0,1,2.47-1.2c.34.06,1-.1,1.07-.31a2.75,2.75,0,0,0,0-1.54c-.07-.29-.48-.5-.75-.74-.71-.61-1.24-1.33-.81-2.3a2.06,2.06,0,0,1,2.26-1.23c.28,0,.55.06.82.09.72-1.86.64-1.84-.94-3.08a3,3,0,0,1-1-2.08c0-.93.89-1.37,1.81-1.4.72,0,1.22-.17,1.36-1a1.23,1.23,0,0,0-1-1.6,3.22,3.22,0,0,1-1-.58A1.56,1.56,0,0,1,303.21,101.76Zm-28.92-37a1.16,1.16,0,0,1,.8-.06c2.55,1.85,5.4,3.43,7.5,5.71,2.32,2.52,4,5.67,5.84,8.57.51.79.88,1.67,1.48,2.81-.55.28-1,.74-1.36.65-1.41-.34-3-.33-3.73-2.12-.35-.83-1.49-1.29-2.15-2a3.06,3.06,0,0,1-.76-1.6,3,3,0,0,0-1.65-2.39,7.11,7.11,0,0,1-2.32-2.57c-.76-1.39-1.43-2.68-3.24-2.79-.21,0-.58-.22-.58-.33C274.13,67.35,274.19,66.06,274.29,64.78Zm-19-11.67q3.2-11.66,5.89-23.45c.83-3.61,1.09-7.34,1.62-11l.18-1.22,15.62,4.36c-.33.85-.69,1.6-.91,2.38-2.19,7.59-4.47,15.16-6.51,22.79a318.7,318.7,0,0,0-6.86,33.79,4.39,4.39,0,0,0,.11,1.88c.34,1.12,1.33,1.29,2.1.4.57-.66,1.05-1.38,1.72-2.27,1.33,1.45,2.56,2.8,3.8,4.14A1.36,1.36,0,0,1,272,87c-2.79,3.29-5.53,6.63-8.32,9.93a12.21,12.21,0,0,0-2.64,4.64,3.3,3.3,0,0,0,1.28,4q5.59,3.8,11.25,7.5c1.39.9,1.45.84.64,2.27-.69,1.22-1.43,2.41-2,3.66-.5,1-1,1.08-2,.54-3.65-2.06-7.34-4.06-11-6.08a5.45,5.45,0,0,0-8.24,3.39L247,130.16c-.45,1.52-.73,1.8-2.31,1.53s-3.25-.78-4.87-1.19c-1-.27-1.22-.91-.95-1.91q1.74-6.41,3.38-12.85a5.21,5.21,0,0,0-5.35-6.8c-5,.07-9.91.24-14.86.38-1.75.05-1.94-.11-2-1.82,0-1.52-.06-3-.18-4.55-.07-.91.3-1.18,1.15-1.24,5.37-.43,10.75-.87,16.12-1.39,3.19-.3,4.77-2.42,3.87-5.51-.85-2.94-2.09-5.77-3.23-8.61-1-2.41-2-4.78-3.08-7.14-.39-.86-.28-1.48.59-1.86,1.64-.71,3.29-1.41,5-2a1.44,1.44,0,0,1,1.18.45c.57.61,1,1.36,1.51,2A3.18,3.18,0,0,0,246,79.13c1.42-.24,2-1.34,2.35-2.59C250.68,68.73,253.13,61,255.29,53.12ZM268.7,62l1.29,3.1C267.77,64.5,267.75,64.45,268.7,62Zm-.36,16.79a39.37,39.37,0,0,1-2.23,3.67.84.84,0,0,1-.64.38c-.2,0-.38-.36-.49-.59a1.33,1.33,0,0,1-.09-.7c.31-2.12.65-4.24,1-6.75a20.21,20.21,0,0,1,2.32,2.35A1.9,1.9,0,0,1,268.33,78.75Zm-54.1,1.79a3.42,3.42,0,0,1,.54,1.06c.42,1.6-.6,2.57-2.21,2.14-1.82-.49-1.82-.49-2.55,1.34.39.3.81.6,1.19.93.75.66,1.37,1.41,1,2.49a2.57,2.57,0,0,1-2.55,1.62c-.69,0-1.37.18-2.35.32a10.07,10.07,0,0,1-.4-1.57c-.38-3.17.78-6,2.29-8.64a42.28,42.28,0,0,1,3.76-5.38,7.41,7.41,0,0,1,6-2.69l-1.5,1.68c.73,1.17,2.31,2.27,1,3.76s-2.69.57-3.95-.22C213.07,78.91,213.08,78.9,214.24,80.55Zm-6.58,31.29,2.41-.15a5.26,5.26,0,0,1-.23,1.38c-.85,1.8-1.73,3.58-2.66,5.34-.18.34-.65.53-1,.79a4.65,4.65,0,0,1-.71-1,37.54,37.54,0,0,1-2.36-11.22c-.08-3.23.25-6.47.48-9.7,0-.5.53-1,.81-1.46a5.88,5.88,0,0,1,1.29.94c1,1.22,1.86,2.5,2.76,3.77.78,1.1.65,1.43-.74,1.69-.64.12-1.27.08-1.3,1,0,1.28.14,1.53,1.44,1.62s1.85.59,2,1.66c.1.56.65,1.12.09,1.6a14.61,14.61,0,0,1-2.1,1.32c-.2.12-.42.21-.72.36Zm-6.05-36.47-.25-.44a4.21,4.21,0,0,1,.24-.38L203,72.67l.35,0c0,.55.22,1.27-.05,1.61A5.87,5.87,0,0,1,201.61,75.36Zm8.48,20-1.92-2.78C210,92.6,210.83,93.7,210.09,95.32Zm-4.21-25.95,1.94-2.06C207.85,68.71,207.25,69.23,205.88,69.37Zm11.34,29.7c.19-1.78.45-3.57.8-5.33,1.31-6.66,6.08-13.38,11.27-16.31.13-.07.2-.24.32-.34,1.6-1.31,3-1.07,3.83.84q3.33,7.62,6.5,15.31A8.23,8.23,0,0,1,240.5,96a3.09,3.09,0,0,1-3,3.58c-3.53.39-7.08.64-10.62.93-2.23.19-4.46.34-6.69.52-.4,0-.8,0-1.2,0C217.74,100.93,217.09,100.27,217.22,99.07Zm2.28-27,4,.28C222.71,73.95,221.42,73.88,219.5,72.11ZM219,110.65a14.25,14.25,0,0,1,3.24-.7c2.43-.1,4.87,0,7.31,0v-.28c2.56,0,5.12,0,7.67,0a4.51,4.51,0,0,1,4.36,5.82l-3.5,13.31c-.51,1.94-1.26,2.37-3.24,1.87-3.7-1-6.56-3.23-9.11-5.93a38.26,38.26,0,0,1-7.48-12.32C217.91,111.48,218.14,110.9,219,110.65Zm34.11-53.11a1.4,1.4,0,0,1-1.22,1.73c-.73.16-1.42.55-2.15.64a10.27,10.27,0,0,1-2.11-.16v-.47A7.85,7.85,0,0,1,253.14,57.54Zm-3.62,12.67c-.69,2.34-1.23,4.38-1.93,6.37a3.85,3.85,0,0,1-1.36,1.73c-.74.52-1.2-.42-1.77-.6-1.49-.46-2-1.62-2.52-2.77-.78-1.68-.45-2.67,1.28-3.24C245.17,71.06,247.22,70.74,249.53,70.21Zm-14.8-11.37c2.32-.56,4.64-1.15,7-1.66a1.24,1.24,0,0,1,1.07.48,1.28,1.28,0,0,1-.16,1.19,2,2,0,0,1-1.32.56c-1,0-2-.25-2.93-.34a1.33,1.33,0,0,0-.87.26c-1,.8-1.89.39-2.78-.11Zm0,4a21.13,21.13,0,0,1,.11,2.37,1.57,1.57,0,0,1-2.6,1.19,6.47,6.47,0,0,1-.91-.94c-.42-.47-.62-1.28-1.57-.78s-1.46.89-1.07,2.11c.51,1.59.13,2-1.51,1.85a39.85,39.85,0,0,1-4.7-.72c-1.36-.3-1.57-1.21-.54-2.12a10.91,10.91,0,0,1,5.11-3,7.63,7.63,0,0,1,3.39,0C231.85,63.26,233.17,63.62,234.71,62.82ZM213.22,50.74c2-1.74,2.52-3.57,1.52-6s-1.22-2.12,1.51-3.1c.75-.27,1.52-.49,2.26-.8s1.38-.7,2.2-1.12c.3.7.69,1.55,1,2.42a1.53,1.53,0,0,0,1.79,1,17.59,17.59,0,0,0,2.49-.29,4.64,4.64,0,0,0,1.76-1c.64-.56,1.31-.81,1.89-.19a2.06,2.06,0,0,0,2.11.73c.77-.15,1.05.24.94,1a6,6,0,0,1-3.94,5,131.54,131.54,0,0,0-12.57,6.12c-9,5.29-15.61,13-21.1,21.72l-.06.11c-1.26,2-1.4,2.07-3.61.52,2.06-3,4.09-6,6.2-8.92A99.52,99.52,0,0,1,213.22,50.74Zm-172,2.34c-.59,1-1.73,1-2.94-.17Zm-6.47,51.6a23.34,23.34,0,0,1,10.79.3,10.62,10.62,0,0,1,5.43,3.91,21.37,21.37,0,0,0-2.47.15,22.14,22.14,0,0,0-2.47.73c-.51-2.93-2.6-3.34-5-3.33-1.08,0-2.16,0-3.23,0s-1.6.76-1.14,1.89c.23.57.55,1.11.85,1.71a5.3,5.3,0,0,1-4.05-3.55A1.51,1.51,0,0,1,34.73,104.68Zm-8.56-.54a5.2,5.2,0,0,1,3.93.37,16.08,16.08,0,0,0,2.54.75l.83,3.22-1-.38c-3.38-1.19-6.75-2.39-10.14-3.56-1.08-.37-1.23-.72-.81-3.08a6.41,6.41,0,0,1,1.29,1.22C23.73,104.39,24.33,104.71,26.17,104.14ZM19.58,90.48A3.77,3.77,0,1,1,19.71,98a3.77,3.77,0,1,1-.12-7.55Zm3.73,33.88c-1.82,0-2.22-.61-2.15-3.26,0-1,1-1.63,2.51-1.62s2.36.61,2.35,1.45C26,123.46,25.27,124.36,23.32,124.36Zm5.37-10.92c-2.9-1.1-5.83-2.16-8.8-3.08a15,15,0,0,0-3.79-.43c-1.07,0-1.6-.34-1.27-1.51.19-.69.23-1.42.4-2.11.49-1.89,1.35-2.41,3.26-2A77.16,77.16,0,0,1,33,109.08c1.94.84,3.86,1.74,5.82,2.53a2,2,0,0,1,1.47,2.28c-.14,1.24-.28,2.49-.45,4C35.87,116.29,32.3,114.81,28.69,113.44Zm13.69,24.2a3.18,3.18,0,0,0,0,1.51,3.66,3.66,0,0,1-.93,3.32,5.73,5.73,0,0,0-1.14,2c-.51,1.68-.9,3.39-1.27,5.11-.21,1-.74,1.56-1.73,1.36a10.06,10.06,0,0,1-3.13-1c-1.85-1.1-3.58-2.41-5.34-3.64-2-1.42-3.1-5.49-2-7.71a3.57,3.57,0,0,1,.83-1c4-3.65,8.07-7.28,12.07-11a4.56,4.56,0,0,1,2.79-1.18c2.09-.22,4.19-.49,6.25-.9a12,12,0,0,0,2.58-1.18l.2.22a21.15,21.15,0,0,1-2.38,1.5,7.63,7.63,0,0,0-4.1,4.47C44.15,132.26,43.25,134.95,42.38,137.64Zm167.71,5.46c-1.59-.62-2.87-.15-4.25.77a3.23,3.23,0,0,1-2.57-.12,3,3,0,0,0-2.95,0,4.1,4.1,0,0,1-3.79.41,3.5,3.5,0,0,0-3.41.38,2.33,2.33,0,0,1-3.45-.78,16.9,16.9,0,0,1-3.08,1.26,7.39,7.39,0,0,1-3-.1,3.49,3.49,0,0,0-3.26.5c-1.09.86-2.2.57-3.15-.73a23.23,23.23,0,0,1-3.19.94,6.82,6.82,0,0,1-2.9-.1c-1.36-.4-2.54-.54-3.7.47a4.37,4.37,0,0,1-1.42.49l-.16-1.1-.62,1c-1.35-1.24-2.68-.85-4.14-.31a4.85,4.85,0,0,1-2.88,0,4.62,4.62,0,0,0-3.88.38,3.46,3.46,0,0,1-2.59,0,4.09,4.09,0,0,0-3.56,0,4.06,4.06,0,0,1-3.49,0,3.11,3.11,0,0,0-3.36.41,2.5,2.5,0,0,1-3,0,2.65,2.65,0,0,0-2.93-.14,4.47,4.47,0,0,1-3.94.19,3.18,3.18,0,0,0-3.28.28,2.43,2.43,0,0,1-2.83,0,2.86,2.86,0,0,0-3.26-.11,4,4,0,0,1-3.59.15,3.26,3.26,0,0,0-3.49.31,2.39,2.39,0,0,1-2.92-.07,2.69,2.69,0,0,0-3-.12,4.24,4.24,0,0,1-3.91.15,3.14,3.14,0,0,0-3.08.23,2.33,2.33,0,0,1-2.71,0,2.88,2.88,0,0,0-3.26-.1,5,5,0,0,1-3.49.23,7.14,7.14,0,0,0-3.24,0c-1.49.43-2.77.71-4.21-.25a2.79,2.79,0,0,0-2.24.1,6,6,0,0,1-4.19.22,5.49,5.49,0,0,0-2.89.11,4,4,0,0,1-3.85-.26,2.68,2.68,0,0,0-2.23,0,5.59,5.59,0,0,1-4.4.2,4.65,4.65,0,0,0-2.66.09,4,4,0,0,1-3.74-.36,2.92,2.92,0,0,0-2.33,0,5.7,5.7,0,0,1-4.18.07,7.89,7.89,0,0,0-2.87,0c-.42,0-.82.32-1.25.39-1.48.25-1.6.09-1.22-1.35a3.15,3.15,0,0,0,.07-.95c-.08-1.81.4-2.39,2.18-2.57l.7,0c.37-1.19.63-2.19-.67-3.06-.93-.61-.87-1.65-.17-2.66,1-1.48.64-2.44-1.14-2.73-1.24-.21-1.4-1.06-1.3-2,.08-.8.14-1.5-.79-1.89a.94.94,0,0,1-.24-.89,23.87,23.87,0,0,1,2.47-3.47,3,3,0,0,1,3.47-.52,2.12,2.12,0,0,0,2.95-1,11.22,11.22,0,0,1,1.07-1.29,2,2,0,0,0,0-2.62,2.12,2.12,0,0,1-.26-1.7c1.39-3.46.9-6.41-1.82-9.08a57.12,57.12,0,0,0-6-5.44,6.05,6.05,0,0,0-4.1-1.41,4.7,4.7,0,0,1-2.47-.74c-1.24-.76-2.41-1.42-3.91-.86-.26.1-.61-.06-.93-.09a1.58,1.58,0,0,1,1.1-1.95,2.45,2.45,0,0,1,2,.36c.93,1.13,1.71.92,2.71.12-.27-1.22-.55-2.52.94-3.28.89-.46,1.39-.29,2.86,1,.25-.18.51-.35.76-.55s.47-.42.74-.65c-.65-1.09-1.23-2.16-.08-3.25s2.13-.37,3.24.24l1.09-1.35a9.11,9.11,0,0,1-.93-1.9,2,2,0,0,1,2.26-2.45c.64.13,1.21.35,1.64-.44A1.21,1.21,0,0,0,54,86a2.79,2.79,0,0,1-.4-.5c.58,0,1,0,1.41,0a2.21,2.21,0,0,0,1.24-.18L54.19,85c-1-.12-1.08-.65-.73-1.44.56-1.27,1.7-1.29,2.85-1.28.37-1,.71-1.91-.77-2.37-.48-.15-.78-.89-1.27-1.49l1.31-.35-1.3-.56c.49-.51.83-1.1,1.35-1.35,1.47-.73,1.52-.73,1.08-2.19a9.43,9.43,0,0,1-2.18-1.1,2.1,2.1,0,0,1,.27-3.15,3.18,3.18,0,0,0,.88-1.55c.13-.62-.24-1.07-1-1a2.16,2.16,0,0,1-2.47-1.26,2.13,2.13,0,0,1,.72-2.57c1-1-.48-1.36-.4-2.25-1.43.46-2.73.92-3.68-.52-.75-1.13-.2-2,.53-3L47.79,56.1c-1.17.49-2.33,1.39-3.55.32s-.58-2.25-.25-3.57c.62.26,1.35.57,2.09.85a1.05,1.05,0,0,0,.64,0c1.91-.61,3.78-1.33,5.73,0a2.18,2.18,0,0,0,1.6.08,7.53,7.53,0,0,1,4.69.22,4.37,4.37,0,0,0,2.64,0,4.66,4.66,0,0,1,4.13.22,3.14,3.14,0,0,0,2.15.21,7.6,7.6,0,0,1,4.22.18,5.54,5.54,0,0,0,3,0,4.2,4.2,0,0,1,4,.33,3,3,0,0,0,2.15.2,7.84,7.84,0,0,1,4.35.24,5.22,5.22,0,0,0,2.88,0,4.67,4.67,0,0,1,3.9.24,3.82,3.82,0,0,0,2.41.13,7.9,7.9,0,0,1,3.76.19,6.47,6.47,0,0,0,3.22.07,4.94,4.94,0,0,1,3.91.24,3.81,3.81,0,0,0,2.4.19,5.63,5.63,0,0,1,3.75.19,4.06,4.06,0,0,0,3.47.06,3.78,3.78,0,0,1,3.65.29,3.49,3.49,0,0,0,2.38.23,5.71,5.71,0,0,1,3.86.2,3.89,3.89,0,0,0,3.36,0,4.13,4.13,0,0,1,3.57.16,7.51,7.51,0,0,0,2.4.3c1.37.11,2.74.2,4.11.27a9.39,9.39,0,0,0,3,0,4.69,4.69,0,0,1,3.9.21,3.2,3.2,0,0,0,2.17.22,7.37,7.37,0,0,1,4.22.19,6,6,0,0,0,3.12-.05,4.41,4.41,0,0,1,3.66.31,3.08,3.08,0,0,0,2.14.26,7.39,7.39,0,0,1,4.33.18,5.28,5.28,0,0,0,3,0,3.9,3.9,0,0,1,3.73.36,2.89,2.89,0,0,0,2.14.22,7,7,0,0,1,4.44.28,5,5,0,0,0,2.54.06,6.72,6.72,0,0,1,3,0,10.06,10.06,0,0,0,4.34.32c1.78-.36,3.78.39,5.87.69.73-1.18,2.15-.73,3.46-.56s2.8.51,4.17.78l-3,4c-1.2,1.6-2.39,3.21-3.61,4.79a5.45,5.45,0,0,1-1,.75,8.5,8.5,0,0,1-4.22,5.61c1.37,1.34,3.57,1.14,4.29,2.91.34-.22.73-.67,1.07-.63a4.59,4.59,0,0,0,4.42-1.6c.76.8,1.18,1.59.77,2.57a2.05,2.05,0,0,1-2.3,1.13c-.64,0-1.24-.18-1.51.72a1.37,1.37,0,0,0,.64,1.79,2.14,2.14,0,0,1,1,2.6,1.8,1.8,0,0,1-2.34,1.13.94.94,0,0,0-1.24.78,9.88,9.88,0,0,1-.66,1.38c.27.16.63.37,1,.56.83.45,1.68.95,1.53,2.05a2,2,0,0,1-1.95,1.68c-1,.15-1.35.67-1.14,1.53a2.3,2.3,0,0,0,.81,1.28c.79.54,1.59,1.08,1.46,2.13s-1,1.35-1.93,1.53c-.59.12-1,.31-.88,1s-.34,1.74.78,1.83c1.31.1,1.4,1.29,2,2,.1.11,0,.59-.17.74a6.29,6.29,0,0,1-1.59,1.2,1.21,1.21,0,0,0-.87,1.46c.12.72.4,1.16,1.22,1.18a1.9,1.9,0,0,1,2,1.56,1.78,1.78,0,0,1-1.32,2c-.85.36-1,.9-.76,1.72s.44,1.29,1.4,1.22a1.81,1.81,0,0,1,1,3.4c-1,.57-.67,1.25-.42,2s.6.81,1.41.69a2,2,0,0,1,2.33,1,2.16,2.16,0,0,1-.54,2.52c-.51.55-1.1,1.19-.48,1.85.31.34,1.11.2,1.66.36.72.21,1.64.3,2.06.79.74.88.19,1.89-.54,2.55a1.14,1.14,0,0,0,0,1.91,1.59,1.59,0,0,0,1.28.34c1-.25,1.91-.55,2.65.34a2.14,2.14,0,0,1-.1,2.87c-.74.92-.09,1.41.38,2.05s1,.29,1.51,0c.72-.46,1.45-.73,2.18,0s.52,1.52.1,2.3c-.21.38-.45.75-.72,1.18Zm11.66-4.55a6.81,6.81,0,0,1-4.71-2.1c-1.78-1.83-3.45-3.76-5.15-5.66a8.15,8.15,0,0,1-1.8-7.3,52,52,0,0,1,1.88-6c1.51.46,2,1.26,1.52,2.31a4.6,4.6,0,0,1-.87,1.27c-1.2,1.3-1.21,1.28,0,2.74a7.86,7.86,0,0,1,2-.63,2.47,2.47,0,0,1,1.79.58,2.07,2.07,0,0,1,.1,1.75,14.23,14.23,0,0,1-1.38,2.3l1.28,1.56a7.67,7.67,0,0,1,1.81-1,2.48,2.48,0,0,1,1.86.17c.35.26.34,1.11.35,1.7a2.39,2.39,0,0,1-.39,1.12c-.62,1.1-.24,1.79.85,2.29a6,6,0,0,1,1.64-1.14,3,3,0,0,1,2.19.05c.46.3.54,1.27.67,2a1.82,1.82,0,0,1-.29,1c-.33.64-.62,1.14.29,1.66s1.38.5,2-.32c1-1.27,1.84-1.38,3.43-.63-.09.12-.15.29-.26.34A18.56,18.56,0,0,1,221.74,138.55Zm10,3.64c-1,.71-2,0-3-.57a14.88,14.88,0,0,1,7.44-2.1c.9-.06.74.72.76,1.31s-.4.85-.93.67A4.36,4.36,0,0,0,231.7,142.2Zm17.07,6a83.41,83.41,0,0,1-8.34-.47,66.77,66.77,0,0,1-6.62-1.49l.13-.24a10,10,0,0,1,2-.69,11,11,0,0,1,3.28-.06,4.57,4.57,0,0,0,3.44-.46,2.72,2.72,0,0,1,3.14-.08,3.67,3.67,0,0,0,1.48.24c.47,0,1.16-.12,1.38.13a8.82,8.82,0,0,1,1.36,2.32A2.25,2.25,0,0,1,248.77,148.16Zm.51-14.39-.08-.32c-2.42,0-2.47,0-1.79-2.32q2.11-7.18,4.26-14.35a4.58,4.58,0,0,1,6.94-2.81q5.68,3.1,11.34,6.22c1.66.92,1.75,1.62.37,2.87-4,3.62-8.13,7-13.3,8.81C254.53,132.73,251.88,133.15,249.29,133.77Zm22.61,7.2a30,30,0,0,1-11.81,5.33c-2.51.56-4.62-.71-6.74-2.16,2.06-.92,3.81-2.17,6.14-1.67a2.86,2.86,0,0,0,2.05-.71,6.2,6.2,0,0,1,4-1.64,3.61,3.61,0,0,0,2.88-1.65,4.69,4.69,0,0,1,2.44-1.69,4,4,0,0,0,3.07-2.35,3.83,3.83,0,0,1,.91-1.18C275.22,136.35,274.43,139,271.89,141ZM277.84,109a21.2,21.2,0,0,1-.64,2.55,1.83,1.83,0,0,1-2.88,1.13c-3.85-2.5-7.69-5-11.46-7.61-1.67-1.16-1.85-2.12-1-3.94a16.33,16.33,0,0,1,2-3.35c2.89-3.57,5.86-7.08,8.81-10.6,1.31-1.56,2.15-1.45,2.95.37,1.82,4.15,3.42,8.36,3.52,13l.34.05C279,103.41,278.41,106.22,277.84,109Zm14,6.8a43.53,43.53,0,0,1-5.28,11.36c-1.43,2.07-3,4-4.55,6a2,2,0,0,1-.59.59c-.47.24-1.08.66-1.46.53s-.6-.85-.69-1.35c-.19-1.1-.24-2.22-.36-3.42a1.88,1.88,0,0,1,1.81-2.12,2.36,2.36,0,0,0,2.21-2.15,5.66,5.66,0,0,1,2.06-3.79,4,4,0,0,0,1.3-3,4.94,4.94,0,0,1,4.9-4.19C292.26,114.4,292,115.15,291.82,115.83Zm1.43-9.45a5.87,5.87,0,0,1-4.35,3.68c.23-.45.4-.84.6-1.2a3.48,3.48,0,0,0,.21-3.22,4.22,4.22,0,0,1,.2-3.78,3.58,3.58,0,0,0,0-2.47,6.3,6.3,0,0,1-.26-4.09,3.3,3.3,0,0,0-.79-3.43,5.35,5.35,0,0,1-.85-5c2.12.89,4.05,2,4.84,4.3C294.63,96.16,295.2,101.25,293.26,106.38Z"/><path d="M213.22,39.77h0v0Z"/><path d="M243.42,98.18a5.8,5.8,0,0,0,5.77,5.82,5.82,5.82,0,1,0,0-11.64A5.9,5.9,0,0,0,243.42,98.18Z"/></g></g></svg>