<svg xmlns="http://www.w3.org/2000/svg" viewBox="0 0 189 189"><defs><style>.cls-1,.cls-2{fill:none;}.cls-1{stroke:#9d9d9c;stroke-miterlimit:10;stroke-width:2px;}.cls-3{font-size:28px;fill:#1d1d1b;font-family:Avenir-Black, Avenir;}</style></defs><title>Asset 15</title><g id="Layer_2" data-name="Layer 2"><g id="Layer_1-2" data-name="Layer 1"><g id="Layer_2-2" data-name="Layer 2"><g id="Layer_1-2-2" data-name="Layer 1-2"><path class="cls-1" d="M1.85,118.21c1.24-.6,2.09-2.33.61-3.24a5.61,5.61,0,0,0-.94-.32c-.35-.16-.26.07-.43-.24s0-.58,0-.81-.1-.83.14-1,.88-.16,1.2-.45a1.77,1.77,0,0,0,0-2.75c-.13-.12-.31-.17-.45-.29-.35-.34-.28,0-.24-.53a3.69,3.69,0,0,1,.46-1.41c.25-.26.33-.09.74-.07a1.84,1.84,0,0,0,1.84-1.26,1.73,1.73,0,0,0-.27-1.52c-.23-.35-.45-.43-.39-.75a5.16,5.16,0,0,1,1-1.33c.42-.21,1.29.47,2,.19A1.77,1.77,0,0,0,8.22,101a3.38,3.38,0,0,0-.13-.92c0-.1-.21-.36-.18-.45a4.44,4.44,0,0,1,.7-.44c.2-.13.81-.66,1.05-.67s.7.67,1,.77c1.35.63,2.13-.48,2.44-1.61.15-.54,0-.54.66-.68a4.36,4.36,0,0,1,1-.21c.55,0,.07-.18.47.26.11.1.14.31.23.44a1.74,1.74,0,0,0,1.1.68,1.71,1.71,0,0,0,1.76-.58c.2-.2.26-.88.44-1a4.46,4.46,0,0,1,1.65.21c.6.19.3.2.44.83A1.81,1.81,0,0,0,23,99h0a2,2,0,0,0,.83-.5c.39-.41.26-.51.81-.35a4.44,4.44,0,0,1,1.3.67c.26.25,0,.58-.06,1a1.8,1.8,0,0,0,2.33,1.75c.4-.13.61-.43,1-.28a4.18,4.18,0,0,1,.85.94c.52.5.36.46.08,1a2.09,2.09,0,0,0-.29.94,1.82,1.82,0,0,0,.65,1.35,1.65,1.65,0,0,0,.68.33c.35.09.86-.16,1.14-.06s.46.69.63,1.1a2.18,2.18,0,0,1,.24.58c0,.41,0,0-.19.35-.43.55-.94.72-1,1.52a1.76,1.76,0,0,0,1.29,1.78,3.77,3.77,0,0,1,.53.09c.28.17.17.17.23.54a3.86,3.86,0,0,1,.06,1.44c-.12.29-.71.24-1.08.48a1.87,1.87,0,0,0-.76.94,1.73,1.73,0,0,0,.73,2c.54.37.68.25.51,1-.13.45-.24,1.22-.62,1.36s-.83-.15-1.25,0a1.79,1.79,0,0,0-.94.83,1.73,1.73,0,0,0,.11,1.76c.23.37.52.5.46.83A6.86,6.86,0,0,1,30.09,124a1.87,1.87,0,0,0-2.84.25,1.61,1.61,0,0,0-.29,1.17c0,.28.21.52.24.79.08.51-.07.43-.58.76-.21.13-.9.74-1.09.69s-.42-.52-.54-.62a1.76,1.76,0,0,0-1.36-.47A1.87,1.87,0,0,0,22.22,129l-2.1.44a1.85,1.85,0,0,0-2-1.66h0a1.77,1.77,0,0,0-1,.57,2,2,0,0,0-.4.7c-.13.39,0,.41-.34.53s-.8-.1-1.1-.14-.71,0-.86-.29,0-.89-.23-1.27a1.81,1.81,0,0,0-2.1-.73,3.53,3.53,0,0,0-1,.81c-.34.28-.08.25-.55.09a6.53,6.53,0,0,1-1-.51c-.76-.4-.38-.48-.29-1.2a1.74,1.74,0,0,0-.16-1.14,1.76,1.76,0,0,0-1.77-.88c-.32.05-1,.65-1.25.62a11.62,11.62,0,0,1-1.45-1.59,1.84,1.84,0,0,0,.06-3c-.54-.39-.91-.24-1.52-.29a1.94,1.94,0,0,0-.52.16l-.24-.61-.57-1.42C2.91,117.69,2.12,118.89,1.85,118.21Zm12.44-8.84a4.95,4.95,0,1,0,7,.35l0,0A5,5,0,0,0,14.28,109.37Z" transform="translate(11.91 44.65)"/><circle class="cls-1" cx="17.8" cy="113.19" r="5.19" transform="translate(-44.88 70.86) rotate(-31.68)"/><circle class="cls-1" cx="17.8" cy="113.19" r="1.97" transform="matrix(0.85, -0.53, 0.53, 0.85, -44.88, 70.86)"/><path class="cls-1" d="M163.83,1c-2.23.24-6.65-.16-7.76,2.29-.64,1.41,0,3.66.13,5.13l1.94,18.48c.19,1.81,0,4.3,1.88,5.29,1.19.64,2.81.21,4.09.09s3-.05,4.09-.66c2.11-1.16,1.43-3.68,1.23-5.6l-.94-9-1.1-10.41C167.15,4.38,167.19.67,163.83,1Z" transform="translate(11.91 44.65)"/><path class="cls-1" d="M132.23,59.22l-.2.12c-.62-.21-1.33-.72-1.84-.56s-.6,1-.88,1.6a.73.73,0,0,1-1.24.25c-1-.76-1.58-.44-1.91.68-.27.9-.84,1-1.51.46-.88-.73-1.45-.6-1.9.46-.29.69-.88.92-1.45.39-.9-.87-1.47-.59-2.07.33a.82.82,0,0,1-1.48,0c-.75-1.07-1.38-.85-2,.07-.42.61-.84.64-1.34.08-1.08-1.27-1.09-1.27-2.42-.3a5.4,5.4,0,0,1-.57.32c-1-1.65-1-1.6-2.72-1.18a1.33,1.33,0,0,1-1.15-.57c-.45-1-1.1-1.07-1.89-.6s-1.11.14-1.28-.57c-.28-1.11-1-1.22-1.92-.85l-1,.37a3.27,3.27,0,0,1-.05-.43c.08-1.89.08-1.92-1.84-1.78-.86.07-1-.44-1-1.1,0-1.06-.57-1.3-1.46-1.18-.42.06-.83.17-1.69.36a4.27,4.27,0,0,0,.51-.84c.42-1.65.41-1.67-1.27-1.9-.69-.1-1.07-.48-.84-1.13.39-1.08-.11-1.48-1-1.8a1.32,1.32,0,0,1-.73-1c.18-1.45-.62-1.82-1.8-1.89l-.5-.82C91,44.8,91,44.57,89.33,43.8c-.76-.37-.75-.72-.28-1.37.76-1,.67-1.27-.37-1.81s-1.17-.75-.21-1.66c.63-.65.58-1.14-.08-1.67-.35-.34-.76-.63-1.39-1.16,1.51,0,1.71-.76,1.45-1.5A5.67,5.67,0,0,0,87.38,33a4.9,4.9,0,0,0,1.21-1.45c.13-.42-.31-1-.54-1.5a5.22,5.22,0,0,0-.43-.72c.54-.23.91-.28,1.11-.5a1.65,1.65,0,0,0,0-2.27,1.41,1.41,0,0,1,.05-1.09c1.24-.25,1.52-.74,1-1.92-.18-.39-.32-.79-.62-1.51l.75.72a2.56,2.56,0,0,0,1.17-2.86A.91.91,0,0,1,92,18.67a1,1,0,0,0,.83-1.39c-.24-.83,0-1.25.84-1.48A1.79,1.79,0,0,0,95,13.87a1,1,0,0,1,.67-.8c1.32.13,1.67-.5,1.61-1.67a1,1,0,0,1,.67-.7c1.87-.12,1.87-.09,2.11-1.84l.82-.5c1.72.52,1.92.4,2-1.26l.82-.5c1.52.76,1.53.76,2.2-.78.3-.71.79-.91,1.42-.49,1,.65,1.53.36,1.82-.71s.78-1,1.5-.41c1.13.87,1.15.87,1.88-.45.41-.8.8-1,1.48-.21.89,1.06,1,1,2.05,0,.25-.26,1.07-.42,1.14-.28,1,1.38,1.79.84,2.63-.08a1.24,1.24,0,0,1,.4-.18c1.5,1.45,1.5,1.45,3.62.44.46,1.39,1.22,2.15,2.7,1.05a1.23,1.23,0,0,1,.9.57c.35,1.15,1,1.34,2,.71.77-.48,1.35-.28,1.35.69s.54,1.43,1.61,1.12a1.29,1.29,0,0,1,1.15.31A4,4,0,0,0,136,9.53a1.18,1.18,0,0,1,.33.16,1,1,0,0,1,.07.35c-.18,1.16,0,1.95,1.5,1.83.69-.06.93.54.78,1.17a1,1,0,0,0,1,1.41,1.18,1.18,0,0,1,1.21,1.43,1.16,1.16,0,0,0,1.45,1.4,20,20,0,0,0,4.17-.78c4.34-1.5,8.67-3.24,13-4.64A5.14,5.14,0,0,1,166.09,15l.06.17c1,2.65,0,4.95-3,6.27-2.59,1.18-5.34,2.11-8,3.08s-5.11,1.76-7.64,2.78c-2,.77-2.21,2-.86,3.52.56.64.46,1.16-.26,1.53-1,.51-1,1.07-.23,1.84.53.51.76,1,0,1.54-.95.64-1.09,1.39-.18,2.23.56.54.46,1.2-.25,1.41-1.3.4-1.16,1.11-.8,2.13a1.23,1.23,0,0,1-.33,1.14c-1.26.58-1.26,1.31-.57,2.35.42.6.21,1.13-.63,1.24-1.56.21-1.63.27-1.21,1.74.25.9,0,1.34-.9,1.32-1.26,0-1.41.58-1.09,1.59.27.81.12,1.38-.91,1.26s-1.47.37-1.36,1.41-.26,1.44-1.32,1.23S135.3,55,135.38,56c.16,1.34-.11,1.53-1.35,1.22-.93-.23-1.48,0-1.55,1Q132.38,58.72,132.23,59.22Zm-5.41-9.8c1.62-1.6,3.62-3.42,5.42-5.41,1.17-1.29.86-2.7-.57-3a26.1,26.1,0,0,0-5.76-.75,5.08,5.08,0,0,0-5,4.08,27.57,27.57,0,0,0-.66,4.83,1.7,1.7,0,0,0,2.35,2A41,41,0,0,0,126.82,49.42Zm-5.76-28.29c.76-1,2-2.55,3.17-4.2.18-.19-.14-.94-.43-1.2a2.64,2.64,0,0,0-1.42-.53,42.52,42.52,0,0,0-6-.4,21.41,21.41,0,0,0-5.11,1c-1.5.46-1.71,1.56-.7,2.76.48.58,1,1.12,1.5,1.69,2.17,2.55,5.51,3.05,9,.86Zm-9,21.33a4.53,4.53,0,0,0-4.6-2.27,33.2,33.2,0,0,0-4.59,1.38c-.66.23-1.11.71-.59,1.58,1.91,3.13,4.08,6,7.74,7.24a10.73,10.73,0,0,1,1.39.7c1.4.73,1.94.42,1.8-1.16-.15-2-.45-4-.71-6a6.11,6.11,0,0,0-.48-1.45Zm-7.76-20.93c-2.83,4.44-5,8.68-4.5,13.95a9.14,9.14,0,0,0,1.38-.32,11.11,11.11,0,0,0,4.65-2.94,5,5,0,0,0,1.6-3.16c.07-2.9-1.59-5.06-3.16-7.56Zm31.36,10.56-.29-.28a17.28,17.28,0,0,0-2.45,1.32c-.88.67-.64,1.6.42,2a1.64,1.64,0,0,0,2.22-1.18,11.79,11.79,0,0,0,.07-1.88Zm25-16.82a1.7,1.7,0,0,0-.86,2.25l0,.1a1.45,1.45,0,0,0,2,.54,1.63,1.63,0,0,0,.72-2.19l0,0a1.37,1.37,0,0,0-1.79-.74l-.09,0Zm-31.92,7.22c.24,0,.47-.08.69-.15a5.41,5.41,0,0,0,1.11-.38,2.46,2.46,0,0,0,.58-.6,2.35,2.35,0,0,0-.72-.44C129.43,20.71,128.85,21.29,128.82,22.48Z" transform="translate(11.91 44.65)"/><path class="cls-1" d="M2.54,120.43c0-1.73-.85-2.78-1-4.29-.58-4.91,0-8.62,2.41-12.61A79.21,79.21,0,0,1,14.5,90C37.93,65.61,56.5,45.32,80,21c.3-.32,5.41-4.81,5.56-5.25l6.51-5.24a56.09,56.09,0,0,1,20.59-7.23c16-2.35,27.94,3,33.2,17.43,5.92,16.26-4.58,37.75-25.36,49.76C99.94,82.29,80,95.46,59.78,108.1c-8.05,5-16.17,10-24.18,15.1-9.46,6-18.47,8.55-26.89,4-.88-.43-1.1-1.36-2.06-1.65ZM138.34,13.25c-5.14-6.7-15.84-10.5-31-6.73-11.1,2.77-19.1,10.23-26.84,18.22Q59.7,46.35,38.94,68C28.88,78.48,18.61,88.78,9,99.53c-6.59,7.33-7.21,16.35-2.77,22.2,4.33,5.67,12.9,7.16,21.51,3.09,5-2.4,9.81-5.66,14.63-8.68C69.82,99,97.38,82,124.72,64.57,143.25,52.79,149.92,29.93,138.34,13.25Z" transform="translate(11.91 44.65)"/></g></g><rect class="cls-2" width="189" height="189"/><text class="cls-3" transform="translate(47.17 102.17)">GEARS</text></g></g></svg>