<svg xmlns="http://www.w3.org/2000/svg" viewBox="0 0 289.8 210.77"><defs><style>.cls-1{fill:#1d1d1b;}</style></defs><title>Asset 12</title><g id="Layer_2" data-name="Layer 2"><g id="Layer_1-2" data-name="Layer 1"><path class="cls-1" d="M282.25,84.89,251.86,72.8c-1.42-2.49-4.24-4.36-8.55-5.7-4.07-1.28-8-3.06-12.14-4.12-8.26-2.13-15.68-7.1-24.82-6.55-5.13.31-10.65-1-15.53-2.93-8.65-3.33-16.39-1.56-24.08,2.57-1.89,1-3.78,2-5.65,3.09-4.64,2.63-9,1.81-13.3-1.11a34.25,34.25,0,0,0-5.22-2.94c-2.52-1.13-4.08-2.41-3.34-5.73s-.61-5.29-4.88-3.73a18.86,18.86,0,0,1-4.78,1c-1.43.13-3.54.84-4.72.13-6.88-4.15-14-8-20.3-13-8.52-6.69-16.21-14-28.27-13.19-5.49.35-12.25-.74-16.53-3.92C51.1,10.22,41.37,8.53,31.59,6.15c-8.12-2-16.2-4.07-24.3-6.15a28.75,28.75,0,0,1-4.8,3.75A120.32,120.32,0,0,1,.21,16.31c0,.28,0,.55,0,.83L.17,16.5v.06c0,.91,0,1.82,0,2.72a25.91,25.91,0,0,1,3.15,4.59c.17.26.32.53.47.8l9.5,2.09c8,1.74,16,3.41,23.95,5.11L37,34c-1.21-.1-2.51-.53-3.62-.24-1.67.45-4.24,1.06-4.59,2.21-.59,1.9-.5,5.46.65,6.27A190,190,0,0,0,47.09,53c1.1.61,3,.29,4.3-.17a77.72,77.72,0,0,0,10.26-4.1c5.2-2.64,10.42-1.48,14.44,1.47C81.45,54.12,87,54.3,92.89,54c1.6-.08,3.66-.51,4.74.31,3.14,2.35,6.08,5,9.16,7.74-8.87-7.87-27.45,5.15-35.84,9C55.56,78.12,40.57,79.12,24.35,82.3,14.64,84.2-3.57,89.61.61,103l20.46,70.35c4.28,14.72,26.5,7.06,35.53,2.32,5.81-3,10.94-8,12.73-14.29,1.88-6.62-.09-13.64-1.63-20.35-2-8.47-3.8-17.61-3.82-26.34-.67-.49,2.32-10.77,2.91-11.53,3.81-4.94,11.1-4.89,17.29-6.31,4.38-1,55.1-16.09,55.68-14.94,7.68,15.14,10.06,31.24,10.59,47.76.73,22.44-2.77,44.47-6.34,66.48-.88,5.45-5.54,7.29-9.47,7.14l-.82,0a15.82,15.82,0,0,1-9.53,1.94c-4.68.69-52.1,0-56.85-1.66.62,2.24-10.35,3.1-5.17,7.24,3.87-.48,57.95-.32,61.93-.2,5.63-.89,11.4-1.83,17.66-2.83l-.26,1.3a41.56,41.56,0,0,1,4.11-.73c1.77-3.39,4.68-5.69,9.91-6.23,2-.21,3.94-1.62,5.83-2.62,16.38-8.68,27.14-22.85,34.46-39.68a154.79,154.79,0,0,0,12.66-70.2c-.2-4,2.55-6.13,6.19-4.68,4.07,1.62,7.91,3.86,12,5.5,1.7.69,4.49,1.46,5.45.6a4.14,4.14,0,0,1,3.08-1.27,11.78,11.78,0,0,0,5.62,4.74l33,13.13a11.71,11.71,0,0,0,15.24-7A12.34,12.34,0,0,0,282.25,84.89ZM123.43,49.48C117.21,52,112.24,49,108.61,41.1Zm54.28,17.66a20.39,20.39,0,0,1,14.45,2.44c3.74,2.36-.29,5.64-2.45,7.91a4.51,4.51,0,0,1-1.11-.18c-2.78-1.35-5.54-2.72-8.31-4.08-1,3.3-2.44,6.54-2.84,9.91-.36,3,1.55,3.95,4.55,3.16,2.29-.6,4.81-.24,7.18-.61a22.11,22.11,0,0,0,4.43-1.6c2.23-.88,4.45-1.79,7.64-3.07-1.89,5.83-3.57,10.49-4.9,15.25-5,17.85-9.54,35.85-15,53.57a106.72,106.72,0,0,1-19,36.31c22.48-38.2,16.32-74.74-5.6-110C163.73,73,170.46,68.94,177.72,67.13ZM149.33,195.61l-1.5-.74c.72-5.1,1.38-10.22,2.17-15.31,3.11-20.08,5.46-40.32,2.76-60.52-1.62-12.09-5.38-23.92-8.85-35.65-1-3.43-1.61-5.82,1.56-7.6s6.24-1.55,8.12,1.88c5,9.08,11,17.83,14.32,27.54,9.51,27.65,7.68,54.54-8.75,79.32C156.44,188.62,152.65,191.95,149.33,195.61ZM180.9,179.1a55.42,55.42,0,0,1-22.75,18.19c11.75-12.31,19.67-27.07,25.23-43,4.64-13.34,8.07-27.14,11.88-40.79,1.86-6.66,3.22-13.47,5.08-20.13.84-3,2.35-5.83,4-9.87.71,1.9,1.18,2.58,1.2,3.27C206.76,120.19,201.23,151.77,180.9,179.1Z"/></g></g></svg>