<svg xmlns="http://www.w3.org/2000/svg" viewBox="0 0 289.67 227.3"><title>Asset 28</title><g id="Layer_2" data-name="Layer 2"><g id="Layer_1-2" data-name="Layer 1"><path class="cls-1" d="M285.87,66.47a13.62,13.62,0,0,0-5.25-2.9l-3.26-10.86a4.92,4.92,0,0,0-2.7-1.57c-14.6-4.66-35.08-6.51-47.63-15.46-1.91-1.36-3.61-3.15-5.7-4.09C199.12,21.51,176.11,14,152,10.13c-5.32-.86-10.56-2.29-15.79-3.6a5,5,0,0,1-2.37-1.83C128.55-2,121.15-1,116.18,4.43c-2.24,2.45-3.38,5.87-5.45,8.51-1.26,1.61-3.33,2.59-5.15,3.95l4.11-.22a15.26,15.26,0,0,1-2.47,2.1C102,21.2,100.42,26.1,98.74,31c-1.43,4.2-3.25,8.28-5,12.35a2.61,2.61,0,0,1-2,1.14A35,35,0,0,1,87,44.22c-8.39-.8-16.78-1.53-25.15-2.46A18.89,18.89,0,0,1,55.91,40c-3.11-1.49-5.57-.84-6.85,2.41-.88,2.22-1.47,4.32-4.38,4.86-1.06.2-2,1.65-2.74,2.75a38.39,38.39,0,0,0-5.64,16.78,34.24,34.24,0,0,0,.53,10.34c1.6,8.43.7,16.93,0,25.42-.23,2.92-.4,5.85-.56,8.78L26,120.63l-1.64,0c-.49-5.43-4.54-6.61-9.53-5.42a36.71,36.71,0,0,0-10.52,4.33c-4.86,3-5.16,4.61-3,9,7.54,15.09,15.18,30.14,22.7,45.24,1.6,3.2,4.08,6.26,3,10.06,2,4.15,3.67,8.48,5.58,12.72,1.78,4,7,9.61,11.84,8.18,1.77-.53,3.1-2,4.62-3,6-4.13,18.74-.88,21-9.8,1.17-4.68-6.71-14.13-7-19-.43-7.37-5.37-10.28-4.83-17.63.31-4.17-.91-8.44-.74-12.64a35.21,35.21,0,0,0-.13-4.47q7.26-7.76,14.72-15.39a16.29,16.29,0,0,1,5.18-3l-6.43,58.57c-3.84-14.14-2.94-28.46-2.05-42.79-1.33,4.71-2.16,21.92-1.32,27.69,1,7,2.4,14,3.16,21,.35,3.24-.32,6.6-.67,9.89-1.19,11-2.14,22.13-3.69,33.12q4.36-.81,8.74-1.44a17.14,17.14,0,0,1,2.49-4.91,4.39,4.39,0,0,1,5.84-1.49,26.42,26.42,0,0,1,3.07-2.14,4.24,4.24,0,0,1,4.26,0c3.46,2.09,7.52,2.49,11.07,4.37a12.5,12.5,0,0,1,3.17,2.38c2.68.14,5.36.39,8,.76,0-.28.06-.57.08-.85.26-5.1.28-10.21.61-15.31.31-4.85.9-9.69,1.36-14.54l-.35,0-2,15.08-.45,0V130.41h-.31c.08-3.21.15-6.43.17-9.64,0-5.55-.08-11.1-.2-16.65l61.54-5.92c15.61-1.5,31.37,0,46.94-2,14-1.79,23.68-11.51,36.9-14C262.81,81.16,301.81,81.22,285.87,66.47ZM84.44,127.13q-3.06,20-6.12,39.92a45.77,45.77,0,0,1-1,5.24c-.88-16.83,1.73-33.39,3.92-50,.47-.21.93-.42,1.37-.64l2.85-1.43Zm6.62-43.25c-.4,2.67-.81,5.33-1.22,8l-31.67,3a7.31,7.31,0,0,0-2.58.75c0-.45,0-.89-.07-1.34Q55,86,54.35,77.65c-.2-2.45-.62-4.89-1-7.33-.71-5,0-6.86,3.91-8.82A6,6,0,0,1,60.8,61q12.31,2.2,24.58,4.66a21.23,21.23,0,0,1,4.17,1.84c.34-.14,1.42-1,2-.7a3,3,0,0,1,1.33,2.38C92.37,74.12,91.79,79,91.06,83.88Zm3.5,112.77c-.19-7.18-.27-14.34,3-21Zm10.8-3.26c-.36-.1-.87-1.22-.69-1.49a21.28,21.28,0,0,1,2.26-2.66l.65.55L106.46,192l1.27.52,0,.82A7.77,7.77,0,0,1,105.35,193.38Zm9.51-60v24.25h-.7c0-.62,0-1.25,0-1.87C114.37,148.29,114.66,140.84,114.85,133.38Zm3.37-54c0,3.24,0,6.48,0,9.72l-3.51.34c.12-5.74.4-11.48.66-17.22,0-.79.89-1.54,1.37-2.31.54.79,1.5,1.55,1.55,2.38C118.47,74.68,118.23,77.06,118.22,79.42Zm.85,9.64q0-8.33,0-16.66c0-3,1.71-4.56,4.68-4.09,16,2.55,32.09,5.1,48.11,7.85a8.48,8.48,0,0,0,6.86,7.16Zm64.81-22.49a61.9,61.9,0,0,0-19.25-5.89C152,58.95,139.48,57,126.92,55.07a8.38,8.38,0,0,1-3-1.19,35.84,35.84,0,0,1-3.43-2.8c.26-1.48.54-3.34,1-5.17.13-.6.54-1.53,1-1.6,2.91-.52,6-1.68,8.76-1.07,5.8,1.3,11.35,3.67,17.06,5.38,12.23,3.66,24.4,7.59,36.79,10.63,9.54,2.34,19.36,3.61,29.1,5.08,2.41.36,5-.34,7.47-.53,1.56-.12,3.22-.57,4.66-.21q5.78,1.47,11.55,3Z"/></g></g></svg>