<svg xmlns="http://www.w3.org/2000/svg" viewBox="0 0 198 189"><defs><style>.cls-1,.cls-2{fill:none;}.cls-2{stroke:#9d9d9c;stroke-miterlimit:10;stroke-width:3px;}.cls-3{font-size:28px;fill:#1d1d1b;font-family:Avenir-Black, Avenir;}</style></defs><title>Asset 17</title><g id="Layer_2" data-name="Layer 2"><g id="Layer_1-2" data-name="Layer 1"><rect class="cls-1" x="2" width="189" height="189"/><path class="cls-2" d="M188,85.59c-12.36-7.06-11.43-19.14-13.52-30.08-1-5.19-3.5-10.16-4.08-15.36a98.49,98.49,0,0,1,0-19.05c.54-6.56,1.91-13.1,2.92-19.57-7.72.08-15.48,0-23.16.39C148,2,146,4,143.75,4.54c-7.68,1.85-10.29,6.82-11.29,14.39a19.26,19.26,0,0,1-7.06,11.91C115.48,38,104,37.51,92.31,35.76c-3.69-.56-8.59-1-11.24.82-9.43,6.67-19.56,8.15-30.81,8.05-5.13,0-10.3,4.1-14.29,5.82v0c-4.66,1.47-18,5.66-18,5.64a6.63,6.63,0,0,0-4.34,8.32L21.28,88.7l5.18,16.48c.55,1.74.56,4.66,2.3,5.75,1.2.75,2.59.45,4-.17s2.86-1.68,4-2.22c4.71-2.26,18.89-1,16.67-8.52C51.83,94.79,50.15,89.6,48.5,84.4,46.32,77.57,44,70.76,41.84,63.93,46.58,62,53.2,62.24,59.32,63l.21-.07a6.41,6.41,0,0,1,1.12,0,.85.85,0,0,1,.76-.07c8.6-.44,15.92-.54,23.19-1.27C89.82,61,95,59.66,100.3,58.64c1,16.67-8,27.33-23.29,34.54a4.83,4.83,0,0,1-2.27,1.29,10.4,10.4,0,0,0-1.56.58,39.55,39.55,0,0,1-7.26,12.39c-.56,1.74-1,3.57-1.52,5.3a1,1,0,0,1,.24.24.72.72,0,0,1,.24,0l.25.08a1,1,0,0,1,.5,1.51,2.13,2.13,0,0,1-.44,1.33.81.81,0,0,1-.3.56,6.5,6.5,0,0,1-.39.56,9.53,9.53,0,0,1-.64,2,4.9,4.9,0,0,1-.6,1.69c1.87,5.22,4.38,10.25,6.12,15.48,6.56.82,13.1-2.67,18.85-5.38h.07l.21-.11a1,1,0,0,1,.74-.58c6.88-3.32,12.74-5.61,18-8.85C130.9,106.71,150.88,90,144.91,57.66c-.5-2.73,2.38-6.09,3.73-9.15,2.29,8.61.07,17.49,2.88,24.28,3.06,7.4,9.53,14.7,21,15.27l-10-15.28C172.92,77.31,176.11,88.44,188,85.59ZM82.83,107.23a.93.93,0,0,1-.36.32,21.44,21.44,0,0,1-2.32.79.92.92,0,0,1-.58.27l-.25.14a1,1,0,0,1-.83.23,1,1,0,0,1-.5.2,7.3,7.3,0,0,1-1.61.81,5.62,5.62,0,0,1-2.11.64c-1.19.56-2.38,1.19-3.57,1.81a.92.92,0,0,1-.42.12,1.45,1.45,0,0,1-1.19.19,2.38,2.38,0,0,1-1.85-.87,1,1,0,0,1-.57-.88.94.94,0,0,1-.08-.56.83.83,0,0,1,0-.45c.8-2.38,2.7-4,3.67-6.32a1,1,0,0,1,.36-.43,4.76,4.76,0,0,1,2.08-2.62,66.3,66.3,0,0,0,8-5.37c4-4.76,13.1-6.45,14.61-13.72C100.35,98.39,97.57,103.87,82.83,107.23Zm16.46-8.71L105.44,56C124.26,62.45,125.21,79.8,99.29,98.52Z" transform="translate(0 24.48)"/><text class="cls-3" transform="translate(0 103.17)">HANDLEBARS</text></g></g></svg>