<svg xmlns="http://www.w3.org/2000/svg" viewBox="0 0 189 189"><defs><style>.cls-1,.cls-2{fill:none;}.cls-2{stroke:#9d9d9c;stroke-miterlimit:10;stroke-width:3px;}.cls-3{font-size:28px;fill:#1d1d1b;font-family:Avenir-Black, Avenir;}.cls-4{letter-spacing:-0.09em;}</style></defs><title>Asset 18</title><g id="Layer_2" data-name="Layer 2"><g id="Layer_1-2" data-name="Layer 1"><rect class="cls-1" width="189" height="189"/><g id="Layer_2-2" data-name="Layer 2"><g id="Layer_1-2-2" data-name="Layer 1-2"><path class="cls-2" d="M158.42,1.9a18,18,0,0,0-1.94.53A38.08,38.08,0,0,0,147,7.69c-42.73,29.73-80.16,66.8-123.83,95.25-7.87,5.13-17.08,10.76-21,19.68-2.61,5.91,2.76,5.82,7.78,6.27a82,82,0,0,0,15.68-.63C37.22,127,48.91,125.8,59.92,122c7.3-2.51,14.22-6.08,21.55-8.44s15.59-3.12,22.8-.23a8.28,8.28,0,0,0,3.76,1,7.09,7.09,0,0,0,3.46-1.76l6.59-5.18c3.41-2.64,7-5.82,7.46-10,0-.73-2.06-1.8-2.42-2.45a8.38,8.38,0,0,1-.92-5c1.21-18.39,2.24-40.11,19.07-51.69,6.83-4.89,15.63-6.62,22.06-12.05s9.59-13.86,12.38-21.82C170.15,2.54,164.2.66,158.42,1.9ZM96.66,84.39l17.92-21.71C116,74.26,113.75,83.2,96.66,84.39ZM73.06,100.65c-6.88,6.95-20.52,7.19-31.09,10.47C55.14,100.94,68.24,92.23,79.6,81.64s21.27-23.26,31.81-34.94l2.42,2.12c-13.39,17.4-25.38,36.3-40.75,51.81Z" transform="translate(5.05 19.98)"/></g></g><text class="cls-3" transform="translate(53 104.17)">SE<tspan class="cls-4" x="33.71" y="0">A</tspan><tspan x="51.88" y="0">T</tspan></text></g></g></svg>