<svg xmlns="http://www.w3.org/2000/svg" viewBox="0 0 209.58 87.78"><title>Asset 29</title><g id="Layer_2" data-name="Layer 2"><g id="Layer_1-2" data-name="Layer 1"><path class="cls-1" d="M31.5,55q.5.87,1,1.76a19.69,19.69,0,0,1-1.3-4l2.52,5h0C30.45,49,29.06,40.24,27.39,31.37,25.52,21.48,22.24,9.94,11.63,3.22c-1.2-.91-4.8-.91-6,0C-.24,9.47,3.1,18.35,7.75,24.71a24.4,24.4,0,0,0,4.2,8.19C15.23,37.28,16.7,43,19.64,47.61s6.11,9,9.25,13.44c1.11-.74,2.2-1.51,3.28-2.29Z"/><path class="cls-1" d="M29.34,56.21q.5.87,1,1.76c1.31,2.43,5.65.74,4.57-1.93a28.69,28.69,0,0,1-1.3-4L29,54l2.52,5a2.51,2.51,0,0,0,3.42.9h0A2.57,2.57,0,0,0,36.11,57c-4.58-12.69-4.84-26.54-9.8-39C23.44,10.76,15.77-2.18,6.27.31,1.94,1.45,0,7,0,11.09c-.05,6.1,3.39,10.44,5.79,15.71C8.34,32.4,11.87,37.34,14.45,43c3.21,7,7.86,13.1,12.28,19.36a2.54,2.54,0,0,0,3.42.9q1.65-1.13,3.28-2.29a2.64,2.64,0,0,0,1.15-2.82l-.67-3.81c-.56-3.16-5.38-1.82-4.82,1.33l.67,3.81,1.15-2.82q-1.63,1.16-3.28,2.29l3.42.9C27.92,55.37,24.63,51,21.8,46.35,19.2,42.07,17.72,37.22,15,33c-2.51-4-4.39-8.06-6.8-12C6.43,17.95,1.44,4.08,9.5,5.21c4.23.59,8.3,6.91,10.17,10.32A47.61,47.61,0,0,1,24,27.62c2.43,10.29,3.62,20.7,7.24,30.71l1.15-2.82h0l3.42.9-2.52-5c-1.31-2.59-5.23-.75-4.57,1.93a28.69,28.69,0,0,0,1.3,4l4.57-1.93q-.47-.89-1-1.76C32.08,50.89,27.76,53.4,29.34,56.21Z"/><path class="cls-1" d="M171.85,39.68c-16.48.65-32.66,5.22-49,7.06-26.77,3-53.75.75-80.51,3.61-3.93,4.33-7.93,8.57-12.09,12.38a10.51,10.51,0,0,0,1.2,1.74c1,1.28,6.63,9,8.66,8.43a59.91,59.91,0,0,1,11.66-1.13,55.52,55.52,0,0,1,8.25.69c1-.1,2.05-.18,3.1-.2a6.83,6.83,0,0,1-1,.57c1.76.35,3.49.78,5.2,1.29a7.48,7.48,0,0,1,1.95-.58,24,24,0,0,1,7.28.71c5.08,1.13,10,3.24,15,4.92,10,3.42,20.31,6.09,30.86,6.12,19,0,32.7-11.26,48.56-20.93a2.72,2.72,0,0,1,1.85-.58.65.65,0,0,1,.27.14c2.68-3.68,7.53-5,12.21-5.66,4.27-.59,8.57-.69,12.84-1.24,2.4-.31,7.27-.5,8.91-2.86l.1-.13C199.08,42,184.64,39.18,171.85,39.68Z"/><path class="cls-1" d="M171.85,37.18c-12.33.6-24.38,3.1-36.51,5.2a271.61,271.61,0,0,1-40,3.52c-12.78.3-25.56.2-38.33.84-3.27.16-6.54.37-9.81.65-1.93.16-4.7-.08-6.41,1-2,1.27-4,4.23-5.61,6Q31.9,57.76,28.44,61a2.53,2.53,0,0,0-.39,3c2.23,3.62,5.83,9,9.77,10.88,3,1.39,6.9-.28,10-.49C53,74,58,75,63.07,74.76L61.81,70.1l-1,.57c-1.79,1-1.54,4.11.6,4.57s4.15,1.37,6.2,1.33c2.87-.06,5.23-.54,8.23.08,5.14,1.07,10,3.23,15,4.92,10.37,3.55,21.32,6.38,32.36,6.2C132,87.62,140.5,85,148.37,81c4.2-2.12,8.21-4.59,12.19-7.1,2-1.29,4.06-2.6,6.09-3.89,1-.64,5.93-3.45,5.11-3.9a2.54,2.54,0,0,0,3-.39c5.18-6.19,15.09-5.29,22.37-6.06,3.89-.41,9-.46,11.7-3.82a2.58,2.58,0,0,0,.39-3c-8.63-12.3-23-16-37.38-15.59-3.21.1-3.22,5.1,0,5,12.46-.38,25.49,2.32,33.07,13.12l.39-3c-1.59,2-4.89,2-7.24,2.25-4,.46-8,.64-11.93,1.13-5.59.68-11.13,2-14.89,6.51l3-.39c-2.62-1.41-5.28.82-7.42,2.16-4.3,2.7-8.53,5.51-12.86,8.15-8.7,5.29-18,9.89-28.36,10.61-11.38.8-22.82-2.27-33.49-5.92-5.25-1.8-10.41-4-15.88-5.11-4.58-.91-9-.26-13.52-1.23l.6,4.57,1-.57c2.1-1.2,1.25-4.77-1.26-4.66-3.55.16-7-.39-10.5-.47-3.77-.09-7.53.93-11.23.85s-7.1-5.65-9-8.67l-.39,3q3.15-2.92,6.13-6c1.68-1.73,3.33-4.36,5.46-5.47,2.32-1.21,5.9-.84,8.53-1,3.27-.22,6.54-.37,9.82-.49,12.45-.46,24.9-.35,37.35-.73a261.12,261.12,0,0,0,34.58-3.12c12.65-2.09,25.16-4.88,38-5.5C175.06,42,175.07,37,171.85,37.18Z"/></g></g></svg>