<svg xmlns="http://www.w3.org/2000/svg" viewBox="0 0 180 180"><defs><style>.cls-1{fill:#1d1d1b;}</style></defs><title>Asset 21</title><g id="Layer_2" data-name="Layer 2"><g id="Layer_1-2" data-name="Layer 1"><path class="cls-1" d="M102,180H81a28.23,28.23,0,0,0-3.22-1c-36.67-7-62-27.46-74.3-63.06C1.92,111.42,1.14,106.64,0,102V80a8.79,8.79,0,0,0,1-2.16C8.57,25.54,57.88-6.47,102.22,1.1,137,7,161.61,26.43,174.85,59.42c2.38,5.93,3.47,12.37,5.15,18.58V99a20,20,0,0,0-1,3.23c-4.73,34.95-31.53,65.61-65.54,74.89C109.66,178.15,105.82,179,102,180ZM7.79,88.59c.13,46.17,36.86,83.53,82.14,83.57,44.47,0,82.28-37.05,82.26-80.68,0-45.91-36.6-83.81-80.76-83.69C45.42,7.9,7.66,44.39,7.79,88.59Z"/><path class="cls-1" d="M88.84,13c43,0,78.18,34.73,78.15,77,0,41.62-35,77-76,76.94-42.65-.08-78-34.55-78-75.93C13.07,48.37,47.48,13,88.84,13Zm6.49,86.44-2.32.94c.2,2.68,0,5.49.68,8,2.22,7.8,4.8,15.5,7.25,23.23,3,9.43,6,18.86,9.19,28.85l13.6-5.61c-7.29-15.85-14.06-31-21.24-45.88C100.81,105.48,97.76,102.61,95.33,99.45ZM112.8,19.73c-6.6,17.5-13,34.19-19.08,51-1,2.66-.13,6-.13,9l1.83.74c2.26-2.86,5.09-5.44,6.69-8.63,7-13.95,13.56-28.07,20.27-42.14.69-1.44,1.27-2.92,2.08-4.81ZM86.39,82.28c0-5.34.86-9.38-.16-12.87-2.78-9.52-6.35-18.81-9.63-28.19-2.44-7-4.93-14-7.55-21.37l-11.5,4.79C65.17,42.19,72.46,59.21,80,76.11,81,78.14,83.43,79.48,86.39,82.28ZM154.79,124l4.75-11.44a14.85,14.85,0,0,0-2.16-1.36c-16.16-5.93-32.28-12-48.55-17.6-2.92-1-6.48-.14-9.75-.14L97.89,96a44.71,44.71,0,0,0,5.7,3.85C120.48,107.88,137.42,115.83,154.79,124Zm.65-66.52C138,65.17,121.3,72.41,104.72,80c-2.36,1.08-3.91,3.93-6.72,6.89,4,.19,6.7,1,8.87.3,17.65-5.72,35.2-11.73,53.24-17.81ZM81.84,95.61l-1.7-2.84c-3.32.37-6.83.17-9.92,1.21-10.52,3.52-20.91,7.46-31.33,11.28-6,2.21-12,4.49-18.56,6.94l5,11.72c17.2-8.25,33.81-16.17,50.36-24.21A51.7,51.7,0,0,0,81.84,95.61Zm-14.7,64.57c6.33-17,12.56-33.42,18.42-49.93,1.18-3.32.92-7.16,1.32-10.76l-2.1-.84c-2.07,2.59-4.71,4.9-6.11,7.82C71.6,121.25,64.83,136.2,58,151.09c-.6,1.3-1,2.67-1.69,4.33ZM19.67,67.41C38.36,74,56.35,80.32,74.39,86.52c1.58.54,3.52.07,6.7.07-2.65-3.06-3.81-5.47-5.71-6.41C58.75,72,42,64,24.79,55.73Zm134.18,58.35-47.62-22.49-.91,1.39c12.59,11.65,27,21,40.78,32.22ZM88.65,112l-1.42-.28-18.16,49,13.09,2.61C83.94,145.77,88.48,129.15,88.65,112Zm58.61-67.49c-13.62,10.57-28.14,19.1-40.51,30.43l.9,1.44,46.93-20.66ZM25.64,54l46.68,22.4,1.23-1.87L33.49,43.16Zm44,35L70,87.15,19.17,69.35,16.71,81.59c10.89,1.65,21,3.27,31.16,4.7C55.12,87.31,62.4,88.09,69.68,89Zm-2,3.68-.55-2.19L17,97.34l2.72,12.89ZM71,19.32,87.65,66.79l2.13-.43-6.4-49.51Zm89.6,52L111.33,88l.41,1.85,51.4-6.57Zm-86,2.23,1.54-1L55.74,25.43,45.49,32.05C55.68,46,64.25,60.44,74.65,73.51ZM54.29,154.44l21.88-47.61L74.75,106,44.28,147.37ZM126.37,26l-21.7,45.44,1.38.89C116.87,60,125.79,46.15,136.14,32.91ZM99.25,16.84c-2.2,16.88-6.8,33-7.56,49.62l1.3.23,17.9-47.47Zm-25,87.79-1-1.54-47,22.6,6.39,9.66Zm61.33,42.58L106.16,108l-1.4.92,20.73,45ZM97.71,163l10.4-2.29L92.7,112.3l-1.49.24C91.4,129.35,96,145.64,97.71,163Zm15.58-71.71-.16,1.66,47.24,17.29,2.1-10.29ZM33.67,137l9.5,8.56,22.73-31-.76-.75Zm129.26-39V85.27l-37.61,5,0,1ZM34.76,41.68,64.41,64.78l.73-.79L43.95,33.11ZM116,63.23l.81.94,29.48-21.3-8.73-8.59ZM90.21,53.31l.74.16,6.35-36.42h-12ZM17,95.42l36.37-5.26-.12-1L17,83.67Zm73.42,32.49-1.14.07-5.24,34.92H95.85Zm54.35,10.35-28.09-21.41-.82.82,21.39,28.59ZM85.88,89.9c1.83,1.37,3.12,3,3.93,2.79,1.22-.32,2.1-1.92,3.12-3-1-.88-2-2.36-3.16-2.47S87.67,88.6,85.88,89.9Z"/></g></g></svg>