<svg xmlns="http://www.w3.org/2000/svg" viewBox="0 0 189 189"><defs><style>.cls-1,.cls-2{fill:none;}.cls-1{stroke:#9d9d9c;stroke-miterlimit:10;stroke-width:2px;}.cls-3{font-size:28px;fill:#1d1d1b;font-family:Avenir-Black, Avenir;}</style></defs><title>Asset 16</title><g id="Layer_2" data-name="Layer 2"><g id="Layer_1-2" data-name="Layer 1"><g id="Layer_2-2" data-name="Layer 2"><g id="Layer_1-2-2" data-name="Layer 1-2"><path class="cls-1" d="M170.76,85.83A84.88,84.88,0,1,1,85.83,1h1A84.89,84.89,0,0,1,170.76,85.83ZM85.19,115.17c-.25.28-.37.39-.47.53l-5.31,6.91Q74.2,129.38,69,136.16a13.84,13.84,0,0,0-1.51,2.43,31.56,31.56,0,0,0-1.12,3l-5.12,14c-.42,1.16-.83,2.31-1.28,3.55a77.15,77.15,0,0,0,18.07,4c.48-1.48,1-2.86,1.4-4.35,1.77-5.58,3.51-11.16,5.29-16.73a8.6,8.6,0,0,0,.49-3V116.33Zm-8.59-57c.39-1.22.73-2.22,1-3.22q3.63-11.46,7.24-23a7.39,7.39,0,0,0,.33-2.15V8.15h-.69a82.21,82.21,0,0,0-16.23,1.91c-1.61.33-1.64.42-1.42,2.09v.41c.27,6.27.57,12.54.79,18.81a15.93,15.93,0,0,0,1,5.15C71,42.77,73.23,49,75.5,55.29c.32.89.66,1.78,1.06,2.86ZM156.82,54c-1.74.39-3.43.79-5.12,1.17-5.07,1.12-10.14,2.22-15.2,3.34a17.37,17.37,0,0,0-3.34,1,42.33,42.33,0,0,0-3.7,2.11L113.1,71c-.44.26-.87.53-1.37.84A1.59,1.59,0,0,0,112,72l14.76,2c3.35.45,6.68.91,10.08,1.32a13.58,13.58,0,0,0,3.67.25c5.17-.81,10.31-1.78,15.47-2.68l6.32-1.13A74.49,74.49,0,0,0,156.8,54ZM67.58,63V61q-.24-5.59-.51-11.18c-.17-4.93-.42-9.85-.66-14.79a4.62,4.62,0,0,0-.28-1.33Q63,24.88,59.74,16.09c-.36-1-.74-2-1.13-3a77.35,77.35,0,0,0-16.45,8.53c.77,1.85,1.56,3.68,2.31,5.5,1.91,4.67,3.89,9.33,5.73,14A16,16,0,0,0,53,45.61c4.19,4.94,8.34,9.91,12.5,14.88ZM57.22,80.15,54,76.61c-4.37-4.77-8.77-9.55-13.1-14.32A21.76,21.76,0,0,0,35,57.34c-3.55-1.91-7-4-10.5-6L18.2,47.62a76.3,76.3,0,0,0-7,16.68.76.76,0,0,0,.24.6,2.93,2.93,0,0,0,.72.4q9.13,4.77,18.27,9.48a10.37,10.37,0,0,0,2.25,1c1.39.33,2.86.52,4.25.76L50.67,79ZM60.09,100l-.64-.14L44.77,97.91C41.39,97.46,38,97,34.63,96.57a17.67,17.67,0,0,0-3.06-.35,29.45,29.45,0,0,0-3.51.57L15.16,99.07l-5.67,1A74.12,74.12,0,0,0,15,117.77l1.22-.29q9.6-2.12,19.2-4.25a12.5,12.5,0,0,0,3.38-1c5.51-3.08,11-6.27,16.43-9.44Zm93.44,24.22a75.75,75.75,0,0,0,7.13-17.09l-1.45-.74L141.26,97a10.5,10.5,0,0,0-2.33-1c-1.39-.33-2.86-.52-4.25-.76l-16-2.86-4.15-.7,3.68,4,13.37,14.57a14.84,14.84,0,0,0,2.73,2.67c2.86,1.81,5.87,3.45,8.82,5.16Zm-38.64-42.7a3.46,3.46,0,0,0,.34.24l7.47,3.92,15.28,8a14.51,14.51,0,0,0,2.48,1.15,28.65,28.65,0,0,0,3.16.59L159,98.08l3.44.57.11-.12a80,80,0,0,0,.88-17.87c0-.4-.22-.5-.55-.53l-10.5-1.39c-3.34-.47-6.68-.93-10-1.33a9.65,9.65,0,0,0-2.71-.23c-5.62,1-11.21,2-16.82,3Zm26.66-49.76-5.35,3.39c-4.15,2.64-8.31,5.26-12.41,7.94A13.61,13.61,0,0,0,121,45.16c-1.79,2-3.43,4.06-5.14,6.08l-10,11.83c-.18.22-.35.45-.58.75a2.87,2.87,0,0,0,.47,0l4.68-1,8.09-1.8c3.3-.74,6.6-1.48,9.9-2.2A23.33,23.33,0,0,0,136,56.17c4.45-2.75,9.05-5.27,13.59-7.89,1.08-.62,2.15-1.27,3.22-1.91C151.43,43.3,143.92,33.48,141.55,31.72Zm-37.4,77.07c0,.29,0,.37,0,.46q.24,5.73.49,11.53.34,7.79.7,15.59a4.33,4.33,0,0,0,.15,1.22c.75,2.16,1.55,4.3,2.33,6.46l4.24,11.74c.35,1,.75,1.91,1.15,3,1.33-.54,2.61-1,3.82-1.59a78.59,78.59,0,0,0,11.51-6.25c1-.68,1-.69.58-1.77q-3.92-9.55-7.83-19a11.25,11.25,0,0,0-1.81-3.1c-3.7-4.35-7.35-8.72-11-13.08Zm-9,4.83c-.11.32-.18.49-.23.66l-3.42,10.88c-1.37,4.31-2.74,8.59-4.09,12.93a11.76,11.76,0,0,0-.81,3.23c-.08,7.17,0,14.32,0,21.52v.73h1.16c2.22-.14,4.45-.16,6.68-.47,3.32-.47,6.62-1.14,9.93-1.71.49-.09.63-.29.6-.78-.09-1.28-.11-2.56-.16-3.82q-.36-8.76-.74-17.51a10.32,10.32,0,0,0-.6-3.21c-2.29-6.2-4.54-12.41-6.79-18.6-.54-1.23-1-2.46-1.51-3.84ZM111.79,12.53c-1.39-.43-2.71-.86-4-1.25A71,71,0,0,0,95,8.65c-1.32-.14-1.32-.13-1.73,1.17L87.07,29.55a7,7,0,0,0-.46,2v25l.38-.46,4.52-5.88L102,36.52a15.08,15.08,0,0,0,2.62-4.22c1.6-4.67,3.35-9.29,5-13.92ZM30.17,140.08l6-3.88c3.59-2.28,7.19-4.55,10.78-6.84a16.88,16.88,0,0,0,4.54-3.59c2.17-2.75,4.5-5.37,6.75-8q3-3.51,5.89-7.06L66.45,108c-.09,0-.13-.06-.17,0l-12,2.67-12.79,2.86a12.41,12.41,0,0,0-3.33,1c-5.51,3.08-11,6.26-16.43,9.43-1,.53-1.83,1.08-2.77,1.63A78.31,78.31,0,0,0,30.17,140.08ZM60.93,70.65,57.35,62q-2.61-6.3-5.23-12.6c-1.1-2.62-2-5.27-4-7.49C44.43,37.74,41,33.48,37.39,29.2l-2-2.41A77.9,77.9,0,0,0,22.84,40.4c.55.62,1.08,1.21,1.62,1.8L37.83,56.84A6,6,0,0,0,39.07,58c2.69,1.6,5.41,3.15,8.13,4.72l6.68,3.88ZM136.37,145a77.83,77.83,0,0,0,12.53-13.62l-3.37-3.71c-3.1-3.39-6.19-6.81-9.34-10.16-1.5-1.6-2.8-3.4-4.77-4.54-6.68-3.82-13.37-7.64-20.05-11.53a3.62,3.62,0,0,0-.48-.18l.26.67c1.06,2.55,2.13,5.1,3.18,7.64L121,125.77a7.77,7.77,0,0,0,1,2c3.71,4.5,7.49,8.95,11.23,13.37ZM52,155.88c1.12-1.44,2.2-2.81,3.26-4.19,3.22-4.19,6.46-8.38,9.65-12.59a22.86,22.86,0,0,0,1.91-3,17.77,17.77,0,0,0,.91-2.37L74,116.42c.37-1,.74-2.08,1.16-3.26l-.5.28L68,117.72l-14.84,9.42a10,10,0,0,0-2.31,1.68c-3.82,4.48-7.64,9-11.46,13.54l-2.94,3.52A77.6,77.6,0,0,0,52,155.88ZM96.58,58.6l.91-.53L104,53.94l14.83-9.42A9.27,9.27,0,0,0,120.93,43c4.12-4.77,8.17-9.68,12.25-14.54l2.12-2.59a77.09,77.09,0,0,0-15.55-10c-.2.23-.35.39-.5.57Q113,24.54,106.84,32.66A14.5,14.5,0,0,0,105,35.53c-.74,1.69-1.29,3.47-1.91,5.2L97.89,55.06ZM56.74,90.28v-.14L48.67,85.9,33.77,78.13A10.11,10.11,0,0,0,31.16,77c-5.41-1-10.85-1.91-16.23-2.86l-5.68-1a78,78,0,0,0-.85,18.49l7.64,1L29.4,94.41a10.94,10.94,0,0,0,2.84.18c3.3-.5,6.58-1.14,9.87-1.72l9.55-1.68Zm39.32-2c-1.31-.36-2.24-1-2.28-2.34s1-2.13,2.29-2.51l-1.29-3.06c-1.19.68-2.31.87-3.29-.07s-.81-2.14-.13-3.36L88.3,75.7C87.92,77.07,87.24,78,85.82,78s-2-1-2.36-2.29L80.37,77c.73,1.18.88,2.29,0,3.27s-2.13.82-3.38.14l-1.25,3.08c1.35.36,2.23,1,2.27,2.33s-.91,2.1-2.28,2.49L77,91.35c1.21-.67,2.34-.89,3.32.11s.8,2.1.1,3.31L83.49,96c.35-1.3,1-2.2,2.24-2.27,1.5-.1,2.21.87,2.59,2.29l3.08-1.3c-.71-1.18-.87-2.29,0-3.24s2.16-.88,3.41-.17ZM79.38,65.95c.11-.08.16-.09.19-.11,1.79-2.32,3.58-4.63,5.36-7a1.33,1.33,0,0,0,.26-.74V36a20.05,20.05,0,0,0-1,2.41c-1.08,3.44-2.14,6.89-3.22,10.33q-1.8,5.73-3.62,11.46a.77.77,0,0,0,0,.47C78.07,62.35,78.72,64.1,79.38,65.95ZM36.83,95.24v.1c.29,0,.58.11.87.15l8.91,1.16c4.44.58,8.9,1.1,13.37,1.8a5.54,5.54,0,0,0,4.37-.9c1-.67,2-1.19,3.11-1.84-2.78-1.45-5.43-2.86-8.1-4.21a1.45,1.45,0,0,0-.85-.07l-16.73,3ZM85.19,106.9a1.26,1.26,0,0,0-.29.07q-3.82,2.38-7.53,4.77a1,1,0,0,0-.32.5c-.54,1.45-1.07,2.91-1.6,4.37l-5.22,14.32c-.24.65-.46,1.31-.69,2,2.2-2.66,4.3-5.38,6.38-8.1l8.78-11.46a1.91,1.91,0,0,0,.48-1C85.21,110.62,85.19,108.8,85.19,106.9ZM104.4,76c.17.11.26.18.36.24,2.51,1.32,5,2.65,7.53,3.93a1.69,1.69,0,0,0,1,.13c1.91-.32,3.82-.68,5.73-1l12.86-2.26,3-.54c-3.67-.59-7.32-1.06-11-1.54l-12.84-1.73a3.29,3.29,0,0,0-2.67.39,14.12,14.12,0,0,1-1.38.91Zm-36.24-1.2c-.13-3.18-.26-6.2-.41-9.22a1.15,1.15,0,0,0-.31-.57q-1.8-2.21-3.64-4.39L55.21,50.39c-.62-.74-1.26-1.47-1.91-2.21.57,1.68,1.25,3.29,1.91,4.91l7.53,18.24a1.16,1.16,0,0,0,.36.55C64.74,72.85,66.38,73.8,68.16,74.82Zm31.72-4.51.7.13c2.63.34,5.26.67,7.89,1a2.07,2.07,0,0,0,1.42-.27q7.47-4.34,15-8.65l3.77-2.2a2.46,2.46,0,0,0-1,.07c-7.27,1.6-14.54,3.23-21.81,4.77a5,5,0,0,0-3.41,2A38,38,0,0,1,99.88,70.31ZM106.57,83c2.14,2.33,4.18,4.56,6.24,6.77a1.11,1.11,0,0,0,.59.28L132,93.28l3.09.55c-1.25-.8-2.53-1.51-3.82-2.18-5.54-2.86-11.11-5.73-16.61-8.66a5.61,5.61,0,0,0-4.4-.72c-1.14.32-2.34.45-3.65.68ZM72.94,69.33l.12-.13c1-2.86,1.82-5.73,2.71-8.59a1.11,1.11,0,0,0-.07-.65q-3-8.32-6-16.62c-.5-1.37-1-2.71-1.52-4.08a1.69,1.69,0,0,0-.1.71l.53,12.22.53,12.22a1,1,0,0,0,.13.52C70.47,66.4,71.68,67.86,72.94,69.33Zm30.67,27.6c.13,3.14.26,6.11.4,9.09a1.33,1.33,0,0,0,.32.72q5.73,6.9,11.55,13.78l2.53,3a20.65,20.65,0,0,0-1-2.78q-4.19-10.17-8.39-20.33a1.23,1.23,0,0,0-.43-.57C107,98.87,105.36,97.95,103.61,96.93Zm-31.72,4.52c-.28-.06-.48-.11-.68-.14-2.61-.34-5.21-.67-7.82-1a2.09,2.09,0,0,0-1.44.21q-8.41,4.89-16.87,9.75c-.68.39-1.34.8-2,1.19,1.91-.32,3.7-.72,5.53-1.12,5.83-1.28,11.64-2.61,17.48-3.82a4.77,4.77,0,0,0,3.26-2C70.08,103.46,71,102.49,71.89,101.44Zm31.7,31h.13v-.66q-.23-5.49-.47-11c-.16-3.73-.42-7.46-.44-11.19A5.9,5.9,0,0,0,101,105a33.63,33.63,0,0,1-2.23-2.6l-.13.32c-.89,2.79-1.78,5.57-2.65,8.37a1.35,1.35,0,0,0,.09.78q3,8.28,6,16.55Zm-1.34-93.59h-.1l-6.2,8c-2.64,3.43-5.21,6.9-7.92,10.28a5.41,5.41,0,0,0-1.48,4.2,32.3,32.3,0,0,1,0,3.64l.28-.1q3.73-2.37,7.47-4.77a1.12,1.12,0,0,0,.37-.53q.83-2.21,1.63-4.44l4.51-12.36c.52-1.36,1-2.66,1.42-4ZM86.6,135.66h.11c.06-.15.11-.3.16-.45l3.07-9.73,4.37-13.85a1.1,1.1,0,0,0,0-.64c-.48-1.38-1-2.75-1.48-4.13-.12-.34-.29-.69-.46-1.09-1.91,2.44-3.71,4.77-5.49,7.15a1.57,1.57,0,0,0-.23.9v21.83ZM65.19,88.81c-2.14-2.33-4.14-4.54-6.16-6.68a1.45,1.45,0,0,0-.77-.37L39.7,78.47,36.9,78a1.07,1.07,0,0,0,.51.48l8.21,4.27,13.26,6.89a1.05,1.05,0,0,0,.57.17ZM93.71,66.45l.39-.06c2.7-.6,5.4-1.21,8.11-1.78a2,2,0,0,0,1.24-.75c.85-1.05,1.72-2.08,2.59-3.11l10-11.81c.45-.53.89-1.1,1.43-1.78l-.31.12-8.52,5.41L96,60.68a.89.89,0,0,0-.35.39C95,62.83,94.39,64.6,93.71,66.45Zm-39.22,58,.08.11c.29-.17.58-.33.87-.52l7.65-4.91,12.62-8.05a1.22,1.22,0,0,0,.44-.56c.53-1.41,1.05-2.86,1.57-4.25.11-.29.18-.58.31-1-2.5.56-4.85,1.17-7.23,1.59a4.42,4.42,0,0,0-3.26,1.91l-.13.15-9,10.73ZM129.3,110.1l.09-.11-1.26-1.4c-4.77-5.21-9.55-10.41-14.32-15.67a5.22,5.22,0,0,0-3.71-2.05,31.61,31.61,0,0,1-3.62-.63v.15q1.71,4.18,3.44,8.37a1,1,0,0,0,.42.42l7.17,4.18q4.9,2.86,9.82,5.63Zm-64-28.57a2.86,2.86,0,0,0-.09-.43q-1.66-4-3.34-8a1,1,0,0,0-.4-.43L52.4,67.32,44.76,63l-2.48-1.39a2.28,2.28,0,0,0,.14.28c5.2,5.67,10.43,11.31,15.56,17a5.47,5.47,0,0,0,3.82,2.05A35.77,35.77,0,0,1,65.35,81.53ZM85.15,145.8H85l-5.57,17.64,5.73.22ZM65.4,10.82l-5.47,1.64,6.13,16.83h.14Zm46.38,148.42-6.13-16.83h-.14l.81,18.48Zm41.06-33.85-15.49-8.95-.08.1,12.49,13.66ZM144.76,97l0,.14,16.39,8.55,1.21-5.59ZM107,29.79l.12.07,11.34-14.64L113.19,13ZM153.56,47.6l-15.43,8.91,0,.14,18-4ZM10.65,66.08,9.4,71.68l17.51,3.09v-.15ZM145.14,76.14v.18l18.22,2.41-.72-5.66Zm-129.6,43,2.66,5,15.39-8.89-.06-.15ZM64.72,142l-.12-.08L53.33,156.54l5.28,2.19Zm-38-46.49V95.4L8.44,93l.73,5.66ZM125,40.39l.1.11,15.53-9.89-4.2-3.82ZM86.64,8.11V26h.1L92.3,8.35ZM47.93,39.53l.11-.08L41,22.38l-4.54,3.46Zm75.92,92.69-.11.07,7.07,17.08,4.53-3.48Zm-105-85.85,15.36,8.86.11-.14L21.92,41.57ZM35.39,145l11.46-13.64-.11-.11-15.59,9.87ZM85.18,61.1,85,61c-1.47,1.91-2.86,3.82-4.44,5.73a1.48,1.48,0,0,0-.08,2.05L85,65.95a.54.54,0,0,0,.2-.39C85.19,64.11,85.18,62.6,85.18,61.1ZM78,109.59c.35-.21.57-.32.77-.46l5.66-3.6c.84-.53,1-.76.61-1.82l-5.12,1.14a.47.47,0,0,0-.28.26C79.12,106.54,78.59,108,78,109.59Zm32.15-28.71v-.17l-.65-.35c-1.91-1-3.9-2-5.83-3.06-.89-.48-1.16-.44-1.91.37,1.15,1.24,2.28,2.49,3.44,3.72a.77.77,0,0,0,.58.2c1.45-.21,2.9-.47,4.36-.71ZM92.76,69.42c1.34.17,2.69.25,4,.53a2.05,2.05,0,0,0,2.42-1c.64-.91,1.4-1.72,2.21-2.69-.35,0-.53.07-.71.11-2.14.48-4.27,1-6.43,1.41-.93.15-1.46.5-1.49,1.59ZM70.85,76.26c.4-1.29.71-2.58,1.21-3.82a2,2,0,0,0-.45-2.54c-.81-.8-1.5-1.74-2.34-2.74v1c.1,2.15.24,4.3.26,6.45a1.5,1.5,0,0,0,1.27,1.69ZM93.76,62.13c-.32.18-.52.28-.7.4l-5.66,3.6c-1,.57-1,.73-.68,1.91l5.13-1.14a.45.45,0,0,0,.27-.25C92.69,65.2,93.18,63.75,93.76,62.13ZM64.58,99c2.6.36,5,.66,7.34,1a1.51,1.51,0,0,0,1.9-1v0l-4.7-2.44a.48.48,0,0,0-.38,0ZM98,72.74c1.56.81,3.1,1.62,4.67,2.41a.74.74,0,0,0,.55-.1c.71-.38,1.39-.78,2.08-1.18l1.91-1.11-.4-.1c-2.28-.31-4.57-.56-6.86-1a1.51,1.51,0,0,0-1.95.88l0,.16Zm5.6,10.81c.56,1.36,1.18,2.65,1.64,4a1.69,1.69,0,0,0,1.62,1.32c1.2.13,2.39.4,3.82.65-.34-.4-.54-.65-.75-.88-1.42-1.55-2.86-3.06-4.24-4.66a1.51,1.51,0,0,0-2.08-.46l0,0ZM79,102.35l-5.2-.66a.54.54,0,0,0-.42.15c-1,1.16-2,2.32-3.06,3.64.43-.08.67-.11.91-.16,2.11-.47,4.21-1,6.34-1.39A1.49,1.49,0,0,0,79,102.37ZM68.19,88.21c-.53-1.29-1.14-2.55-1.59-3.82a1.91,1.91,0,0,0-1.8-1.49c-1.17-.1-2.31-.39-3.66-.63.32.38.52.63.73.86,1.43,1.57,2.92,3.09,4.29,4.72A1.51,1.51,0,0,0,68.19,88.21Zm32.74,7.28c-.53,1.65-1.05,3.28-1.54,4.92a1,1,0,0,0,.21.71c.76,1,1.56,1.86,2.34,2.79l.58.68c-.11-2.61-.28-5-.31-7.45A1.48,1.48,0,0,0,100.93,95.48ZM95.08,109c.1-.23.16-.34.2-.46.7-2.17,1.34-4.36,2.1-6.5a1.51,1.51,0,0,0-.59-2,.61.61,0,0,0-.16.11c-1,1.32-2,2.64-3,4a.63.63,0,0,0-.11.5c.52,1.4,1.05,2.85,1.62,4.38Zm-31-35c0,.07-.06.1,0,.11,1,2.28,1.91,4.56,2.81,6.84.41,1,.52,1,1.69,1-.08-1.73-.14-3.47-.24-5.2a.62.62,0,0,0-.26-.44Q66,75.2,64,74.07Zm11-2.4c1-1.2,1.83-2.44,2.8-3.62a1.34,1.34,0,0,0,.27-1.59c-.53-1.2-1-2.46-1.41-3.82-.15.4-.26.64-.34.89-.65,2-1.25,4.12-2,6.14A1.54,1.54,0,0,0,75,71.68ZM86.6,110.74a2.64,2.64,0,0,0,.29-.25c1.42-1.84,2.81-3.73,4.29-5.53a1.5,1.5,0,0,0,.07-2.08c-1.48,1-2.94,1.85-4.4,2.79a.54.54,0,0,0-.22.38c0,1.56,0,3.08,0,4.72Zm21.25-13c-.09-.25-.12-.37-.17-.49L105,90.69c-.39-1-.46-1-1.47-1V95a.62.62,0,0,0,.3.42c1.29.76,2.62,1.5,4,2.31ZM61.45,90.93c.24.15.32.23.42.28l6.36,3.32c.76.4,1,.32,1.77-.46a35,35,0,0,1-2.36-2.65,2.46,2.46,0,0,0-3.2-1.05h-.2Zm36.13,7.86.61.7.53-1.81ZM69.77,78.91h.15l.53-1.16-.78-.35Zm18.14,24.43v-.17l-1.32.11.06.84Zm15-21.16.88-.18-1.24-1.32Zm.25,6,.89.18-.65-1.59h-.11ZM68.63,83.56l-.88-.14.61,1.45h.15Zm5-11.24-.47,1.62,1.09-1ZM71.2,95.18l-.71.48,1.39.74.08-.09Zm30.17-19.1L100,75.35l-.07.1.73,1.09ZM78.95,68.94l-1,1.31.08.08,1.16-.56Zm12.22.32.27-.8-1.79.34Zm-7.31-.86c1.38.19,1.42.16,1.2-.74ZM92.46,102l.34.77,1.11-1.43Zm-10.41.89-1.49-.4-.25.81ZM68.87,89.57l-.88.2,1.07,1.12.11-.06Zm6.38,10.12-.52.66,1.56.18v-.11Zm26.84-5.33L102,92.58,101.31,94ZM95.62,71.23l-.08.16,1,.66L97,71.4Z" transform="translate(8.76 4.89)"/><path class="cls-1" d="M91.44,85.85a5.52,5.52,0,1,1,0-.14S91.44,85.8,91.44,85.85Z" transform="translate(8.76 4.89)"/></g></g><rect class="cls-2" width="189" height="189"/><text class="cls-3" transform="translate(39 101.17)">WHEELS</text></g></g></svg>