<svg xmlns="http://www.w3.org/2000/svg" viewBox="0 0 282.58 282.88"><defs><style>.cls-1{fill:#1d1d1b;}</style></defs><title>Asset 20</title><g id="Layer_2" data-name="Layer 2"><g id="Layer_1-2" data-name="Layer 1"><path class="cls-1" d="M0,158.28V123.8l7.91-5.33c-7.9-9-3.31-24.35,7.64-28.83-3.21-12.84.52-20.2,12.88-25.81,1-.44,2.34-2.19,2.11-2.8-3.8-10.11,4.63-15.43,10.2-18.56a37.93,37.93,0,0,0,13.33-11.9c4.34-5.94,11.4-13.48,21.52-7.77C76.47,11.61,95.7,4.19,101.68,9.12c5.6-2.76,10.12-5.18,14.81-7.22,2.28-1,4.87-1.29,7.32-1.9h32.91l7,7.75A19.33,19.33,0,0,1,191.37,14c.61,1.06,3.37,1.83,4.7,1.39,8.6-2.84,20.14,3.53,22.53,12.36.3,1.1,3.09,2.35,4.57,2.17,6.41-.76,20.15,9.73,19.13,15.77-.86,5.11.19,6.07,4.95,5.38a5.9,5.9,0,0,1,4.66,2.24c4.6,6.71,13,12.12,7.81,22.14C271.2,79.2,276.35,92.19,271.48,104c9.6,4.36,12.28,19,5.36,29.21,7.94,7,8.09,23.73-2.34,31.35,7.77,7.47,1.69,26.42-8.11,29.07,4,12.06-1.35,22-14.68,27.32,2,11.17-6.51,20.54-20.54,22.59-1.66,12.09-13.35,20.22-24.45,17-5.3,11.86-17.88,17-28.91,11.05-2.34,11.86-13.28,10.66-20,9.53s-11.83-.58-18.24.73c-7.46,1.52-17,2.88-21-7.54-9.72,7.87-24,3.84-28.21-5.26-6.67-1.43-12.06-1.71-16.62-3.81s-11.74-3.38-10.21-11.63c.1-.56-2.09-2.34-2.65-2.12-9,3.55-13.3-3.89-17.31-8.72-4.61-5.54-6.94-12-14.38-16.12-6.12-3.38-11.6-11.29-6.83-20.37C10.91,203.66,5.38,189.59,11,178.1c-7.86-1.5-8.41-7.86-9.34-14.06A44.19,44.19,0,0,0,0,158.28Zm151.88-20.49.35,1.22h90.27l-8-37.05Zm-21.71,6.47-.36-1.16H39.52l8.1,37Zm9-104.51-37.23,7.92,36,82.59,1.27-.61Zm41,194.8-35.95-82.79-1.19.44v90.26ZM146.56,130.78l63.36-63.52L179.45,47.14Zm-14.4,5.27L67.57,71.67,47.12,102.58Zm82.32,74.41,20.47-31-84.78-33.32ZM102.54,235.11,136,149.79,71.7,214.38ZM142.91,39.8v88.91l1.28.35,32.3-82.47Zm71.7,32.76-61.9,61.86,80.46-35Zm-75.36,81L138,153.2l-32.44,82.23,33.71,6.83Zm103-10.63H153.34l-.37,1.29,82.7,32.29Zm-95.59,7.6,36.28,82.74,27.21-19Zm-100.37-45L40,139h88.4l.16-1.07ZM67.76,210.36,129,148.12l-80,34.75ZM71,68.33l63.91,63L99.14,48.86Z"/></g></g></svg>