<svg xmlns="http://www.w3.org/2000/svg" viewBox="0 0 441.6 441.28"><defs><style>.cls-1{fill:#1d1d1b;}</style></defs><title>Asset 5</title><g id="Layer_2" data-name="Layer 2"><g id="Layer_1-2" data-name="Layer 1"><path class="cls-1" d="M222.29,0c-59.85-.39-113,20.91-156.11,63.48C22.93,106.25.1,158.64,0,219.54c-.21,124.2,99.33,220.2,217.95,221.72,124.19,1.59,223.81-99,223.65-220.09C441.91,99.54,345.37.81,222.29,0Zm125.65,69a84.5,84.5,0,0,1,13.14,11,197.18,197.18,0,0,1,48.17,78.24c5.54,16.93,4.85,45.52-19.73,46-53.55,1-107.08,2-160.64,1.21,10.44-21.17,24.17-41,36.38-61.22,11.2-18.51,22.31-37.06,33.56-55.54,8.08-13.26,16-28.86,34.44-25.7A39,39,0,0,1,347.94,69.05Zm-214.32-8.4a21.83,21.83,0,0,1,.36-5.56c2.69-13.57,17.77-20.37,31.1-24.06,32.21-8.91,66.69-12.21,99-3.75,12.5,3.27,26.24,10.22,28.62,22.92,1.67,8.92-2.92,17.68-7.35,25.6q-33.84,60.39-67.7,120.78a54.62,54.62,0,0,1-4.17,6.65c-2.14,2.78-3.39,2.57-5.1-.53q-33.46-60.58-67-121.12C137.78,75,134.05,67.92,133.62,60.65ZM229.39,220a10.79,10.79,0,1,1-10.79-10.79A10.79,10.79,0,0,1,229.39,220ZM25.94,188.85a77.25,77.25,0,0,1,1.82-12.33A196.29,196.29,0,0,1,72.31,89.66c9-10.16,21.92-20.12,34.95-16.24,9.4,2.8,15.27,11.88,20.3,20.29,0,8.4,15.75,26.32,20.22,33.78l21.48,35.89,21.48,35.89c2.47,4.13,18.76,24.34,6,24.4h-5.25v-.49c0,.29-119.74-2.12-130.39-2.33-9.45-.19-19.73-.68-26.89-6.86S25.38,198.44,25.94,188.85ZM94.69,373C71,354.2,53.38,330.71,41.32,303.16a244.26,244.26,0,0,1-11.75-33.09c-4.29-15.61,8.24-31.25,24.41-31.41,30-.3,60-.5,89.94-.77,20.61-.19,41.22-.46,61.83-.59,1.92,0,3.84.74,6.39,1.27-4.26,7-8,13-11.64,19.1q-19.17,31.73-38.3,63.47c-9.08,15.07-18,30.25-27.23,45.22C126.49,380.09,108.54,383.94,94.69,373Zm194.56,33.26A335.67,335.67,0,0,1,250,416.8c-9,1.83-18.36,1.6-23.72,2-22.41-.34-40.64-2.68-58.5-7.72-15.73-4.44-23.5-23.86-15.29-38.7q17.58-31.79,35.41-63.44,18.69-33.31,37.5-66.56a12,12,0,0,1,1.4-2.2c2.41-2.67,4.29-2.48,6,.7,4.26,7.77,8.4,15.61,12.68,23.37q24.06,43.6,48.18,87.16c3.68,6.66,7.89,13.09,10.93,20A25.61,25.61,0,0,1,289.25,406.24ZM405.58,291.71c-5.83,17.14-14.88,32.71-26,47-6.13,7.86-12.74,15.38-19.6,22.59-5,5.28-11.3,8.63-18.24,8-11.38.3-19.29-4.2-24.68-13.25q-31.6-53.11-63.19-106.23c-4.47-7.51-9-15-13.44-22.51a12.1,12.1,0,0,1-1.37-4.18c-.42-2.65.66-3.8,3.57-3.68,12.35.52,24.7.95,37.06,1.21,31,.65,61.94,1.14,92.91,1.8a179.78,179.78,0,0,1,20.54,1.2c15.75,2.16,26,16.67,22.48,32.16A366.07,366.07,0,0,1,405.58,291.71Z"/></g></g></svg>