<svg xmlns="http://www.w3.org/2000/svg" viewBox="0 0 558.8 345.22"><title>Asset 4</title><g id="Layer_2" data-name="Layer 2"><g id="Layer_1-2" data-name="Layer 1"><path d="M.4,310.22C.23,308.81,0,307.91,0,307c0-1.27-.22-2.71.28-3.78A12.8,12.8,0,0,0,1.57,297a27.16,27.16,0,0,1,0-4.53,12.47,12.47,0,0,1,1.09-4.14A97.22,97.22,0,0,1,8.55,277.9c4-5.92,8.2-11.77,12.64-17.39q42.4-53.72,84.94-107.34,22.2-28.06,44.33-56.17c.66-.84,1.27-1.72,1.93-2.56,2.53-3.21,3.55-6.74,2.32-10.76q-2.58-8.48-5.16-17-7.92-26.19-15.84-52.38c-.77-2.53-1.49-5.07-2.39-7.56-.61-1.69-.38-2.73,1.45-3.28Q138,1.92,143.2.21c1.91-.63,2.7.19,3.23,2q4.42,15,9,30,4.49,14.8,9,29.57c.29,1,.66,1.9,1,2.83,2.58,6.39,6.74,9,13.63,7.93,10.19-1.58,20.33-3.44,30.49-5.22,22.55-4,45.08-8,67.64-11.9,15.11-2.6,30.25-5.09,45.41-7.38,14-2.11,28-4,42-5.79,14.6-1.85,29.23-3.51,43.85-5.13,8.32-.92,16.66-1.52,25-2.4a13.07,13.07,0,0,0,7.14-2.75,17.55,17.55,0,0,1,10.37-3.64c2.26-.08,4.44-1.49,6.72-2a7.85,7.85,0,0,1,3.72.51A3.39,3.39,0,0,1,463,28.4q3.77,6.43,7.42,12.94a4.39,4.39,0,0,1,.74,2.29c-.35,3.9,1,7.45,2.14,11q6,19.68,12,39.33c.18.6.32,1.22.54,1.81.68,1.9.82,3.62-1.72,4.69,2.65-.7,3,.91,3.44,2.66.74,2.92,1.5,5.86,2.51,8.69.81,2.25,2.2,4.29,3,6.54.42,1.25.06,2.77.09,4.16a6.51,6.51,0,0,0,.18,1.84c2.65,8.26,5,16.62,8,24.74,11,29.72,22.11,59.43,33.47,89,5.41,14.08,11.44,27.93,17.3,41.84,1.21,2.88,3,5.53,4.43,8.31a27.06,27.06,0,0,1,1.95,4.06,5.43,5.43,0,0,1-1.19,5.33c-2-4-3.76.12-5.61-.32-.12.26-.22.37-.22.48,0,.71.11,1.43.17,2.14-.77-.13-1.78,0-2.26-.42-1.68-1.54-3.64-3-4.64-5-2.15-4.17-3.6-8.71-5.64-12.94-6.89-14.28-14.08-28.41-20.84-42.74q-19.58-41.47-38.79-83.11c-5.12-11.07-9.93-22.29-14.8-33.47-1.68-3.86-3.19-7.8-4.63-11.76-.31-.85,0-1.92,0-3.19-2.86-.59-5.4,1.09-7.54,3.34-4.61,4.82-9.13,9.74-13.58,14.7-32.6,36.29-65.29,72.5-97.71,108.95-20.54,23.09-40.65,46.57-61,69.84-8.86,10.14-17.73,20.28-26.75,30.29a53.16,53.16,0,0,1-9.08,8.38c-4.64,3.19-10,2.58-15.34,1.64-24.59-4.36-48.56-11.36-72.82-17.15-39.89-9.53-79.7-19.39-119.55-29.09-4.7-1.15-9.45-2.14-14.16-3.24a2.21,2.21,0,0,0-2.33.54,3.5,3.5,0,0,1-2.82.64,3.29,3.29,0,0,0-3,.3,5.45,5.45,0,0,1-1.95.68c-2.52.48-2.64.67-2.94,3.36a36.72,36.72,0,0,1-1,6.31C7.46,310.4,2.93,312,.4,310.22Zm245-6.48c4.12-.11,7.15-2.2,9.67-4.88,6.58-7,13.16-14.07,19.39-21.4,20.54-24.17,41.08-48.34,61.34-72.75,22-26.49,43.69-53.22,65.42-79.92,11.44-14.05,22.68-28.27,34-42.41a32.89,32.89,0,0,0,7.56-18.57c.36-4.94-.64-6.33-5.7-6.75-.19,0-.38,0-.57,0-6.1.08-12.21,0-18.3.29-12.88.58-25.77,1.14-38.63,2.06-14,1-27.94,2.34-41.89,3.68q-16,1.54-32,3.48c-11.22,1.37-22.44,2.82-33.62,4.51q-19,2.89-37.94,6.3c-12.07,2.16-24.1,4.54-36.11,7a114.88,114.88,0,0,0-15.88,4c-6.61,2.37-8.44,6.16-6.69,12.87s3.9,13.26,5.93,19.87Q193.5,161,205.74,200.9c3.38,11,6.85,22,10.24,33,5,16.22,9.94,32.45,15,48.66a64.3,64.3,0,0,0,7.52,16.82C240.11,301.81,242.25,303.72,245.35,303.75ZM206.5,315.9l.06-.59c1.13,0,2.27,0,3.4,0,1.38-.07,2.76-.2,4.13-.35,3.3-.36,5.07-2.05,5.15-5.34a66.45,66.45,0,0,0-2.94-20.27c-5.34-18.41-10.83-36.78-16.21-55.18q-14.18-48.46-28.34-96.92c-3-10.19-6.22-20.32-9.41-30.45-1.47-4.7-3.7-5.41-7.35-2.09a82,82,0,0,0-9.18,9.47q-45.9,57.58-91.62,115.31C43,243.62,31.91,257.9,20.82,272.15c-3.17,4.08-2.15,7.94,2.6,10a35.77,35.77,0,0,0,5.87,2c16.13,4,32.2,8.19,48.42,11.71,29.52,6.41,59.2,12.08,89.2,15.82C180.08,313.41,193.3,314.54,206.5,315.9Zm36.94,13.89c-.06-4-2.34-7.22-6.1-8.06a5.92,5.92,0,0,0-4.06.51,8.09,8.09,0,0,0-2.37,11.15,7.71,7.71,0,0,0,7.64,3.87c1.9-.17,4.1-2.78,4.68-5.42A18.09,18.09,0,0,0,243.44,329.79ZM4.62,307.87c1.17,0,1.95-1,1.93-2.52a2.3,2.3,0,0,0-2.31-2.43,2.83,2.83,0,0,0-2.4,2.7C1.83,306.73,3.27,307.89,4.62,307.87Zm-2.79-4.54c1.35-1.72,3-1.55,5.16-.59C5,300.86,3.33,301.14,1.83,303.32Z"/></g></g></svg>